<?xml version="1.0" encoding="UTF-8" standalone="no"?>
<!-- Created with Inkscape (http://www.inkscape.org/) -->

<svg
   xmlns:dc="http://purl.org/dc/elements/1.1/"
   xmlns:cc="http://creativecommons.org/ns#"
   xmlns:rdf="http://www.w3.org/1999/02/22-rdf-syntax-ns#"
   xmlns:svg="http://www.w3.org/2000/svg"
   xmlns="http://www.w3.org/2000/svg"
   xmlns:sodipodi="http://sodipodi.sourceforge.net/DTD/sodipodi-0.dtd"
   xmlns:inkscape="http://www.inkscape.org/namespaces/inkscape"
   width="20mm"
   height="80mm"
   viewBox="0 0 70.866142 283.46457"
   id="svg36158"
   version="1.1"
   inkscape:version="0.91 r13725"
   sodipodi:docname="ATMEGA128_pcb.svg">
  <defs
     id="defs36160" />
  <sodipodi:namedview
     id="base"
     pagecolor="#ffffff"
     bordercolor="#666666"
     borderopacity="1.0"
     inkscape:pageopacity="0.0"
     inkscape:pageshadow="2"
     inkscape:zoom="0.7"
     inkscape:cx="-58.68273"
     inkscape:cy="167.95967"
     inkscape:document-units="px"
     inkscape:current-layer="layer1"
     showgrid="false"
     inkscape:window-width="1366"
     inkscape:window-height="705"
     inkscape:window-x="-8"
     inkscape:window-y="-8"
     inkscape:window-maximized="1" />
  <metadata
     id="metadata36163">
    <rdf:RDF>
      <cc:Work
         rdf:about="">
        <dc:format>image/svg+xml</dc:format>
        <dc:type
           rdf:resource="http://purl.org/dc/dcmitype/StillImage" />
        <dc:title></dc:title>
      </cc:Work>
    </rdf:RDF>
  </metadata>
  <g
     inkscape:label="Layer 1"
     inkscape:groupmode="layer"
     id="layer1"
     transform="translate(0,-768.89764)">
    <g
       id="g37238"
       transform="translate(-282.84271,547.39064)">
      <g
         id="copper1">
        <g
           id="copper0">
          <g
             style="display:inline"
             id="silkscreen"
             transform="matrix(0,-1,1,0,161.43786,381.90094)">
            <path
               inkscape:connector-curvature="0"
               style="display:inline;fill:none;stroke:#ffffff;stroke-width:1.25;stroke-linecap:butt;stroke-linejoin:miter;stroke-miterlimit:4;stroke-dasharray:none;stroke-opacity:1"
               id="path14906"
               d="m 9.0014603,159.74862 0,-31.5 65.2499997,0 0,4.5 13.5,0 0,-4.5 65.25,0 0,31.5 z" />
            <path
               inkscape:connector-curvature="0"
               style="fill:#ffffff;fill-opacity:1;stroke:#ffffff;stroke-width:0.44999999;stroke-linecap:butt;stroke-linejoin:miter;stroke-miterlimit:4;stroke-dasharray:none;stroke-opacity:1"
               id="path4994"
               d="m 132.75,134.55 2.25,-3.6 2.25,3.6 z" />
          </g>
          <path
             inkscape:connector-curvature="0"
             d="m 311.12061,266.69155 a 2.25,2.25 0 0 1 0,4.5 2.25,2.25 0 1 1 0,-4.5 z"
             id="connector5pad"
             style="display:inline;fill:none;stroke:#f7bd13;stroke-width:1.79999995;stroke-linecap:round;stroke-linejoin:miter;stroke-miterlimit:4;stroke-dasharray:none;stroke-opacity:1" />
          <path
             inkscape:connector-curvature="0"
             d="m 311.12061,275.69155 a 2.25,2.25 0 0 1 0,4.5 2.25,2.25 0 1 1 0,-4.5 z"
             id="connector7pad"
             style="display:inline;fill:none;stroke:#f7bd13;stroke-width:1.79999995;stroke-linecap:round;stroke-linejoin:miter;stroke-miterlimit:4;stroke-dasharray:none;stroke-opacity:1" />
          <path
             inkscape:connector-curvature="0"
             d="m 311.12061,284.69155 a 2.25,2.25 0 0 1 0,4.5 2.25,2.25 0 1 1 0,-4.5 z"
             id="connector9pad"
             style="display:inline;fill:none;stroke:#f7bd13;stroke-width:1.79999995;stroke-linecap:round;stroke-linejoin:miter;stroke-miterlimit:4;stroke-dasharray:none;stroke-opacity:1" />
          <path
             inkscape:connector-curvature="0"
             d="m 311.12061,311.69155 a 2.25,2.25 0 0 1 0,4.5 2.25,2.25 0 1 1 0,-4.5 z"
             id="connector15pad"
             style="display:inline;fill:none;stroke:#f7bd13;stroke-width:1.79999995;stroke-linecap:round;stroke-linejoin:miter;stroke-miterlimit:4;stroke-dasharray:none;stroke-opacity:1" />
          <path
             inkscape:connector-curvature="0"
             d="m 311.12061,320.69155 a 2.25,2.25 0 0 1 0,4.5 2.25,2.25 0 1 1 0,-4.5 z"
             id="connector17pad"
             style="display:inline;fill:none;stroke:#f7bd13;stroke-width:1.79999995;stroke-linecap:round;stroke-linejoin:miter;stroke-miterlimit:4;stroke-dasharray:none;stroke-opacity:1" />
          <path
             inkscape:connector-curvature="0"
             d="m 311.12061,329.69155 a 2.25,2.25 0 0 1 0,4.5 2.25,2.25 0 1 1 0,-4.5 z"
             id="connector19pad"
             style="display:inline;fill:none;stroke:#f7bd13;stroke-width:1.79999995;stroke-linecap:round;stroke-linejoin:miter;stroke-miterlimit:4;stroke-dasharray:none;stroke-opacity:1" />
          <path
             inkscape:connector-curvature="0"
             d="m 311.12061,293.69155 a 2.25,2.25 0 0 1 0,4.5 2.25,2.25 0 1 1 0,-4.5 z"
             id="connector11pad"
             style="display:inline;fill:none;stroke:#f7bd13;stroke-width:1.79999995;stroke-linecap:round;stroke-linejoin:miter;stroke-miterlimit:4;stroke-dasharray:none;stroke-opacity:1" />
          <path
             inkscape:connector-curvature="0"
             d="m 311.12061,302.69155 a 2.25,2.25 0 0 1 0,4.5 2.25,2.25 0 1 1 0,-4.5 z"
             id="connector13pad"
             style="display:inline;fill:none;stroke:#f7bd13;stroke-width:1.79999995;stroke-linecap:round;stroke-linejoin:miter;stroke-miterlimit:4;stroke-dasharray:none;stroke-opacity:1" />
          <path
             inkscape:connector-curvature="0"
             d="m 311.12061,347.69154 a 2.25,2.25 0 0 1 0,4.5 2.25,2.25 0 1 1 0,-4.5 z"
             id="connector23pad"
             style="display:inline;fill:none;stroke:#f7bd13;stroke-width:1.79999995;stroke-linecap:round;stroke-linejoin:miter;stroke-miterlimit:4;stroke-dasharray:none;stroke-opacity:1" />
          <path
             inkscape:connector-curvature="0"
             d="m 311.12061,356.69154 a 2.25,2.25 0 0 1 0,4.5 2.25,2.25 0 1 1 0,-4.5 z"
             id="connector25pad"
             style="display:inline;fill:none;stroke:#f7bd13;stroke-width:1.79999995;stroke-linecap:round;stroke-linejoin:miter;stroke-miterlimit:4;stroke-dasharray:none;stroke-opacity:1" />
          <path
             inkscape:connector-curvature="0"
             d="m 311.12061,338.69154 a 2.25,2.25 0 0 1 0,4.5 2.25,2.25 0 1 1 0,-4.5 z"
             id="connector21pad"
             style="display:inline;fill:none;stroke:#f7bd13;stroke-width:1.79999995;stroke-linecap:round;stroke-linejoin:miter;stroke-miterlimit:4;stroke-dasharray:none;stroke-opacity:1" />
          <path
             inkscape:connector-curvature="0"
             d="m 328.12061,266.69155 a 2.25,2.25 0 0 1 0,4.5 2.25,2.25 0 1 1 0,-4.5 z"
             id="connector6pad"
             style="display:inline;fill:none;stroke:#f7bd13;stroke-width:1.79999995;stroke-linecap:round;stroke-linejoin:miter;stroke-miterlimit:4;stroke-dasharray:none;stroke-opacity:1" />
          <path
             inkscape:connector-curvature="0"
             d="m 328.12061,275.69155 a 2.25,2.25 0 0 1 0,4.5 2.25,2.25 0 1 1 0,-4.5 z"
             id="connector8pad"
             style="display:inline;fill:none;stroke:#f7bd13;stroke-width:1.79999995;stroke-linecap:round;stroke-linejoin:miter;stroke-miterlimit:4;stroke-dasharray:none;stroke-opacity:1" />
          <path
             inkscape:connector-curvature="0"
             d="m 328.12061,284.69155 a 2.25,2.25 0 0 1 0,4.5 2.25,2.25 0 1 1 0,-4.5 z"
             id="connector10pad"
             style="display:inline;fill:none;stroke:#f7bd13;stroke-width:1.79999995;stroke-linecap:round;stroke-linejoin:miter;stroke-miterlimit:4;stroke-dasharray:none;stroke-opacity:1" />
          <path
             inkscape:connector-curvature="0"
             d="m 328.12061,311.69155 a 2.25,2.25 0 0 1 0,4.5 2.25,2.25 0 1 1 0,-4.5 z"
             id="connector16pad"
             style="display:inline;fill:none;stroke:#f7bd13;stroke-width:1.79999995;stroke-linecap:round;stroke-linejoin:miter;stroke-miterlimit:4;stroke-dasharray:none;stroke-opacity:1" />
          <path
             inkscape:connector-curvature="0"
             d="m 328.12061,320.69155 a 2.25,2.25 0 0 1 0,4.5 2.25,2.25 0 1 1 0,-4.5 z"
             id="connector18pad"
             style="display:inline;fill:none;stroke:#f7bd13;stroke-width:1.79999995;stroke-linecap:round;stroke-linejoin:miter;stroke-miterlimit:4;stroke-dasharray:none;stroke-opacity:1" />
          <path
             inkscape:connector-curvature="0"
             d="m 328.12061,329.69155 a 2.25,2.25 0 0 1 0,4.5 2.25,2.25 0 1 1 0,-4.5 z"
             id="connector20pad"
             style="display:inline;fill:none;stroke:#f7bd13;stroke-width:1.79999995;stroke-linecap:round;stroke-linejoin:miter;stroke-miterlimit:4;stroke-dasharray:none;stroke-opacity:1" />
          <path
             inkscape:connector-curvature="0"
             d="m 328.12061,293.69155 a 2.25,2.25 0 0 1 0,4.5 2.25,2.25 0 1 1 0,-4.5 z"
             id="connector12pad"
             style="display:inline;fill:none;stroke:#f7bd13;stroke-width:1.79999995;stroke-linecap:round;stroke-linejoin:miter;stroke-miterlimit:4;stroke-dasharray:none;stroke-opacity:1" />
          <path
             inkscape:connector-curvature="0"
             d="m 328.12061,302.69155 a 2.25,2.25 0 0 1 0,4.5 2.25,2.25 0 1 1 0,-4.5 z"
             id="connector14pad"
             style="display:inline;fill:none;stroke:#f7bd13;stroke-width:1.79999995;stroke-linecap:round;stroke-linejoin:miter;stroke-miterlimit:4;stroke-dasharray:none;stroke-opacity:1" />
          <path
             inkscape:connector-curvature="0"
             d="m 328.12061,347.69154 a 2.25,2.25 0 0 1 0,4.5 2.25,2.25 0 1 1 0,-4.5 z"
             id="connector24pad"
             style="display:inline;fill:none;stroke:#f7bd13;stroke-width:1.79999995;stroke-linecap:round;stroke-linejoin:miter;stroke-miterlimit:4;stroke-dasharray:none;stroke-opacity:1" />
          <path
             inkscape:connector-curvature="0"
             d="m 328.12061,356.69154 a 2.25,2.25 0 0 1 0,4.5 2.25,2.25 0 1 1 0,-4.5 z"
             id="connector26pad"
             style="display:inline;fill:none;stroke:#f7bd13;stroke-width:1.79999995;stroke-linecap:round;stroke-linejoin:miter;stroke-miterlimit:4;stroke-dasharray:none;stroke-opacity:1" />
          <path
             inkscape:connector-curvature="0"
             d="m 328.12061,338.69154 a 2.25,2.25 0 0 1 0,4.5 2.25,2.25 0 1 1 0,-4.5 z"
             id="connector22pad"
             style="display:inline;fill:none;stroke:#f7bd13;stroke-width:1.79999995;stroke-linecap:round;stroke-linejoin:miter;stroke-miterlimit:4;stroke-dasharray:none;stroke-opacity:1" />
          <path
             inkscape:connector-curvature="0"
             d="m 328.12061,248.69155 a 2.25,2.25 0 0 1 0,4.5 2.25,2.25 0 1 1 0,-4.5 z"
             id="connector2pad"
             style="display:inline;fill:none;stroke:#f7bd13;stroke-width:1.79999995;stroke-linecap:round;stroke-linejoin:miter;stroke-miterlimit:4;stroke-dasharray:none;stroke-opacity:1" />
          <path
             inkscape:connector-curvature="0"
             d="m 328.12061,257.69155 a 2.25,2.25 0 0 1 0,4.5 2.25,2.25 0 1 1 0,-4.5 z"
             id="connector4pad"
             style="display:inline;fill:none;stroke:#f7bd13;stroke-width:1.79999995;stroke-linecap:round;stroke-linejoin:miter;stroke-miterlimit:4;stroke-dasharray:none;stroke-opacity:1" />
          <rect
             transform="matrix(0,-1,1,0,0,0)"
             width="4.5"
             height="4.5"
             x="-253.1915"
             y="308.87061"
             id="rect4984"
             style="display:inline;fill:none;stroke:#f7bd13;stroke-width:1.79999995;stroke-linecap:round;stroke-linejoin:miter;stroke-miterlimit:4;stroke-dasharray:none;stroke-opacity:1" />
          <path
             inkscape:connector-curvature="0"
             d="m 311.12061,248.69155 a 2.25,2.25 0 0 1 0,4.5 2.25,2.25 0 1 1 0,-4.5 z"
             id="connector1pad"
             style="fill:none;stroke:#f7bd13;stroke-width:1.79999995;stroke-linecap:round;stroke-linejoin:miter;stroke-miterlimit:4;stroke-dasharray:none;stroke-opacity:1" />
          <path
             inkscape:connector-curvature="0"
             d="m 311.12061,257.69155 a 2.25,2.25 0 0 1 0,4.5 2.25,2.25 0 1 1 0,-4.5 z"
             id="connector3pad"
             style="fill:none;stroke:#f7bd13;stroke-width:1.79999995;stroke-linecap:round;stroke-linejoin:miter;stroke-miterlimit:4;stroke-dasharray:none;stroke-opacity:1" />
          <g
             transform="matrix(0,-1,1,0,-571.96958,124.4757)"
             id="g18883">
            <path
               inkscape:connector-curvature="0"
               style="display:inline;fill:none;stroke:#f7bd13;stroke-width:1.79999995;stroke-linecap:round;stroke-linejoin:miter;stroke-miterlimit:4;stroke-dasharray:none;stroke-opacity:1"
               id="connector6pad-8"
               d="m -109.09647,881.5081 a 2.25,2.25 0 0 1 0,4.5 2.25,2.25 0 1 1 0,-4.5 z" />
            <path
               inkscape:connector-curvature="0"
               style="display:inline;fill:none;stroke:#f7bd13;stroke-width:1.79999995;stroke-linecap:round;stroke-linejoin:miter;stroke-miterlimit:4;stroke-dasharray:none;stroke-opacity:1"
               id="connector8pad-5"
               d="m -109.09647,890.5081 a 2.25,2.25 0 0 1 0,4.5 2.25,2.25 0 1 1 0,-4.5 z" />
            <path
               inkscape:connector-curvature="0"
               style="display:inline;fill:none;stroke:#f7bd13;stroke-width:1.79999995;stroke-linecap:round;stroke-linejoin:miter;stroke-miterlimit:4;stroke-dasharray:none;stroke-opacity:1"
               id="connector10pad-0"
               d="m -109.09647,899.5081 a 2.25,2.25 0 0 1 0,4.5 2.25,2.25 0 1 1 0,-4.5 z" />
            <path
               inkscape:connector-curvature="0"
               style="display:inline;fill:none;stroke:#f7bd13;stroke-width:1.79999995;stroke-linecap:round;stroke-linejoin:miter;stroke-miterlimit:4;stroke-dasharray:none;stroke-opacity:1"
               id="connector12pad-5"
               d="m -109.09647,908.5081 a 2.25,2.25 0 0 1 0,4.5 2.25,2.25 0 1 1 0,-4.5 z" />
            <path
               inkscape:connector-curvature="0"
               style="display:inline;fill:none;stroke:#f7bd13;stroke-width:1.79999995;stroke-linecap:round;stroke-linejoin:miter;stroke-miterlimit:4;stroke-dasharray:none;stroke-opacity:1"
               id="connector14pad-6"
               d="m -109.09647,917.5081 a 2.25,2.25 0 0 1 0,4.49998 2.25,2.25 0 1 1 0,-4.49998 z" />
            <path
               inkscape:connector-curvature="0"
               style="display:inline;fill:none;stroke:#f7bd13;stroke-width:1.79999995;stroke-linecap:round;stroke-linejoin:miter;stroke-miterlimit:4;stroke-dasharray:none;stroke-opacity:1"
               id="connector2pad-2"
               d="m -109.09647,863.5081 a 2.25,2.25 0 0 1 0,4.5 2.25,2.25 0 1 1 0,-4.5 z" />
            <path
               inkscape:connector-curvature="0"
               style="display:inline;fill:none;stroke:#f7bd13;stroke-width:1.79999995;stroke-linecap:round;stroke-linejoin:miter;stroke-miterlimit:4;stroke-dasharray:none;stroke-opacity:1"
               id="connector4pad-7"
               d="m -109.09647,872.5081 a 2.25,2.25 0 0 1 0,4.5 2.25,2.25 0 1 1 0,-4.5 z" />
          </g>
          <path
             inkscape:connector-curvature="0"
             d="m 311.46921,374.62135 a 2.25,2.25 0 0 1 0,4.5 2.25,2.25 0 1 1 0,-4.5 z"
             id="connector15pad-1"
             style="display:inline;fill:none;stroke:#f7bd13;stroke-width:1.79999995;stroke-linecap:round;stroke-linejoin:miter;stroke-miterlimit:4;stroke-dasharray:none;stroke-opacity:1" />
          <path
             inkscape:connector-curvature="0"
             d="m 311.46921,383.62135 a 2.25,2.25 0 0 1 0,4.5 2.25,2.25 0 1 1 0,-4.5 z"
             id="connector17pad-8"
             style="display:inline;fill:none;stroke:#f7bd13;stroke-width:1.79999995;stroke-linecap:round;stroke-linejoin:miter;stroke-miterlimit:4;stroke-dasharray:none;stroke-opacity:1" />
          <path
             inkscape:connector-curvature="0"
             d="m 311.46921,392.62135 a 2.25,2.25 0 0 1 0,4.5 2.25,2.25 0 1 1 0,-4.5 z"
             id="connector19pad-1"
             style="display:inline;fill:none;stroke:#f7bd13;stroke-width:1.79999995;stroke-linecap:round;stroke-linejoin:miter;stroke-miterlimit:4;stroke-dasharray:none;stroke-opacity:1" />
          <path
             inkscape:connector-curvature="0"
             d="m 311.46921,365.62135 a 2.25,2.25 0 0 1 0,4.5 2.25,2.25 0 1 1 0,-4.5 z"
             id="connector13pad-4"
             style="display:inline;fill:none;stroke:#f7bd13;stroke-width:1.79999995;stroke-linecap:round;stroke-linejoin:miter;stroke-miterlimit:4;stroke-dasharray:none;stroke-opacity:1" />
          <path
             inkscape:connector-curvature="0"
             d="m 311.46921,410.62134 a 2.25,2.25 0 0 1 0,4.5 2.25,2.25 0 1 1 0,-4.5 z"
             id="connector23pad-5"
             style="display:inline;fill:none;stroke:#f7bd13;stroke-width:1.79999995;stroke-linecap:round;stroke-linejoin:miter;stroke-miterlimit:4;stroke-dasharray:none;stroke-opacity:1" />
          <path
             inkscape:connector-curvature="0"
             d="m 311.46921,419.62134 a 2.25,2.25 0 0 1 0,4.5 2.25,2.25 0 1 1 0,-4.5 z"
             id="connector25pad-6"
             style="display:inline;fill:none;stroke:#f7bd13;stroke-width:1.79999995;stroke-linecap:round;stroke-linejoin:miter;stroke-miterlimit:4;stroke-dasharray:none;stroke-opacity:1" />
          <path
             inkscape:connector-curvature="0"
             d="m 311.46921,401.62134 a 2.250002,2.250002 0 0 1 0,4.5 2.250002,2.250002 0 1 1 0,-4.5 z"
             id="connector21pad-8"
             style="display:inline;fill:none;stroke:#f7bd13;stroke-width:1.79999995;stroke-linecap:round;stroke-linejoin:miter;stroke-miterlimit:4;stroke-dasharray:none;stroke-opacity:1" />
          <path
             inkscape:connector-curvature="0"
             d="m 328.46921,374.62135 a 2.25,2.25 0 0 1 0,4.5 2.25,2.25 0 1 1 0,-4.5 z"
             id="connector16pad-5"
             style="display:inline;fill:none;stroke:#f7bd13;stroke-width:1.79999995;stroke-linecap:round;stroke-linejoin:miter;stroke-miterlimit:4;stroke-dasharray:none;stroke-opacity:1" />
          <path
             inkscape:connector-curvature="0"
             d="m 328.46921,383.62135 a 2.25,2.25 0 0 1 0,4.5 2.25,2.25 0 1 1 0,-4.5 z"
             id="connector18pad-7"
             style="display:inline;fill:none;stroke:#f7bd13;stroke-width:1.79999995;stroke-linecap:round;stroke-linejoin:miter;stroke-miterlimit:4;stroke-dasharray:none;stroke-opacity:1" />
          <path
             inkscape:connector-curvature="0"
             d="m 328.46921,392.62135 a 2.25,2.25 0 0 1 0,4.5 2.25,2.25 0 1 1 0,-4.5 z"
             id="connector20pad-0"
             style="display:inline;fill:none;stroke:#f7bd13;stroke-width:1.79999995;stroke-linecap:round;stroke-linejoin:miter;stroke-miterlimit:4;stroke-dasharray:none;stroke-opacity:1" />
          <path
             inkscape:connector-curvature="0"
             d="m 328.46921,365.62135 a 2.25,2.25 0 0 1 0,4.5 2.25,2.25 0 1 1 0,-4.5 z"
             id="connector14pad-2"
             style="display:inline;fill:none;stroke:#f7bd13;stroke-width:1.79999995;stroke-linecap:round;stroke-linejoin:miter;stroke-miterlimit:4;stroke-dasharray:none;stroke-opacity:1" />
          <path
             inkscape:connector-curvature="0"
             d="m 328.46921,410.62134 a 2.25,2.25 0 0 1 0,4.5 2.25,2.25 0 1 1 0,-4.5 z"
             id="connector24pad-9"
             style="display:inline;fill:none;stroke:#f7bd13;stroke-width:1.79999995;stroke-linecap:round;stroke-linejoin:miter;stroke-miterlimit:4;stroke-dasharray:none;stroke-opacity:1" />
          <path
             inkscape:connector-curvature="0"
             d="m 328.46921,419.62134 a 2.25,2.25 0 0 1 0,4.5 2.25,2.25 0 1 1 0,-4.5 z"
             id="connector26pad-6"
             style="display:inline;fill:none;stroke:#f7bd13;stroke-width:1.79999995;stroke-linecap:round;stroke-linejoin:miter;stroke-miterlimit:4;stroke-dasharray:none;stroke-opacity:1" />
          <path
             inkscape:connector-curvature="0"
             d="m 328.46921,401.62134 a 2.250002,2.250002 0 0 1 0,4.5 2.250002,2.250002 0 1 1 0,-4.5 z"
             id="connector22pad-3"
             style="display:inline;fill:none;stroke:#f7bd13;stroke-width:1.79999995;stroke-linecap:round;stroke-linejoin:miter;stroke-miterlimit:4;stroke-dasharray:none;stroke-opacity:1" />
          <path
             inkscape:connector-curvature="0"
             d="m 312.75427,429.36159 a 2.25,2.25 0 0 1 0,4.5 2.25,2.25 0 1 1 0,-4.5 z"
             id="connector25pad-0"
             style="display:inline;fill:none;stroke:#f7bd13;stroke-width:1.79999995;stroke-linecap:round;stroke-linejoin:miter;stroke-miterlimit:4;stroke-dasharray:none;stroke-opacity:1" />
          <path
             inkscape:connector-curvature="0"
             d="m 329.75427,429.36159 a 2.25,2.25 0 0 1 0,4.5 2.25,2.25 0 1 1 0,-4.5 z"
             id="connector26pad-9"
             style="display:inline;fill:none;stroke:#f7bd13;stroke-width:1.79999995;stroke-linecap:round;stroke-linejoin:miter;stroke-miterlimit:4;stroke-dasharray:none;stroke-opacity:1" />
          <path
             inkscape:connector-curvature="0"
             d="m 313.10287,447.2914 a 2.25,2.25 0 0 1 0,4.5 2.25,2.25 0 1 1 0,-4.5 z"
             id="connector15pad-1-6"
             style="display:inline;fill:none;stroke:#f7bd13;stroke-width:1.79999995;stroke-linecap:round;stroke-linejoin:miter;stroke-miterlimit:4;stroke-dasharray:none;stroke-opacity:1" />
          <path
             inkscape:connector-curvature="0"
             d="m 313.10287,456.2914 a 2.25,2.25 0 0 1 0,4.5 2.25,2.25 0 1 1 0,-4.5 z"
             id="connector17pad-8-2"
             style="display:inline;fill:none;stroke:#f7bd13;stroke-width:1.79999995;stroke-linecap:round;stroke-linejoin:miter;stroke-miterlimit:4;stroke-dasharray:none;stroke-opacity:1" />
          <path
             inkscape:connector-curvature="0"
             d="m 313.10287,465.2914 a 2.25,2.25 0 0 1 0,4.5 2.25,2.25 0 1 1 0,-4.5 z"
             id="connector19pad-1-2"
             style="display:inline;fill:none;stroke:#f7bd13;stroke-width:1.79999995;stroke-linecap:round;stroke-linejoin:miter;stroke-miterlimit:4;stroke-dasharray:none;stroke-opacity:1" />
          <path
             inkscape:connector-curvature="0"
             d="m 313.10287,438.2914 a 2.25,2.25 0 0 1 0,4.5 2.25,2.25 0 1 1 0,-4.5 z"
             id="connector13pad-4-5"
             style="display:inline;fill:none;stroke:#f7bd13;stroke-width:1.79999995;stroke-linecap:round;stroke-linejoin:miter;stroke-miterlimit:4;stroke-dasharray:none;stroke-opacity:1" />
          <path
             inkscape:connector-curvature="0"
             d="m 313.10287,483.29139 a 2.25,2.25 0 0 1 0,4.5 2.25,2.25 0 1 1 0,-4.5 z"
             id="connector23pad-5-7"
             style="display:inline;fill:none;stroke:#f7bd13;stroke-width:1.79999995;stroke-linecap:round;stroke-linejoin:miter;stroke-miterlimit:4;stroke-dasharray:none;stroke-opacity:1" />
          <path
             inkscape:connector-curvature="0"
             d="m 313.10287,492.29139 a 2.25,2.25 0 0 1 0,4.5 2.25,2.25 0 1 1 0,-4.5 z"
             id="connector25pad-6-6"
             style="display:inline;fill:none;stroke:#f7bd13;stroke-width:1.79999995;stroke-linecap:round;stroke-linejoin:miter;stroke-miterlimit:4;stroke-dasharray:none;stroke-opacity:1" />
          <path
             inkscape:connector-curvature="0"
             d="m 313.10287,474.29139 a 2.250002,2.250002 0 0 1 0,4.5 2.250002,2.250002 0 1 1 0,-4.5 z"
             id="connector21pad-8-9"
             style="display:inline;fill:none;stroke:#f7bd13;stroke-width:1.79999995;stroke-linecap:round;stroke-linejoin:miter;stroke-miterlimit:4;stroke-dasharray:none;stroke-opacity:1" />
          <path
             inkscape:connector-curvature="0"
             d="m 330.10287,447.2914 a 2.25,2.25 0 0 1 0,4.5 2.25,2.25 0 1 1 0,-4.5 z"
             id="connector16pad-5-9"
             style="display:inline;fill:none;stroke:#f7bd13;stroke-width:1.79999995;stroke-linecap:round;stroke-linejoin:miter;stroke-miterlimit:4;stroke-dasharray:none;stroke-opacity:1" />
          <path
             inkscape:connector-curvature="0"
             d="m 330.10287,456.2914 a 2.25,2.25 0 0 1 0,4.5 2.25,2.25 0 1 1 0,-4.5 z"
             id="connector18pad-7-7"
             style="display:inline;fill:none;stroke:#f7bd13;stroke-width:1.79999995;stroke-linecap:round;stroke-linejoin:miter;stroke-miterlimit:4;stroke-dasharray:none;stroke-opacity:1" />
          <path
             inkscape:connector-curvature="0"
             d="m 330.10287,465.2914 a 2.25,2.25 0 0 1 0,4.5 2.25,2.25 0 1 1 0,-4.5 z"
             id="connector20pad-0-0"
             style="display:inline;fill:none;stroke:#f7bd13;stroke-width:1.79999995;stroke-linecap:round;stroke-linejoin:miter;stroke-miterlimit:4;stroke-dasharray:none;stroke-opacity:1" />
          <path
             inkscape:connector-curvature="0"
             d="m 330.10287,438.2914 a 2.25,2.25 0 0 1 0,4.5 2.25,2.25 0 1 1 0,-4.5 z"
             id="connector14pad-2-4"
             style="display:inline;fill:none;stroke:#f7bd13;stroke-width:1.79999995;stroke-linecap:round;stroke-linejoin:miter;stroke-miterlimit:4;stroke-dasharray:none;stroke-opacity:1" />
          <path
             inkscape:connector-curvature="0"
             d="m 330.10287,483.29139 a 2.25,2.25 0 0 1 0,4.5 2.25,2.25 0 1 1 0,-4.5 z"
             id="connector24pad-9-4"
             style="display:inline;fill:none;stroke:#f7bd13;stroke-width:1.79999995;stroke-linecap:round;stroke-linejoin:miter;stroke-miterlimit:4;stroke-dasharray:none;stroke-opacity:1" />
          <path
             inkscape:connector-curvature="0"
             d="m 330.10287,492.29139 a 2.25,2.25 0 0 1 0,4.5 2.25,2.25 0 1 1 0,-4.5 z"
             id="connector26pad-6-3"
             style="display:inline;fill:none;stroke:#f7bd13;stroke-width:1.79999995;stroke-linecap:round;stroke-linejoin:miter;stroke-miterlimit:4;stroke-dasharray:none;stroke-opacity:1" />
          <path
             inkscape:connector-curvature="0"
             d="m 330.10287,474.29139 a 2.250002,2.250002 0 0 1 0,4.5 2.250002,2.250002 0 1 1 0,-4.5 z"
             id="connector22pad-3-8"
             style="display:inline;fill:none;stroke:#f7bd13;stroke-width:1.79999995;stroke-linecap:round;stroke-linejoin:miter;stroke-miterlimit:4;stroke-dasharray:none;stroke-opacity:1" />
        </g>
      </g>
    </g>
  </g>
</svg>
