<?xml version="1.0" standalone="no"?>
 <!DOCTYPE svg PUBLIC "-//W3C//DTD SVG 1.1//EN" 
 "http://www.w3.org/Graphics/SVG/1.1/DTD/svg11.dtd"> 
<svg xmlns="http://www.w3.org/2000/svg" version="1.1" 
    width="29.7002cm" height="21.0007cm" viewBox="0 0 116930 82680 ">
<title>SVG Picture created as ATMega128_Breakout-B_Cu.svg date 2015/07/17 13:49:10 </title>
  <desc>Picture generated by PCBNEW </desc>
<g style="fill:#000000; fill-opacity:1;stroke:#000000; stroke-opacity:1;
stroke-linecap:round; stroke-linejoin:round; "
 transform="translate(0 0) scale(1 1)">
</g>
<g style="fill:#000000; fill-opacity:0.0; 
stroke:#000000; stroke-width:100; stroke-opacity:1; 
stroke-linecap:round; stroke-linejoin:round;">
<path d="M27985 43061
L27928 43080
L27833 43080
L27795 43061
L27776 43042
L27757 43004
L27757 42966
L27776 42928
L27795 42909
L27833 42890
L27909 42871
L27947 42852
L27966 42833
L27985 42795
L27985 42757
L27966 42719
L27947 42700
L27909 42680
L27814 42680
L27757 42700
" />
<path d="M27509 42680
L27433 42680
L27395 42700
L27357 42738
L27338 42814
L27338 42947
L27357 43023
L27395 43061
L27433 43080
L27509 43080
L27547 43061
L27585 43023
L27604 42947
L27604 42814
L27585 42738
L27547 42700
L27509 42680
" />
<path d="M26976 43080
L27166 43080
L27166 42680
" />
<path d="M26842 43080
L26842 42680
L26747 42680
L26690 42700
L26652 42738
L26633 42776
L26614 42852
L26614 42909
L26633 42985
L26652 43023
L26690 43061
L26747 43080
L26842 43080
" />
</g>
<g style="fill:#000000; fill-opacity:0.0; 
stroke:#000000; stroke-width:39.3701; stroke-opacity:1; 
stroke-linecap:round; stroke-linejoin:round;">
<path d="M22723 14540
L22762 14540
" />
<path d="M22723 44107
L22723 14540
" />
<path d="M38668 44107
L22723 44107
" />
<path d="M38668 15525
L38668 44107
" />
<path d="M38668 14540
L38471 14540
" />
<path d="M38668 15525
L38668 14540
" />
<path d="M38471 14540
L22723 14540
" />
</g>
<g style="fill:#000000; fill-opacity:0.0; 
stroke:#000000; stroke-width:59.0551; stroke-opacity:1; 
stroke-linecap:round; stroke-linejoin:round;">
</g>
<g style="fill:#000000; fill-opacity:1.0; 
stroke:#000000; stroke-width:59.0551; stroke-opacity:1; 
stroke-linecap:round; stroke-linejoin:round;">
<circle cx="32800" cy="19300" r="314.961" /> 
<circle cx="32800" cy="20300" r="314.961" /> 
<circle cx="31800" cy="19300" r="314.961" /> 
<circle cx="31800" cy="20300" r="314.961" /> 
<circle cx="30800" cy="19300" r="314.961" /> 
<circle cx="30800" cy="20300" r="314.961" /> 
<circle cx="29800" cy="19300" r="314.961" /> 
<circle cx="29800" cy="20300" r="314.961" /> 
<circle cx="28800" cy="19300" r="314.961" /> 
<circle cx="28800" cy="20300" r="314.961" /> 
<circle cx="23700" cy="42100" r="285.433" /> 
<circle cx="25700" cy="42100" r="285.433" /> 
<polyline style="fill-rule:evenodd;"
points="27329,34179
28070,34179
28070,34720
27329,34720
27329,34179
" /> 
<polyline style="fill-rule:evenodd;"
points="27329,35479
28070,35479
28070,36020
27329,36020
27329,35479
" /> 
<polyline style="fill-rule:evenodd;"
points="33279,38270
33279,37529
33820,37529
33820,38270
33279,38270
" /> 
<polyline style="fill-rule:evenodd;"
points="34579,38270
34579,37529
35120,37529
35120,38270
34579,38270
" /> 
<polyline style="fill-rule:evenodd;"
points="32812,29388
32288,29912
31906,29530
32430,29006
32812,29388
" /> 
<polyline style="fill-rule:evenodd;"
points="31893,28469
31369,28993
30987,28611
31511,28087
31893,28469
" /> 
<polyline style="fill-rule:evenodd;"
points="31862,30338
31338,30862
30956,30480
31480,29956
31862,30338
" /> 
<polyline style="fill-rule:evenodd;"
points="30943,29419
30419,29943
30037,29561
30561,29037
30943,29419
" /> 
<polyline style="fill-rule:evenodd;"
points="27279,38970
27279,38229
27820,38229
27820,38970
27279,38970
" /> 
<polyline style="fill-rule:evenodd;"
points="28579,38970
28579,38229
29120,38229
29120,38970
28579,38970
" /> 
<polyline style="fill-rule:evenodd;"
points="33329,34179
34070,34179
34070,34720
33329,34720
33329,34179
" /> 
<polyline style="fill-rule:evenodd;"
points="33329,35479
34070,35479
34070,36020
33329,36020
33329,35479
" /> 
<polyline style="fill-rule:evenodd;"
points="30485,15214
30485,15785
29914,15785
29914,15214
30485,15214
" /> 
</g>
<g style="fill:#000000; fill-opacity:1.0; 
stroke:#000000; stroke-width:629.921; stroke-opacity:1; 
stroke-linecap:round; stroke-linejoin:round;">
</g>
<g style="fill:#000000; fill-opacity:0.0; 
stroke:#000000; stroke-width:629.921; stroke-opacity:1; 
stroke-linecap:round; stroke-linejoin:round;">
<path d="M29200 15578
L29200 15421
" />
<path d="M28200 15578
L28200 15421
" />
<path d="M27200 15578
L27200 15421
" />
<path d="M26200 15578
L26200 15421
" />
<path d="M25200 15578
L25200 15421
" />
<path d="M24200 15578
L24200 15421
" />
<path d="M23200 15578
L23200 15421
" />
</g>
<g style="fill:#000000; fill-opacity:0.0; 
stroke:#000000; stroke-width:59.0551; stroke-opacity:1; 
stroke-linecap:round; stroke-linejoin:round;">
</g>
<g style="fill:#000000; fill-opacity:1.0; 
stroke:#000000; stroke-width:59.0551; stroke-opacity:1; 
stroke-linecap:round; stroke-linejoin:round;">
<polyline style="fill-rule:evenodd;"
points="30914,15785
30914,15214
31485,15214
31485,15785
30914,15785
" /> 
</g>
<g style="fill:#000000; fill-opacity:1.0; 
stroke:#000000; stroke-width:629.921; stroke-opacity:1; 
stroke-linecap:round; stroke-linejoin:round;">
</g>
<g style="fill:#000000; fill-opacity:0.0; 
stroke:#000000; stroke-width:629.921; stroke-opacity:1; 
stroke-linecap:round; stroke-linejoin:round;">
<path d="M32200 15421
L32200 15578
" />
<path d="M33200 15421
L33200 15578
" />
<path d="M34200 15421
L34200 15578
" />
<path d="M35200 15421
L35200 15578
" />
<path d="M36200 15421
L36200 15578
" />
<path d="M37200 15421
L37200 15578
" />
<path d="M38200 15421
L38200 15578
" />
</g>
<g style="fill:#000000; fill-opacity:0.0; 
stroke:#000000; stroke-width:59.0551; stroke-opacity:1; 
stroke-linecap:round; stroke-linejoin:round;">
</g>
<g style="fill:#000000; fill-opacity:1.0; 
stroke:#000000; stroke-width:59.0551; stroke-opacity:1; 
stroke-linecap:round; stroke-linejoin:round;">
<polyline style="fill-rule:evenodd;"
points="23414,30314
23985,30314
23985,30885
23414,30885
23414,30314
" /> 
</g>
<g style="fill:#000000; fill-opacity:1.0; 
stroke:#000000; stroke-width:629.921; stroke-opacity:1; 
stroke-linecap:round; stroke-linejoin:round;">
</g>
<g style="fill:#000000; fill-opacity:0.0; 
stroke:#000000; stroke-width:629.921; stroke-opacity:1; 
stroke-linecap:round; stroke-linejoin:round;">
<path d="M23778 31600
L23621 31600
" />
<path d="M23778 32600
L23621 32600
" />
<path d="M23778 33600
L23621 33600
" />
<path d="M23778 34600
L23621 34600
" />
<path d="M23778 35600
L23621 35600
" />
<path d="M23778 36600
L23621 36600
" />
<path d="M23778 37600
L23621 37600
" />
<path d="M23778 38600
L23621 38600
" />
<path d="M23778 39600
L23621 39600
" />
</g>
<g style="fill:#000000; fill-opacity:0.0; 
stroke:#000000; stroke-width:59.0551; stroke-opacity:1; 
stroke-linecap:round; stroke-linejoin:round;">
</g>
<g style="fill:#000000; fill-opacity:1.0; 
stroke:#000000; stroke-width:59.0551; stroke-opacity:1; 
stroke-linecap:round; stroke-linejoin:round;">
<polyline style="fill-rule:evenodd;"
points="23414,20314
23985,20314
23985,20885
23414,20885
23414,20314
" /> 
</g>
<g style="fill:#000000; fill-opacity:1.0; 
stroke:#000000; stroke-width:629.921; stroke-opacity:1; 
stroke-linecap:round; stroke-linejoin:round;">
</g>
<g style="fill:#000000; fill-opacity:0.0; 
stroke:#000000; stroke-width:629.921; stroke-opacity:1; 
stroke-linecap:round; stroke-linejoin:round;">
<path d="M23778 21600
L23621 21600
" />
<path d="M23778 22600
L23621 22600
" />
<path d="M23778 23600
L23621 23600
" />
<path d="M23778 24600
L23621 24600
" />
<path d="M23778 25600
L23621 25600
" />
<path d="M23778 26600
L23621 26600
" />
<path d="M23778 27600
L23621 27600
" />
<path d="M23778 28600
L23621 28600
" />
<path d="M23778 29600
L23621 29600
" />
</g>
<g style="fill:#000000; fill-opacity:0.0; 
stroke:#000000; stroke-width:59.0551; stroke-opacity:1; 
stroke-linecap:round; stroke-linejoin:round;">
</g>
<g style="fill:#000000; fill-opacity:1.0; 
stroke:#000000; stroke-width:59.0551; stroke-opacity:1; 
stroke-linecap:round; stroke-linejoin:round;">
<polyline style="fill-rule:evenodd;"
points="37985,39885
37414,39885
37414,39314
37985,39314
37985,39885
" /> 
</g>
<g style="fill:#000000; fill-opacity:1.0; 
stroke:#000000; stroke-width:629.921; stroke-opacity:1; 
stroke-linecap:round; stroke-linejoin:round;">
</g>
<g style="fill:#000000; fill-opacity:0.0; 
stroke:#000000; stroke-width:629.921; stroke-opacity:1; 
stroke-linecap:round; stroke-linejoin:round;">
<path d="M37621 38600
L37778 38600
" />
<path d="M37621 37600
L37778 37600
" />
<path d="M37621 36600
L37778 36600
" />
<path d="M37621 35600
L37778 35600
" />
<path d="M37621 34600
L37778 34600
" />
<path d="M37621 33600
L37778 33600
" />
<path d="M37621 32600
L37778 32600
" />
<path d="M37621 31600
L37778 31600
" />
<path d="M37621 30600
L37778 30600
" />
</g>
<g style="fill:#000000; fill-opacity:0.0; 
stroke:#000000; stroke-width:59.0551; stroke-opacity:1; 
stroke-linecap:round; stroke-linejoin:round;">
</g>
<g style="fill:#000000; fill-opacity:1.0; 
stroke:#000000; stroke-width:59.0551; stroke-opacity:1; 
stroke-linecap:round; stroke-linejoin:round;">
<polyline style="fill-rule:evenodd;"
points="37414,20314
37985,20314
37985,20885
37414,20885
37414,20314
" /> 
</g>
<g style="fill:#000000; fill-opacity:1.0; 
stroke:#000000; stroke-width:629.921; stroke-opacity:1; 
stroke-linecap:round; stroke-linejoin:round;">
</g>
<g style="fill:#000000; fill-opacity:0.0; 
stroke:#000000; stroke-width:629.921; stroke-opacity:1; 
stroke-linecap:round; stroke-linejoin:round;">
<path d="M37778 21600
L37621 21600
" />
<path d="M37778 22600
L37621 22600
" />
<path d="M37778 23600
L37621 23600
" />
<path d="M37778 24600
L37621 24600
" />
<path d="M37778 25600
L37621 25600
" />
<path d="M37778 26600
L37621 26600
" />
<path d="M37778 27600
L37621 27600
" />
<path d="M37778 28600
L37621 28600
" />
<path d="M37778 29600
L37621 29600
" />
</g>
<g style="fill:#000000; fill-opacity:0.0; 
stroke:#000000; stroke-width:59.0551; stroke-opacity:1; 
stroke-linecap:round; stroke-linejoin:round;">
</g>
<g style="fill:#000000; fill-opacity:1.0; 
stroke:#000000; stroke-width:59.0551; stroke-opacity:1; 
stroke-linecap:round; stroke-linejoin:round;">
<circle cx="29700" cy="35100" r="250.472" /> 
<circle cx="31700" cy="35100" r="250.472" /> 
<polyline style="fill-rule:evenodd;"
points="27754,41645
27754,41154
28245,41154
28245,41645
27754,41645
" /> 
<circle cx="29000" cy="41400" r="245.472" /> 
<circle cx="30000" cy="41400" r="245.472" /> 
<circle cx="31000" cy="41400" r="245.472" /> 
<circle cx="32000" cy="41400" r="245.472" /> 
<circle cx="33000" cy="41400" r="245.472" /> 
<circle cx="34000" cy="41400" r="245.472" /> 
<polyline style="fill-rule:evenodd;"
points="37945,42445
37454,42445
37454,41954
37945,41954
37945,42445
" /> 
<circle cx="37700" cy="41200" r="245.472" /> 
<circle cx="30400" cy="24350" r="265.748" /> 
<circle cx="30750" cy="33600" r="265.748" /> 
<circle cx="29250" cy="37250" r="265.748" /> 
<circle cx="29550" cy="29000" r="265.748" /> 
<circle cx="33200" cy="28800" r="265.748" /> 
<circle cx="35350" cy="32400" r="265.748" /> 
<circle cx="32300" cy="30600" r="265.748" /> 
<circle cx="27850" cy="22700" r="265.748" /> 
<circle cx="31750" cy="22550" r="265.748" /> 
<circle cx="26400" cy="39400" r="265.748" /> 
<circle cx="28200" cy="17850" r="265.748" /> 
<circle cx="24700" cy="32050" r="265.748" /> 
<circle cx="25950" cy="31600" r="265.748" /> 
<circle cx="29800" cy="27950" r="265.748" /> 
<circle cx="32200" cy="27900" r="265.748" /> 
<circle cx="32200" cy="36900" r="265.748" /> 
<circle cx="25850" cy="32700" r="265.748" /> 
<circle cx="26600" cy="32650" r="265.748" /> 
</g>
<g style="fill:#000000; fill-opacity:1.0; 
stroke:#000000; stroke-width:200; stroke-opacity:1; 
stroke-linecap:round; stroke-linejoin:round;">
</g>
<g style="fill:#000000; fill-opacity:0.0; 
stroke:#000000; stroke-width:200; stroke-opacity:1; 
stroke-linecap:round; stroke-linejoin:round;">
<path d="M30000 41400
L30000 41100
" />
<path d="M28850 39950
L28850 38600
" />
<path d="M30000 41100
L28850 39950
" />
<path d="M32800 20300
L32800 20650
" />
<path d="M30400 23050
L30400 24350
" />
<path d="M32800 20650
L30400 23050
" />
<path d="M30300 31519
L31409 30409
" />
<path d="M30300 33150
L30300 31519
" />
<path d="M30750 33600
L30300 33150
" />
</g>
<g style="fill:#000000; fill-opacity:0.0; 
stroke:#000000; stroke-width:300; stroke-opacity:1; 
stroke-linecap:round; stroke-linejoin:round;">
<path d="M28850 38600
L28850 37650
" />
<path d="M28850 37650
L29250 37250
" />
</g>
<g style="fill:#000000; fill-opacity:0.0; 
stroke:#000000; stroke-width:200; stroke-opacity:1; 
stroke-linecap:round; stroke-linejoin:round;">
<path d="M30769 31050
L31409 30409
" />
<path d="M29550 29000
L29550 30250
" />
<path d="M29550 30250
L30350 31050
" />
<path d="M30350 31050
L30769 31050
" />
<path d="M32359 29459
L31409 30409
" />
<path d="M32540 29459
L32359 29459
" />
<path d="M33200 28800
L32540 29459
" />
<path d="M32300 30600
L33550 30600
" />
<path d="M33550 30600
L35350 32400
" />
<path d="M37700 42200
L37700 42300
" />
<path d="M25100 43500
L23700 42100
" />
<path d="M36500 43500
L25100 43500
" />
<path d="M37700 42300
L36500 43500
" />
<path d="M30800 19300
L30800 18750
" />
<path d="M25450 30600
L23700 30600
" />
<path d="M26350 29700
L25450 30600
" />
<path d="M26350 24200
L26350 29700
" />
<path d="M27850 22700
L26350 24200
" />
<path d="M32600 22550
L31750 22550
" />
<path d="M34150 21000
L32600 22550
" />
<path d="M34150 18800
L34150 21000
" />
<path d="M33500 18150
L34150 18800
" />
<path d="M31400 18150
L33500 18150
" />
<path d="M30800 18750
L31400 18150
" />
</g>
<g style="fill:#000000; fill-opacity:0.0; 
stroke:#000000; stroke-width:300; stroke-opacity:1; 
stroke-linecap:round; stroke-linejoin:round;">
<path d="M27550 38600
L27550 37550
" />
</g>
<g style="fill:#000000; fill-opacity:0.0; 
stroke:#000000; stroke-width:250; stroke-opacity:1; 
stroke-linecap:round; stroke-linejoin:round;">
<path d="M26050 34000
L25300 33250
" />
</g>
<g style="fill:#000000; fill-opacity:0.0; 
stroke:#000000; stroke-width:200; stroke-opacity:1; 
stroke-linecap:round; stroke-linejoin:round;">
<path d="M26050 36050
L26050 34000
" />
<path d="M27550 37550
L26050 36050
" />
</g>
<g style="fill:#000000; fill-opacity:0.0; 
stroke:#000000; stroke-width:300; stroke-opacity:1; 
stroke-linecap:round; stroke-linejoin:round;">
<path d="M27550 38600
L27200 38600
" />
<path d="M27200 38600
L26400 39400
" />
</g>
<g style="fill:#000000; fill-opacity:0.0; 
stroke:#000000; stroke-width:250; stroke-opacity:1; 
stroke-linecap:round; stroke-linejoin:round;">
<path d="M25300 33250
L25300 31350
" />
<path d="M25300 31350
L24550 30600
" />
<path d="M24550 30600
L23700 30600
" />
</g>
<g style="fill:#000000; fill-opacity:0.0; 
stroke:#000000; stroke-width:200; stroke-opacity:1; 
stroke-linecap:round; stroke-linejoin:round;">
<path d="M36300 32400
L36300 39350
" />
<path d="M30200 16750
L30500 17050
" />
<path d="M30500 17050
L34950 17050
" />
<path d="M34950 17050
L36050 18150
" />
<path d="M36050 18150
L36050 31450
" />
<path d="M36050 31450
L36300 31700
" />
<path d="M36300 31700
L36300 32400
" />
<path d="M30200 15500
L30200 16750
" />
<path d="M31000 41750
L31000 41400
" />
<path d="M31450 42200
L31000 41750
" />
<path d="M34800 42200
L31450 42200
" />
<path d="M35150 41850
L34800 42200
" />
<path d="M35150 40500
L35150 41850
" />
<path d="M36300 39350
L35150 40500
" />
</g>
<g style="fill:#000000; fill-opacity:0.0; 
stroke:#000000; stroke-width:250; stroke-opacity:1; 
stroke-linecap:round; stroke-linejoin:round;">
<path d="M27600 17300
L28000 17300
" />
<path d="M23700 18700
L25100 17300
" />
<path d="M23700 20600
L23700 18700
" />
<path d="M28000 17300
L28325 16975
" />
<path d="M28325 16975
L29925 16975
" />
<path d="M29925 16975
L30200 16700
" />
</g>
<g style="fill:#000000; fill-opacity:0.0; 
stroke:#000000; stroke-width:200; stroke-opacity:1; 
stroke-linecap:round; stroke-linejoin:round;">
<path d="M30200 16700
L30200 15500
" />
</g>
<g style="fill:#000000; fill-opacity:0.0; 
stroke:#000000; stroke-width:250; stroke-opacity:1; 
stroke-linecap:round; stroke-linejoin:round;">
<path d="M25100 17300
L27600 17300
" />
</g>
<g style="fill:#000000; fill-opacity:0.0; 
stroke:#000000; stroke-width:200; stroke-opacity:1; 
stroke-linecap:round; stroke-linejoin:round;">
<path d="M23700 18650
L23700 20600
" />
<path d="M29800 19300
L29800 18800
" />
<path d="M25400 23600
L23700 23600
" />
<path d="M27500 21500
L25400 23600
" />
<path d="M27500 19350
L27500 21500
" />
<path d="M28300 18550
L27500 19350
" />
<path d="M29550 18550
L28300 18550
" />
<path d="M29800 18800
L29550 18550
" />
<path d="M35625 18425
L35625 31675
" />
<path d="M35900 38750
L34750 39900
" />
<path d="M35900 31950
L35900 38750
" />
<path d="M35625 31675
L35900 31950
" />
<path d="M35475 39175
L34750 39900
" />
<path d="M32000 40600
L32000 41400
" />
<path d="M34750 39900
L32700 39900
" />
<path d="M32700 39900
L32000 40600
" />
<path d="M35475 39175
L35450 39200
" />
<path d="M28200 17850
L30650 17850
" />
<path d="M34700 17500
L35625 18425
" />
<path d="M31000 17500
L34700 17500
" />
<path d="M30650 17850
L31000 17500
" />
<path d="M25550 19400
L25550 19350
" />
<path d="M28150 17900
L28200 17850
" />
<path d="M27000 17900
L28150 17900
" />
<path d="M25550 19350
L27000 17900
" />
<path d="M25650 19300
L25550 19400
" />
<path d="M25550 19400
L24800 20150
" />
<path d="M24300 21600
L23700 21600
" />
</g>
<g style="fill:#000000; fill-opacity:0.0; 
stroke:#000000; stroke-width:250; stroke-opacity:1; 
stroke-linecap:round; stroke-linejoin:round;">
<path d="M24800 21100
L24300 21600
" />
<path d="M24800 20150
L24800 21100
" />
</g>
<g style="fill:#000000; fill-opacity:0.0; 
stroke:#000000; stroke-width:200; stroke-opacity:1; 
stroke-linecap:round; stroke-linejoin:round;">
<path d="M28000 41400
L28000 41950
" />
<path d="M37150 21600
L37700 21600
" />
<path d="M36750 22000
L37150 21600
" />
<path d="M36750 41750
L36750 22000
" />
<path d="M35650 42850
L36750 41750
" />
<path d="M28900 42850
L35650 42850
" />
<path d="M28000 41950
L28900 42850
" />
<path d="M34850 37900
L34850 37750
" />
<path d="M34450 34450
L33700 34450
" />
<path d="M35100 35100
L34450 34450
" />
<path d="M35100 37500
L35100 35100
" />
<path d="M34850 37750
L35100 37500
" />
<path d="M28000 41400
L27500 41400
" />
<path d="M26800 42100
L25700 42100
" />
<path d="M27500 41400
L26800 42100
" />
<path d="M28800 20300
L28800 22100
" />
<path d="M28600 26750
L29800 27950
" />
<path d="M28600 22300
L28600 26750
" />
<path d="M28800 22100
L28600 22300
" />
<path d="M29800 20300
L28800 20300
" />
</g>
<g style="fill:#000000; fill-opacity:0.0; 
stroke:#000000; stroke-width:250; stroke-opacity:1; 
stroke-linecap:round; stroke-linejoin:round;">
<path d="M26000 37000
L26000 36550
" />
<path d="M26000 36550
L25650 36200
" />
</g>
<g style="fill:#000000; fill-opacity:0.0; 
stroke:#000000; stroke-width:200; stroke-opacity:1; 
stroke-linecap:round; stroke-linejoin:round;">
<path d="M24700 33500
L24700 33200
" />
</g>
<g style="fill:#000000; fill-opacity:0.0; 
stroke:#000000; stroke-width:250; stroke-opacity:1; 
stroke-linecap:round; stroke-linejoin:round;">
<path d="M25650 34450
L24700 33500
" />
<path d="M25650 36200
L25650 34450
" />
<path d="M25700 42100
L25700 39000
" />
<path d="M24700 33200
L24700 32050
" />
<path d="M26000 38700
L26000 37000
" />
<path d="M25700 39000
L26000 38700
" />
</g>
<g style="fill:#000000; fill-opacity:0.0; 
stroke:#000000; stroke-width:200; stroke-opacity:1; 
stroke-linecap:round; stroke-linejoin:round;">
<path d="M26450 31100
L26650 31100
" />
<path d="M25950 31600
L26450 31100
" />
<path d="M27700 34450
L27700 32950
" />
<path d="M27700 32950
L26650 31900
" />
<path d="M26650 31900
L26650 31100
" />
<path d="M26650 31100
L29800 27950
" />
<path d="M31850 28250
L32200 27900
" />
<path d="M30100 28250
L31850 28250
" />
<path d="M29800 27950
L30100 28250
" />
<path d="M31440 28540
L30490 29490
" />
<path d="M32030 27950
L31440 28540
" />
<path d="M32150 27950
L32030 27950
" />
<path d="M32200 27900
L32150 27950
" />
<path d="M33700 34450
L33250 34450
" />
<path d="M28450 34450
L27700 34450
" />
<path d="M28650 34250
L28450 34450
" />
<path d="M33050 34250
L28650 34250
" />
<path d="M33250 34450
L33050 34250
" />
<path d="M33550 37250
L33550 37900
" />
<path d="M33300 37000
L33550 37250
" />
<path d="M32300 37000
L33300 37000
" />
<path d="M32200 36900
L32300 37000
" />
<path d="M27600 36550
L27150 36550
" />
<path d="M27150 36550
L26450 35850
" />
</g>
<g style="fill:#000000; fill-opacity:0.0; 
stroke:#000000; stroke-width:250; stroke-opacity:1; 
stroke-linecap:round; stroke-linejoin:round;">
<path d="M26450 33300
L25850 32700
" />
<path d="M26450 35850
L26450 33300
" />
<path d="M31700 35100
L31300 35100
" />
</g>
<g style="fill:#000000; fill-opacity:0.0; 
stroke:#000000; stroke-width:200; stroke-opacity:1; 
stroke-linecap:round; stroke-linejoin:round;">
<path d="M26100 32950
L25850 32700
" />
<path d="M29850 36550
L27600 36550
" />
</g>
<g style="fill:#000000; fill-opacity:0.0; 
stroke:#000000; stroke-width:250; stroke-opacity:1; 
stroke-linecap:round; stroke-linejoin:round;">
<path d="M31300 35100
L29850 36550
" />
</g>
<g style="fill:#000000; fill-opacity:0.0; 
stroke:#000000; stroke-width:200; stroke-opacity:1; 
stroke-linecap:round; stroke-linejoin:round;">
<path d="M31700 35100
L31700 35250
" />
</g>
<g style="fill:#000000; fill-opacity:0.0; 
stroke:#000000; stroke-width:250; stroke-opacity:1; 
stroke-linecap:round; stroke-linejoin:round;">
<path d="M32200 35750
L33700 35750
" />
<path d="M31700 35250
L32200 35750
" />
</g>
<g style="fill:#000000; fill-opacity:0.0; 
stroke:#000000; stroke-width:200; stroke-opacity:1; 
stroke-linecap:round; stroke-linejoin:round;">
<path d="M27700 35750
L27200 35750
" />
<path d="M26800 32850
L26600 32650
" />
<path d="M26800 35350
L26800 32850
" />
<path d="M27200 35750
L26800 35350
" />
<path d="M29700 35100
L29700 35150
" />
</g>
<g style="fill:#000000; fill-opacity:0.0; 
stroke:#000000; stroke-width:250; stroke-opacity:1; 
stroke-linecap:round; stroke-linejoin:round;">
<path d="M29100 35750
L27700 35750
" />
<path d="M29700 35150
L29100 35750
" />
</g> 
</svg>
