G04 (created by PCBNEW (2013-07-07 BZR 4022)-stable) date 6/1/2015 2:45:58 PM*
%MOIN*%
G04 Gerber Fmt 3.4, Leading zero omitted, Abs format*
%FSLAX34Y34*%
G01*
G70*
G90*
G04 APERTURE LIST*
%ADD10C,0.00590551*%
%ADD11C,0.01*%
%ADD12C,0.00393701*%
%ADD13C,0.0688976*%
%ADD14C,0.0629921*%
%ADD15R,0.08X0.06*%
%ADD16R,0.06X0.08*%
%ADD17R,0.0629921X0.0629921*%
%ADD18O,0.0629921X0.0787402*%
%ADD19O,0.0787402X0.0629921*%
%ADD20C,0.056*%
%ADD21R,0.055X0.055*%
%ADD22C,0.055*%
%ADD23C,0.0590551*%
%ADD24C,0.02*%
%ADD25C,0.03*%
%ADD26C,0.025*%
G04 APERTURE END LIST*
G54D10*
G54D11*
X66285Y-50942D02*
X66228Y-50961D01*
X66133Y-50961D01*
X66095Y-50942D01*
X66076Y-50923D01*
X66057Y-50885D01*
X66057Y-50847D01*
X66076Y-50809D01*
X66095Y-50790D01*
X66133Y-50771D01*
X66209Y-50752D01*
X66247Y-50733D01*
X66266Y-50714D01*
X66285Y-50676D01*
X66285Y-50638D01*
X66266Y-50600D01*
X66247Y-50580D01*
X66209Y-50561D01*
X66114Y-50561D01*
X66057Y-50580D01*
X65809Y-50561D02*
X65733Y-50561D01*
X65695Y-50580D01*
X65657Y-50619D01*
X65638Y-50695D01*
X65638Y-50828D01*
X65657Y-50904D01*
X65695Y-50942D01*
X65733Y-50961D01*
X65809Y-50961D01*
X65847Y-50942D01*
X65885Y-50904D01*
X65904Y-50828D01*
X65904Y-50695D01*
X65885Y-50619D01*
X65847Y-50580D01*
X65809Y-50561D01*
X65276Y-50961D02*
X65466Y-50961D01*
X65466Y-50561D01*
X65142Y-50961D02*
X65142Y-50561D01*
X65047Y-50561D01*
X64990Y-50580D01*
X64952Y-50619D01*
X64933Y-50657D01*
X64914Y-50733D01*
X64914Y-50790D01*
X64933Y-50866D01*
X64952Y-50904D01*
X64990Y-50942D01*
X65047Y-50961D01*
X65142Y-50961D01*
G54D12*
X61023Y-22440D02*
X61062Y-22440D01*
X61023Y-52007D02*
X61023Y-22440D01*
X76968Y-52007D02*
X61023Y-52007D01*
X76968Y-23425D02*
X76968Y-52007D01*
X76968Y-22440D02*
X76771Y-22440D01*
X76968Y-23425D02*
X76968Y-22440D01*
X76771Y-22440D02*
X61023Y-22440D01*
G54D13*
X71100Y-27200D03*
X71100Y-28200D03*
X70100Y-27200D03*
X70100Y-28200D03*
X69100Y-27200D03*
X69100Y-28200D03*
X68100Y-27200D03*
X68100Y-28200D03*
X67100Y-27200D03*
X67100Y-28200D03*
G54D14*
X62000Y-50000D03*
X64000Y-50000D03*
G54D15*
X66000Y-42350D03*
X66000Y-43650D03*
G54D16*
X71850Y-45800D03*
X73150Y-45800D03*
G54D10*
G36*
X71154Y-37288D02*
X70588Y-37854D01*
X70164Y-37430D01*
X70730Y-36864D01*
X71154Y-37288D01*
X71154Y-37288D01*
G37*
G36*
X70235Y-36369D02*
X69669Y-36935D01*
X69245Y-36511D01*
X69811Y-35945D01*
X70235Y-36369D01*
X70235Y-36369D01*
G37*
G36*
X70204Y-38238D02*
X69638Y-38804D01*
X69214Y-38380D01*
X69780Y-37814D01*
X70204Y-38238D01*
X70204Y-38238D01*
G37*
G36*
X69285Y-37319D02*
X68719Y-37885D01*
X68295Y-37461D01*
X68861Y-36895D01*
X69285Y-37319D01*
X69285Y-37319D01*
G37*
G54D16*
X65850Y-46500D03*
X67150Y-46500D03*
G54D15*
X72000Y-42350D03*
X72000Y-43650D03*
G54D17*
X68500Y-23400D03*
G54D18*
X67500Y-23400D03*
X66500Y-23400D03*
X65500Y-23400D03*
X64500Y-23400D03*
X63500Y-23400D03*
X62500Y-23400D03*
X61500Y-23400D03*
G54D17*
X69500Y-23400D03*
G54D18*
X70500Y-23400D03*
X71500Y-23400D03*
X72500Y-23400D03*
X73500Y-23400D03*
X74500Y-23400D03*
X75500Y-23400D03*
X76500Y-23400D03*
G54D17*
X62000Y-38500D03*
G54D19*
X62000Y-39500D03*
X62000Y-40500D03*
X62000Y-41500D03*
X62000Y-42500D03*
X62000Y-43500D03*
X62000Y-44500D03*
X62000Y-45500D03*
X62000Y-46500D03*
X62000Y-47500D03*
G54D17*
X62000Y-28500D03*
G54D19*
X62000Y-29500D03*
X62000Y-30500D03*
X62000Y-31500D03*
X62000Y-32500D03*
X62000Y-33500D03*
X62000Y-34500D03*
X62000Y-35500D03*
X62000Y-36500D03*
X62000Y-37500D03*
G54D17*
X76000Y-47500D03*
G54D19*
X76000Y-46500D03*
X76000Y-45500D03*
X76000Y-44500D03*
X76000Y-43500D03*
X76000Y-42500D03*
X76000Y-41500D03*
X76000Y-40500D03*
X76000Y-39500D03*
X76000Y-38500D03*
G54D17*
X76000Y-28500D03*
G54D19*
X76000Y-29500D03*
X76000Y-30500D03*
X76000Y-31500D03*
X76000Y-32500D03*
X76000Y-33500D03*
X76000Y-34500D03*
X76000Y-35500D03*
X76000Y-36500D03*
X76000Y-37500D03*
G54D20*
X68000Y-43000D03*
X70000Y-43000D03*
G54D21*
X66300Y-49300D03*
G54D22*
X67300Y-49300D03*
X68300Y-49300D03*
X69300Y-49300D03*
X70300Y-49300D03*
X71300Y-49300D03*
X72300Y-49300D03*
G54D21*
X76000Y-50100D03*
G54D22*
X76000Y-49100D03*
G54D23*
X68700Y-32250D03*
X69050Y-41500D03*
X67550Y-45150D03*
X67850Y-36900D03*
X71500Y-36700D03*
X73650Y-40300D03*
X70600Y-38500D03*
X66150Y-30600D03*
X70050Y-30450D03*
X64700Y-47300D03*
X66500Y-25750D03*
X63000Y-39950D03*
X64250Y-39500D03*
X68100Y-35850D03*
X70500Y-35800D03*
X70500Y-44800D03*
X64150Y-40600D03*
X64900Y-40550D03*
G54D24*
X68300Y-49300D02*
X68300Y-49000D01*
X67150Y-47850D02*
X67150Y-46500D01*
X68300Y-49000D02*
X67150Y-47850D01*
X71100Y-28200D02*
X71100Y-28550D01*
X68700Y-30950D02*
X68700Y-32250D01*
X71100Y-28550D02*
X68700Y-30950D01*
X68600Y-39419D02*
X69709Y-38309D01*
X68600Y-41050D02*
X68600Y-39419D01*
X69050Y-41500D02*
X68600Y-41050D01*
G54D25*
X67150Y-46500D02*
X67150Y-45550D01*
X67150Y-45550D02*
X67550Y-45150D01*
G54D24*
X69069Y-38950D02*
X69709Y-38309D01*
X67850Y-36900D02*
X67850Y-38150D01*
X67850Y-38150D02*
X68650Y-38950D01*
X68650Y-38950D02*
X69069Y-38950D01*
X70659Y-37359D02*
X69709Y-38309D01*
X70840Y-37359D02*
X70659Y-37359D01*
X71500Y-36700D02*
X70840Y-37359D01*
X70600Y-38500D02*
X71850Y-38500D01*
X71850Y-38500D02*
X73650Y-40300D01*
X76000Y-50100D02*
X76000Y-50200D01*
X63400Y-51400D02*
X62000Y-50000D01*
X74800Y-51400D02*
X63400Y-51400D01*
X76000Y-50200D02*
X74800Y-51400D01*
X69100Y-27200D02*
X69100Y-26650D01*
X63750Y-38500D02*
X62000Y-38500D01*
X64650Y-37600D02*
X63750Y-38500D01*
X64650Y-32100D02*
X64650Y-37600D01*
X66150Y-30600D02*
X64650Y-32100D01*
X70900Y-30450D02*
X70050Y-30450D01*
X72450Y-28900D02*
X70900Y-30450D01*
X72450Y-26700D02*
X72450Y-28900D01*
X71800Y-26050D02*
X72450Y-26700D01*
X69700Y-26050D02*
X71800Y-26050D01*
X69100Y-26650D02*
X69700Y-26050D01*
G54D25*
X65850Y-46500D02*
X65850Y-45450D01*
G54D26*
X64350Y-41900D02*
X63600Y-41150D01*
G54D24*
X64350Y-43950D02*
X64350Y-41900D01*
X65850Y-45450D02*
X64350Y-43950D01*
G54D25*
X65850Y-46500D02*
X65500Y-46500D01*
X65500Y-46500D02*
X64700Y-47300D01*
G54D26*
X63600Y-41150D02*
X63600Y-39250D01*
X63600Y-39250D02*
X62850Y-38500D01*
X62850Y-38500D02*
X62000Y-38500D01*
G54D24*
X74600Y-40300D02*
X74600Y-47250D01*
X68500Y-24650D02*
X68800Y-24950D01*
X68800Y-24950D02*
X73250Y-24950D01*
X73250Y-24950D02*
X74350Y-26050D01*
X74350Y-26050D02*
X74350Y-39350D01*
X74350Y-39350D02*
X74600Y-39600D01*
X74600Y-39600D02*
X74600Y-40300D01*
X68500Y-23400D02*
X68500Y-24650D01*
X69300Y-49650D02*
X69300Y-49300D01*
X69750Y-50100D02*
X69300Y-49650D01*
X73100Y-50100D02*
X69750Y-50100D01*
X73450Y-49750D02*
X73100Y-50100D01*
X73450Y-48400D02*
X73450Y-49750D01*
X74600Y-47250D02*
X73450Y-48400D01*
G54D26*
X65900Y-25200D02*
X66300Y-25200D01*
X62000Y-26600D02*
X63400Y-25200D01*
X62000Y-28500D02*
X62000Y-26600D01*
X66300Y-25200D02*
X66625Y-24875D01*
X66625Y-24875D02*
X68225Y-24875D01*
X68225Y-24875D02*
X68500Y-24600D01*
G54D24*
X68500Y-24600D02*
X68500Y-23400D01*
G54D26*
X63400Y-25200D02*
X65900Y-25200D01*
G54D24*
X62000Y-26550D02*
X62000Y-28500D01*
X68100Y-27200D02*
X68100Y-26700D01*
X63700Y-31500D02*
X62000Y-31500D01*
X65800Y-29400D02*
X63700Y-31500D01*
X65800Y-27250D02*
X65800Y-29400D01*
X66600Y-26450D02*
X65800Y-27250D01*
X67850Y-26450D02*
X66600Y-26450D01*
X68100Y-26700D02*
X67850Y-26450D01*
X73925Y-26325D02*
X73925Y-39575D01*
X74200Y-46650D02*
X73050Y-47800D01*
X74200Y-39850D02*
X74200Y-46650D01*
X73925Y-39575D02*
X74200Y-39850D01*
X73775Y-47075D02*
X73050Y-47800D01*
X70300Y-48500D02*
X70300Y-49300D01*
X73050Y-47800D02*
X71000Y-47800D01*
X71000Y-47800D02*
X70300Y-48500D01*
X73775Y-47075D02*
X73750Y-47100D01*
X66500Y-25750D02*
X68950Y-25750D01*
X73000Y-25400D02*
X73925Y-26325D01*
X69300Y-25400D02*
X73000Y-25400D01*
X68950Y-25750D02*
X69300Y-25400D01*
X63850Y-27300D02*
X63850Y-27250D01*
X66450Y-25800D02*
X66500Y-25750D01*
X65300Y-25800D02*
X66450Y-25800D01*
X63850Y-27250D02*
X65300Y-25800D01*
X63950Y-27200D02*
X63850Y-27300D01*
X63850Y-27300D02*
X63100Y-28050D01*
X62600Y-29500D02*
X62000Y-29500D01*
G54D26*
X63100Y-29000D02*
X62600Y-29500D01*
X63100Y-28050D02*
X63100Y-29000D01*
G54D24*
X66300Y-49300D02*
X66300Y-49850D01*
X75450Y-29500D02*
X76000Y-29500D01*
X75050Y-29900D02*
X75450Y-29500D01*
X75050Y-49650D02*
X75050Y-29900D01*
X73950Y-50750D02*
X75050Y-49650D01*
X67200Y-50750D02*
X73950Y-50750D01*
X66300Y-49850D02*
X67200Y-50750D01*
X73150Y-45800D02*
X73150Y-45650D01*
X72750Y-42350D02*
X72000Y-42350D01*
X73400Y-43000D02*
X72750Y-42350D01*
X73400Y-45400D02*
X73400Y-43000D01*
X73150Y-45650D02*
X73400Y-45400D01*
X66300Y-49300D02*
X65800Y-49300D01*
X65100Y-50000D02*
X64000Y-50000D01*
X65800Y-49300D02*
X65100Y-50000D01*
X67100Y-28200D02*
X67100Y-30000D01*
X66900Y-34650D02*
X68100Y-35850D01*
X66900Y-30200D02*
X66900Y-34650D01*
X67100Y-30000D02*
X66900Y-30200D01*
X68100Y-28200D02*
X67100Y-28200D01*
G54D26*
X64300Y-44900D02*
X64300Y-44450D01*
X64300Y-44450D02*
X63950Y-44100D01*
G54D24*
X63000Y-41400D02*
X63000Y-41100D01*
G54D26*
X63950Y-42350D02*
X63000Y-41400D01*
X63950Y-44100D02*
X63950Y-42350D01*
X64000Y-50000D02*
X64000Y-46900D01*
X63000Y-41100D02*
X63000Y-39950D01*
X64300Y-46600D02*
X64300Y-44900D01*
X64000Y-46900D02*
X64300Y-46600D01*
G54D24*
X64750Y-39000D02*
X64950Y-39000D01*
X64250Y-39500D02*
X64750Y-39000D01*
X66000Y-42350D02*
X66000Y-40850D01*
X66000Y-40850D02*
X64950Y-39800D01*
X64950Y-39800D02*
X64950Y-39000D01*
X64950Y-39000D02*
X68100Y-35850D01*
X70150Y-36150D02*
X70500Y-35800D01*
X68400Y-36150D02*
X70150Y-36150D01*
X68100Y-35850D02*
X68400Y-36150D01*
X69740Y-36440D02*
X68790Y-37390D01*
X70330Y-35850D02*
X69740Y-36440D01*
X70450Y-35850D02*
X70330Y-35850D01*
X70500Y-35800D02*
X70450Y-35850D01*
X72000Y-42350D02*
X71550Y-42350D01*
X66750Y-42350D02*
X66000Y-42350D01*
X66950Y-42150D02*
X66750Y-42350D01*
X71350Y-42150D02*
X66950Y-42150D01*
X71550Y-42350D02*
X71350Y-42150D01*
X71850Y-45150D02*
X71850Y-45800D01*
X71600Y-44900D02*
X71850Y-45150D01*
X70600Y-44900D02*
X71600Y-44900D01*
X70500Y-44800D02*
X70600Y-44900D01*
X65900Y-44450D02*
X65450Y-44450D01*
X65450Y-44450D02*
X64750Y-43750D01*
G54D26*
X64750Y-41200D02*
X64150Y-40600D01*
X64750Y-43750D02*
X64750Y-41200D01*
X70000Y-43000D02*
X69600Y-43000D01*
G54D24*
X64400Y-40850D02*
X64150Y-40600D01*
X68150Y-44450D02*
X65900Y-44450D01*
G54D26*
X69600Y-43000D02*
X68150Y-44450D01*
G54D24*
X70000Y-43000D02*
X70000Y-43150D01*
G54D26*
X70500Y-43650D02*
X72000Y-43650D01*
X70000Y-43150D02*
X70500Y-43650D01*
G54D24*
X66000Y-43650D02*
X65500Y-43650D01*
X65100Y-40750D02*
X64900Y-40550D01*
X65100Y-43250D02*
X65100Y-40750D01*
X65500Y-43650D02*
X65100Y-43250D01*
X68000Y-43000D02*
X68000Y-43050D01*
G54D26*
X67400Y-43650D02*
X66000Y-43650D01*
X68000Y-43050D02*
X67400Y-43650D01*
G54D10*
G36*
X73850Y-46505D02*
X73700Y-46654D01*
X73700Y-46150D01*
X73700Y-45449D01*
X73699Y-45350D01*
X73661Y-45258D01*
X73591Y-45187D01*
X73499Y-45149D01*
X73262Y-45150D01*
X73200Y-45212D01*
X73200Y-45750D01*
X73637Y-45750D01*
X73700Y-45687D01*
X73700Y-45449D01*
X73700Y-46150D01*
X73700Y-45912D01*
X73637Y-45850D01*
X73200Y-45850D01*
X73200Y-46387D01*
X73262Y-46450D01*
X73499Y-46450D01*
X73591Y-46412D01*
X73661Y-46341D01*
X73699Y-46249D01*
X73700Y-46150D01*
X73700Y-46654D01*
X73527Y-46827D01*
X73527Y-46827D01*
X73502Y-46852D01*
X73502Y-46852D01*
X73100Y-47255D01*
X73100Y-46387D01*
X73100Y-45850D01*
X73100Y-45750D01*
X73100Y-45212D01*
X73037Y-45150D01*
X72800Y-45149D01*
X72708Y-45187D01*
X72638Y-45258D01*
X72600Y-45350D01*
X72599Y-45449D01*
X72600Y-45687D01*
X72662Y-45750D01*
X73100Y-45750D01*
X73100Y-45850D01*
X72662Y-45850D01*
X72600Y-45912D01*
X72599Y-46150D01*
X72600Y-46249D01*
X72638Y-46341D01*
X72708Y-46412D01*
X72800Y-46450D01*
X73037Y-46450D01*
X73100Y-46387D01*
X73100Y-47255D01*
X72905Y-47450D01*
X72400Y-47450D01*
X72400Y-46150D01*
X72400Y-45350D01*
X72362Y-45258D01*
X72291Y-45188D01*
X72200Y-45150D01*
X72200Y-45150D01*
X72173Y-45016D01*
X72097Y-44902D01*
X72097Y-44902D01*
X71847Y-44652D01*
X71733Y-44576D01*
X71600Y-44550D01*
X70986Y-44550D01*
X70962Y-44491D01*
X70809Y-44338D01*
X70608Y-44254D01*
X70392Y-44254D01*
X70191Y-44337D01*
X70038Y-44490D01*
X69954Y-44691D01*
X69954Y-44907D01*
X70037Y-45108D01*
X70190Y-45261D01*
X70391Y-45345D01*
X70607Y-45345D01*
X70808Y-45262D01*
X70821Y-45250D01*
X71346Y-45250D01*
X71338Y-45258D01*
X71300Y-45350D01*
X71299Y-45449D01*
X71299Y-46249D01*
X71337Y-46341D01*
X71408Y-46411D01*
X71500Y-46449D01*
X71599Y-46450D01*
X72199Y-46450D01*
X72291Y-46412D01*
X72361Y-46341D01*
X72399Y-46249D01*
X72400Y-46150D01*
X72400Y-47450D01*
X71000Y-47450D01*
X70999Y-47450D01*
X70866Y-47476D01*
X70752Y-47552D01*
X70752Y-47552D01*
X70052Y-48252D01*
X69976Y-48366D01*
X69950Y-48500D01*
X69950Y-48907D01*
X69855Y-49002D01*
X69799Y-49135D01*
X69745Y-49003D01*
X69597Y-48855D01*
X69404Y-48775D01*
X69196Y-48774D01*
X69003Y-48854D01*
X68855Y-49002D01*
X68799Y-49135D01*
X68745Y-49003D01*
X68627Y-48884D01*
X68623Y-48866D01*
X68547Y-48752D01*
X68547Y-48752D01*
X67500Y-47705D01*
X67500Y-47149D01*
X67591Y-47112D01*
X67661Y-47041D01*
X67699Y-46949D01*
X67700Y-46850D01*
X67700Y-46050D01*
X67662Y-45958D01*
X67591Y-45888D01*
X67550Y-45870D01*
X67550Y-45715D01*
X67570Y-45695D01*
X67657Y-45695D01*
X67858Y-45612D01*
X68011Y-45459D01*
X68095Y-45258D01*
X68095Y-45042D01*
X68012Y-44841D01*
X67971Y-44800D01*
X68024Y-44800D01*
X68150Y-44825D01*
X68293Y-44796D01*
X68415Y-44715D01*
X69690Y-43439D01*
X69699Y-43449D01*
X69817Y-43498D01*
X70234Y-43915D01*
X70356Y-43996D01*
X70500Y-44025D01*
X71360Y-44025D01*
X71387Y-44091D01*
X71458Y-44161D01*
X71550Y-44199D01*
X71649Y-44200D01*
X72449Y-44200D01*
X72541Y-44162D01*
X72611Y-44091D01*
X72649Y-43999D01*
X72650Y-43900D01*
X72650Y-43300D01*
X72650Y-42699D01*
X72650Y-42000D01*
X72612Y-41908D01*
X72541Y-41838D01*
X72449Y-41800D01*
X72350Y-41799D01*
X72112Y-41800D01*
X72050Y-41862D01*
X72050Y-42300D01*
X72587Y-42300D01*
X72650Y-42237D01*
X72650Y-42000D01*
X72650Y-42699D01*
X72650Y-42462D01*
X72587Y-42400D01*
X72050Y-42400D01*
X72050Y-42837D01*
X72112Y-42900D01*
X72350Y-42900D01*
X72449Y-42899D01*
X72541Y-42861D01*
X72612Y-42791D01*
X72650Y-42699D01*
X72650Y-43300D01*
X72612Y-43208D01*
X72541Y-43138D01*
X72449Y-43100D01*
X72350Y-43099D01*
X71950Y-43099D01*
X71950Y-42837D01*
X71950Y-42400D01*
X71950Y-42300D01*
X71950Y-41862D01*
X71887Y-41800D01*
X71649Y-41799D01*
X71550Y-41800D01*
X71458Y-41838D01*
X71387Y-41908D01*
X71349Y-42000D01*
X71350Y-42237D01*
X71412Y-42300D01*
X71950Y-42300D01*
X71950Y-42400D01*
X71412Y-42400D01*
X71350Y-42462D01*
X71349Y-42699D01*
X71387Y-42791D01*
X71458Y-42861D01*
X71550Y-42899D01*
X71649Y-42900D01*
X71887Y-42900D01*
X71950Y-42837D01*
X71950Y-43099D01*
X71550Y-43099D01*
X71458Y-43137D01*
X71388Y-43208D01*
X71360Y-43275D01*
X70655Y-43275D01*
X70517Y-43136D01*
X70529Y-43105D01*
X70530Y-42895D01*
X70449Y-42700D01*
X70300Y-42550D01*
X70105Y-42470D01*
X69895Y-42469D01*
X69700Y-42550D01*
X69625Y-42625D01*
X69600Y-42625D01*
X69456Y-42653D01*
X69334Y-42734D01*
X67969Y-44100D01*
X66603Y-44100D01*
X66611Y-44091D01*
X66639Y-44025D01*
X67400Y-44025D01*
X67543Y-43996D01*
X67665Y-43915D01*
X68050Y-43530D01*
X68104Y-43530D01*
X68299Y-43449D01*
X68449Y-43300D01*
X68529Y-43105D01*
X68530Y-42895D01*
X68449Y-42700D01*
X68300Y-42550D01*
X68105Y-42470D01*
X67895Y-42469D01*
X67700Y-42550D01*
X67550Y-42699D01*
X67470Y-42894D01*
X67469Y-43049D01*
X67244Y-43275D01*
X66650Y-43275D01*
X66650Y-42699D01*
X66650Y-42000D01*
X66612Y-41908D01*
X66541Y-41838D01*
X66449Y-41800D01*
X66350Y-41799D01*
X66112Y-41800D01*
X66050Y-41862D01*
X66050Y-42300D01*
X66587Y-42300D01*
X66650Y-42237D01*
X66650Y-42000D01*
X66650Y-42699D01*
X66650Y-42462D01*
X66587Y-42400D01*
X66050Y-42400D01*
X66050Y-42837D01*
X66112Y-42900D01*
X66350Y-42900D01*
X66449Y-42899D01*
X66541Y-42861D01*
X66612Y-42791D01*
X66650Y-42699D01*
X66650Y-43275D01*
X66639Y-43275D01*
X66612Y-43208D01*
X66541Y-43138D01*
X66449Y-43100D01*
X66350Y-43099D01*
X65550Y-43099D01*
X65475Y-43130D01*
X65450Y-43105D01*
X65450Y-42853D01*
X65458Y-42861D01*
X65550Y-42899D01*
X65649Y-42900D01*
X65887Y-42900D01*
X65950Y-42837D01*
X65950Y-42400D01*
X65942Y-42400D01*
X65942Y-42300D01*
X65950Y-42300D01*
X65950Y-41862D01*
X65887Y-41800D01*
X65649Y-41799D01*
X65550Y-41800D01*
X65458Y-41838D01*
X65450Y-41846D01*
X65450Y-40750D01*
X65436Y-40680D01*
X65445Y-40658D01*
X65445Y-40442D01*
X65362Y-40241D01*
X65209Y-40088D01*
X65008Y-40004D01*
X64792Y-40004D01*
X64591Y-40087D01*
X64500Y-40178D01*
X64459Y-40138D01*
X64258Y-40054D01*
X64042Y-40054D01*
X63975Y-40082D01*
X63975Y-39250D01*
X63974Y-39249D01*
X63946Y-39106D01*
X63865Y-38984D01*
X63865Y-38984D01*
X63730Y-38850D01*
X63750Y-38850D01*
X63883Y-38823D01*
X63883Y-38823D01*
X63997Y-38747D01*
X64897Y-37847D01*
X64973Y-37733D01*
X64973Y-37733D01*
X65000Y-37600D01*
X65000Y-32244D01*
X66099Y-31145D01*
X66257Y-31145D01*
X66458Y-31062D01*
X66611Y-30909D01*
X66695Y-30708D01*
X66695Y-30492D01*
X66612Y-30291D01*
X66459Y-30138D01*
X66258Y-30054D01*
X66042Y-30054D01*
X65841Y-30137D01*
X65688Y-30290D01*
X65604Y-30491D01*
X65604Y-30650D01*
X64402Y-31852D01*
X64326Y-31966D01*
X64300Y-32100D01*
X64300Y-37455D01*
X63605Y-38150D01*
X62975Y-38150D01*
X62850Y-38125D01*
X62560Y-38125D01*
X62527Y-38043D01*
X62456Y-37973D01*
X62409Y-37953D01*
X62490Y-37899D01*
X62613Y-37716D01*
X62656Y-37500D01*
X62613Y-37283D01*
X62490Y-37100D01*
X62340Y-37000D01*
X62490Y-36899D01*
X62613Y-36716D01*
X62656Y-36500D01*
X62613Y-36283D01*
X62490Y-36100D01*
X62340Y-36000D01*
X62490Y-35899D01*
X62613Y-35716D01*
X62656Y-35500D01*
X62613Y-35283D01*
X62490Y-35100D01*
X62340Y-35000D01*
X62490Y-34899D01*
X62613Y-34716D01*
X62656Y-34500D01*
X62613Y-34283D01*
X62490Y-34100D01*
X62340Y-34000D01*
X62490Y-33899D01*
X62613Y-33716D01*
X62656Y-33500D01*
X62613Y-33283D01*
X62490Y-33100D01*
X62340Y-33000D01*
X62490Y-32899D01*
X62613Y-32716D01*
X62656Y-32500D01*
X62613Y-32283D01*
X62490Y-32100D01*
X62340Y-32000D01*
X62490Y-31899D01*
X62523Y-31850D01*
X63700Y-31850D01*
X63833Y-31823D01*
X63833Y-31823D01*
X63947Y-31747D01*
X66047Y-29647D01*
X66123Y-29533D01*
X66123Y-29533D01*
X66150Y-29400D01*
X66150Y-27394D01*
X66535Y-27009D01*
X66505Y-27081D01*
X66505Y-27317D01*
X66595Y-27536D01*
X66762Y-27703D01*
X66776Y-27709D01*
X66752Y-27781D01*
X67100Y-28129D01*
X67447Y-27781D01*
X67423Y-27709D01*
X67436Y-27704D01*
X67600Y-27540D01*
X67762Y-27703D01*
X67776Y-27709D01*
X67752Y-27781D01*
X68100Y-28129D01*
X68447Y-27781D01*
X68423Y-27709D01*
X68436Y-27704D01*
X68600Y-27540D01*
X68759Y-27700D01*
X68596Y-27862D01*
X68590Y-27876D01*
X68518Y-27852D01*
X68170Y-28200D01*
X68518Y-28547D01*
X68590Y-28523D01*
X68595Y-28536D01*
X68762Y-28703D01*
X68981Y-28794D01*
X69217Y-28794D01*
X69436Y-28704D01*
X69600Y-28540D01*
X69762Y-28703D01*
X69981Y-28794D01*
X70217Y-28794D01*
X70436Y-28704D01*
X70600Y-28540D01*
X70607Y-28547D01*
X68452Y-30702D01*
X68447Y-30710D01*
X68447Y-28618D01*
X68100Y-28270D01*
X68029Y-28341D01*
X68029Y-28200D01*
X67681Y-27852D01*
X67600Y-27879D01*
X67518Y-27852D01*
X67170Y-28200D01*
X67518Y-28547D01*
X67600Y-28520D01*
X67681Y-28547D01*
X68029Y-28200D01*
X68029Y-28341D01*
X67752Y-28618D01*
X67785Y-28718D01*
X68007Y-28799D01*
X68243Y-28788D01*
X68414Y-28718D01*
X68447Y-28618D01*
X68447Y-30710D01*
X68376Y-30816D01*
X68350Y-30950D01*
X68350Y-31828D01*
X68238Y-31940D01*
X68154Y-32141D01*
X68154Y-32357D01*
X68237Y-32558D01*
X68390Y-32711D01*
X68591Y-32795D01*
X68807Y-32795D01*
X69008Y-32712D01*
X69161Y-32559D01*
X69245Y-32358D01*
X69245Y-32142D01*
X69162Y-31941D01*
X69050Y-31828D01*
X69050Y-31094D01*
X69528Y-30616D01*
X69587Y-30758D01*
X69740Y-30911D01*
X69941Y-30995D01*
X70157Y-30995D01*
X70358Y-30912D01*
X70471Y-30800D01*
X70900Y-30800D01*
X71033Y-30773D01*
X71033Y-30773D01*
X71147Y-30697D01*
X72697Y-29147D01*
X72697Y-29147D01*
X72697Y-29147D01*
X72773Y-29033D01*
X72800Y-28900D01*
X72799Y-28900D01*
X72800Y-28900D01*
X72800Y-26700D01*
X72773Y-26566D01*
X72697Y-26452D01*
X72047Y-25802D01*
X71968Y-25750D01*
X72855Y-25750D01*
X73575Y-26469D01*
X73575Y-39575D01*
X73601Y-39708D01*
X73632Y-39754D01*
X73599Y-39754D01*
X72097Y-38252D01*
X71983Y-38176D01*
X71850Y-38150D01*
X71021Y-38150D01*
X70909Y-38038D01*
X70803Y-37993D01*
X71366Y-37430D01*
X71404Y-37338D01*
X71404Y-37290D01*
X71449Y-37245D01*
X71607Y-37245D01*
X71808Y-37162D01*
X71961Y-37009D01*
X72045Y-36808D01*
X72045Y-36592D01*
X71962Y-36391D01*
X71809Y-36238D01*
X71608Y-36154D01*
X71392Y-36154D01*
X71191Y-36237D01*
X71038Y-36390D01*
X70954Y-36591D01*
X70954Y-36735D01*
X70872Y-36652D01*
X70780Y-36614D01*
X70680Y-36614D01*
X70588Y-36652D01*
X70518Y-36722D01*
X70485Y-36755D01*
X70485Y-36419D01*
X70485Y-36319D01*
X70447Y-36227D01*
X70279Y-36060D01*
X70191Y-36060D01*
X70120Y-36131D01*
X70120Y-35989D01*
X70120Y-35901D01*
X69952Y-35733D01*
X69861Y-35695D01*
X69761Y-35695D01*
X69669Y-35733D01*
X69599Y-35803D01*
X69431Y-35971D01*
X69431Y-36060D01*
X69740Y-36369D01*
X70120Y-35989D01*
X70120Y-36131D01*
X69811Y-36440D01*
X70120Y-36749D01*
X70208Y-36749D01*
X70377Y-36581D01*
X70447Y-36511D01*
X70485Y-36419D01*
X70485Y-36755D01*
X70049Y-37191D01*
X70049Y-36908D01*
X70049Y-36820D01*
X69740Y-36511D01*
X69669Y-36581D01*
X69669Y-36440D01*
X69360Y-36131D01*
X69271Y-36131D01*
X69103Y-36299D01*
X69033Y-36369D01*
X68995Y-36461D01*
X68995Y-36561D01*
X69033Y-36652D01*
X69201Y-36820D01*
X69289Y-36820D01*
X69669Y-36440D01*
X69669Y-36581D01*
X69360Y-36891D01*
X69360Y-36979D01*
X69527Y-37147D01*
X69619Y-37185D01*
X69719Y-37185D01*
X69811Y-37147D01*
X69881Y-37077D01*
X70049Y-36908D01*
X70049Y-37191D01*
X69952Y-37288D01*
X69914Y-37380D01*
X69914Y-37479D01*
X69952Y-37571D01*
X69921Y-37602D01*
X69830Y-37564D01*
X69730Y-37564D01*
X69638Y-37602D01*
X69568Y-37672D01*
X69535Y-37705D01*
X69535Y-37369D01*
X69535Y-37269D01*
X69497Y-37177D01*
X69329Y-37010D01*
X69241Y-37010D01*
X69170Y-37081D01*
X69170Y-36939D01*
X69170Y-36851D01*
X69002Y-36683D01*
X68911Y-36645D01*
X68811Y-36645D01*
X68719Y-36683D01*
X68649Y-36753D01*
X68481Y-36921D01*
X68481Y-37010D01*
X68790Y-37319D01*
X69170Y-36939D01*
X69170Y-37081D01*
X68861Y-37390D01*
X69170Y-37699D01*
X69258Y-37699D01*
X69427Y-37531D01*
X69497Y-37461D01*
X69535Y-37369D01*
X69535Y-37705D01*
X69099Y-38141D01*
X69099Y-37858D01*
X69099Y-37770D01*
X68790Y-37461D01*
X68410Y-37841D01*
X68410Y-37929D01*
X68577Y-38097D01*
X68669Y-38135D01*
X68769Y-38135D01*
X68861Y-38097D01*
X68931Y-38027D01*
X69099Y-37858D01*
X69099Y-38141D01*
X69002Y-38238D01*
X68964Y-38330D01*
X68964Y-38429D01*
X69002Y-38521D01*
X68924Y-38600D01*
X68794Y-38600D01*
X68200Y-38005D01*
X68200Y-37719D01*
X68251Y-37770D01*
X68339Y-37770D01*
X68719Y-37390D01*
X68410Y-37081D01*
X68365Y-37081D01*
X68395Y-37008D01*
X68395Y-36792D01*
X68312Y-36591D01*
X68159Y-36438D01*
X67958Y-36354D01*
X67742Y-36354D01*
X67541Y-36437D01*
X67447Y-36531D01*
X67447Y-28618D01*
X67100Y-28270D01*
X67029Y-28341D01*
X67029Y-28200D01*
X66681Y-27852D01*
X66581Y-27885D01*
X66500Y-28107D01*
X66511Y-28343D01*
X66581Y-28514D01*
X66681Y-28547D01*
X67029Y-28200D01*
X67029Y-28341D01*
X66752Y-28618D01*
X66785Y-28718D01*
X67007Y-28799D01*
X67243Y-28788D01*
X67414Y-28718D01*
X67447Y-28618D01*
X67447Y-36531D01*
X67388Y-36590D01*
X67304Y-36791D01*
X67304Y-37007D01*
X67387Y-37208D01*
X67500Y-37321D01*
X67500Y-38150D01*
X67526Y-38283D01*
X67602Y-38397D01*
X68364Y-39159D01*
X68352Y-39171D01*
X68276Y-39285D01*
X68250Y-39419D01*
X68250Y-41050D01*
X68276Y-41183D01*
X68352Y-41297D01*
X68504Y-41449D01*
X68504Y-41607D01*
X68587Y-41808D01*
X68740Y-41961D01*
X68941Y-42045D01*
X69157Y-42045D01*
X69358Y-41962D01*
X69511Y-41809D01*
X69595Y-41608D01*
X69595Y-41392D01*
X69512Y-41191D01*
X69359Y-41038D01*
X69158Y-40954D01*
X68999Y-40954D01*
X68950Y-40905D01*
X68950Y-39564D01*
X69316Y-39197D01*
X69316Y-39197D01*
X69497Y-39016D01*
X69588Y-39054D01*
X69688Y-39054D01*
X69780Y-39016D01*
X69850Y-38946D01*
X70093Y-38703D01*
X70137Y-38808D01*
X70290Y-38961D01*
X70491Y-39045D01*
X70707Y-39045D01*
X70908Y-38962D01*
X71021Y-38850D01*
X71705Y-38850D01*
X73104Y-40249D01*
X73104Y-40407D01*
X73187Y-40608D01*
X73340Y-40761D01*
X73541Y-40845D01*
X73757Y-40845D01*
X73850Y-40807D01*
X73850Y-46505D01*
X73850Y-46505D01*
G37*
G54D11*
X73850Y-46505D02*
X73700Y-46654D01*
X73700Y-46150D01*
X73700Y-45449D01*
X73699Y-45350D01*
X73661Y-45258D01*
X73591Y-45187D01*
X73499Y-45149D01*
X73262Y-45150D01*
X73200Y-45212D01*
X73200Y-45750D01*
X73637Y-45750D01*
X73700Y-45687D01*
X73700Y-45449D01*
X73700Y-46150D01*
X73700Y-45912D01*
X73637Y-45850D01*
X73200Y-45850D01*
X73200Y-46387D01*
X73262Y-46450D01*
X73499Y-46450D01*
X73591Y-46412D01*
X73661Y-46341D01*
X73699Y-46249D01*
X73700Y-46150D01*
X73700Y-46654D01*
X73527Y-46827D01*
X73527Y-46827D01*
X73502Y-46852D01*
X73502Y-46852D01*
X73100Y-47255D01*
X73100Y-46387D01*
X73100Y-45850D01*
X73100Y-45750D01*
X73100Y-45212D01*
X73037Y-45150D01*
X72800Y-45149D01*
X72708Y-45187D01*
X72638Y-45258D01*
X72600Y-45350D01*
X72599Y-45449D01*
X72600Y-45687D01*
X72662Y-45750D01*
X73100Y-45750D01*
X73100Y-45850D01*
X72662Y-45850D01*
X72600Y-45912D01*
X72599Y-46150D01*
X72600Y-46249D01*
X72638Y-46341D01*
X72708Y-46412D01*
X72800Y-46450D01*
X73037Y-46450D01*
X73100Y-46387D01*
X73100Y-47255D01*
X72905Y-47450D01*
X72400Y-47450D01*
X72400Y-46150D01*
X72400Y-45350D01*
X72362Y-45258D01*
X72291Y-45188D01*
X72200Y-45150D01*
X72200Y-45150D01*
X72173Y-45016D01*
X72097Y-44902D01*
X72097Y-44902D01*
X71847Y-44652D01*
X71733Y-44576D01*
X71600Y-44550D01*
X70986Y-44550D01*
X70962Y-44491D01*
X70809Y-44338D01*
X70608Y-44254D01*
X70392Y-44254D01*
X70191Y-44337D01*
X70038Y-44490D01*
X69954Y-44691D01*
X69954Y-44907D01*
X70037Y-45108D01*
X70190Y-45261D01*
X70391Y-45345D01*
X70607Y-45345D01*
X70808Y-45262D01*
X70821Y-45250D01*
X71346Y-45250D01*
X71338Y-45258D01*
X71300Y-45350D01*
X71299Y-45449D01*
X71299Y-46249D01*
X71337Y-46341D01*
X71408Y-46411D01*
X71500Y-46449D01*
X71599Y-46450D01*
X72199Y-46450D01*
X72291Y-46412D01*
X72361Y-46341D01*
X72399Y-46249D01*
X72400Y-46150D01*
X72400Y-47450D01*
X71000Y-47450D01*
X70999Y-47450D01*
X70866Y-47476D01*
X70752Y-47552D01*
X70752Y-47552D01*
X70052Y-48252D01*
X69976Y-48366D01*
X69950Y-48500D01*
X69950Y-48907D01*
X69855Y-49002D01*
X69799Y-49135D01*
X69745Y-49003D01*
X69597Y-48855D01*
X69404Y-48775D01*
X69196Y-48774D01*
X69003Y-48854D01*
X68855Y-49002D01*
X68799Y-49135D01*
X68745Y-49003D01*
X68627Y-48884D01*
X68623Y-48866D01*
X68547Y-48752D01*
X68547Y-48752D01*
X67500Y-47705D01*
X67500Y-47149D01*
X67591Y-47112D01*
X67661Y-47041D01*
X67699Y-46949D01*
X67700Y-46850D01*
X67700Y-46050D01*
X67662Y-45958D01*
X67591Y-45888D01*
X67550Y-45870D01*
X67550Y-45715D01*
X67570Y-45695D01*
X67657Y-45695D01*
X67858Y-45612D01*
X68011Y-45459D01*
X68095Y-45258D01*
X68095Y-45042D01*
X68012Y-44841D01*
X67971Y-44800D01*
X68024Y-44800D01*
X68150Y-44825D01*
X68293Y-44796D01*
X68415Y-44715D01*
X69690Y-43439D01*
X69699Y-43449D01*
X69817Y-43498D01*
X70234Y-43915D01*
X70356Y-43996D01*
X70500Y-44025D01*
X71360Y-44025D01*
X71387Y-44091D01*
X71458Y-44161D01*
X71550Y-44199D01*
X71649Y-44200D01*
X72449Y-44200D01*
X72541Y-44162D01*
X72611Y-44091D01*
X72649Y-43999D01*
X72650Y-43900D01*
X72650Y-43300D01*
X72650Y-42699D01*
X72650Y-42000D01*
X72612Y-41908D01*
X72541Y-41838D01*
X72449Y-41800D01*
X72350Y-41799D01*
X72112Y-41800D01*
X72050Y-41862D01*
X72050Y-42300D01*
X72587Y-42300D01*
X72650Y-42237D01*
X72650Y-42000D01*
X72650Y-42699D01*
X72650Y-42462D01*
X72587Y-42400D01*
X72050Y-42400D01*
X72050Y-42837D01*
X72112Y-42900D01*
X72350Y-42900D01*
X72449Y-42899D01*
X72541Y-42861D01*
X72612Y-42791D01*
X72650Y-42699D01*
X72650Y-43300D01*
X72612Y-43208D01*
X72541Y-43138D01*
X72449Y-43100D01*
X72350Y-43099D01*
X71950Y-43099D01*
X71950Y-42837D01*
X71950Y-42400D01*
X71950Y-42300D01*
X71950Y-41862D01*
X71887Y-41800D01*
X71649Y-41799D01*
X71550Y-41800D01*
X71458Y-41838D01*
X71387Y-41908D01*
X71349Y-42000D01*
X71350Y-42237D01*
X71412Y-42300D01*
X71950Y-42300D01*
X71950Y-42400D01*
X71412Y-42400D01*
X71350Y-42462D01*
X71349Y-42699D01*
X71387Y-42791D01*
X71458Y-42861D01*
X71550Y-42899D01*
X71649Y-42900D01*
X71887Y-42900D01*
X71950Y-42837D01*
X71950Y-43099D01*
X71550Y-43099D01*
X71458Y-43137D01*
X71388Y-43208D01*
X71360Y-43275D01*
X70655Y-43275D01*
X70517Y-43136D01*
X70529Y-43105D01*
X70530Y-42895D01*
X70449Y-42700D01*
X70300Y-42550D01*
X70105Y-42470D01*
X69895Y-42469D01*
X69700Y-42550D01*
X69625Y-42625D01*
X69600Y-42625D01*
X69456Y-42653D01*
X69334Y-42734D01*
X67969Y-44100D01*
X66603Y-44100D01*
X66611Y-44091D01*
X66639Y-44025D01*
X67400Y-44025D01*
X67543Y-43996D01*
X67665Y-43915D01*
X68050Y-43530D01*
X68104Y-43530D01*
X68299Y-43449D01*
X68449Y-43300D01*
X68529Y-43105D01*
X68530Y-42895D01*
X68449Y-42700D01*
X68300Y-42550D01*
X68105Y-42470D01*
X67895Y-42469D01*
X67700Y-42550D01*
X67550Y-42699D01*
X67470Y-42894D01*
X67469Y-43049D01*
X67244Y-43275D01*
X66650Y-43275D01*
X66650Y-42699D01*
X66650Y-42000D01*
X66612Y-41908D01*
X66541Y-41838D01*
X66449Y-41800D01*
X66350Y-41799D01*
X66112Y-41800D01*
X66050Y-41862D01*
X66050Y-42300D01*
X66587Y-42300D01*
X66650Y-42237D01*
X66650Y-42000D01*
X66650Y-42699D01*
X66650Y-42462D01*
X66587Y-42400D01*
X66050Y-42400D01*
X66050Y-42837D01*
X66112Y-42900D01*
X66350Y-42900D01*
X66449Y-42899D01*
X66541Y-42861D01*
X66612Y-42791D01*
X66650Y-42699D01*
X66650Y-43275D01*
X66639Y-43275D01*
X66612Y-43208D01*
X66541Y-43138D01*
X66449Y-43100D01*
X66350Y-43099D01*
X65550Y-43099D01*
X65475Y-43130D01*
X65450Y-43105D01*
X65450Y-42853D01*
X65458Y-42861D01*
X65550Y-42899D01*
X65649Y-42900D01*
X65887Y-42900D01*
X65950Y-42837D01*
X65950Y-42400D01*
X65942Y-42400D01*
X65942Y-42300D01*
X65950Y-42300D01*
X65950Y-41862D01*
X65887Y-41800D01*
X65649Y-41799D01*
X65550Y-41800D01*
X65458Y-41838D01*
X65450Y-41846D01*
X65450Y-40750D01*
X65436Y-40680D01*
X65445Y-40658D01*
X65445Y-40442D01*
X65362Y-40241D01*
X65209Y-40088D01*
X65008Y-40004D01*
X64792Y-40004D01*
X64591Y-40087D01*
X64500Y-40178D01*
X64459Y-40138D01*
X64258Y-40054D01*
X64042Y-40054D01*
X63975Y-40082D01*
X63975Y-39250D01*
X63974Y-39249D01*
X63946Y-39106D01*
X63865Y-38984D01*
X63865Y-38984D01*
X63730Y-38850D01*
X63750Y-38850D01*
X63883Y-38823D01*
X63883Y-38823D01*
X63997Y-38747D01*
X64897Y-37847D01*
X64973Y-37733D01*
X64973Y-37733D01*
X65000Y-37600D01*
X65000Y-32244D01*
X66099Y-31145D01*
X66257Y-31145D01*
X66458Y-31062D01*
X66611Y-30909D01*
X66695Y-30708D01*
X66695Y-30492D01*
X66612Y-30291D01*
X66459Y-30138D01*
X66258Y-30054D01*
X66042Y-30054D01*
X65841Y-30137D01*
X65688Y-30290D01*
X65604Y-30491D01*
X65604Y-30650D01*
X64402Y-31852D01*
X64326Y-31966D01*
X64300Y-32100D01*
X64300Y-37455D01*
X63605Y-38150D01*
X62975Y-38150D01*
X62850Y-38125D01*
X62560Y-38125D01*
X62527Y-38043D01*
X62456Y-37973D01*
X62409Y-37953D01*
X62490Y-37899D01*
X62613Y-37716D01*
X62656Y-37500D01*
X62613Y-37283D01*
X62490Y-37100D01*
X62340Y-37000D01*
X62490Y-36899D01*
X62613Y-36716D01*
X62656Y-36500D01*
X62613Y-36283D01*
X62490Y-36100D01*
X62340Y-36000D01*
X62490Y-35899D01*
X62613Y-35716D01*
X62656Y-35500D01*
X62613Y-35283D01*
X62490Y-35100D01*
X62340Y-35000D01*
X62490Y-34899D01*
X62613Y-34716D01*
X62656Y-34500D01*
X62613Y-34283D01*
X62490Y-34100D01*
X62340Y-34000D01*
X62490Y-33899D01*
X62613Y-33716D01*
X62656Y-33500D01*
X62613Y-33283D01*
X62490Y-33100D01*
X62340Y-33000D01*
X62490Y-32899D01*
X62613Y-32716D01*
X62656Y-32500D01*
X62613Y-32283D01*
X62490Y-32100D01*
X62340Y-32000D01*
X62490Y-31899D01*
X62523Y-31850D01*
X63700Y-31850D01*
X63833Y-31823D01*
X63833Y-31823D01*
X63947Y-31747D01*
X66047Y-29647D01*
X66123Y-29533D01*
X66123Y-29533D01*
X66150Y-29400D01*
X66150Y-27394D01*
X66535Y-27009D01*
X66505Y-27081D01*
X66505Y-27317D01*
X66595Y-27536D01*
X66762Y-27703D01*
X66776Y-27709D01*
X66752Y-27781D01*
X67100Y-28129D01*
X67447Y-27781D01*
X67423Y-27709D01*
X67436Y-27704D01*
X67600Y-27540D01*
X67762Y-27703D01*
X67776Y-27709D01*
X67752Y-27781D01*
X68100Y-28129D01*
X68447Y-27781D01*
X68423Y-27709D01*
X68436Y-27704D01*
X68600Y-27540D01*
X68759Y-27700D01*
X68596Y-27862D01*
X68590Y-27876D01*
X68518Y-27852D01*
X68170Y-28200D01*
X68518Y-28547D01*
X68590Y-28523D01*
X68595Y-28536D01*
X68762Y-28703D01*
X68981Y-28794D01*
X69217Y-28794D01*
X69436Y-28704D01*
X69600Y-28540D01*
X69762Y-28703D01*
X69981Y-28794D01*
X70217Y-28794D01*
X70436Y-28704D01*
X70600Y-28540D01*
X70607Y-28547D01*
X68452Y-30702D01*
X68447Y-30710D01*
X68447Y-28618D01*
X68100Y-28270D01*
X68029Y-28341D01*
X68029Y-28200D01*
X67681Y-27852D01*
X67600Y-27879D01*
X67518Y-27852D01*
X67170Y-28200D01*
X67518Y-28547D01*
X67600Y-28520D01*
X67681Y-28547D01*
X68029Y-28200D01*
X68029Y-28341D01*
X67752Y-28618D01*
X67785Y-28718D01*
X68007Y-28799D01*
X68243Y-28788D01*
X68414Y-28718D01*
X68447Y-28618D01*
X68447Y-30710D01*
X68376Y-30816D01*
X68350Y-30950D01*
X68350Y-31828D01*
X68238Y-31940D01*
X68154Y-32141D01*
X68154Y-32357D01*
X68237Y-32558D01*
X68390Y-32711D01*
X68591Y-32795D01*
X68807Y-32795D01*
X69008Y-32712D01*
X69161Y-32559D01*
X69245Y-32358D01*
X69245Y-32142D01*
X69162Y-31941D01*
X69050Y-31828D01*
X69050Y-31094D01*
X69528Y-30616D01*
X69587Y-30758D01*
X69740Y-30911D01*
X69941Y-30995D01*
X70157Y-30995D01*
X70358Y-30912D01*
X70471Y-30800D01*
X70900Y-30800D01*
X71033Y-30773D01*
X71033Y-30773D01*
X71147Y-30697D01*
X72697Y-29147D01*
X72697Y-29147D01*
X72697Y-29147D01*
X72773Y-29033D01*
X72800Y-28900D01*
X72799Y-28900D01*
X72800Y-28900D01*
X72800Y-26700D01*
X72773Y-26566D01*
X72697Y-26452D01*
X72047Y-25802D01*
X71968Y-25750D01*
X72855Y-25750D01*
X73575Y-26469D01*
X73575Y-39575D01*
X73601Y-39708D01*
X73632Y-39754D01*
X73599Y-39754D01*
X72097Y-38252D01*
X71983Y-38176D01*
X71850Y-38150D01*
X71021Y-38150D01*
X70909Y-38038D01*
X70803Y-37993D01*
X71366Y-37430D01*
X71404Y-37338D01*
X71404Y-37290D01*
X71449Y-37245D01*
X71607Y-37245D01*
X71808Y-37162D01*
X71961Y-37009D01*
X72045Y-36808D01*
X72045Y-36592D01*
X71962Y-36391D01*
X71809Y-36238D01*
X71608Y-36154D01*
X71392Y-36154D01*
X71191Y-36237D01*
X71038Y-36390D01*
X70954Y-36591D01*
X70954Y-36735D01*
X70872Y-36652D01*
X70780Y-36614D01*
X70680Y-36614D01*
X70588Y-36652D01*
X70518Y-36722D01*
X70485Y-36755D01*
X70485Y-36419D01*
X70485Y-36319D01*
X70447Y-36227D01*
X70279Y-36060D01*
X70191Y-36060D01*
X70120Y-36131D01*
X70120Y-35989D01*
X70120Y-35901D01*
X69952Y-35733D01*
X69861Y-35695D01*
X69761Y-35695D01*
X69669Y-35733D01*
X69599Y-35803D01*
X69431Y-35971D01*
X69431Y-36060D01*
X69740Y-36369D01*
X70120Y-35989D01*
X70120Y-36131D01*
X69811Y-36440D01*
X70120Y-36749D01*
X70208Y-36749D01*
X70377Y-36581D01*
X70447Y-36511D01*
X70485Y-36419D01*
X70485Y-36755D01*
X70049Y-37191D01*
X70049Y-36908D01*
X70049Y-36820D01*
X69740Y-36511D01*
X69669Y-36581D01*
X69669Y-36440D01*
X69360Y-36131D01*
X69271Y-36131D01*
X69103Y-36299D01*
X69033Y-36369D01*
X68995Y-36461D01*
X68995Y-36561D01*
X69033Y-36652D01*
X69201Y-36820D01*
X69289Y-36820D01*
X69669Y-36440D01*
X69669Y-36581D01*
X69360Y-36891D01*
X69360Y-36979D01*
X69527Y-37147D01*
X69619Y-37185D01*
X69719Y-37185D01*
X69811Y-37147D01*
X69881Y-37077D01*
X70049Y-36908D01*
X70049Y-37191D01*
X69952Y-37288D01*
X69914Y-37380D01*
X69914Y-37479D01*
X69952Y-37571D01*
X69921Y-37602D01*
X69830Y-37564D01*
X69730Y-37564D01*
X69638Y-37602D01*
X69568Y-37672D01*
X69535Y-37705D01*
X69535Y-37369D01*
X69535Y-37269D01*
X69497Y-37177D01*
X69329Y-37010D01*
X69241Y-37010D01*
X69170Y-37081D01*
X69170Y-36939D01*
X69170Y-36851D01*
X69002Y-36683D01*
X68911Y-36645D01*
X68811Y-36645D01*
X68719Y-36683D01*
X68649Y-36753D01*
X68481Y-36921D01*
X68481Y-37010D01*
X68790Y-37319D01*
X69170Y-36939D01*
X69170Y-37081D01*
X68861Y-37390D01*
X69170Y-37699D01*
X69258Y-37699D01*
X69427Y-37531D01*
X69497Y-37461D01*
X69535Y-37369D01*
X69535Y-37705D01*
X69099Y-38141D01*
X69099Y-37858D01*
X69099Y-37770D01*
X68790Y-37461D01*
X68410Y-37841D01*
X68410Y-37929D01*
X68577Y-38097D01*
X68669Y-38135D01*
X68769Y-38135D01*
X68861Y-38097D01*
X68931Y-38027D01*
X69099Y-37858D01*
X69099Y-38141D01*
X69002Y-38238D01*
X68964Y-38330D01*
X68964Y-38429D01*
X69002Y-38521D01*
X68924Y-38600D01*
X68794Y-38600D01*
X68200Y-38005D01*
X68200Y-37719D01*
X68251Y-37770D01*
X68339Y-37770D01*
X68719Y-37390D01*
X68410Y-37081D01*
X68365Y-37081D01*
X68395Y-37008D01*
X68395Y-36792D01*
X68312Y-36591D01*
X68159Y-36438D01*
X67958Y-36354D01*
X67742Y-36354D01*
X67541Y-36437D01*
X67447Y-36531D01*
X67447Y-28618D01*
X67100Y-28270D01*
X67029Y-28341D01*
X67029Y-28200D01*
X66681Y-27852D01*
X66581Y-27885D01*
X66500Y-28107D01*
X66511Y-28343D01*
X66581Y-28514D01*
X66681Y-28547D01*
X67029Y-28200D01*
X67029Y-28341D01*
X66752Y-28618D01*
X66785Y-28718D01*
X67007Y-28799D01*
X67243Y-28788D01*
X67414Y-28718D01*
X67447Y-28618D01*
X67447Y-36531D01*
X67388Y-36590D01*
X67304Y-36791D01*
X67304Y-37007D01*
X67387Y-37208D01*
X67500Y-37321D01*
X67500Y-38150D01*
X67526Y-38283D01*
X67602Y-38397D01*
X68364Y-39159D01*
X68352Y-39171D01*
X68276Y-39285D01*
X68250Y-39419D01*
X68250Y-41050D01*
X68276Y-41183D01*
X68352Y-41297D01*
X68504Y-41449D01*
X68504Y-41607D01*
X68587Y-41808D01*
X68740Y-41961D01*
X68941Y-42045D01*
X69157Y-42045D01*
X69358Y-41962D01*
X69511Y-41809D01*
X69595Y-41608D01*
X69595Y-41392D01*
X69512Y-41191D01*
X69359Y-41038D01*
X69158Y-40954D01*
X68999Y-40954D01*
X68950Y-40905D01*
X68950Y-39564D01*
X69316Y-39197D01*
X69316Y-39197D01*
X69497Y-39016D01*
X69588Y-39054D01*
X69688Y-39054D01*
X69780Y-39016D01*
X69850Y-38946D01*
X70093Y-38703D01*
X70137Y-38808D01*
X70290Y-38961D01*
X70491Y-39045D01*
X70707Y-39045D01*
X70908Y-38962D01*
X71021Y-38850D01*
X71705Y-38850D01*
X73104Y-40249D01*
X73104Y-40407D01*
X73187Y-40608D01*
X73340Y-40761D01*
X73541Y-40845D01*
X73757Y-40845D01*
X73850Y-40807D01*
X73850Y-46505D01*
G54D10*
G36*
X76698Y-51738D02*
X76656Y-51738D01*
X76656Y-46500D01*
X76613Y-46283D01*
X76490Y-46100D01*
X76340Y-46000D01*
X76490Y-45899D01*
X76613Y-45716D01*
X76656Y-45500D01*
X76613Y-45283D01*
X76490Y-45100D01*
X76340Y-45000D01*
X76490Y-44899D01*
X76613Y-44716D01*
X76656Y-44500D01*
X76613Y-44283D01*
X76490Y-44100D01*
X76340Y-44000D01*
X76490Y-43899D01*
X76613Y-43716D01*
X76656Y-43500D01*
X76613Y-43283D01*
X76490Y-43100D01*
X76340Y-43000D01*
X76490Y-42899D01*
X76613Y-42716D01*
X76656Y-42500D01*
X76613Y-42283D01*
X76490Y-42100D01*
X76340Y-42000D01*
X76490Y-41899D01*
X76613Y-41716D01*
X76656Y-41500D01*
X76613Y-41283D01*
X76490Y-41100D01*
X76340Y-41000D01*
X76490Y-40899D01*
X76613Y-40716D01*
X76656Y-40500D01*
X76613Y-40283D01*
X76490Y-40100D01*
X76340Y-40000D01*
X76490Y-39899D01*
X76613Y-39716D01*
X76656Y-39500D01*
X76613Y-39283D01*
X76490Y-39100D01*
X76340Y-39000D01*
X76490Y-38899D01*
X76613Y-38716D01*
X76656Y-38500D01*
X76613Y-38283D01*
X76490Y-38100D01*
X76340Y-38000D01*
X76490Y-37899D01*
X76613Y-37716D01*
X76656Y-37500D01*
X76613Y-37283D01*
X76490Y-37100D01*
X76340Y-37000D01*
X76490Y-36899D01*
X76613Y-36716D01*
X76656Y-36500D01*
X76613Y-36283D01*
X76490Y-36100D01*
X76340Y-36000D01*
X76490Y-35899D01*
X76613Y-35716D01*
X76656Y-35500D01*
X76613Y-35283D01*
X76490Y-35100D01*
X76340Y-35000D01*
X76490Y-34899D01*
X76613Y-34716D01*
X76656Y-34500D01*
X76613Y-34283D01*
X76490Y-34100D01*
X76340Y-34000D01*
X76490Y-33899D01*
X76613Y-33716D01*
X76656Y-33500D01*
X76613Y-33283D01*
X76490Y-33100D01*
X76340Y-33000D01*
X76490Y-32899D01*
X76613Y-32716D01*
X76656Y-32500D01*
X76613Y-32283D01*
X76490Y-32100D01*
X76340Y-32000D01*
X76490Y-31899D01*
X76613Y-31716D01*
X76656Y-31500D01*
X76613Y-31283D01*
X76490Y-31100D01*
X76340Y-31000D01*
X76490Y-30899D01*
X76613Y-30716D01*
X76656Y-30500D01*
X76613Y-30283D01*
X76490Y-30100D01*
X76341Y-30000D01*
X76350Y-29997D01*
X76519Y-29856D01*
X76622Y-29660D01*
X76626Y-29637D01*
X76626Y-29362D01*
X76622Y-29339D01*
X76519Y-29143D01*
X76405Y-29048D01*
X76456Y-29027D01*
X76526Y-28956D01*
X76564Y-28864D01*
X76565Y-28765D01*
X76565Y-28135D01*
X76527Y-28043D01*
X76456Y-27973D01*
X76364Y-27935D01*
X76265Y-27934D01*
X75635Y-27934D01*
X75543Y-27972D01*
X75473Y-28043D01*
X75435Y-28135D01*
X75434Y-28234D01*
X75434Y-28864D01*
X75472Y-28956D01*
X75543Y-29026D01*
X75594Y-29048D01*
X75480Y-29143D01*
X75377Y-29339D01*
X75373Y-29362D01*
X75421Y-29450D01*
X75950Y-29450D01*
X75950Y-29442D01*
X76050Y-29442D01*
X76050Y-29450D01*
X76578Y-29450D01*
X76626Y-29362D01*
X76626Y-29637D01*
X76578Y-29550D01*
X76050Y-29550D01*
X76050Y-29557D01*
X75950Y-29557D01*
X75950Y-29550D01*
X75421Y-29550D01*
X75373Y-29637D01*
X75377Y-29660D01*
X75480Y-29856D01*
X75649Y-29997D01*
X75658Y-30000D01*
X75509Y-30100D01*
X75386Y-30283D01*
X75343Y-30500D01*
X75386Y-30716D01*
X75509Y-30899D01*
X75659Y-31000D01*
X75509Y-31100D01*
X75386Y-31283D01*
X75343Y-31500D01*
X75386Y-31716D01*
X75509Y-31899D01*
X75659Y-32000D01*
X75509Y-32100D01*
X75386Y-32283D01*
X75343Y-32500D01*
X75386Y-32716D01*
X75509Y-32899D01*
X75659Y-33000D01*
X75509Y-33100D01*
X75386Y-33283D01*
X75343Y-33500D01*
X75386Y-33716D01*
X75509Y-33899D01*
X75659Y-34000D01*
X75509Y-34100D01*
X75386Y-34283D01*
X75343Y-34500D01*
X75386Y-34716D01*
X75509Y-34899D01*
X75659Y-35000D01*
X75509Y-35100D01*
X75386Y-35283D01*
X75343Y-35500D01*
X75386Y-35716D01*
X75509Y-35899D01*
X75659Y-36000D01*
X75509Y-36100D01*
X75386Y-36283D01*
X75343Y-36500D01*
X75386Y-36716D01*
X75509Y-36899D01*
X75659Y-37000D01*
X75509Y-37100D01*
X75386Y-37283D01*
X75343Y-37500D01*
X75386Y-37716D01*
X75509Y-37899D01*
X75659Y-38000D01*
X75509Y-38100D01*
X75386Y-38283D01*
X75343Y-38500D01*
X75386Y-38716D01*
X75509Y-38899D01*
X75659Y-39000D01*
X75509Y-39100D01*
X75386Y-39283D01*
X75343Y-39500D01*
X75386Y-39716D01*
X75509Y-39899D01*
X75659Y-40000D01*
X75509Y-40100D01*
X75386Y-40283D01*
X75343Y-40500D01*
X75386Y-40716D01*
X75509Y-40899D01*
X75659Y-41000D01*
X75509Y-41100D01*
X75386Y-41283D01*
X75343Y-41500D01*
X75386Y-41716D01*
X75509Y-41899D01*
X75659Y-42000D01*
X75509Y-42100D01*
X75386Y-42283D01*
X75343Y-42500D01*
X75386Y-42716D01*
X75509Y-42899D01*
X75659Y-43000D01*
X75509Y-43100D01*
X75386Y-43283D01*
X75343Y-43500D01*
X75386Y-43716D01*
X75509Y-43899D01*
X75659Y-44000D01*
X75509Y-44100D01*
X75386Y-44283D01*
X75343Y-44500D01*
X75386Y-44716D01*
X75509Y-44899D01*
X75659Y-45000D01*
X75509Y-45100D01*
X75386Y-45283D01*
X75343Y-45500D01*
X75386Y-45716D01*
X75509Y-45899D01*
X75659Y-46000D01*
X75509Y-46100D01*
X75386Y-46283D01*
X75343Y-46500D01*
X75386Y-46716D01*
X75509Y-46899D01*
X75590Y-46953D01*
X75543Y-46972D01*
X75473Y-47043D01*
X75435Y-47135D01*
X75434Y-47234D01*
X75434Y-47864D01*
X75472Y-47956D01*
X75543Y-48026D01*
X75635Y-48064D01*
X75734Y-48065D01*
X76364Y-48065D01*
X76456Y-48027D01*
X76526Y-47956D01*
X76564Y-47864D01*
X76565Y-47765D01*
X76565Y-47135D01*
X76527Y-47043D01*
X76456Y-46973D01*
X76409Y-46953D01*
X76490Y-46899D01*
X76613Y-46716D01*
X76656Y-46500D01*
X76656Y-51738D01*
X74859Y-51738D01*
X74933Y-51723D01*
X74933Y-51723D01*
X75047Y-51647D01*
X76069Y-50625D01*
X76324Y-50625D01*
X76416Y-50587D01*
X76486Y-50516D01*
X76524Y-50424D01*
X76525Y-50325D01*
X76525Y-49775D01*
X76487Y-49683D01*
X76416Y-49613D01*
X76324Y-49575D01*
X76225Y-49574D01*
X76225Y-49574D01*
X76297Y-49545D01*
X76444Y-49397D01*
X76524Y-49204D01*
X76525Y-48996D01*
X76445Y-48803D01*
X76297Y-48655D01*
X76104Y-48575D01*
X75896Y-48574D01*
X75703Y-48654D01*
X75555Y-48802D01*
X75475Y-48995D01*
X75474Y-49203D01*
X75554Y-49397D01*
X75702Y-49544D01*
X75774Y-49574D01*
X75675Y-49574D01*
X75583Y-49612D01*
X75513Y-49683D01*
X75475Y-49775D01*
X75474Y-49874D01*
X75474Y-50230D01*
X74655Y-51050D01*
X66661Y-51050D01*
X66661Y-50120D01*
X66250Y-50120D01*
X66250Y-49762D01*
X66250Y-49350D01*
X66250Y-49250D01*
X66250Y-48837D01*
X66187Y-48775D01*
X65975Y-48774D01*
X65883Y-48812D01*
X65813Y-48883D01*
X65775Y-48975D01*
X65774Y-49074D01*
X65775Y-49187D01*
X65837Y-49250D01*
X66250Y-49250D01*
X66250Y-49350D01*
X65837Y-49350D01*
X65775Y-49412D01*
X65774Y-49525D01*
X65775Y-49624D01*
X65813Y-49716D01*
X65883Y-49787D01*
X65975Y-49825D01*
X66187Y-49825D01*
X66250Y-49762D01*
X66250Y-50120D01*
X64557Y-50120D01*
X64569Y-50085D01*
X64558Y-49860D01*
X64493Y-49703D01*
X64396Y-49673D01*
X64326Y-49744D01*
X64326Y-49603D01*
X64296Y-49506D01*
X64085Y-49430D01*
X63860Y-49441D01*
X63703Y-49506D01*
X63673Y-49603D01*
X64000Y-49929D01*
X64326Y-49603D01*
X64326Y-49744D01*
X64070Y-50000D01*
X64396Y-50326D01*
X64493Y-50296D01*
X64538Y-50173D01*
X64538Y-51050D01*
X64326Y-51050D01*
X64326Y-50396D01*
X64000Y-50070D01*
X63929Y-50141D01*
X63929Y-50000D01*
X63603Y-49673D01*
X63506Y-49703D01*
X63430Y-49914D01*
X63441Y-50139D01*
X63506Y-50296D01*
X63603Y-50326D01*
X63929Y-50000D01*
X63929Y-50141D01*
X63673Y-50396D01*
X63703Y-50493D01*
X63914Y-50569D01*
X64139Y-50558D01*
X64296Y-50493D01*
X64326Y-50396D01*
X64326Y-51050D01*
X63544Y-51050D01*
X62564Y-50069D01*
X62565Y-49888D01*
X62479Y-49680D01*
X62320Y-49521D01*
X62112Y-49435D01*
X61888Y-49434D01*
X61680Y-49520D01*
X61521Y-49679D01*
X61435Y-49887D01*
X61434Y-50111D01*
X61520Y-50319D01*
X61679Y-50478D01*
X61887Y-50564D01*
X62070Y-50565D01*
X63152Y-51647D01*
X63266Y-51723D01*
X63340Y-51738D01*
X61293Y-51738D01*
X61293Y-24015D01*
X61500Y-24056D01*
X61716Y-24013D01*
X61899Y-23890D01*
X62000Y-23740D01*
X62100Y-23890D01*
X62283Y-24013D01*
X62500Y-24056D01*
X62716Y-24013D01*
X62899Y-23890D01*
X63000Y-23740D01*
X63100Y-23890D01*
X63283Y-24013D01*
X63500Y-24056D01*
X63716Y-24013D01*
X63899Y-23890D01*
X64000Y-23740D01*
X64100Y-23890D01*
X64283Y-24013D01*
X64500Y-24056D01*
X64716Y-24013D01*
X64899Y-23890D01*
X65000Y-23740D01*
X65100Y-23890D01*
X65283Y-24013D01*
X65500Y-24056D01*
X65716Y-24013D01*
X65899Y-23890D01*
X66000Y-23740D01*
X66100Y-23890D01*
X66283Y-24013D01*
X66500Y-24056D01*
X66716Y-24013D01*
X66899Y-23890D01*
X67000Y-23740D01*
X67100Y-23890D01*
X67283Y-24013D01*
X67500Y-24056D01*
X67716Y-24013D01*
X67899Y-23890D01*
X67953Y-23809D01*
X67972Y-23856D01*
X68043Y-23926D01*
X68135Y-23964D01*
X68150Y-23964D01*
X68150Y-24419D01*
X68069Y-24500D01*
X66625Y-24500D01*
X66481Y-24528D01*
X66359Y-24609D01*
X66144Y-24825D01*
X65900Y-24825D01*
X63400Y-24825D01*
X63256Y-24853D01*
X63134Y-24934D01*
X61796Y-26273D01*
X61752Y-26302D01*
X61676Y-26416D01*
X61674Y-26424D01*
X61653Y-26456D01*
X61625Y-26600D01*
X61625Y-27939D01*
X61543Y-27972D01*
X61473Y-28043D01*
X61435Y-28135D01*
X61434Y-28234D01*
X61434Y-28864D01*
X61472Y-28956D01*
X61543Y-29026D01*
X61590Y-29046D01*
X61509Y-29100D01*
X61386Y-29283D01*
X61343Y-29500D01*
X61386Y-29716D01*
X61509Y-29899D01*
X61659Y-30000D01*
X61509Y-30100D01*
X61386Y-30283D01*
X61343Y-30500D01*
X61386Y-30716D01*
X61509Y-30899D01*
X61659Y-31000D01*
X61509Y-31100D01*
X61386Y-31283D01*
X61343Y-31500D01*
X61386Y-31716D01*
X61509Y-31899D01*
X61659Y-32000D01*
X61509Y-32100D01*
X61386Y-32283D01*
X61343Y-32500D01*
X61386Y-32716D01*
X61509Y-32899D01*
X61659Y-33000D01*
X61509Y-33100D01*
X61386Y-33283D01*
X61343Y-33500D01*
X61386Y-33716D01*
X61509Y-33899D01*
X61659Y-34000D01*
X61509Y-34100D01*
X61386Y-34283D01*
X61343Y-34500D01*
X61386Y-34716D01*
X61509Y-34899D01*
X61659Y-35000D01*
X61509Y-35100D01*
X61386Y-35283D01*
X61343Y-35500D01*
X61386Y-35716D01*
X61509Y-35899D01*
X61659Y-36000D01*
X61509Y-36100D01*
X61386Y-36283D01*
X61343Y-36500D01*
X61386Y-36716D01*
X61509Y-36899D01*
X61659Y-37000D01*
X61509Y-37100D01*
X61386Y-37283D01*
X61343Y-37500D01*
X61386Y-37716D01*
X61509Y-37899D01*
X61590Y-37953D01*
X61543Y-37972D01*
X61473Y-38043D01*
X61435Y-38135D01*
X61434Y-38234D01*
X61434Y-38864D01*
X61472Y-38956D01*
X61543Y-39026D01*
X61590Y-39046D01*
X61509Y-39100D01*
X61386Y-39283D01*
X61343Y-39500D01*
X61386Y-39716D01*
X61509Y-39899D01*
X61659Y-40000D01*
X61509Y-40100D01*
X61386Y-40283D01*
X61343Y-40500D01*
X61386Y-40716D01*
X61509Y-40899D01*
X61659Y-41000D01*
X61509Y-41100D01*
X61386Y-41283D01*
X61343Y-41500D01*
X61386Y-41716D01*
X61509Y-41899D01*
X61659Y-42000D01*
X61509Y-42100D01*
X61386Y-42283D01*
X61343Y-42500D01*
X61386Y-42716D01*
X61509Y-42899D01*
X61659Y-43000D01*
X61509Y-43100D01*
X61386Y-43283D01*
X61343Y-43500D01*
X61386Y-43716D01*
X61509Y-43899D01*
X61659Y-44000D01*
X61509Y-44100D01*
X61386Y-44283D01*
X61343Y-44500D01*
X61386Y-44716D01*
X61509Y-44899D01*
X61659Y-45000D01*
X61509Y-45100D01*
X61386Y-45283D01*
X61343Y-45500D01*
X61386Y-45716D01*
X61509Y-45899D01*
X61659Y-46000D01*
X61509Y-46100D01*
X61386Y-46283D01*
X61343Y-46500D01*
X61386Y-46716D01*
X61509Y-46899D01*
X61659Y-47000D01*
X61509Y-47100D01*
X61386Y-47283D01*
X61343Y-47500D01*
X61386Y-47716D01*
X61509Y-47899D01*
X61692Y-48021D01*
X61908Y-48064D01*
X62091Y-48064D01*
X62307Y-48021D01*
X62490Y-47899D01*
X62613Y-47716D01*
X62656Y-47500D01*
X62613Y-47283D01*
X62490Y-47100D01*
X62340Y-47000D01*
X62490Y-46899D01*
X62613Y-46716D01*
X62656Y-46500D01*
X62613Y-46283D01*
X62490Y-46100D01*
X62340Y-46000D01*
X62490Y-45899D01*
X62613Y-45716D01*
X62656Y-45500D01*
X62613Y-45283D01*
X62490Y-45100D01*
X62340Y-45000D01*
X62490Y-44899D01*
X62613Y-44716D01*
X62656Y-44500D01*
X62613Y-44283D01*
X62490Y-44100D01*
X62340Y-44000D01*
X62490Y-43899D01*
X62613Y-43716D01*
X62656Y-43500D01*
X62613Y-43283D01*
X62490Y-43100D01*
X62340Y-43000D01*
X62490Y-42899D01*
X62613Y-42716D01*
X62656Y-42500D01*
X62613Y-42283D01*
X62490Y-42100D01*
X62340Y-42000D01*
X62490Y-41899D01*
X62613Y-41716D01*
X62656Y-41500D01*
X62613Y-41283D01*
X62490Y-41100D01*
X62340Y-41000D01*
X62490Y-40899D01*
X62613Y-40716D01*
X62656Y-40500D01*
X62613Y-40283D01*
X62490Y-40100D01*
X62340Y-40000D01*
X62490Y-39899D01*
X62613Y-39716D01*
X62656Y-39500D01*
X62613Y-39283D01*
X62490Y-39100D01*
X62409Y-39046D01*
X62456Y-39027D01*
X62526Y-38956D01*
X62560Y-38875D01*
X62694Y-38875D01*
X63225Y-39405D01*
X63225Y-41150D01*
X63253Y-41293D01*
X63334Y-41415D01*
X64000Y-42080D01*
X64000Y-43950D01*
X64026Y-44083D01*
X64102Y-44197D01*
X65450Y-45544D01*
X65450Y-45870D01*
X65408Y-45887D01*
X65338Y-45958D01*
X65300Y-46050D01*
X65299Y-46149D01*
X65299Y-46161D01*
X65217Y-46217D01*
X64679Y-46754D01*
X64592Y-46754D01*
X64391Y-46837D01*
X64238Y-46990D01*
X64154Y-47191D01*
X64154Y-47407D01*
X64237Y-47608D01*
X64390Y-47761D01*
X64591Y-47845D01*
X64807Y-47845D01*
X65008Y-47762D01*
X65161Y-47609D01*
X65245Y-47408D01*
X65245Y-47320D01*
X65440Y-47125D01*
X65500Y-47149D01*
X65599Y-47150D01*
X66199Y-47150D01*
X66291Y-47112D01*
X66361Y-47041D01*
X66399Y-46949D01*
X66400Y-46850D01*
X66400Y-46050D01*
X66362Y-45958D01*
X66291Y-45888D01*
X66250Y-45870D01*
X66250Y-45450D01*
X66219Y-45296D01*
X66132Y-45167D01*
X66003Y-45080D01*
X65968Y-45073D01*
X65694Y-44800D01*
X65900Y-44800D01*
X67128Y-44800D01*
X67088Y-44840D01*
X67004Y-45041D01*
X67004Y-45129D01*
X66867Y-45267D01*
X66780Y-45396D01*
X66775Y-45422D01*
X66750Y-45550D01*
X66750Y-45870D01*
X66708Y-45887D01*
X66638Y-45958D01*
X66600Y-46050D01*
X66599Y-46149D01*
X66599Y-46949D01*
X66637Y-47041D01*
X66708Y-47111D01*
X66800Y-47149D01*
X66800Y-47850D01*
X66826Y-47983D01*
X66902Y-48097D01*
X67841Y-49036D01*
X67799Y-49135D01*
X67745Y-49003D01*
X67597Y-48855D01*
X67404Y-48775D01*
X67196Y-48774D01*
X67003Y-48854D01*
X66855Y-49002D01*
X66825Y-49074D01*
X66825Y-49074D01*
X66824Y-48975D01*
X66786Y-48883D01*
X66716Y-48812D01*
X66624Y-48774D01*
X66412Y-48775D01*
X66350Y-48837D01*
X66350Y-49250D01*
X66357Y-49250D01*
X66357Y-49350D01*
X66350Y-49350D01*
X66350Y-49762D01*
X66412Y-49825D01*
X66624Y-49825D01*
X66716Y-49787D01*
X66786Y-49716D01*
X66824Y-49624D01*
X66825Y-49525D01*
X66825Y-49525D01*
X66854Y-49597D01*
X67002Y-49744D01*
X67195Y-49824D01*
X67403Y-49825D01*
X67597Y-49745D01*
X67744Y-49597D01*
X67800Y-49464D01*
X67854Y-49597D01*
X68002Y-49744D01*
X68195Y-49824D01*
X68403Y-49825D01*
X68597Y-49745D01*
X68744Y-49597D01*
X68800Y-49464D01*
X68854Y-49597D01*
X68960Y-49703D01*
X68976Y-49783D01*
X69052Y-49897D01*
X69502Y-50347D01*
X69616Y-50423D01*
X69616Y-50423D01*
X69750Y-50450D01*
X73100Y-50450D01*
X73233Y-50423D01*
X73233Y-50423D01*
X73347Y-50347D01*
X73697Y-49997D01*
X73697Y-49997D01*
X73697Y-49997D01*
X73773Y-49883D01*
X73799Y-49750D01*
X73800Y-49750D01*
X73800Y-48544D01*
X74847Y-47497D01*
X74847Y-47497D01*
X74847Y-47497D01*
X74923Y-47383D01*
X74950Y-47250D01*
X74949Y-47250D01*
X74950Y-47250D01*
X74950Y-40300D01*
X74950Y-39600D01*
X74923Y-39466D01*
X74847Y-39352D01*
X74847Y-39352D01*
X74700Y-39205D01*
X74700Y-26050D01*
X74673Y-25916D01*
X74597Y-25802D01*
X74597Y-25802D01*
X73497Y-24702D01*
X73383Y-24626D01*
X73250Y-24600D01*
X68944Y-24600D01*
X68857Y-24512D01*
X68850Y-24474D01*
X68850Y-23965D01*
X68864Y-23965D01*
X68956Y-23927D01*
X69000Y-23883D01*
X69043Y-23926D01*
X69135Y-23964D01*
X69234Y-23965D01*
X69864Y-23965D01*
X69956Y-23927D01*
X70026Y-23856D01*
X70046Y-23809D01*
X70100Y-23890D01*
X70283Y-24013D01*
X70500Y-24056D01*
X70716Y-24013D01*
X70899Y-23890D01*
X71000Y-23740D01*
X71100Y-23890D01*
X71283Y-24013D01*
X71500Y-24056D01*
X71716Y-24013D01*
X71899Y-23890D01*
X72000Y-23740D01*
X72100Y-23890D01*
X72283Y-24013D01*
X72500Y-24056D01*
X72716Y-24013D01*
X72899Y-23890D01*
X73000Y-23740D01*
X73100Y-23890D01*
X73283Y-24013D01*
X73500Y-24056D01*
X73716Y-24013D01*
X73899Y-23890D01*
X74000Y-23740D01*
X74100Y-23890D01*
X74283Y-24013D01*
X74500Y-24056D01*
X74716Y-24013D01*
X74899Y-23890D01*
X75000Y-23740D01*
X75100Y-23890D01*
X75283Y-24013D01*
X75500Y-24056D01*
X75716Y-24013D01*
X75899Y-23890D01*
X76000Y-23740D01*
X76100Y-23890D01*
X76283Y-24013D01*
X76500Y-24056D01*
X76698Y-24016D01*
X76698Y-51738D01*
X76698Y-51738D01*
G37*
G54D11*
X76698Y-51738D02*
X76656Y-51738D01*
X76656Y-46500D01*
X76613Y-46283D01*
X76490Y-46100D01*
X76340Y-46000D01*
X76490Y-45899D01*
X76613Y-45716D01*
X76656Y-45500D01*
X76613Y-45283D01*
X76490Y-45100D01*
X76340Y-45000D01*
X76490Y-44899D01*
X76613Y-44716D01*
X76656Y-44500D01*
X76613Y-44283D01*
X76490Y-44100D01*
X76340Y-44000D01*
X76490Y-43899D01*
X76613Y-43716D01*
X76656Y-43500D01*
X76613Y-43283D01*
X76490Y-43100D01*
X76340Y-43000D01*
X76490Y-42899D01*
X76613Y-42716D01*
X76656Y-42500D01*
X76613Y-42283D01*
X76490Y-42100D01*
X76340Y-42000D01*
X76490Y-41899D01*
X76613Y-41716D01*
X76656Y-41500D01*
X76613Y-41283D01*
X76490Y-41100D01*
X76340Y-41000D01*
X76490Y-40899D01*
X76613Y-40716D01*
X76656Y-40500D01*
X76613Y-40283D01*
X76490Y-40100D01*
X76340Y-40000D01*
X76490Y-39899D01*
X76613Y-39716D01*
X76656Y-39500D01*
X76613Y-39283D01*
X76490Y-39100D01*
X76340Y-39000D01*
X76490Y-38899D01*
X76613Y-38716D01*
X76656Y-38500D01*
X76613Y-38283D01*
X76490Y-38100D01*
X76340Y-38000D01*
X76490Y-37899D01*
X76613Y-37716D01*
X76656Y-37500D01*
X76613Y-37283D01*
X76490Y-37100D01*
X76340Y-37000D01*
X76490Y-36899D01*
X76613Y-36716D01*
X76656Y-36500D01*
X76613Y-36283D01*
X76490Y-36100D01*
X76340Y-36000D01*
X76490Y-35899D01*
X76613Y-35716D01*
X76656Y-35500D01*
X76613Y-35283D01*
X76490Y-35100D01*
X76340Y-35000D01*
X76490Y-34899D01*
X76613Y-34716D01*
X76656Y-34500D01*
X76613Y-34283D01*
X76490Y-34100D01*
X76340Y-34000D01*
X76490Y-33899D01*
X76613Y-33716D01*
X76656Y-33500D01*
X76613Y-33283D01*
X76490Y-33100D01*
X76340Y-33000D01*
X76490Y-32899D01*
X76613Y-32716D01*
X76656Y-32500D01*
X76613Y-32283D01*
X76490Y-32100D01*
X76340Y-32000D01*
X76490Y-31899D01*
X76613Y-31716D01*
X76656Y-31500D01*
X76613Y-31283D01*
X76490Y-31100D01*
X76340Y-31000D01*
X76490Y-30899D01*
X76613Y-30716D01*
X76656Y-30500D01*
X76613Y-30283D01*
X76490Y-30100D01*
X76341Y-30000D01*
X76350Y-29997D01*
X76519Y-29856D01*
X76622Y-29660D01*
X76626Y-29637D01*
X76626Y-29362D01*
X76622Y-29339D01*
X76519Y-29143D01*
X76405Y-29048D01*
X76456Y-29027D01*
X76526Y-28956D01*
X76564Y-28864D01*
X76565Y-28765D01*
X76565Y-28135D01*
X76527Y-28043D01*
X76456Y-27973D01*
X76364Y-27935D01*
X76265Y-27934D01*
X75635Y-27934D01*
X75543Y-27972D01*
X75473Y-28043D01*
X75435Y-28135D01*
X75434Y-28234D01*
X75434Y-28864D01*
X75472Y-28956D01*
X75543Y-29026D01*
X75594Y-29048D01*
X75480Y-29143D01*
X75377Y-29339D01*
X75373Y-29362D01*
X75421Y-29450D01*
X75950Y-29450D01*
X75950Y-29442D01*
X76050Y-29442D01*
X76050Y-29450D01*
X76578Y-29450D01*
X76626Y-29362D01*
X76626Y-29637D01*
X76578Y-29550D01*
X76050Y-29550D01*
X76050Y-29557D01*
X75950Y-29557D01*
X75950Y-29550D01*
X75421Y-29550D01*
X75373Y-29637D01*
X75377Y-29660D01*
X75480Y-29856D01*
X75649Y-29997D01*
X75658Y-30000D01*
X75509Y-30100D01*
X75386Y-30283D01*
X75343Y-30500D01*
X75386Y-30716D01*
X75509Y-30899D01*
X75659Y-31000D01*
X75509Y-31100D01*
X75386Y-31283D01*
X75343Y-31500D01*
X75386Y-31716D01*
X75509Y-31899D01*
X75659Y-32000D01*
X75509Y-32100D01*
X75386Y-32283D01*
X75343Y-32500D01*
X75386Y-32716D01*
X75509Y-32899D01*
X75659Y-33000D01*
X75509Y-33100D01*
X75386Y-33283D01*
X75343Y-33500D01*
X75386Y-33716D01*
X75509Y-33899D01*
X75659Y-34000D01*
X75509Y-34100D01*
X75386Y-34283D01*
X75343Y-34500D01*
X75386Y-34716D01*
X75509Y-34899D01*
X75659Y-35000D01*
X75509Y-35100D01*
X75386Y-35283D01*
X75343Y-35500D01*
X75386Y-35716D01*
X75509Y-35899D01*
X75659Y-36000D01*
X75509Y-36100D01*
X75386Y-36283D01*
X75343Y-36500D01*
X75386Y-36716D01*
X75509Y-36899D01*
X75659Y-37000D01*
X75509Y-37100D01*
X75386Y-37283D01*
X75343Y-37500D01*
X75386Y-37716D01*
X75509Y-37899D01*
X75659Y-38000D01*
X75509Y-38100D01*
X75386Y-38283D01*
X75343Y-38500D01*
X75386Y-38716D01*
X75509Y-38899D01*
X75659Y-39000D01*
X75509Y-39100D01*
X75386Y-39283D01*
X75343Y-39500D01*
X75386Y-39716D01*
X75509Y-39899D01*
X75659Y-40000D01*
X75509Y-40100D01*
X75386Y-40283D01*
X75343Y-40500D01*
X75386Y-40716D01*
X75509Y-40899D01*
X75659Y-41000D01*
X75509Y-41100D01*
X75386Y-41283D01*
X75343Y-41500D01*
X75386Y-41716D01*
X75509Y-41899D01*
X75659Y-42000D01*
X75509Y-42100D01*
X75386Y-42283D01*
X75343Y-42500D01*
X75386Y-42716D01*
X75509Y-42899D01*
X75659Y-43000D01*
X75509Y-43100D01*
X75386Y-43283D01*
X75343Y-43500D01*
X75386Y-43716D01*
X75509Y-43899D01*
X75659Y-44000D01*
X75509Y-44100D01*
X75386Y-44283D01*
X75343Y-44500D01*
X75386Y-44716D01*
X75509Y-44899D01*
X75659Y-45000D01*
X75509Y-45100D01*
X75386Y-45283D01*
X75343Y-45500D01*
X75386Y-45716D01*
X75509Y-45899D01*
X75659Y-46000D01*
X75509Y-46100D01*
X75386Y-46283D01*
X75343Y-46500D01*
X75386Y-46716D01*
X75509Y-46899D01*
X75590Y-46953D01*
X75543Y-46972D01*
X75473Y-47043D01*
X75435Y-47135D01*
X75434Y-47234D01*
X75434Y-47864D01*
X75472Y-47956D01*
X75543Y-48026D01*
X75635Y-48064D01*
X75734Y-48065D01*
X76364Y-48065D01*
X76456Y-48027D01*
X76526Y-47956D01*
X76564Y-47864D01*
X76565Y-47765D01*
X76565Y-47135D01*
X76527Y-47043D01*
X76456Y-46973D01*
X76409Y-46953D01*
X76490Y-46899D01*
X76613Y-46716D01*
X76656Y-46500D01*
X76656Y-51738D01*
X74859Y-51738D01*
X74933Y-51723D01*
X74933Y-51723D01*
X75047Y-51647D01*
X76069Y-50625D01*
X76324Y-50625D01*
X76416Y-50587D01*
X76486Y-50516D01*
X76524Y-50424D01*
X76525Y-50325D01*
X76525Y-49775D01*
X76487Y-49683D01*
X76416Y-49613D01*
X76324Y-49575D01*
X76225Y-49574D01*
X76225Y-49574D01*
X76297Y-49545D01*
X76444Y-49397D01*
X76524Y-49204D01*
X76525Y-48996D01*
X76445Y-48803D01*
X76297Y-48655D01*
X76104Y-48575D01*
X75896Y-48574D01*
X75703Y-48654D01*
X75555Y-48802D01*
X75475Y-48995D01*
X75474Y-49203D01*
X75554Y-49397D01*
X75702Y-49544D01*
X75774Y-49574D01*
X75675Y-49574D01*
X75583Y-49612D01*
X75513Y-49683D01*
X75475Y-49775D01*
X75474Y-49874D01*
X75474Y-50230D01*
X74655Y-51050D01*
X66661Y-51050D01*
X66661Y-50120D01*
X66250Y-50120D01*
X66250Y-49762D01*
X66250Y-49350D01*
X66250Y-49250D01*
X66250Y-48837D01*
X66187Y-48775D01*
X65975Y-48774D01*
X65883Y-48812D01*
X65813Y-48883D01*
X65775Y-48975D01*
X65774Y-49074D01*
X65775Y-49187D01*
X65837Y-49250D01*
X66250Y-49250D01*
X66250Y-49350D01*
X65837Y-49350D01*
X65775Y-49412D01*
X65774Y-49525D01*
X65775Y-49624D01*
X65813Y-49716D01*
X65883Y-49787D01*
X65975Y-49825D01*
X66187Y-49825D01*
X66250Y-49762D01*
X66250Y-50120D01*
X64557Y-50120D01*
X64569Y-50085D01*
X64558Y-49860D01*
X64493Y-49703D01*
X64396Y-49673D01*
X64326Y-49744D01*
X64326Y-49603D01*
X64296Y-49506D01*
X64085Y-49430D01*
X63860Y-49441D01*
X63703Y-49506D01*
X63673Y-49603D01*
X64000Y-49929D01*
X64326Y-49603D01*
X64326Y-49744D01*
X64070Y-50000D01*
X64396Y-50326D01*
X64493Y-50296D01*
X64538Y-50173D01*
X64538Y-51050D01*
X64326Y-51050D01*
X64326Y-50396D01*
X64000Y-50070D01*
X63929Y-50141D01*
X63929Y-50000D01*
X63603Y-49673D01*
X63506Y-49703D01*
X63430Y-49914D01*
X63441Y-50139D01*
X63506Y-50296D01*
X63603Y-50326D01*
X63929Y-50000D01*
X63929Y-50141D01*
X63673Y-50396D01*
X63703Y-50493D01*
X63914Y-50569D01*
X64139Y-50558D01*
X64296Y-50493D01*
X64326Y-50396D01*
X64326Y-51050D01*
X63544Y-51050D01*
X62564Y-50069D01*
X62565Y-49888D01*
X62479Y-49680D01*
X62320Y-49521D01*
X62112Y-49435D01*
X61888Y-49434D01*
X61680Y-49520D01*
X61521Y-49679D01*
X61435Y-49887D01*
X61434Y-50111D01*
X61520Y-50319D01*
X61679Y-50478D01*
X61887Y-50564D01*
X62070Y-50565D01*
X63152Y-51647D01*
X63266Y-51723D01*
X63340Y-51738D01*
X61293Y-51738D01*
X61293Y-24015D01*
X61500Y-24056D01*
X61716Y-24013D01*
X61899Y-23890D01*
X62000Y-23740D01*
X62100Y-23890D01*
X62283Y-24013D01*
X62500Y-24056D01*
X62716Y-24013D01*
X62899Y-23890D01*
X63000Y-23740D01*
X63100Y-23890D01*
X63283Y-24013D01*
X63500Y-24056D01*
X63716Y-24013D01*
X63899Y-23890D01*
X64000Y-23740D01*
X64100Y-23890D01*
X64283Y-24013D01*
X64500Y-24056D01*
X64716Y-24013D01*
X64899Y-23890D01*
X65000Y-23740D01*
X65100Y-23890D01*
X65283Y-24013D01*
X65500Y-24056D01*
X65716Y-24013D01*
X65899Y-23890D01*
X66000Y-23740D01*
X66100Y-23890D01*
X66283Y-24013D01*
X66500Y-24056D01*
X66716Y-24013D01*
X66899Y-23890D01*
X67000Y-23740D01*
X67100Y-23890D01*
X67283Y-24013D01*
X67500Y-24056D01*
X67716Y-24013D01*
X67899Y-23890D01*
X67953Y-23809D01*
X67972Y-23856D01*
X68043Y-23926D01*
X68135Y-23964D01*
X68150Y-23964D01*
X68150Y-24419D01*
X68069Y-24500D01*
X66625Y-24500D01*
X66481Y-24528D01*
X66359Y-24609D01*
X66144Y-24825D01*
X65900Y-24825D01*
X63400Y-24825D01*
X63256Y-24853D01*
X63134Y-24934D01*
X61796Y-26273D01*
X61752Y-26302D01*
X61676Y-26416D01*
X61674Y-26424D01*
X61653Y-26456D01*
X61625Y-26600D01*
X61625Y-27939D01*
X61543Y-27972D01*
X61473Y-28043D01*
X61435Y-28135D01*
X61434Y-28234D01*
X61434Y-28864D01*
X61472Y-28956D01*
X61543Y-29026D01*
X61590Y-29046D01*
X61509Y-29100D01*
X61386Y-29283D01*
X61343Y-29500D01*
X61386Y-29716D01*
X61509Y-29899D01*
X61659Y-30000D01*
X61509Y-30100D01*
X61386Y-30283D01*
X61343Y-30500D01*
X61386Y-30716D01*
X61509Y-30899D01*
X61659Y-31000D01*
X61509Y-31100D01*
X61386Y-31283D01*
X61343Y-31500D01*
X61386Y-31716D01*
X61509Y-31899D01*
X61659Y-32000D01*
X61509Y-32100D01*
X61386Y-32283D01*
X61343Y-32500D01*
X61386Y-32716D01*
X61509Y-32899D01*
X61659Y-33000D01*
X61509Y-33100D01*
X61386Y-33283D01*
X61343Y-33500D01*
X61386Y-33716D01*
X61509Y-33899D01*
X61659Y-34000D01*
X61509Y-34100D01*
X61386Y-34283D01*
X61343Y-34500D01*
X61386Y-34716D01*
X61509Y-34899D01*
X61659Y-35000D01*
X61509Y-35100D01*
X61386Y-35283D01*
X61343Y-35500D01*
X61386Y-35716D01*
X61509Y-35899D01*
X61659Y-36000D01*
X61509Y-36100D01*
X61386Y-36283D01*
X61343Y-36500D01*
X61386Y-36716D01*
X61509Y-36899D01*
X61659Y-37000D01*
X61509Y-37100D01*
X61386Y-37283D01*
X61343Y-37500D01*
X61386Y-37716D01*
X61509Y-37899D01*
X61590Y-37953D01*
X61543Y-37972D01*
X61473Y-38043D01*
X61435Y-38135D01*
X61434Y-38234D01*
X61434Y-38864D01*
X61472Y-38956D01*
X61543Y-39026D01*
X61590Y-39046D01*
X61509Y-39100D01*
X61386Y-39283D01*
X61343Y-39500D01*
X61386Y-39716D01*
X61509Y-39899D01*
X61659Y-40000D01*
X61509Y-40100D01*
X61386Y-40283D01*
X61343Y-40500D01*
X61386Y-40716D01*
X61509Y-40899D01*
X61659Y-41000D01*
X61509Y-41100D01*
X61386Y-41283D01*
X61343Y-41500D01*
X61386Y-41716D01*
X61509Y-41899D01*
X61659Y-42000D01*
X61509Y-42100D01*
X61386Y-42283D01*
X61343Y-42500D01*
X61386Y-42716D01*
X61509Y-42899D01*
X61659Y-43000D01*
X61509Y-43100D01*
X61386Y-43283D01*
X61343Y-43500D01*
X61386Y-43716D01*
X61509Y-43899D01*
X61659Y-44000D01*
X61509Y-44100D01*
X61386Y-44283D01*
X61343Y-44500D01*
X61386Y-44716D01*
X61509Y-44899D01*
X61659Y-45000D01*
X61509Y-45100D01*
X61386Y-45283D01*
X61343Y-45500D01*
X61386Y-45716D01*
X61509Y-45899D01*
X61659Y-46000D01*
X61509Y-46100D01*
X61386Y-46283D01*
X61343Y-46500D01*
X61386Y-46716D01*
X61509Y-46899D01*
X61659Y-47000D01*
X61509Y-47100D01*
X61386Y-47283D01*
X61343Y-47500D01*
X61386Y-47716D01*
X61509Y-47899D01*
X61692Y-48021D01*
X61908Y-48064D01*
X62091Y-48064D01*
X62307Y-48021D01*
X62490Y-47899D01*
X62613Y-47716D01*
X62656Y-47500D01*
X62613Y-47283D01*
X62490Y-47100D01*
X62340Y-47000D01*
X62490Y-46899D01*
X62613Y-46716D01*
X62656Y-46500D01*
X62613Y-46283D01*
X62490Y-46100D01*
X62340Y-46000D01*
X62490Y-45899D01*
X62613Y-45716D01*
X62656Y-45500D01*
X62613Y-45283D01*
X62490Y-45100D01*
X62340Y-45000D01*
X62490Y-44899D01*
X62613Y-44716D01*
X62656Y-44500D01*
X62613Y-44283D01*
X62490Y-44100D01*
X62340Y-44000D01*
X62490Y-43899D01*
X62613Y-43716D01*
X62656Y-43500D01*
X62613Y-43283D01*
X62490Y-43100D01*
X62340Y-43000D01*
X62490Y-42899D01*
X62613Y-42716D01*
X62656Y-42500D01*
X62613Y-42283D01*
X62490Y-42100D01*
X62340Y-42000D01*
X62490Y-41899D01*
X62613Y-41716D01*
X62656Y-41500D01*
X62613Y-41283D01*
X62490Y-41100D01*
X62340Y-41000D01*
X62490Y-40899D01*
X62613Y-40716D01*
X62656Y-40500D01*
X62613Y-40283D01*
X62490Y-40100D01*
X62340Y-40000D01*
X62490Y-39899D01*
X62613Y-39716D01*
X62656Y-39500D01*
X62613Y-39283D01*
X62490Y-39100D01*
X62409Y-39046D01*
X62456Y-39027D01*
X62526Y-38956D01*
X62560Y-38875D01*
X62694Y-38875D01*
X63225Y-39405D01*
X63225Y-41150D01*
X63253Y-41293D01*
X63334Y-41415D01*
X64000Y-42080D01*
X64000Y-43950D01*
X64026Y-44083D01*
X64102Y-44197D01*
X65450Y-45544D01*
X65450Y-45870D01*
X65408Y-45887D01*
X65338Y-45958D01*
X65300Y-46050D01*
X65299Y-46149D01*
X65299Y-46161D01*
X65217Y-46217D01*
X64679Y-46754D01*
X64592Y-46754D01*
X64391Y-46837D01*
X64238Y-46990D01*
X64154Y-47191D01*
X64154Y-47407D01*
X64237Y-47608D01*
X64390Y-47761D01*
X64591Y-47845D01*
X64807Y-47845D01*
X65008Y-47762D01*
X65161Y-47609D01*
X65245Y-47408D01*
X65245Y-47320D01*
X65440Y-47125D01*
X65500Y-47149D01*
X65599Y-47150D01*
X66199Y-47150D01*
X66291Y-47112D01*
X66361Y-47041D01*
X66399Y-46949D01*
X66400Y-46850D01*
X66400Y-46050D01*
X66362Y-45958D01*
X66291Y-45888D01*
X66250Y-45870D01*
X66250Y-45450D01*
X66219Y-45296D01*
X66132Y-45167D01*
X66003Y-45080D01*
X65968Y-45073D01*
X65694Y-44800D01*
X65900Y-44800D01*
X67128Y-44800D01*
X67088Y-44840D01*
X67004Y-45041D01*
X67004Y-45129D01*
X66867Y-45267D01*
X66780Y-45396D01*
X66775Y-45422D01*
X66750Y-45550D01*
X66750Y-45870D01*
X66708Y-45887D01*
X66638Y-45958D01*
X66600Y-46050D01*
X66599Y-46149D01*
X66599Y-46949D01*
X66637Y-47041D01*
X66708Y-47111D01*
X66800Y-47149D01*
X66800Y-47850D01*
X66826Y-47983D01*
X66902Y-48097D01*
X67841Y-49036D01*
X67799Y-49135D01*
X67745Y-49003D01*
X67597Y-48855D01*
X67404Y-48775D01*
X67196Y-48774D01*
X67003Y-48854D01*
X66855Y-49002D01*
X66825Y-49074D01*
X66825Y-49074D01*
X66824Y-48975D01*
X66786Y-48883D01*
X66716Y-48812D01*
X66624Y-48774D01*
X66412Y-48775D01*
X66350Y-48837D01*
X66350Y-49250D01*
X66357Y-49250D01*
X66357Y-49350D01*
X66350Y-49350D01*
X66350Y-49762D01*
X66412Y-49825D01*
X66624Y-49825D01*
X66716Y-49787D01*
X66786Y-49716D01*
X66824Y-49624D01*
X66825Y-49525D01*
X66825Y-49525D01*
X66854Y-49597D01*
X67002Y-49744D01*
X67195Y-49824D01*
X67403Y-49825D01*
X67597Y-49745D01*
X67744Y-49597D01*
X67800Y-49464D01*
X67854Y-49597D01*
X68002Y-49744D01*
X68195Y-49824D01*
X68403Y-49825D01*
X68597Y-49745D01*
X68744Y-49597D01*
X68800Y-49464D01*
X68854Y-49597D01*
X68960Y-49703D01*
X68976Y-49783D01*
X69052Y-49897D01*
X69502Y-50347D01*
X69616Y-50423D01*
X69616Y-50423D01*
X69750Y-50450D01*
X73100Y-50450D01*
X73233Y-50423D01*
X73233Y-50423D01*
X73347Y-50347D01*
X73697Y-49997D01*
X73697Y-49997D01*
X73697Y-49997D01*
X73773Y-49883D01*
X73799Y-49750D01*
X73800Y-49750D01*
X73800Y-48544D01*
X74847Y-47497D01*
X74847Y-47497D01*
X74847Y-47497D01*
X74923Y-47383D01*
X74950Y-47250D01*
X74949Y-47250D01*
X74950Y-47250D01*
X74950Y-40300D01*
X74950Y-39600D01*
X74923Y-39466D01*
X74847Y-39352D01*
X74847Y-39352D01*
X74700Y-39205D01*
X74700Y-26050D01*
X74673Y-25916D01*
X74597Y-25802D01*
X74597Y-25802D01*
X73497Y-24702D01*
X73383Y-24626D01*
X73250Y-24600D01*
X68944Y-24600D01*
X68857Y-24512D01*
X68850Y-24474D01*
X68850Y-23965D01*
X68864Y-23965D01*
X68956Y-23927D01*
X69000Y-23883D01*
X69043Y-23926D01*
X69135Y-23964D01*
X69234Y-23965D01*
X69864Y-23965D01*
X69956Y-23927D01*
X70026Y-23856D01*
X70046Y-23809D01*
X70100Y-23890D01*
X70283Y-24013D01*
X70500Y-24056D01*
X70716Y-24013D01*
X70899Y-23890D01*
X71000Y-23740D01*
X71100Y-23890D01*
X71283Y-24013D01*
X71500Y-24056D01*
X71716Y-24013D01*
X71899Y-23890D01*
X72000Y-23740D01*
X72100Y-23890D01*
X72283Y-24013D01*
X72500Y-24056D01*
X72716Y-24013D01*
X72899Y-23890D01*
X73000Y-23740D01*
X73100Y-23890D01*
X73283Y-24013D01*
X73500Y-24056D01*
X73716Y-24013D01*
X73899Y-23890D01*
X74000Y-23740D01*
X74100Y-23890D01*
X74283Y-24013D01*
X74500Y-24056D01*
X74716Y-24013D01*
X74899Y-23890D01*
X75000Y-23740D01*
X75100Y-23890D01*
X75283Y-24013D01*
X75500Y-24056D01*
X75716Y-24013D01*
X75899Y-23890D01*
X76000Y-23740D01*
X76100Y-23890D01*
X76283Y-24013D01*
X76500Y-24056D01*
X76698Y-24016D01*
X76698Y-51738D01*
M02*
