G04 #@! TF.FileFunction,Copper,L1,Top,Signal*
%FSLAX46Y46*%
G04 Gerber Fmt 4.6, Leading zero omitted, Abs format (unit mm)*
G04 Created by KiCad (PCBNEW (2015-01-16 BZR 5376)-product) date 7/10/2015 8:52:55 AM*
%MOMM*%
G01*
G04 APERTURE LIST*
%ADD10C,0.150000*%
%ADD11C,0.254000*%
%ADD12C,0.100000*%
%ADD13C,1.750000*%
%ADD14C,1.600000*%
%ADD15R,2.032000X1.524000*%
%ADD16R,1.600000X1.600000*%
%ADD17O,1.600000X2.000000*%
%ADD18O,2.000000X1.600000*%
%ADD19C,1.422400*%
%ADD20R,1.397000X1.397000*%
%ADD21C,1.397000*%
%ADD22C,1.500000*%
%ADD23C,0.508000*%
%ADD24C,0.635000*%
%ADD25C,0.762000*%
G04 APERTURE END LIST*
D10*
D11*
X68289714Y-109328857D02*
X68241333Y-109377238D01*
X68096190Y-109425619D01*
X67999428Y-109425619D01*
X67854286Y-109377238D01*
X67757524Y-109280476D01*
X67709143Y-109183714D01*
X67660762Y-108990190D01*
X67660762Y-108845048D01*
X67709143Y-108651524D01*
X67757524Y-108554762D01*
X67854286Y-108458000D01*
X67999428Y-108409619D01*
X68096190Y-108409619D01*
X68241333Y-108458000D01*
X68289714Y-108506381D01*
X68918667Y-108409619D02*
X69112190Y-108409619D01*
X69208952Y-108458000D01*
X69305714Y-108554762D01*
X69354095Y-108748286D01*
X69354095Y-109086952D01*
X69305714Y-109280476D01*
X69208952Y-109377238D01*
X69112190Y-109425619D01*
X68918667Y-109425619D01*
X68821905Y-109377238D01*
X68725143Y-109280476D01*
X68676762Y-109086952D01*
X68676762Y-108748286D01*
X68725143Y-108554762D01*
X68821905Y-108458000D01*
X68918667Y-108409619D01*
X69789524Y-109425619D02*
X69789524Y-108409619D01*
X70128190Y-109135333D01*
X70466857Y-108409619D01*
X70466857Y-109425619D01*
X70950667Y-109425619D02*
X70950667Y-108409619D01*
X71337714Y-108409619D01*
X71434476Y-108458000D01*
X71482857Y-108506381D01*
X71531238Y-108603143D01*
X71531238Y-108748286D01*
X71482857Y-108845048D01*
X71434476Y-108893429D01*
X71337714Y-108941810D01*
X70950667Y-108941810D01*
D12*
X57718000Y-36934000D02*
X57818000Y-36934000D01*
X57718000Y-112034000D02*
X57718000Y-36934000D01*
X98218000Y-112034000D02*
X57718000Y-112034000D01*
X98218000Y-39434000D02*
X98218000Y-112034000D01*
X98218000Y-36934000D02*
X97718000Y-36934000D01*
X98218000Y-39434000D02*
X98218000Y-36934000D01*
X97718000Y-36934000D02*
X57718000Y-36934000D01*
D10*
G36*
X75592293Y-63571786D02*
X75987424Y-63176655D01*
X77401637Y-64590868D01*
X77006506Y-64985999D01*
X75592293Y-63571786D01*
X75592293Y-63571786D01*
G37*
G36*
X75035517Y-64128562D02*
X75430648Y-63733431D01*
X76844861Y-65147644D01*
X76449730Y-65542775D01*
X75035517Y-64128562D01*
X75035517Y-64128562D01*
G37*
G36*
X74478741Y-64685337D02*
X74873872Y-64290206D01*
X76288085Y-65704419D01*
X75892954Y-66099550D01*
X74478741Y-64685337D01*
X74478741Y-64685337D01*
G37*
G36*
X73921965Y-65242113D02*
X74317096Y-64846982D01*
X75731309Y-66261195D01*
X75336178Y-66656326D01*
X73921965Y-65242113D01*
X73921965Y-65242113D01*
G37*
G36*
X73365189Y-65798889D02*
X73760320Y-65403758D01*
X75174533Y-66817971D01*
X74779402Y-67213102D01*
X73365189Y-65798889D01*
X73365189Y-65798889D01*
G37*
G36*
X72808413Y-66355665D02*
X73203544Y-65960534D01*
X74617757Y-67374747D01*
X74222626Y-67769878D01*
X72808413Y-66355665D01*
X72808413Y-66355665D01*
G37*
G36*
X72251638Y-66912441D02*
X72646769Y-66517310D01*
X74060982Y-67931523D01*
X73665851Y-68326654D01*
X72251638Y-66912441D01*
X72251638Y-66912441D01*
G37*
G36*
X71694862Y-67469217D02*
X72089993Y-67074086D01*
X73504206Y-68488299D01*
X73109075Y-68883430D01*
X71694862Y-67469217D01*
X71694862Y-67469217D01*
G37*
G36*
X71138086Y-68025993D02*
X71533217Y-67630862D01*
X72947430Y-69045075D01*
X72552299Y-69440206D01*
X71138086Y-68025993D01*
X71138086Y-68025993D01*
G37*
G36*
X70581310Y-68582769D02*
X70976441Y-68187638D01*
X72390654Y-69601851D01*
X71995523Y-69996982D01*
X70581310Y-68582769D01*
X70581310Y-68582769D01*
G37*
G36*
X70024534Y-69139544D02*
X70419665Y-68744413D01*
X71833878Y-70158626D01*
X71438747Y-70553757D01*
X70024534Y-69139544D01*
X70024534Y-69139544D01*
G37*
G36*
X69467758Y-69696320D02*
X69862889Y-69301189D01*
X71277102Y-70715402D01*
X70881971Y-71110533D01*
X69467758Y-69696320D01*
X69467758Y-69696320D01*
G37*
G36*
X68910982Y-70253096D02*
X69306113Y-69857965D01*
X70720326Y-71272178D01*
X70325195Y-71667309D01*
X68910982Y-70253096D01*
X68910982Y-70253096D01*
G37*
G36*
X68354206Y-70809872D02*
X68749337Y-70414741D01*
X70163550Y-71828954D01*
X69768419Y-72224085D01*
X68354206Y-70809872D01*
X68354206Y-70809872D01*
G37*
G36*
X67797431Y-71366648D02*
X68192562Y-70971517D01*
X69606775Y-72385730D01*
X69211644Y-72780861D01*
X67797431Y-71366648D01*
X67797431Y-71366648D01*
G37*
G36*
X67240655Y-71923424D02*
X67635786Y-71528293D01*
X69049999Y-72942506D01*
X68654868Y-73337637D01*
X67240655Y-71923424D01*
X67240655Y-71923424D01*
G37*
G36*
X67240655Y-75904576D02*
X68654868Y-74490363D01*
X69049999Y-74885494D01*
X67635786Y-76299707D01*
X67240655Y-75904576D01*
X67240655Y-75904576D01*
G37*
G36*
X67797431Y-76461352D02*
X69211644Y-75047139D01*
X69606775Y-75442270D01*
X68192562Y-76856483D01*
X67797431Y-76461352D01*
X67797431Y-76461352D01*
G37*
G36*
X68354206Y-77018128D02*
X69768419Y-75603915D01*
X70163550Y-75999046D01*
X68749337Y-77413259D01*
X68354206Y-77018128D01*
X68354206Y-77018128D01*
G37*
G36*
X68910982Y-77574904D02*
X70325195Y-76160691D01*
X70720326Y-76555822D01*
X69306113Y-77970035D01*
X68910982Y-77574904D01*
X68910982Y-77574904D01*
G37*
G36*
X69467758Y-78131680D02*
X70881971Y-76717467D01*
X71277102Y-77112598D01*
X69862889Y-78526811D01*
X69467758Y-78131680D01*
X69467758Y-78131680D01*
G37*
G36*
X70024534Y-78688456D02*
X71438747Y-77274243D01*
X71833878Y-77669374D01*
X70419665Y-79083587D01*
X70024534Y-78688456D01*
X70024534Y-78688456D01*
G37*
G36*
X70581310Y-79245231D02*
X71995523Y-77831018D01*
X72390654Y-78226149D01*
X70976441Y-79640362D01*
X70581310Y-79245231D01*
X70581310Y-79245231D01*
G37*
G36*
X71138086Y-79802007D02*
X72552299Y-78387794D01*
X72947430Y-78782925D01*
X71533217Y-80197138D01*
X71138086Y-79802007D01*
X71138086Y-79802007D01*
G37*
G36*
X71694862Y-80358783D02*
X73109075Y-78944570D01*
X73504206Y-79339701D01*
X72089993Y-80753914D01*
X71694862Y-80358783D01*
X71694862Y-80358783D01*
G37*
G36*
X72251638Y-80915559D02*
X73665851Y-79501346D01*
X74060982Y-79896477D01*
X72646769Y-81310690D01*
X72251638Y-80915559D01*
X72251638Y-80915559D01*
G37*
G36*
X72808413Y-81472335D02*
X74222626Y-80058122D01*
X74617757Y-80453253D01*
X73203544Y-81867466D01*
X72808413Y-81472335D01*
X72808413Y-81472335D01*
G37*
G36*
X73365189Y-82029111D02*
X74779402Y-80614898D01*
X75174533Y-81010029D01*
X73760320Y-82424242D01*
X73365189Y-82029111D01*
X73365189Y-82029111D01*
G37*
G36*
X73921965Y-82585887D02*
X75336178Y-81171674D01*
X75731309Y-81566805D01*
X74317096Y-82981018D01*
X73921965Y-82585887D01*
X73921965Y-82585887D01*
G37*
G36*
X74478741Y-83142663D02*
X75892954Y-81728450D01*
X76288085Y-82123581D01*
X74873872Y-83537794D01*
X74478741Y-83142663D01*
X74478741Y-83142663D01*
G37*
G36*
X75035517Y-83699438D02*
X76449730Y-82285225D01*
X76844861Y-82680356D01*
X75430648Y-84094569D01*
X75035517Y-83699438D01*
X75035517Y-83699438D01*
G37*
G36*
X75592293Y-84256214D02*
X77006506Y-82842001D01*
X77401637Y-83237132D01*
X75987424Y-84651345D01*
X75592293Y-84256214D01*
X75592293Y-84256214D01*
G37*
G36*
X78554363Y-83237132D02*
X78949494Y-82842001D01*
X80363707Y-84256214D01*
X79968576Y-84651345D01*
X78554363Y-83237132D01*
X78554363Y-83237132D01*
G37*
G36*
X79111139Y-82680356D02*
X79506270Y-82285225D01*
X80920483Y-83699438D01*
X80525352Y-84094569D01*
X79111139Y-82680356D01*
X79111139Y-82680356D01*
G37*
G36*
X79667915Y-82123581D02*
X80063046Y-81728450D01*
X81477259Y-83142663D01*
X81082128Y-83537794D01*
X79667915Y-82123581D01*
X79667915Y-82123581D01*
G37*
G36*
X80224691Y-81566805D02*
X80619822Y-81171674D01*
X82034035Y-82585887D01*
X81638904Y-82981018D01*
X80224691Y-81566805D01*
X80224691Y-81566805D01*
G37*
G36*
X80781467Y-81010029D02*
X81176598Y-80614898D01*
X82590811Y-82029111D01*
X82195680Y-82424242D01*
X80781467Y-81010029D01*
X80781467Y-81010029D01*
G37*
G36*
X81338243Y-80453253D02*
X81733374Y-80058122D01*
X83147587Y-81472335D01*
X82752456Y-81867466D01*
X81338243Y-80453253D01*
X81338243Y-80453253D01*
G37*
G36*
X81895018Y-79896477D02*
X82290149Y-79501346D01*
X83704362Y-80915559D01*
X83309231Y-81310690D01*
X81895018Y-79896477D01*
X81895018Y-79896477D01*
G37*
G36*
X82451794Y-79339701D02*
X82846925Y-78944570D01*
X84261138Y-80358783D01*
X83866007Y-80753914D01*
X82451794Y-79339701D01*
X82451794Y-79339701D01*
G37*
G36*
X83008570Y-78782925D02*
X83403701Y-78387794D01*
X84817914Y-79802007D01*
X84422783Y-80197138D01*
X83008570Y-78782925D01*
X83008570Y-78782925D01*
G37*
G36*
X83565346Y-78226149D02*
X83960477Y-77831018D01*
X85374690Y-79245231D01*
X84979559Y-79640362D01*
X83565346Y-78226149D01*
X83565346Y-78226149D01*
G37*
G36*
X84122122Y-77669374D02*
X84517253Y-77274243D01*
X85931466Y-78688456D01*
X85536335Y-79083587D01*
X84122122Y-77669374D01*
X84122122Y-77669374D01*
G37*
G36*
X84678898Y-77112598D02*
X85074029Y-76717467D01*
X86488242Y-78131680D01*
X86093111Y-78526811D01*
X84678898Y-77112598D01*
X84678898Y-77112598D01*
G37*
G36*
X85235674Y-76555822D02*
X85630805Y-76160691D01*
X87045018Y-77574904D01*
X86649887Y-77970035D01*
X85235674Y-76555822D01*
X85235674Y-76555822D01*
G37*
G36*
X85792450Y-75999046D02*
X86187581Y-75603915D01*
X87601794Y-77018128D01*
X87206663Y-77413259D01*
X85792450Y-75999046D01*
X85792450Y-75999046D01*
G37*
G36*
X86349225Y-75442270D02*
X86744356Y-75047139D01*
X88158569Y-76461352D01*
X87763438Y-76856483D01*
X86349225Y-75442270D01*
X86349225Y-75442270D01*
G37*
G36*
X86906001Y-74885494D02*
X87301132Y-74490363D01*
X88715345Y-75904576D01*
X88320214Y-76299707D01*
X86906001Y-74885494D01*
X86906001Y-74885494D01*
G37*
G36*
X86906001Y-72942506D02*
X88320214Y-71528293D01*
X88715345Y-71923424D01*
X87301132Y-73337637D01*
X86906001Y-72942506D01*
X86906001Y-72942506D01*
G37*
G36*
X86349225Y-72385730D02*
X87763438Y-70971517D01*
X88158569Y-71366648D01*
X86744356Y-72780861D01*
X86349225Y-72385730D01*
X86349225Y-72385730D01*
G37*
G36*
X85792450Y-71828954D02*
X87206663Y-70414741D01*
X87601794Y-70809872D01*
X86187581Y-72224085D01*
X85792450Y-71828954D01*
X85792450Y-71828954D01*
G37*
G36*
X85235674Y-71272178D02*
X86649887Y-69857965D01*
X87045018Y-70253096D01*
X85630805Y-71667309D01*
X85235674Y-71272178D01*
X85235674Y-71272178D01*
G37*
G36*
X84678898Y-70715402D02*
X86093111Y-69301189D01*
X86488242Y-69696320D01*
X85074029Y-71110533D01*
X84678898Y-70715402D01*
X84678898Y-70715402D01*
G37*
G36*
X84122122Y-70158626D02*
X85536335Y-68744413D01*
X85931466Y-69139544D01*
X84517253Y-70553757D01*
X84122122Y-70158626D01*
X84122122Y-70158626D01*
G37*
G36*
X83565346Y-69601851D02*
X84979559Y-68187638D01*
X85374690Y-68582769D01*
X83960477Y-69996982D01*
X83565346Y-69601851D01*
X83565346Y-69601851D01*
G37*
G36*
X83008570Y-69045075D02*
X84422783Y-67630862D01*
X84817914Y-68025993D01*
X83403701Y-69440206D01*
X83008570Y-69045075D01*
X83008570Y-69045075D01*
G37*
G36*
X82451794Y-68488299D02*
X83866007Y-67074086D01*
X84261138Y-67469217D01*
X82846925Y-68883430D01*
X82451794Y-68488299D01*
X82451794Y-68488299D01*
G37*
G36*
X81895018Y-67931523D02*
X83309231Y-66517310D01*
X83704362Y-66912441D01*
X82290149Y-68326654D01*
X81895018Y-67931523D01*
X81895018Y-67931523D01*
G37*
G36*
X81338243Y-67374747D02*
X82752456Y-65960534D01*
X83147587Y-66355665D01*
X81733374Y-67769878D01*
X81338243Y-67374747D01*
X81338243Y-67374747D01*
G37*
G36*
X80781467Y-66817971D02*
X82195680Y-65403758D01*
X82590811Y-65798889D01*
X81176598Y-67213102D01*
X80781467Y-66817971D01*
X80781467Y-66817971D01*
G37*
G36*
X80224691Y-66261195D02*
X81638904Y-64846982D01*
X82034035Y-65242113D01*
X80619822Y-66656326D01*
X80224691Y-66261195D01*
X80224691Y-66261195D01*
G37*
G36*
X79667915Y-65704419D02*
X81082128Y-64290206D01*
X81477259Y-64685337D01*
X80063046Y-66099550D01*
X79667915Y-65704419D01*
X79667915Y-65704419D01*
G37*
G36*
X79111139Y-65147644D02*
X80525352Y-63733431D01*
X80920483Y-64128562D01*
X79506270Y-65542775D01*
X79111139Y-65147644D01*
X79111139Y-65147644D01*
G37*
G36*
X78554363Y-64590868D02*
X79968576Y-63176655D01*
X80363707Y-63571786D01*
X78949494Y-64985999D01*
X78554363Y-64590868D01*
X78554363Y-64590868D01*
G37*
D13*
X83312000Y-49022000D03*
X83312000Y-51562000D03*
X80772000Y-49022000D03*
X80772000Y-51562000D03*
X78232000Y-49022000D03*
X78232000Y-51562000D03*
X75692000Y-49022000D03*
X75692000Y-51562000D03*
X73152000Y-49022000D03*
X73152000Y-51562000D03*
D14*
X60198000Y-106934000D03*
X65278000Y-106934000D03*
D15*
X77724000Y-99441000D03*
X77724000Y-96139000D03*
X81280000Y-99441000D03*
X81280000Y-96139000D03*
D16*
X76708000Y-39370000D03*
D17*
X74168000Y-39370000D03*
X71628000Y-39370000D03*
X69088000Y-39370000D03*
X66548000Y-39370000D03*
X64008000Y-39370000D03*
X61468000Y-39370000D03*
X58928000Y-39370000D03*
D16*
X79248000Y-39370000D03*
D17*
X81788000Y-39370000D03*
X84328000Y-39370000D03*
X86868000Y-39370000D03*
X89408000Y-39370000D03*
X91948000Y-39370000D03*
X94488000Y-39370000D03*
X97028000Y-39370000D03*
D16*
X60198000Y-77724000D03*
D18*
X60198000Y-80264000D03*
X60198000Y-82804000D03*
X60198000Y-85344000D03*
X60198000Y-87884000D03*
X60198000Y-90424000D03*
X60198000Y-92964000D03*
X60198000Y-95504000D03*
X60198000Y-98044000D03*
X60198000Y-100584000D03*
D16*
X60198000Y-52324000D03*
D18*
X60198000Y-54864000D03*
X60198000Y-57404000D03*
X60198000Y-59944000D03*
X60198000Y-62484000D03*
X60198000Y-65024000D03*
X60198000Y-67564000D03*
X60198000Y-70104000D03*
X60198000Y-72644000D03*
X60198000Y-75184000D03*
D16*
X95758000Y-100584000D03*
D18*
X95758000Y-98044000D03*
X95758000Y-95504000D03*
X95758000Y-92964000D03*
X95758000Y-90424000D03*
X95758000Y-87884000D03*
X95758000Y-85344000D03*
X95758000Y-82804000D03*
X95758000Y-80264000D03*
X95758000Y-77724000D03*
D16*
X95758000Y-52324000D03*
D18*
X95758000Y-54864000D03*
X95758000Y-57404000D03*
X95758000Y-59944000D03*
X95758000Y-62484000D03*
X95758000Y-65024000D03*
X95758000Y-67564000D03*
X95758000Y-70104000D03*
X95758000Y-72644000D03*
X95758000Y-75184000D03*
D19*
X75438000Y-89154000D03*
X80518000Y-89154000D03*
D20*
X71120000Y-105156000D03*
D21*
X73660000Y-105156000D03*
X76200000Y-105156000D03*
X78740000Y-105156000D03*
X81280000Y-105156000D03*
X83820000Y-105156000D03*
X86360000Y-105156000D03*
D20*
X95758000Y-107188000D03*
D21*
X95758000Y-104648000D03*
D22*
X84328000Y-73152000D03*
X75057000Y-73660000D03*
X74295000Y-94615000D03*
X78105000Y-85344000D03*
X77216000Y-61849000D03*
X82042000Y-77724000D03*
X89789000Y-82296000D03*
X67056000Y-100076000D03*
X80645000Y-57277000D03*
X70739000Y-57658000D03*
X71628000Y-45339000D03*
X81788000Y-70866000D03*
X75692000Y-70993000D03*
X65913000Y-80264000D03*
X62738000Y-81407000D03*
X81788000Y-93726000D03*
X65659000Y-83058000D03*
X67564000Y-82931000D03*
D23*
X86209363Y-70762637D02*
X90170000Y-66802000D01*
X90170000Y-66802000D02*
X90170000Y-60960000D01*
X90170000Y-60960000D02*
X94107000Y-57023000D01*
X94107000Y-57023000D02*
X94107000Y-53213000D01*
D24*
X94107000Y-53213000D02*
X94996000Y-52324000D01*
X94996000Y-52324000D02*
X95758000Y-52324000D01*
D23*
X86140346Y-70762637D02*
X86209363Y-70762637D01*
X80601122Y-65194878D02*
X80572587Y-65194878D01*
X80601122Y-65194878D02*
X82804000Y-62992000D01*
X79459035Y-64050965D02*
X81661000Y-61849000D01*
X79459035Y-64081327D02*
X79459035Y-64050965D01*
X86082363Y-70762637D02*
X84328000Y-72517000D01*
X84328000Y-72517000D02*
X84328000Y-73152000D01*
X86140346Y-70762637D02*
X86082363Y-70762637D01*
X74422000Y-73660000D02*
X75057000Y-73660000D01*
X70459861Y-77622139D02*
X74422000Y-73660000D01*
X70372430Y-77622139D02*
X70459861Y-77622139D01*
X80572587Y-65223413D02*
X77216000Y-68580000D01*
X77216000Y-68580000D02*
X77216000Y-71501000D01*
X77216000Y-71501000D02*
X75057000Y-73660000D01*
X80572587Y-65194878D02*
X80572587Y-65223413D01*
X74295000Y-94615000D02*
X74930000Y-93980000D01*
X74930000Y-93980000D02*
X74930000Y-93218000D01*
X77279500Y-90868500D02*
X77343000Y-90805000D01*
X74930000Y-93218000D02*
X77279500Y-90868500D01*
X82804000Y-62357000D02*
X82804000Y-62484000D01*
X82296000Y-61849000D02*
X82804000Y-62357000D01*
X81661000Y-61849000D02*
X82296000Y-61849000D01*
X82804000Y-62992000D02*
X82804000Y-62484000D01*
X77279500Y-86169500D02*
X78105000Y-85344000D01*
X77279500Y-90868500D02*
X77279500Y-86169500D01*
X77216000Y-61849000D02*
X82169000Y-61849000D01*
X82169000Y-61849000D02*
X82296000Y-61849000D01*
X72550758Y-79849242D02*
X69850000Y-82550000D01*
X72599534Y-79849242D02*
X72550758Y-79849242D01*
X68072000Y-84328000D02*
X62865000Y-84328000D01*
X62865000Y-84328000D02*
X61341000Y-82804000D01*
X61341000Y-82804000D02*
X60198000Y-82804000D01*
X69850000Y-82550000D02*
X68072000Y-84328000D01*
X72599534Y-79800466D02*
X74676000Y-77724000D01*
X74676000Y-77724000D02*
X82042000Y-77724000D01*
X72599534Y-79849242D02*
X72599534Y-79800466D01*
X89789000Y-82296000D02*
X93091000Y-82296000D01*
X93091000Y-82296000D02*
X95123000Y-80264000D01*
X95123000Y-80264000D02*
X95758000Y-80264000D01*
X69815654Y-77123346D02*
X68326000Y-78613000D01*
D24*
X63627000Y-77724000D02*
X60198000Y-77724000D01*
D23*
X64516000Y-78613000D02*
X63627000Y-77724000D01*
X68326000Y-78613000D02*
X64516000Y-78613000D01*
X69815654Y-77065363D02*
X69815654Y-77123346D01*
D25*
X67056000Y-100076000D02*
X60198000Y-106934000D01*
D23*
X80645000Y-57277000D02*
X80264000Y-57658000D01*
X80264000Y-57658000D02*
X70739000Y-57658000D01*
X82677000Y-57023000D02*
X85725000Y-53975000D01*
X85725000Y-53975000D02*
X85725000Y-50038000D01*
X85725000Y-50038000D02*
X84709000Y-49022000D01*
X84709000Y-49022000D02*
X83312000Y-49022000D01*
X74422000Y-63165130D02*
X74422000Y-61087000D01*
X75940189Y-64638103D02*
X75894973Y-64638103D01*
X75894973Y-64638103D02*
X74422000Y-63165130D01*
X82677000Y-58674000D02*
X82677000Y-57912000D01*
X81407000Y-59944000D02*
X82677000Y-58674000D01*
X75565000Y-59944000D02*
X81407000Y-59944000D01*
X74422000Y-61087000D02*
X75565000Y-59944000D01*
X82677000Y-57912000D02*
X82677000Y-57023000D01*
X83312000Y-45466000D02*
X82042000Y-44196000D01*
X82042000Y-44196000D02*
X78740000Y-44196000D01*
X78740000Y-44196000D02*
X76708000Y-42164000D01*
X76708000Y-42164000D02*
X76708000Y-39370000D01*
X83312000Y-49022000D02*
X83312000Y-45466000D01*
X77724000Y-102108000D02*
X77724000Y-99441000D01*
X78740000Y-103124000D02*
X77724000Y-102108000D01*
X78740000Y-105156000D02*
X78740000Y-103124000D01*
X61224121Y-59944000D02*
X70929206Y-69649085D01*
X60198000Y-59944000D02*
X61224121Y-59944000D01*
X75383413Y-65096413D02*
X72326500Y-62039500D01*
X75383413Y-65194878D02*
X75383413Y-65096413D01*
X69723000Y-59436000D02*
X68326000Y-58039000D01*
X68326000Y-58039000D02*
X68326000Y-52197000D01*
X74168000Y-42164000D02*
X74168000Y-39370000D01*
X72326500Y-62039500D02*
X69723000Y-59436000D01*
X74168000Y-42672000D02*
X74168000Y-39370000D01*
X73152000Y-49022000D02*
X73152000Y-45466000D01*
X68326000Y-50292000D02*
X69596000Y-49022000D01*
X69596000Y-49022000D02*
X73152000Y-49022000D01*
X68326000Y-52197000D02*
X68326000Y-50292000D01*
X74168000Y-42799000D02*
X74168000Y-39370000D01*
X73279000Y-43688000D02*
X74168000Y-42799000D01*
X71628000Y-45339000D02*
X73279000Y-43688000D01*
X73152000Y-43815000D02*
X73279000Y-43688000D01*
X73152000Y-49022000D02*
X73152000Y-43815000D01*
X81280000Y-105156000D02*
X81280000Y-99441000D01*
X85583570Y-70245430D02*
X83947000Y-71882000D01*
X83947000Y-71882000D02*
X82804000Y-71882000D01*
X82804000Y-71882000D02*
X81788000Y-70866000D01*
X85583570Y-70205861D02*
X85583570Y-70245430D01*
X70929206Y-78168794D02*
X74041000Y-75057000D01*
X74041000Y-75057000D02*
X77597000Y-75057000D01*
X77597000Y-75057000D02*
X81788000Y-70866000D01*
X70929206Y-78178915D02*
X70929206Y-78168794D01*
X75692000Y-68961000D02*
X75692000Y-70993000D01*
X80014897Y-64638103D02*
X75692000Y-68961000D01*
D24*
X63881000Y-80264000D02*
X65913000Y-80264000D01*
X62738000Y-81407000D02*
X63881000Y-80264000D01*
D23*
X80014897Y-64638103D02*
X78486000Y-66167000D01*
X80015811Y-64638103D02*
X80014897Y-64638103D01*
X77724000Y-96139000D02*
X81280000Y-96139000D01*
X81280000Y-94234000D02*
X81788000Y-93726000D01*
X81280000Y-96139000D02*
X81280000Y-94234000D01*
X80601122Y-82633122D02*
X83439000Y-85471000D01*
X83439000Y-85471000D02*
X83439000Y-98044000D01*
X83439000Y-98044000D02*
X85979000Y-100584000D01*
D24*
X85979000Y-100584000D02*
X95758000Y-100584000D01*
D23*
X80572587Y-82633122D02*
X80601122Y-82633122D01*
X81187346Y-82076346D02*
X84582000Y-85471000D01*
X84582000Y-85471000D02*
X84582000Y-95250000D01*
X84582000Y-95250000D02*
X87376000Y-98044000D01*
D24*
X87376000Y-98044000D02*
X95758000Y-98044000D01*
D23*
X81129363Y-82076346D02*
X81187346Y-82076346D01*
X81773570Y-81519570D02*
X86487000Y-86233000D01*
X86487000Y-86233000D02*
X86487000Y-93726000D01*
X86487000Y-93726000D02*
X88265000Y-95504000D01*
D24*
X88265000Y-95504000D02*
X95758000Y-95504000D01*
D23*
X81686139Y-81519570D02*
X81773570Y-81519570D01*
X82242915Y-80972915D02*
X87757000Y-86487000D01*
X87757000Y-86487000D02*
X87757000Y-90678000D01*
X87757000Y-90678000D02*
X90043000Y-92964000D01*
D24*
X90043000Y-92964000D02*
X95758000Y-92964000D01*
D23*
X82242915Y-80962794D02*
X82242915Y-80972915D01*
X86140346Y-77123346D02*
X88773000Y-79756000D01*
X88773000Y-79756000D02*
X91821000Y-79756000D01*
X91821000Y-79756000D02*
X93345000Y-78232000D01*
X93345000Y-78232000D02*
X93345000Y-74041000D01*
X93345000Y-74041000D02*
X94742000Y-72644000D01*
D24*
X94742000Y-72644000D02*
X95758000Y-72644000D01*
D23*
X86140346Y-77065363D02*
X86140346Y-77123346D01*
X87841035Y-75395035D02*
X89154000Y-76708000D01*
X89154000Y-76708000D02*
X90297000Y-76708000D01*
X90297000Y-76708000D02*
X90932000Y-76073000D01*
X90932000Y-76073000D02*
X90932000Y-73152000D01*
X87810673Y-75395035D02*
X87841035Y-75395035D01*
X90932000Y-71628000D02*
X93599000Y-68961000D01*
X93599000Y-68961000D02*
X93599000Y-67183000D01*
D24*
X93599000Y-67183000D02*
X95758000Y-65024000D01*
D23*
X90932000Y-73152000D02*
X90932000Y-71628000D01*
X87254811Y-75951811D02*
X89154000Y-77851000D01*
X89154000Y-77851000D02*
X90932000Y-77851000D01*
X90932000Y-77851000D02*
X91694000Y-77089000D01*
X91694000Y-77089000D02*
X91694000Y-73279000D01*
X87253897Y-75951811D02*
X87254811Y-75951811D01*
X91694000Y-72390000D02*
X94361000Y-69723000D01*
X94361000Y-69723000D02*
X94361000Y-68961000D01*
D24*
X94361000Y-68961000D02*
X95758000Y-67564000D01*
D23*
X91694000Y-73279000D02*
X91694000Y-72390000D01*
X86697122Y-76537122D02*
X88900000Y-78740000D01*
X88900000Y-78740000D02*
X91313000Y-78740000D01*
X91313000Y-78740000D02*
X92456000Y-77597000D01*
X92456000Y-77597000D02*
X92456000Y-73660000D01*
X86697122Y-76508587D02*
X86697122Y-76537122D01*
D24*
X92456000Y-73279000D02*
X95631000Y-70104000D01*
D23*
X95631000Y-70104000D02*
X95758000Y-70104000D01*
X92456000Y-73660000D02*
X92456000Y-73279000D01*
X85623139Y-77622139D02*
X88773000Y-80772000D01*
X88773000Y-80772000D02*
X92456000Y-80772000D01*
X92456000Y-80772000D02*
X94107000Y-79121000D01*
X94107000Y-79121000D02*
X94107000Y-75946000D01*
X94107000Y-75946000D02*
X94869000Y-75184000D01*
D24*
X94869000Y-75184000D02*
X95758000Y-75184000D01*
D23*
X85583570Y-77622139D02*
X85623139Y-77622139D01*
X69258878Y-71290878D02*
X65532000Y-67564000D01*
X65532000Y-67564000D02*
X60198000Y-67564000D01*
X69258878Y-71319413D02*
X69258878Y-71290878D01*
X84470018Y-69072982D02*
X88519000Y-65024000D01*
X88519000Y-65024000D02*
X88519000Y-59563000D01*
X88519000Y-59563000D02*
X92329000Y-55753000D01*
X92329000Y-55753000D02*
X92329000Y-52324000D01*
X84470018Y-69092310D02*
X84470018Y-69072982D01*
X92329000Y-50673000D02*
X94488000Y-48514000D01*
D24*
X94488000Y-48514000D02*
X94488000Y-39370000D01*
D23*
X92329000Y-52324000D02*
X92329000Y-50673000D01*
X68701189Y-71876189D02*
X66929000Y-70104000D01*
X66929000Y-70104000D02*
X60198000Y-70104000D01*
X68702103Y-71876189D02*
X68701189Y-71876189D01*
X85036915Y-69649085D02*
X89281000Y-65405000D01*
X89281000Y-65405000D02*
X89281000Y-60198000D01*
X89281000Y-60198000D02*
X93091000Y-56388000D01*
X93091000Y-56388000D02*
X93091000Y-52832000D01*
X85026794Y-69649085D02*
X85036915Y-69649085D01*
X93091000Y-51562000D02*
X97028000Y-47625000D01*
D24*
X97028000Y-47625000D02*
X97028000Y-39370000D01*
D23*
X93091000Y-52832000D02*
X93091000Y-51562000D01*
X68114965Y-72432965D02*
X66802000Y-71120000D01*
X66802000Y-71120000D02*
X64770000Y-71120000D01*
X64770000Y-71120000D02*
X63246000Y-72644000D01*
D24*
X63246000Y-72644000D02*
X60198000Y-72644000D01*
D23*
X68145327Y-72432965D02*
X68114965Y-72432965D01*
X69815654Y-70704654D02*
X64135000Y-65024000D01*
X64135000Y-65024000D02*
X60198000Y-65024000D01*
X69815654Y-70762637D02*
X69815654Y-70704654D01*
X82242915Y-66855085D02*
X85217000Y-63881000D01*
X85217000Y-63881000D02*
X85217000Y-57785000D01*
X85217000Y-57785000D02*
X87884000Y-55118000D01*
X87884000Y-55118000D02*
X87884000Y-47498000D01*
X82242915Y-66865206D02*
X82242915Y-66855085D01*
X87884000Y-45974000D02*
X84328000Y-42418000D01*
D24*
X84328000Y-42418000D02*
X84328000Y-39370000D01*
D23*
X87884000Y-47498000D02*
X87884000Y-45974000D01*
X82819018Y-80406018D02*
X88900000Y-86487000D01*
X88900000Y-86487000D02*
X88900000Y-88265000D01*
X88900000Y-88265000D02*
X91059000Y-90424000D01*
D24*
X91059000Y-90424000D02*
X95758000Y-90424000D01*
D23*
X82799690Y-80406018D02*
X82819018Y-80406018D01*
X64008000Y-92964000D02*
X60198000Y-92964000D01*
X74826637Y-82145363D02*
X64008000Y-92964000D01*
X74826637Y-82076346D02*
X74826637Y-82145363D01*
X82819018Y-67421982D02*
X85979000Y-64262000D01*
X85979000Y-64262000D02*
X85979000Y-58166000D01*
X85979000Y-58166000D02*
X89154000Y-54991000D01*
X89154000Y-54991000D02*
X89154000Y-46990000D01*
X82799690Y-67421982D02*
X82819018Y-67421982D01*
X89154000Y-45212000D02*
X86868000Y-42926000D01*
D24*
X86868000Y-42926000D02*
X86868000Y-39370000D01*
D23*
X89154000Y-46990000D02*
X89154000Y-45212000D01*
X74269861Y-81559139D02*
X65405000Y-90424000D01*
X74269861Y-81519570D02*
X74269861Y-81559139D01*
X65405000Y-90424000D02*
X60198000Y-90424000D01*
X83405242Y-67978758D02*
X86868000Y-64516000D01*
X86868000Y-64516000D02*
X86868000Y-58674000D01*
X86868000Y-58674000D02*
X90170000Y-55372000D01*
X90170000Y-55372000D02*
X90170000Y-46228000D01*
X83356466Y-67978758D02*
X83405242Y-67978758D01*
X90170000Y-43688000D02*
X89408000Y-42926000D01*
D24*
X89408000Y-42926000D02*
X89408000Y-39370000D01*
D23*
X90170000Y-46228000D02*
X90170000Y-43688000D01*
X66802000Y-87884000D02*
X60198000Y-87884000D01*
X73713085Y-80972915D02*
X66802000Y-87884000D01*
X73713085Y-80962794D02*
X73713085Y-80972915D01*
X83913242Y-68486758D02*
X87757000Y-64643000D01*
X87757000Y-64643000D02*
X87757000Y-59055000D01*
X87757000Y-59055000D02*
X91313000Y-55499000D01*
X91313000Y-55499000D02*
X91313000Y-51816000D01*
X83913242Y-68535534D02*
X83913242Y-68486758D01*
X91313000Y-49403000D02*
X91948000Y-48768000D01*
D24*
X91948000Y-48768000D02*
X91948000Y-39370000D01*
D23*
X91313000Y-51816000D02*
X91313000Y-49403000D01*
X73136982Y-80406018D02*
X68199000Y-85344000D01*
X73156310Y-80406018D02*
X73136982Y-80406018D01*
X68199000Y-85344000D02*
X60198000Y-85344000D01*
X86697122Y-71290878D02*
X91059000Y-66929000D01*
X91059000Y-66929000D02*
X91059000Y-61976000D01*
D24*
X91059000Y-61976000D02*
X95631000Y-57404000D01*
D23*
X95631000Y-57404000D02*
X95758000Y-57404000D01*
X86697122Y-71319413D02*
X86697122Y-71290878D01*
X67437000Y-58293000D02*
X67437000Y-49403000D01*
D24*
X71628000Y-40259000D02*
X71628000Y-39370000D01*
D23*
X74826637Y-65751654D02*
X74826637Y-65682637D01*
X74826637Y-65682637D02*
X71120000Y-61976000D01*
X71120000Y-61976000D02*
X67437000Y-58293000D01*
X67437000Y-46863000D02*
X71628000Y-42672000D01*
X71628000Y-42672000D02*
X71628000Y-39370000D01*
X67437000Y-49403000D02*
X67437000Y-46863000D01*
X95250000Y-105156000D02*
X95758000Y-104648000D01*
X86360000Y-105156000D02*
X95250000Y-105156000D01*
X62600792Y-62484000D02*
X70318550Y-70201758D01*
X70318550Y-70201758D02*
X70372430Y-70205861D01*
D24*
X60198000Y-62484000D02*
X62600792Y-62484000D01*
D23*
X81187346Y-65751654D02*
X83693000Y-63246000D01*
X83693000Y-63246000D02*
X83693000Y-61976000D01*
X81129363Y-65751654D02*
X81187346Y-65751654D01*
X83693000Y-57277000D02*
X86487000Y-54483000D01*
X86487000Y-54483000D02*
X86487000Y-47117000D01*
X86487000Y-47117000D02*
X82423000Y-43053000D01*
X82423000Y-43053000D02*
X79883000Y-43053000D01*
X79883000Y-43053000D02*
X79248000Y-42418000D01*
X79248000Y-42418000D02*
X79248000Y-39370000D01*
X83693000Y-61976000D02*
X83693000Y-57277000D01*
X83991466Y-79292466D02*
X90043000Y-85344000D01*
D24*
X90043000Y-85344000D02*
X95758000Y-85344000D01*
D23*
X83913242Y-79292466D02*
X83991466Y-79292466D01*
X75940189Y-83190811D02*
X61087000Y-98044000D01*
X61087000Y-98044000D02*
X60198000Y-98044000D01*
X75940189Y-83189897D02*
X75940189Y-83190811D01*
X81788000Y-39751000D02*
X81788000Y-39370000D01*
X87198198Y-46558198D02*
X81788000Y-41148000D01*
X81788000Y-41148000D02*
X81788000Y-39370000D01*
X84455000Y-59817000D02*
X84455000Y-57577130D01*
X87198198Y-54833932D02*
X87198198Y-46685198D01*
X84455000Y-57577130D02*
X87198198Y-54833932D01*
X84455000Y-62484000D02*
X84455000Y-59817000D01*
X81686139Y-66308430D02*
X81773570Y-66308430D01*
X84455000Y-63627000D02*
X84455000Y-62484000D01*
X81773570Y-66308430D02*
X84455000Y-63627000D01*
X87198198Y-46685198D02*
X87198198Y-46558198D01*
X75344670Y-82633122D02*
X62473792Y-95504000D01*
X75383413Y-82633122D02*
X75344670Y-82633122D01*
X62473792Y-95504000D02*
X60198000Y-95504000D01*
X87254811Y-71876189D02*
X91948000Y-67183000D01*
X91948000Y-67183000D02*
X91948000Y-63754000D01*
D24*
X91948000Y-63754000D02*
X95758000Y-59944000D01*
D23*
X87253897Y-71876189D02*
X87254811Y-71876189D01*
X62103000Y-59709328D02*
X71485982Y-69092310D01*
D24*
X61214000Y-57404000D02*
X62103000Y-58293000D01*
D23*
X62103000Y-58293000D02*
X62103000Y-59709328D01*
D24*
X60198000Y-57404000D02*
X61214000Y-57404000D01*
D23*
X63119000Y-57912000D02*
X63119000Y-57404000D01*
X62484000Y-56769000D02*
X62484000Y-49657000D01*
X63119000Y-57404000D02*
X62484000Y-56769000D01*
X72042758Y-68486758D02*
X72042758Y-68535534D01*
D24*
X62484000Y-49657000D02*
X58928000Y-46101000D01*
D23*
X63119000Y-59563000D02*
X63119000Y-57912000D01*
X72042758Y-68486758D02*
X63119000Y-59563000D01*
D24*
X58928000Y-39370000D02*
X58928000Y-46101000D01*
D23*
X72599534Y-67900534D02*
X72599534Y-67978758D01*
D24*
X63373000Y-48260000D02*
X61468000Y-46355000D01*
D23*
X63373000Y-56388000D02*
X63373000Y-48260000D01*
X64008000Y-57023000D02*
X63373000Y-56388000D01*
X64008000Y-59309000D02*
X64008000Y-57023000D01*
X72599534Y-67900534D02*
X64008000Y-59309000D01*
D24*
X61468000Y-39370000D02*
X61468000Y-46355000D01*
D23*
X73136982Y-67421982D02*
X73156310Y-67421982D01*
D24*
X64897000Y-45339000D02*
X64008000Y-44450000D01*
D23*
X64897000Y-59182000D02*
X64897000Y-45339000D01*
X73136982Y-67421982D02*
X64897000Y-59182000D01*
D24*
X64008000Y-39370000D02*
X64008000Y-44450000D01*
X65786000Y-43942000D02*
X66548000Y-43180000D01*
X66548000Y-43180000D02*
X66548000Y-39370000D01*
D23*
X73713085Y-66865206D02*
X73713085Y-66855085D01*
X73713085Y-66855085D02*
X65786000Y-58928000D01*
X65786000Y-58928000D02*
X65786000Y-43942000D01*
X74269861Y-66268861D02*
X66675000Y-58674000D01*
X66675000Y-58674000D02*
X66675000Y-48260000D01*
X74269861Y-66308430D02*
X74269861Y-66268861D01*
X66675000Y-48260000D02*
X66675000Y-46736000D01*
X66675000Y-46101000D02*
X69088000Y-43688000D01*
X69088000Y-43688000D02*
X69088000Y-39370000D01*
X66675000Y-46736000D02*
X66675000Y-46101000D01*
X65659000Y-83058000D02*
X67691000Y-81026000D01*
X67691000Y-81026000D02*
X69195672Y-81026000D01*
X69195672Y-81026000D02*
X71485982Y-78735690D01*
X69515130Y-81915000D02*
X72065823Y-79364307D01*
X68580000Y-81915000D02*
X69515130Y-81915000D01*
X67564000Y-82931000D02*
X68580000Y-81915000D01*
X72065823Y-79364307D02*
X72042758Y-79292466D01*
X87841035Y-72432965D02*
X92837000Y-67437000D01*
X92837000Y-67437000D02*
X92837000Y-65659000D01*
X92837000Y-65659000D02*
X95758000Y-62738000D01*
X95758000Y-62738000D02*
X95758000Y-62484000D01*
X87810673Y-72432965D02*
X87841035Y-72432965D01*
X68114965Y-75395035D02*
X66802000Y-76708000D01*
X66802000Y-76708000D02*
X65278000Y-76708000D01*
X65278000Y-76708000D02*
X63754000Y-75184000D01*
D24*
X63754000Y-75184000D02*
X60198000Y-75184000D01*
D23*
X68145327Y-75395035D02*
X68114965Y-75395035D01*
X90043000Y-86487000D02*
X90932000Y-87376000D01*
X83405242Y-79849242D02*
X90043000Y-86487000D01*
X83405242Y-79849242D02*
X83356466Y-79849242D01*
X90932000Y-87376000D02*
X91440000Y-87884000D01*
D24*
X95758000Y-87884000D02*
X91440000Y-87884000D01*
D23*
X84470018Y-78755018D02*
X88519000Y-82804000D01*
X84470018Y-78735690D02*
X84470018Y-78755018D01*
X88519000Y-82850130D02*
X89869870Y-84201000D01*
X89869870Y-84201000D02*
X93853000Y-84201000D01*
X93853000Y-84201000D02*
X95250000Y-82804000D01*
X95250000Y-82804000D02*
X95758000Y-82804000D01*
X88519000Y-82804000D02*
X88519000Y-82850130D01*
X76496965Y-83777035D02*
X65024000Y-95250000D01*
X76496965Y-83746673D02*
X76496965Y-83777035D01*
X65024000Y-95250000D02*
X65024000Y-97917000D01*
X65024000Y-97917000D02*
X62357000Y-100584000D01*
X62357000Y-100584000D02*
X60198000Y-100584000D01*
D11*
G36*
X82804000Y-62877764D02*
X81685856Y-63995907D01*
X81638903Y-63948954D01*
X81555567Y-64032289D01*
X81555593Y-64002806D01*
X81526651Y-63932761D01*
X81526651Y-63836703D01*
X81442297Y-63752193D01*
X81441811Y-63751991D01*
X81280652Y-63590549D01*
X80901720Y-63211617D01*
X80885521Y-63195418D01*
X80885469Y-63195396D01*
X80817210Y-63127263D01*
X80721386Y-63127263D01*
X80652216Y-63098541D01*
X80399597Y-63098321D01*
X80166124Y-63194790D01*
X80076445Y-63284311D01*
X80413099Y-62947658D01*
X80413099Y-62723152D01*
X80328745Y-62638642D01*
X80095440Y-62541765D01*
X79842821Y-62541545D01*
X79609348Y-62638014D01*
X79430563Y-62816486D01*
X79014512Y-63232693D01*
X79014512Y-63457199D01*
X79458957Y-63901644D01*
X79279352Y-64081249D01*
X78834907Y-63636804D01*
X78610401Y-63636804D01*
X78194194Y-64052855D01*
X78015722Y-64231640D01*
X77978000Y-64322934D01*
X77940278Y-64231640D01*
X77761806Y-64052855D01*
X76347592Y-62638642D01*
X76114287Y-62541765D01*
X75861668Y-62541545D01*
X75628196Y-62638014D01*
X75449411Y-62816486D01*
X75390001Y-62875895D01*
X75311000Y-62796894D01*
X75311000Y-61455236D01*
X75933236Y-60833000D01*
X81407000Y-60833000D01*
X81747205Y-60765329D01*
X81747206Y-60765329D01*
X82035618Y-60572618D01*
X82804000Y-59804236D01*
X82804000Y-61976000D01*
X82804000Y-62877764D01*
X82804000Y-62877764D01*
G37*
X82804000Y-62877764D02*
X81685856Y-63995907D01*
X81638903Y-63948954D01*
X81555567Y-64032289D01*
X81555593Y-64002806D01*
X81526651Y-63932761D01*
X81526651Y-63836703D01*
X81442297Y-63752193D01*
X81441811Y-63751991D01*
X81280652Y-63590549D01*
X80901720Y-63211617D01*
X80885521Y-63195418D01*
X80885469Y-63195396D01*
X80817210Y-63127263D01*
X80721386Y-63127263D01*
X80652216Y-63098541D01*
X80399597Y-63098321D01*
X80166124Y-63194790D01*
X80076445Y-63284311D01*
X80413099Y-62947658D01*
X80413099Y-62723152D01*
X80328745Y-62638642D01*
X80095440Y-62541765D01*
X79842821Y-62541545D01*
X79609348Y-62638014D01*
X79430563Y-62816486D01*
X79014512Y-63232693D01*
X79014512Y-63457199D01*
X79458957Y-63901644D01*
X79279352Y-64081249D01*
X78834907Y-63636804D01*
X78610401Y-63636804D01*
X78194194Y-64052855D01*
X78015722Y-64231640D01*
X77978000Y-64322934D01*
X77940278Y-64231640D01*
X77761806Y-64052855D01*
X76347592Y-62638642D01*
X76114287Y-62541765D01*
X75861668Y-62541545D01*
X75628196Y-62638014D01*
X75449411Y-62816486D01*
X75390001Y-62875895D01*
X75311000Y-62796894D01*
X75311000Y-61455236D01*
X75933236Y-60833000D01*
X81407000Y-60833000D01*
X81747205Y-60765329D01*
X81747206Y-60765329D01*
X82035618Y-60572618D01*
X82804000Y-59804236D01*
X82804000Y-61976000D01*
X82804000Y-62877764D01*
G36*
X83818539Y-70753224D02*
X83578764Y-70993000D01*
X83172889Y-70993000D01*
X83173240Y-70591715D01*
X82962831Y-70082485D01*
X82573564Y-69692539D01*
X82064702Y-69481241D01*
X81513715Y-69480760D01*
X81004485Y-69691169D01*
X80614539Y-70080436D01*
X80403241Y-70589298D01*
X80402887Y-70993876D01*
X77228764Y-74168000D01*
X74041000Y-74168000D01*
X73700794Y-74235671D01*
X73412382Y-74428382D01*
X71451647Y-76389116D01*
X71438746Y-76376215D01*
X71355409Y-76459551D01*
X71355436Y-76430066D01*
X71326494Y-76360021D01*
X71326494Y-76263964D01*
X71242140Y-76179454D01*
X71241656Y-76179253D01*
X71080495Y-76017809D01*
X70685364Y-75622678D01*
X70684880Y-75622477D01*
X70523719Y-75461033D01*
X70128588Y-75065902D01*
X70128106Y-75065702D01*
X69966944Y-74904257D01*
X69571813Y-74509126D01*
X69571329Y-74508925D01*
X69410168Y-74347481D01*
X69015037Y-73952350D01*
X68922741Y-73914025D01*
X69014096Y-73876278D01*
X69192881Y-73697806D01*
X69588012Y-73302675D01*
X69588212Y-73302191D01*
X69749657Y-73141030D01*
X70144788Y-72745899D01*
X70144989Y-72745413D01*
X70306432Y-72584254D01*
X70701563Y-72189123D01*
X70701763Y-72188639D01*
X70863208Y-72027478D01*
X71258339Y-71632347D01*
X71258539Y-71631863D01*
X71419984Y-71470702D01*
X71815115Y-71075571D01*
X71815315Y-71075087D01*
X71976760Y-70913926D01*
X72371891Y-70518795D01*
X72372090Y-70518313D01*
X72533536Y-70357151D01*
X72928667Y-69962020D01*
X72928867Y-69961536D01*
X73090312Y-69800375D01*
X73485443Y-69405244D01*
X73485643Y-69404760D01*
X73647088Y-69243599D01*
X74042219Y-68848468D01*
X74042419Y-68847984D01*
X74203864Y-68686823D01*
X74598995Y-68291692D01*
X74599196Y-68291206D01*
X74760639Y-68130047D01*
X75155770Y-67734916D01*
X75155970Y-67734432D01*
X75317415Y-67573271D01*
X75712546Y-67178140D01*
X75712746Y-67177656D01*
X75874191Y-67016495D01*
X76269322Y-66621364D01*
X76269522Y-66620880D01*
X76430967Y-66459719D01*
X76826098Y-66064588D01*
X76826297Y-66064106D01*
X76987743Y-65902944D01*
X77382874Y-65507813D01*
X77383074Y-65507329D01*
X77544519Y-65346168D01*
X77939650Y-64951037D01*
X77978000Y-64858680D01*
X78016350Y-64951037D01*
X78100860Y-65035391D01*
X78325362Y-65035391D01*
X78213111Y-65147643D01*
X78230615Y-65165147D01*
X77857382Y-65538382D01*
X77857381Y-65538382D01*
X75063382Y-68332382D01*
X74870671Y-68620794D01*
X74803000Y-68961000D01*
X74803000Y-69923470D01*
X74518539Y-70207436D01*
X74307241Y-70716298D01*
X74306760Y-71267285D01*
X74517169Y-71776515D01*
X74906436Y-72166461D01*
X75415298Y-72377759D01*
X75966285Y-72378240D01*
X76475515Y-72167831D01*
X76865461Y-71778564D01*
X77076759Y-71269702D01*
X77077240Y-70718715D01*
X76866831Y-70209485D01*
X76581000Y-69923155D01*
X76581000Y-69329236D01*
X79114618Y-66795618D01*
X79487852Y-66422383D01*
X79506271Y-66440802D01*
X79589606Y-66357466D01*
X79589581Y-66386951D01*
X79618523Y-66456995D01*
X79618523Y-66553053D01*
X79702877Y-66637563D01*
X79703360Y-66637763D01*
X79864522Y-66799208D01*
X80259653Y-67194339D01*
X80260136Y-67194539D01*
X80421298Y-67355984D01*
X80816429Y-67751115D01*
X80816912Y-67751315D01*
X80978074Y-67912760D01*
X81373205Y-68307891D01*
X81373686Y-68308090D01*
X81534849Y-68469536D01*
X81929980Y-68864667D01*
X81930463Y-68864867D01*
X82091625Y-69026312D01*
X82486756Y-69421443D01*
X82487239Y-69421643D01*
X82648401Y-69583088D01*
X83043532Y-69978219D01*
X83044015Y-69978419D01*
X83205177Y-70139864D01*
X83600308Y-70534995D01*
X83600793Y-70535196D01*
X83761953Y-70696639D01*
X83818539Y-70753224D01*
X83818539Y-70753224D01*
G37*
X83818539Y-70753224D02*
X83578764Y-70993000D01*
X83172889Y-70993000D01*
X83173240Y-70591715D01*
X82962831Y-70082485D01*
X82573564Y-69692539D01*
X82064702Y-69481241D01*
X81513715Y-69480760D01*
X81004485Y-69691169D01*
X80614539Y-70080436D01*
X80403241Y-70589298D01*
X80402887Y-70993876D01*
X77228764Y-74168000D01*
X74041000Y-74168000D01*
X73700794Y-74235671D01*
X73412382Y-74428382D01*
X71451647Y-76389116D01*
X71438746Y-76376215D01*
X71355409Y-76459551D01*
X71355436Y-76430066D01*
X71326494Y-76360021D01*
X71326494Y-76263964D01*
X71242140Y-76179454D01*
X71241656Y-76179253D01*
X71080495Y-76017809D01*
X70685364Y-75622678D01*
X70684880Y-75622477D01*
X70523719Y-75461033D01*
X70128588Y-75065902D01*
X70128106Y-75065702D01*
X69966944Y-74904257D01*
X69571813Y-74509126D01*
X69571329Y-74508925D01*
X69410168Y-74347481D01*
X69015037Y-73952350D01*
X68922741Y-73914025D01*
X69014096Y-73876278D01*
X69192881Y-73697806D01*
X69588012Y-73302675D01*
X69588212Y-73302191D01*
X69749657Y-73141030D01*
X70144788Y-72745899D01*
X70144989Y-72745413D01*
X70306432Y-72584254D01*
X70701563Y-72189123D01*
X70701763Y-72188639D01*
X70863208Y-72027478D01*
X71258339Y-71632347D01*
X71258539Y-71631863D01*
X71419984Y-71470702D01*
X71815115Y-71075571D01*
X71815315Y-71075087D01*
X71976760Y-70913926D01*
X72371891Y-70518795D01*
X72372090Y-70518313D01*
X72533536Y-70357151D01*
X72928667Y-69962020D01*
X72928867Y-69961536D01*
X73090312Y-69800375D01*
X73485443Y-69405244D01*
X73485643Y-69404760D01*
X73647088Y-69243599D01*
X74042219Y-68848468D01*
X74042419Y-68847984D01*
X74203864Y-68686823D01*
X74598995Y-68291692D01*
X74599196Y-68291206D01*
X74760639Y-68130047D01*
X75155770Y-67734916D01*
X75155970Y-67734432D01*
X75317415Y-67573271D01*
X75712546Y-67178140D01*
X75712746Y-67177656D01*
X75874191Y-67016495D01*
X76269322Y-66621364D01*
X76269522Y-66620880D01*
X76430967Y-66459719D01*
X76826098Y-66064588D01*
X76826297Y-66064106D01*
X76987743Y-65902944D01*
X77382874Y-65507813D01*
X77383074Y-65507329D01*
X77544519Y-65346168D01*
X77939650Y-64951037D01*
X77978000Y-64858680D01*
X78016350Y-64951037D01*
X78100860Y-65035391D01*
X78325362Y-65035391D01*
X78213111Y-65147643D01*
X78230615Y-65165147D01*
X77857382Y-65538382D01*
X77857381Y-65538382D01*
X75063382Y-68332382D01*
X74870671Y-68620794D01*
X74803000Y-68961000D01*
X74803000Y-69923470D01*
X74518539Y-70207436D01*
X74307241Y-70716298D01*
X74306760Y-71267285D01*
X74517169Y-71776515D01*
X74906436Y-72166461D01*
X75415298Y-72377759D01*
X75966285Y-72378240D01*
X76475515Y-72167831D01*
X76865461Y-71778564D01*
X77076759Y-71269702D01*
X77077240Y-70718715D01*
X76866831Y-70209485D01*
X76581000Y-69923155D01*
X76581000Y-69329236D01*
X79114618Y-66795618D01*
X79487852Y-66422383D01*
X79506271Y-66440802D01*
X79589606Y-66357466D01*
X79589581Y-66386951D01*
X79618523Y-66456995D01*
X79618523Y-66553053D01*
X79702877Y-66637563D01*
X79703360Y-66637763D01*
X79864522Y-66799208D01*
X80259653Y-67194339D01*
X80260136Y-67194539D01*
X80421298Y-67355984D01*
X80816429Y-67751115D01*
X80816912Y-67751315D01*
X80978074Y-67912760D01*
X81373205Y-68307891D01*
X81373686Y-68308090D01*
X81534849Y-68469536D01*
X81929980Y-68864667D01*
X81930463Y-68864867D01*
X82091625Y-69026312D01*
X82486756Y-69421443D01*
X82487239Y-69421643D01*
X82648401Y-69583088D01*
X83043532Y-69978219D01*
X83044015Y-69978419D01*
X83205177Y-70139864D01*
X83600308Y-70534995D01*
X83600793Y-70535196D01*
X83761953Y-70696639D01*
X83818539Y-70753224D01*
G36*
X84836000Y-53606764D02*
X84833588Y-53609176D01*
X84833588Y-51796692D01*
X84807578Y-51196540D01*
X84627951Y-50762886D01*
X84374060Y-50679546D01*
X83491605Y-51562000D01*
X84374060Y-52444454D01*
X84627951Y-52361114D01*
X84833588Y-51796692D01*
X84833588Y-53609176D01*
X84194454Y-54248310D01*
X84194454Y-52624060D01*
X83312000Y-51741605D01*
X82429546Y-52624060D01*
X82512886Y-52877951D01*
X83077308Y-53083588D01*
X83677460Y-53057578D01*
X84111114Y-52877951D01*
X84194454Y-52624060D01*
X84194454Y-54248310D01*
X82048382Y-56394382D01*
X81881858Y-56643602D01*
X81819831Y-56493485D01*
X81430564Y-56103539D01*
X80921702Y-55892241D01*
X80370715Y-55891760D01*
X79861485Y-56102169D01*
X79471539Y-56491436D01*
X79356284Y-56769000D01*
X71808529Y-56769000D01*
X71524564Y-56484539D01*
X71015702Y-56273241D01*
X70464715Y-56272760D01*
X69955485Y-56483169D01*
X69565539Y-56872436D01*
X69354241Y-57381298D01*
X69353867Y-57809631D01*
X69215000Y-57670764D01*
X69215000Y-52197000D01*
X69215000Y-50660236D01*
X69964236Y-49911000D01*
X71905849Y-49911000D01*
X72286537Y-50292353D01*
X71872631Y-50705537D01*
X71642263Y-51260325D01*
X71641739Y-51861040D01*
X71871138Y-52416228D01*
X72295537Y-52841369D01*
X72850325Y-53071737D01*
X73451040Y-53072261D01*
X74006228Y-52842862D01*
X74422353Y-52427462D01*
X74835537Y-52841369D01*
X75390325Y-53071737D01*
X75991040Y-53072261D01*
X76546228Y-52842862D01*
X76962353Y-52427462D01*
X77375537Y-52841369D01*
X77930325Y-53071737D01*
X78531040Y-53072261D01*
X79086228Y-52842862D01*
X79502353Y-52427462D01*
X79915537Y-52841369D01*
X80470325Y-53071737D01*
X81071040Y-53072261D01*
X81626228Y-52842862D01*
X82051369Y-52418463D01*
X82065690Y-52383973D01*
X82249940Y-52444454D01*
X83132395Y-51562000D01*
X82249940Y-50679546D01*
X82066129Y-50739881D01*
X82052862Y-50707772D01*
X81637462Y-50291646D01*
X82042353Y-49887462D01*
X82455537Y-50301369D01*
X82490026Y-50315690D01*
X82429546Y-50499940D01*
X83312000Y-51382395D01*
X84194454Y-50499940D01*
X84134118Y-50316129D01*
X84166228Y-50302862D01*
X84449674Y-50019910D01*
X84836000Y-50406236D01*
X84836000Y-53606764D01*
X84836000Y-53606764D01*
G37*
X84836000Y-53606764D02*
X84833588Y-53609176D01*
X84833588Y-51796692D01*
X84807578Y-51196540D01*
X84627951Y-50762886D01*
X84374060Y-50679546D01*
X83491605Y-51562000D01*
X84374060Y-52444454D01*
X84627951Y-52361114D01*
X84833588Y-51796692D01*
X84833588Y-53609176D01*
X84194454Y-54248310D01*
X84194454Y-52624060D01*
X83312000Y-51741605D01*
X82429546Y-52624060D01*
X82512886Y-52877951D01*
X83077308Y-53083588D01*
X83677460Y-53057578D01*
X84111114Y-52877951D01*
X84194454Y-52624060D01*
X84194454Y-54248310D01*
X82048382Y-56394382D01*
X81881858Y-56643602D01*
X81819831Y-56493485D01*
X81430564Y-56103539D01*
X80921702Y-55892241D01*
X80370715Y-55891760D01*
X79861485Y-56102169D01*
X79471539Y-56491436D01*
X79356284Y-56769000D01*
X71808529Y-56769000D01*
X71524564Y-56484539D01*
X71015702Y-56273241D01*
X70464715Y-56272760D01*
X69955485Y-56483169D01*
X69565539Y-56872436D01*
X69354241Y-57381298D01*
X69353867Y-57809631D01*
X69215000Y-57670764D01*
X69215000Y-52197000D01*
X69215000Y-50660236D01*
X69964236Y-49911000D01*
X71905849Y-49911000D01*
X72286537Y-50292353D01*
X71872631Y-50705537D01*
X71642263Y-51260325D01*
X71641739Y-51861040D01*
X71871138Y-52416228D01*
X72295537Y-52841369D01*
X72850325Y-53071737D01*
X73451040Y-53072261D01*
X74006228Y-52842862D01*
X74422353Y-52427462D01*
X74835537Y-52841369D01*
X75390325Y-53071737D01*
X75991040Y-53072261D01*
X76546228Y-52842862D01*
X76962353Y-52427462D01*
X77375537Y-52841369D01*
X77930325Y-53071737D01*
X78531040Y-53072261D01*
X79086228Y-52842862D01*
X79502353Y-52427462D01*
X79915537Y-52841369D01*
X80470325Y-53071737D01*
X81071040Y-53072261D01*
X81626228Y-52842862D01*
X82051369Y-52418463D01*
X82065690Y-52383973D01*
X82249940Y-52444454D01*
X83132395Y-51562000D01*
X82249940Y-50679546D01*
X82066129Y-50739881D01*
X82052862Y-50707772D01*
X81637462Y-50291646D01*
X82042353Y-49887462D01*
X82455537Y-50301369D01*
X82490026Y-50315690D01*
X82429546Y-50499940D01*
X83312000Y-51382395D01*
X84194454Y-50499940D01*
X84134118Y-50316129D01*
X84166228Y-50302862D01*
X84449674Y-50019910D01*
X84836000Y-50406236D01*
X84836000Y-53606764D01*
G36*
X87033258Y-73913974D02*
X86941904Y-73951722D01*
X86763119Y-74130194D01*
X86367988Y-74525325D01*
X86367787Y-74525808D01*
X86206343Y-74686970D01*
X85811212Y-75082101D01*
X85811010Y-75082586D01*
X85649568Y-75243746D01*
X85254437Y-75638877D01*
X85254236Y-75639360D01*
X85092792Y-75800522D01*
X84697661Y-76195653D01*
X84697460Y-76196136D01*
X84536016Y-76357298D01*
X84140885Y-76752429D01*
X84140684Y-76752912D01*
X83979240Y-76914074D01*
X83584109Y-77309205D01*
X83583909Y-77309686D01*
X83427225Y-77466095D01*
X83427240Y-77449715D01*
X83216831Y-76940485D01*
X82827564Y-76550539D01*
X82318702Y-76339241D01*
X81767715Y-76338760D01*
X81258485Y-76549169D01*
X80972155Y-76835000D01*
X74676000Y-76835000D01*
X74335794Y-76902671D01*
X74047382Y-77095382D01*
X73102725Y-78040038D01*
X72912468Y-77849781D01*
X72911984Y-77849580D01*
X72750823Y-77688136D01*
X72708961Y-77646274D01*
X74409236Y-75946000D01*
X77597000Y-75946000D01*
X77937205Y-75878329D01*
X77937206Y-75878329D01*
X78225618Y-75685618D01*
X81660346Y-72250889D01*
X81915876Y-72251112D01*
X82175381Y-72510617D01*
X82175382Y-72510618D01*
X82463794Y-72703329D01*
X82803999Y-72770999D01*
X82804000Y-72771000D01*
X83947000Y-72771000D01*
X84287205Y-72703329D01*
X84287206Y-72703329D01*
X84575618Y-72510618D01*
X85157362Y-71928873D01*
X85157340Y-71954710D01*
X85186282Y-72024754D01*
X85186282Y-72120812D01*
X85270636Y-72205322D01*
X85271119Y-72205522D01*
X85432281Y-72366967D01*
X85827412Y-72762098D01*
X85827893Y-72762297D01*
X85989056Y-72923743D01*
X86384187Y-73318874D01*
X86384670Y-73319074D01*
X86545832Y-73480519D01*
X86940963Y-73875650D01*
X87033258Y-73913974D01*
X87033258Y-73913974D01*
G37*
X87033258Y-73913974D02*
X86941904Y-73951722D01*
X86763119Y-74130194D01*
X86367988Y-74525325D01*
X86367787Y-74525808D01*
X86206343Y-74686970D01*
X85811212Y-75082101D01*
X85811010Y-75082586D01*
X85649568Y-75243746D01*
X85254437Y-75638877D01*
X85254236Y-75639360D01*
X85092792Y-75800522D01*
X84697661Y-76195653D01*
X84697460Y-76196136D01*
X84536016Y-76357298D01*
X84140885Y-76752429D01*
X84140684Y-76752912D01*
X83979240Y-76914074D01*
X83584109Y-77309205D01*
X83583909Y-77309686D01*
X83427225Y-77466095D01*
X83427240Y-77449715D01*
X83216831Y-76940485D01*
X82827564Y-76550539D01*
X82318702Y-76339241D01*
X81767715Y-76338760D01*
X81258485Y-76549169D01*
X80972155Y-76835000D01*
X74676000Y-76835000D01*
X74335794Y-76902671D01*
X74047382Y-77095382D01*
X73102725Y-78040038D01*
X72912468Y-77849781D01*
X72911984Y-77849580D01*
X72750823Y-77688136D01*
X72708961Y-77646274D01*
X74409236Y-75946000D01*
X77597000Y-75946000D01*
X77937205Y-75878329D01*
X77937206Y-75878329D01*
X78225618Y-75685618D01*
X81660346Y-72250889D01*
X81915876Y-72251112D01*
X82175381Y-72510617D01*
X82175382Y-72510618D01*
X82463794Y-72703329D01*
X82803999Y-72770999D01*
X82804000Y-72771000D01*
X83947000Y-72771000D01*
X84287205Y-72703329D01*
X84287206Y-72703329D01*
X84575618Y-72510618D01*
X85157362Y-71928873D01*
X85157340Y-71954710D01*
X85186282Y-72024754D01*
X85186282Y-72120812D01*
X85270636Y-72205322D01*
X85271119Y-72205522D01*
X85432281Y-72366967D01*
X85827412Y-72762098D01*
X85827893Y-72762297D01*
X85989056Y-72923743D01*
X86384187Y-73318874D01*
X86384670Y-73319074D01*
X86545832Y-73480519D01*
X86940963Y-73875650D01*
X87033258Y-73913974D01*
G36*
X97533000Y-111349000D02*
X76954581Y-111349000D01*
X76954581Y-106090186D01*
X76200000Y-105335605D01*
X76020395Y-105515210D01*
X76020395Y-105156000D01*
X75265814Y-104401419D01*
X75030202Y-104463072D01*
X74931917Y-104742316D01*
X74791145Y-104401620D01*
X74416353Y-104026174D01*
X73926413Y-103822733D01*
X73395914Y-103822270D01*
X72905620Y-104024855D01*
X72530174Y-104399647D01*
X72453610Y-104584033D01*
X72453610Y-104331745D01*
X72357141Y-104098271D01*
X72178668Y-103919487D01*
X71945364Y-103822611D01*
X71692745Y-103822390D01*
X70295745Y-103822390D01*
X70062271Y-103918859D01*
X69883487Y-104097332D01*
X69786611Y-104330636D01*
X69786390Y-104583255D01*
X69786390Y-105980255D01*
X69882859Y-106213729D01*
X70061332Y-106392513D01*
X70294636Y-106489389D01*
X70547255Y-106489610D01*
X71944255Y-106489610D01*
X72177729Y-106393141D01*
X72356513Y-106214668D01*
X72453389Y-105981364D01*
X72453610Y-105728745D01*
X72453610Y-105728272D01*
X72528855Y-105910380D01*
X72903647Y-106285826D01*
X73393587Y-106489267D01*
X73924086Y-106489730D01*
X74414380Y-106287145D01*
X74789826Y-105912353D01*
X74923314Y-105590877D01*
X75030202Y-105848928D01*
X75265814Y-105910581D01*
X76020395Y-105156000D01*
X76020395Y-105515210D01*
X75445419Y-106090186D01*
X75507072Y-106325798D01*
X76007480Y-106501924D01*
X76537198Y-106473146D01*
X76892928Y-106325798D01*
X76954581Y-106090186D01*
X76954581Y-111349000D01*
X72486762Y-111349000D01*
X72486762Y-110439200D01*
X72486762Y-107238800D01*
X68441240Y-107238800D01*
X68441240Y-99801715D01*
X68230831Y-99292485D01*
X67841564Y-98902539D01*
X67332702Y-98691241D01*
X66781715Y-98690760D01*
X66272485Y-98901169D01*
X65882539Y-99290436D01*
X65671241Y-99799298D01*
X65671044Y-100024114D01*
X60196161Y-105498998D01*
X59913813Y-105498752D01*
X59386200Y-105716757D01*
X58982176Y-106120077D01*
X58763250Y-106647309D01*
X58762752Y-107218187D01*
X58980757Y-107745800D01*
X59384077Y-108149824D01*
X59911309Y-108368750D01*
X60482187Y-108369248D01*
X61009800Y-108151243D01*
X61413824Y-107747923D01*
X61632750Y-107220691D01*
X61632998Y-106935841D01*
X67107795Y-101461045D01*
X67330285Y-101461240D01*
X67839515Y-101250831D01*
X68229461Y-100861564D01*
X68440759Y-100352702D01*
X68441240Y-99801715D01*
X68441240Y-107238800D01*
X66713248Y-107238800D01*
X66713248Y-106649813D01*
X66495243Y-106122200D01*
X66091923Y-105718176D01*
X65564691Y-105499250D01*
X64993813Y-105498752D01*
X64466200Y-105716757D01*
X64062176Y-106120077D01*
X63843250Y-106647309D01*
X63842752Y-107218187D01*
X64060757Y-107745800D01*
X64464077Y-108149824D01*
X64991309Y-108368750D01*
X65562187Y-108369248D01*
X66089800Y-108151243D01*
X66493824Y-107747923D01*
X66712750Y-107220691D01*
X66713248Y-106649813D01*
X66713248Y-107238800D01*
X66705238Y-107238800D01*
X66705238Y-110439200D01*
X72486762Y-110439200D01*
X72486762Y-111349000D01*
X58403000Y-111349000D01*
X58403000Y-46923038D01*
X61595000Y-50115038D01*
X61595000Y-51306011D01*
X61536641Y-51164771D01*
X61358168Y-50985987D01*
X61124864Y-50889111D01*
X60872245Y-50888890D01*
X59272245Y-50888890D01*
X59038771Y-50985359D01*
X58859987Y-51163832D01*
X58763111Y-51397136D01*
X58762890Y-51649755D01*
X58762890Y-53249755D01*
X58859359Y-53483229D01*
X59037832Y-53662013D01*
X59157315Y-53711626D01*
X58951271Y-53849302D01*
X58640202Y-54314849D01*
X58530969Y-54864000D01*
X58640202Y-55413151D01*
X58951271Y-55878698D01*
X59333356Y-56134000D01*
X58951271Y-56389302D01*
X58640202Y-56854849D01*
X58530969Y-57404000D01*
X58640202Y-57953151D01*
X58951271Y-58418698D01*
X59333356Y-58674000D01*
X58951271Y-58929302D01*
X58640202Y-59394849D01*
X58530969Y-59944000D01*
X58640202Y-60493151D01*
X58951271Y-60958698D01*
X59333356Y-61214000D01*
X58951271Y-61469302D01*
X58640202Y-61934849D01*
X58530969Y-62484000D01*
X58640202Y-63033151D01*
X58951271Y-63498698D01*
X59333356Y-63754000D01*
X58951271Y-64009302D01*
X58640202Y-64474849D01*
X58530969Y-65024000D01*
X58640202Y-65573151D01*
X58951271Y-66038698D01*
X59333356Y-66294000D01*
X58951271Y-66549302D01*
X58640202Y-67014849D01*
X58530969Y-67564000D01*
X58640202Y-68113151D01*
X58951271Y-68578698D01*
X59333356Y-68834000D01*
X58951271Y-69089302D01*
X58640202Y-69554849D01*
X58530969Y-70104000D01*
X58640202Y-70653151D01*
X58951271Y-71118698D01*
X59333356Y-71374000D01*
X58951271Y-71629302D01*
X58640202Y-72094849D01*
X58530969Y-72644000D01*
X58640202Y-73193151D01*
X58951271Y-73658698D01*
X59333356Y-73914000D01*
X58951271Y-74169302D01*
X58640202Y-74634849D01*
X58530969Y-75184000D01*
X58640202Y-75733151D01*
X58951271Y-76198698D01*
X59157320Y-76336375D01*
X59038771Y-76385359D01*
X58859987Y-76563832D01*
X58763111Y-76797136D01*
X58762890Y-77049755D01*
X58762890Y-78649755D01*
X58859359Y-78883229D01*
X59037832Y-79062013D01*
X59157315Y-79111626D01*
X58951271Y-79249302D01*
X58640202Y-79714849D01*
X58530969Y-80264000D01*
X58640202Y-80813151D01*
X58951271Y-81278698D01*
X59333356Y-81534000D01*
X58951271Y-81789302D01*
X58640202Y-82254849D01*
X58530969Y-82804000D01*
X58640202Y-83353151D01*
X58951271Y-83818698D01*
X59333356Y-84074000D01*
X58951271Y-84329302D01*
X58640202Y-84794849D01*
X58530969Y-85344000D01*
X58640202Y-85893151D01*
X58951271Y-86358698D01*
X59333356Y-86614000D01*
X58951271Y-86869302D01*
X58640202Y-87334849D01*
X58530969Y-87884000D01*
X58640202Y-88433151D01*
X58951271Y-88898698D01*
X59333356Y-89154000D01*
X58951271Y-89409302D01*
X58640202Y-89874849D01*
X58530969Y-90424000D01*
X58640202Y-90973151D01*
X58951271Y-91438698D01*
X59333356Y-91694000D01*
X58951271Y-91949302D01*
X58640202Y-92414849D01*
X58530969Y-92964000D01*
X58640202Y-93513151D01*
X58951271Y-93978698D01*
X59333356Y-94234000D01*
X58951271Y-94489302D01*
X58640202Y-94954849D01*
X58530969Y-95504000D01*
X58640202Y-96053151D01*
X58951271Y-96518698D01*
X59333356Y-96774000D01*
X58951271Y-97029302D01*
X58640202Y-97494849D01*
X58530969Y-98044000D01*
X58640202Y-98593151D01*
X58951271Y-99058698D01*
X59333356Y-99314000D01*
X58951271Y-99569302D01*
X58640202Y-100034849D01*
X58530969Y-100584000D01*
X58640202Y-101133151D01*
X58951271Y-101598698D01*
X59416818Y-101909767D01*
X59965969Y-102019000D01*
X60430031Y-102019000D01*
X60979182Y-101909767D01*
X61444729Y-101598698D01*
X61528717Y-101473000D01*
X62357000Y-101473000D01*
X62697205Y-101405329D01*
X62697206Y-101405329D01*
X62985618Y-101212618D01*
X65652618Y-98545618D01*
X65845329Y-98257206D01*
X65913000Y-97917000D01*
X65913000Y-95618235D01*
X76337444Y-85193790D01*
X76346652Y-85189986D01*
X76525437Y-85011514D01*
X77939650Y-83597300D01*
X77977974Y-83505004D01*
X78015722Y-83596360D01*
X78194194Y-83775145D01*
X79608408Y-85189358D01*
X79841713Y-85286235D01*
X80094332Y-85286455D01*
X80327804Y-85189986D01*
X80506589Y-85011514D01*
X80901720Y-84616383D01*
X80901920Y-84615899D01*
X81063365Y-84454738D01*
X81114433Y-84403669D01*
X82550000Y-85839236D01*
X82550000Y-92542754D01*
X82064702Y-92341241D01*
X81864433Y-92341066D01*
X81864433Y-88887399D01*
X81659918Y-88392436D01*
X81281556Y-88013413D01*
X80786950Y-87808035D01*
X80251399Y-87807567D01*
X79756436Y-88012082D01*
X79377413Y-88390444D01*
X79172035Y-88885050D01*
X79171567Y-89420601D01*
X79376082Y-89915564D01*
X79754444Y-90294587D01*
X80249050Y-90499965D01*
X80784601Y-90500433D01*
X81279564Y-90295918D01*
X81658587Y-89917556D01*
X81863965Y-89422950D01*
X81864433Y-88887399D01*
X81864433Y-92341066D01*
X81513715Y-92340760D01*
X81004485Y-92551169D01*
X80614539Y-92940436D01*
X80403241Y-93449298D01*
X80402760Y-94000285D01*
X80426203Y-94057021D01*
X80391000Y-94234000D01*
X80391000Y-94741890D01*
X80138245Y-94741890D01*
X79904771Y-94838359D01*
X79725987Y-95016832D01*
X79629167Y-95250000D01*
X79374595Y-95250000D01*
X79278641Y-95017771D01*
X79100168Y-94838987D01*
X78866864Y-94742111D01*
X78614245Y-94741890D01*
X76784433Y-94741890D01*
X76784433Y-88887399D01*
X76579918Y-88392436D01*
X76201556Y-88013413D01*
X75706950Y-87808035D01*
X75171399Y-87807567D01*
X74676436Y-88012082D01*
X74297413Y-88390444D01*
X74092035Y-88885050D01*
X74091567Y-89420601D01*
X74296082Y-89915564D01*
X74674444Y-90294587D01*
X75169050Y-90499965D01*
X75704601Y-90500433D01*
X76199564Y-90295918D01*
X76578587Y-89917556D01*
X76783965Y-89422950D01*
X76784433Y-88887399D01*
X76784433Y-94741890D01*
X76582245Y-94741890D01*
X76348771Y-94838359D01*
X76169987Y-95016832D01*
X76073111Y-95250136D01*
X76072890Y-95502755D01*
X76072890Y-97026755D01*
X76169359Y-97260229D01*
X76347832Y-97439013D01*
X76581136Y-97535889D01*
X76833755Y-97536110D01*
X78865755Y-97536110D01*
X79099229Y-97439641D01*
X79278013Y-97261168D01*
X79374832Y-97028000D01*
X79629404Y-97028000D01*
X79725359Y-97260229D01*
X79903832Y-97439013D01*
X80137136Y-97535889D01*
X80389755Y-97536110D01*
X82421755Y-97536110D01*
X82550000Y-97483120D01*
X82550000Y-98044000D01*
X82561470Y-98101665D01*
X82422864Y-98044111D01*
X82170245Y-98043890D01*
X80138245Y-98043890D01*
X79904771Y-98140359D01*
X79725987Y-98318832D01*
X79629111Y-98552136D01*
X79628890Y-98804755D01*
X79628890Y-100328755D01*
X79725359Y-100562229D01*
X79903832Y-100741013D01*
X80137136Y-100837889D01*
X80389755Y-100838110D01*
X80391000Y-100838110D01*
X80391000Y-104159240D01*
X80150174Y-104399647D01*
X80009906Y-104737448D01*
X79871145Y-104401620D01*
X79629000Y-104159052D01*
X79629000Y-103124000D01*
X79628999Y-103123999D01*
X79561329Y-102783794D01*
X79368618Y-102495382D01*
X79368617Y-102495381D01*
X78613000Y-101739764D01*
X78613000Y-100838110D01*
X78865755Y-100838110D01*
X79099229Y-100741641D01*
X79278013Y-100563168D01*
X79374889Y-100329864D01*
X79375110Y-100077245D01*
X79375110Y-98553245D01*
X79278641Y-98319771D01*
X79100168Y-98140987D01*
X78866864Y-98044111D01*
X78614245Y-98043890D01*
X76582245Y-98043890D01*
X76348771Y-98140359D01*
X76169987Y-98318832D01*
X76073111Y-98552136D01*
X76072890Y-98804755D01*
X76072890Y-100328755D01*
X76169359Y-100562229D01*
X76347832Y-100741013D01*
X76581136Y-100837889D01*
X76833755Y-100838110D01*
X76835000Y-100838110D01*
X76835000Y-102108000D01*
X76902671Y-102448206D01*
X77095382Y-102736618D01*
X77851000Y-103492236D01*
X77851000Y-104159240D01*
X77610174Y-104399647D01*
X77476685Y-104721122D01*
X77369798Y-104463072D01*
X77134186Y-104401419D01*
X76954581Y-104581024D01*
X76954581Y-104221814D01*
X76892928Y-103986202D01*
X76392520Y-103810076D01*
X75862802Y-103838854D01*
X75507072Y-103986202D01*
X75445419Y-104221814D01*
X76200000Y-104976395D01*
X76954581Y-104221814D01*
X76954581Y-104581024D01*
X76379605Y-105156000D01*
X77134186Y-105910581D01*
X77369798Y-105848928D01*
X77468082Y-105569683D01*
X77608855Y-105910380D01*
X77983647Y-106285826D01*
X78473587Y-106489267D01*
X79004086Y-106489730D01*
X79494380Y-106287145D01*
X79869826Y-105912353D01*
X80010093Y-105574551D01*
X80148855Y-105910380D01*
X80523647Y-106285826D01*
X81013587Y-106489267D01*
X81544086Y-106489730D01*
X82034380Y-106287145D01*
X82409826Y-105912353D01*
X82550093Y-105574551D01*
X82688855Y-105910380D01*
X83063647Y-106285826D01*
X83553587Y-106489267D01*
X84084086Y-106489730D01*
X84574380Y-106287145D01*
X84949826Y-105912353D01*
X85090093Y-105574551D01*
X85228855Y-105910380D01*
X85603647Y-106285826D01*
X86093587Y-106489267D01*
X86624086Y-106489730D01*
X87114380Y-106287145D01*
X87356947Y-106045000D01*
X94605965Y-106045000D01*
X94521487Y-106129332D01*
X94424611Y-106362636D01*
X94424390Y-106615255D01*
X94424390Y-108012255D01*
X94520859Y-108245729D01*
X94699332Y-108424513D01*
X94932636Y-108521389D01*
X95185255Y-108521610D01*
X96582255Y-108521610D01*
X96815729Y-108425141D01*
X96994513Y-108246668D01*
X97091389Y-108013364D01*
X97091610Y-107760745D01*
X97091610Y-106363745D01*
X96995141Y-106130271D01*
X96816668Y-105951487D01*
X96583364Y-105854611D01*
X96330745Y-105854390D01*
X96330272Y-105854390D01*
X96512380Y-105779145D01*
X96887826Y-105404353D01*
X97091267Y-104914413D01*
X97091730Y-104383914D01*
X96889145Y-103893620D01*
X96514353Y-103518174D01*
X96024413Y-103314733D01*
X95493914Y-103314270D01*
X95003620Y-103516855D01*
X94628174Y-103891647D01*
X94472313Y-104267000D01*
X87356759Y-104267000D01*
X87116353Y-104026174D01*
X86626413Y-103822733D01*
X86095914Y-103822270D01*
X85605620Y-104024855D01*
X85230174Y-104399647D01*
X85089906Y-104737448D01*
X84951145Y-104401620D01*
X84576353Y-104026174D01*
X84086413Y-103822733D01*
X83555914Y-103822270D01*
X83065620Y-104024855D01*
X82690174Y-104399647D01*
X82549906Y-104737448D01*
X82411145Y-104401620D01*
X82169000Y-104159052D01*
X82169000Y-100838110D01*
X82421755Y-100838110D01*
X82655229Y-100741641D01*
X82834013Y-100563168D01*
X82930889Y-100329864D01*
X82931110Y-100077245D01*
X82931110Y-98793346D01*
X85124649Y-100986885D01*
X85305481Y-101257519D01*
X85614494Y-101463995D01*
X85979000Y-101536500D01*
X94333940Y-101536500D01*
X94419359Y-101743229D01*
X94597832Y-101922013D01*
X94831136Y-102018889D01*
X95083755Y-102019110D01*
X96683755Y-102019110D01*
X96917229Y-101922641D01*
X97096013Y-101744168D01*
X97192889Y-101510864D01*
X97193110Y-101258245D01*
X97193110Y-99658245D01*
X97096641Y-99424771D01*
X96918168Y-99245987D01*
X96798684Y-99196373D01*
X97004729Y-99058698D01*
X97315798Y-98593151D01*
X97425031Y-98044000D01*
X97315798Y-97494849D01*
X97004729Y-97029302D01*
X96622643Y-96774000D01*
X97004729Y-96518698D01*
X97315798Y-96053151D01*
X97425031Y-95504000D01*
X97315798Y-94954849D01*
X97004729Y-94489302D01*
X96622643Y-94234000D01*
X97004729Y-93978698D01*
X97315798Y-93513151D01*
X97425031Y-92964000D01*
X97315798Y-92414849D01*
X97004729Y-91949302D01*
X96622643Y-91694000D01*
X97004729Y-91438698D01*
X97315798Y-90973151D01*
X97425031Y-90424000D01*
X97315798Y-89874849D01*
X97004729Y-89409302D01*
X96622643Y-89154000D01*
X97004729Y-88898698D01*
X97315798Y-88433151D01*
X97425031Y-87884000D01*
X97315798Y-87334849D01*
X97004729Y-86869302D01*
X96622643Y-86614000D01*
X97004729Y-86358698D01*
X97315798Y-85893151D01*
X97425031Y-85344000D01*
X97315798Y-84794849D01*
X97004729Y-84329302D01*
X96622643Y-84074000D01*
X97004729Y-83818698D01*
X97315798Y-83353151D01*
X97425031Y-82804000D01*
X97315798Y-82254849D01*
X97004729Y-81789302D01*
X96622643Y-81534000D01*
X97004729Y-81278698D01*
X97315798Y-80813151D01*
X97425031Y-80264000D01*
X97315798Y-79714849D01*
X97004729Y-79249302D01*
X96622643Y-78994000D01*
X97004729Y-78738698D01*
X97315798Y-78273151D01*
X97425031Y-77724000D01*
X97315798Y-77174849D01*
X97004729Y-76709302D01*
X96622643Y-76454000D01*
X97004729Y-76198698D01*
X97315798Y-75733151D01*
X97425031Y-75184000D01*
X97315798Y-74634849D01*
X97004729Y-74169302D01*
X96622643Y-73914000D01*
X97004729Y-73658698D01*
X97315798Y-73193151D01*
X97425031Y-72644000D01*
X97315798Y-72094849D01*
X97004729Y-71629302D01*
X96622643Y-71374000D01*
X97004729Y-71118698D01*
X97315798Y-70653151D01*
X97425031Y-70104000D01*
X97315798Y-69554849D01*
X97004729Y-69089302D01*
X96622643Y-68834000D01*
X97004729Y-68578698D01*
X97315798Y-68113151D01*
X97425031Y-67564000D01*
X97315798Y-67014849D01*
X97004729Y-66549302D01*
X96622643Y-66294000D01*
X97004729Y-66038698D01*
X97315798Y-65573151D01*
X97425031Y-65024000D01*
X97315798Y-64474849D01*
X97004729Y-64009302D01*
X96622643Y-63754000D01*
X97004729Y-63498698D01*
X97315798Y-63033151D01*
X97425031Y-62484000D01*
X97315798Y-61934849D01*
X97004729Y-61469302D01*
X96622643Y-61214000D01*
X97004729Y-60958698D01*
X97315798Y-60493151D01*
X97425031Y-59944000D01*
X97315798Y-59394849D01*
X97004729Y-58929302D01*
X96622643Y-58674000D01*
X97004729Y-58418698D01*
X97315798Y-57953151D01*
X97425031Y-57404000D01*
X97315798Y-56854849D01*
X97004729Y-56389302D01*
X96622643Y-56134000D01*
X97004729Y-55878698D01*
X97315798Y-55413151D01*
X97425031Y-54864000D01*
X97315798Y-54314849D01*
X97004729Y-53849302D01*
X96798684Y-53711626D01*
X96918168Y-53662013D01*
X97096641Y-53483229D01*
X97193110Y-53249755D01*
X97193110Y-51398245D01*
X97096641Y-51164771D01*
X96918168Y-50985987D01*
X96684864Y-50889111D01*
X96432245Y-50888890D01*
X96043750Y-50889000D01*
X95885000Y-51047750D01*
X95885000Y-52197000D01*
X97034250Y-52197000D01*
X97193000Y-52038250D01*
X97193110Y-51398245D01*
X97193110Y-53249755D01*
X97193000Y-52609750D01*
X97034250Y-52451000D01*
X95885000Y-52451000D01*
X95885000Y-52471000D01*
X95631000Y-52471000D01*
X95631000Y-52451000D01*
X94481750Y-52451000D01*
X94323000Y-52609750D01*
X94322890Y-53249755D01*
X94419359Y-53483229D01*
X94597832Y-53662013D01*
X94717315Y-53711626D01*
X94511271Y-53849302D01*
X94200202Y-54314849D01*
X94090969Y-54864000D01*
X94200202Y-55413151D01*
X94511271Y-55878698D01*
X94893356Y-56134000D01*
X94511271Y-56389302D01*
X94200202Y-56854849D01*
X94090969Y-57404000D01*
X94122988Y-57564973D01*
X90385481Y-61302481D01*
X90179005Y-61611494D01*
X90170000Y-61656765D01*
X90170000Y-60566235D01*
X93719614Y-57016620D01*
X93719617Y-57016618D01*
X93719618Y-57016618D01*
X93912329Y-56728206D01*
X93980000Y-56388000D01*
X93980000Y-52832000D01*
X93980000Y-51930235D01*
X94322922Y-51587313D01*
X94323000Y-52038250D01*
X94481750Y-52197000D01*
X95631000Y-52197000D01*
X95631000Y-51047750D01*
X95472250Y-50889000D01*
X95083755Y-50888890D01*
X95021291Y-50888944D01*
X97430882Y-48479352D01*
X97533000Y-48411119D01*
X97533000Y-111349000D01*
X97533000Y-111349000D01*
G37*
X97533000Y-111349000D02*
X76954581Y-111349000D01*
X76954581Y-106090186D01*
X76200000Y-105335605D01*
X76020395Y-105515210D01*
X76020395Y-105156000D01*
X75265814Y-104401419D01*
X75030202Y-104463072D01*
X74931917Y-104742316D01*
X74791145Y-104401620D01*
X74416353Y-104026174D01*
X73926413Y-103822733D01*
X73395914Y-103822270D01*
X72905620Y-104024855D01*
X72530174Y-104399647D01*
X72453610Y-104584033D01*
X72453610Y-104331745D01*
X72357141Y-104098271D01*
X72178668Y-103919487D01*
X71945364Y-103822611D01*
X71692745Y-103822390D01*
X70295745Y-103822390D01*
X70062271Y-103918859D01*
X69883487Y-104097332D01*
X69786611Y-104330636D01*
X69786390Y-104583255D01*
X69786390Y-105980255D01*
X69882859Y-106213729D01*
X70061332Y-106392513D01*
X70294636Y-106489389D01*
X70547255Y-106489610D01*
X71944255Y-106489610D01*
X72177729Y-106393141D01*
X72356513Y-106214668D01*
X72453389Y-105981364D01*
X72453610Y-105728745D01*
X72453610Y-105728272D01*
X72528855Y-105910380D01*
X72903647Y-106285826D01*
X73393587Y-106489267D01*
X73924086Y-106489730D01*
X74414380Y-106287145D01*
X74789826Y-105912353D01*
X74923314Y-105590877D01*
X75030202Y-105848928D01*
X75265814Y-105910581D01*
X76020395Y-105156000D01*
X76020395Y-105515210D01*
X75445419Y-106090186D01*
X75507072Y-106325798D01*
X76007480Y-106501924D01*
X76537198Y-106473146D01*
X76892928Y-106325798D01*
X76954581Y-106090186D01*
X76954581Y-111349000D01*
X72486762Y-111349000D01*
X72486762Y-110439200D01*
X72486762Y-107238800D01*
X68441240Y-107238800D01*
X68441240Y-99801715D01*
X68230831Y-99292485D01*
X67841564Y-98902539D01*
X67332702Y-98691241D01*
X66781715Y-98690760D01*
X66272485Y-98901169D01*
X65882539Y-99290436D01*
X65671241Y-99799298D01*
X65671044Y-100024114D01*
X60196161Y-105498998D01*
X59913813Y-105498752D01*
X59386200Y-105716757D01*
X58982176Y-106120077D01*
X58763250Y-106647309D01*
X58762752Y-107218187D01*
X58980757Y-107745800D01*
X59384077Y-108149824D01*
X59911309Y-108368750D01*
X60482187Y-108369248D01*
X61009800Y-108151243D01*
X61413824Y-107747923D01*
X61632750Y-107220691D01*
X61632998Y-106935841D01*
X67107795Y-101461045D01*
X67330285Y-101461240D01*
X67839515Y-101250831D01*
X68229461Y-100861564D01*
X68440759Y-100352702D01*
X68441240Y-99801715D01*
X68441240Y-107238800D01*
X66713248Y-107238800D01*
X66713248Y-106649813D01*
X66495243Y-106122200D01*
X66091923Y-105718176D01*
X65564691Y-105499250D01*
X64993813Y-105498752D01*
X64466200Y-105716757D01*
X64062176Y-106120077D01*
X63843250Y-106647309D01*
X63842752Y-107218187D01*
X64060757Y-107745800D01*
X64464077Y-108149824D01*
X64991309Y-108368750D01*
X65562187Y-108369248D01*
X66089800Y-108151243D01*
X66493824Y-107747923D01*
X66712750Y-107220691D01*
X66713248Y-106649813D01*
X66713248Y-107238800D01*
X66705238Y-107238800D01*
X66705238Y-110439200D01*
X72486762Y-110439200D01*
X72486762Y-111349000D01*
X58403000Y-111349000D01*
X58403000Y-46923038D01*
X61595000Y-50115038D01*
X61595000Y-51306011D01*
X61536641Y-51164771D01*
X61358168Y-50985987D01*
X61124864Y-50889111D01*
X60872245Y-50888890D01*
X59272245Y-50888890D01*
X59038771Y-50985359D01*
X58859987Y-51163832D01*
X58763111Y-51397136D01*
X58762890Y-51649755D01*
X58762890Y-53249755D01*
X58859359Y-53483229D01*
X59037832Y-53662013D01*
X59157315Y-53711626D01*
X58951271Y-53849302D01*
X58640202Y-54314849D01*
X58530969Y-54864000D01*
X58640202Y-55413151D01*
X58951271Y-55878698D01*
X59333356Y-56134000D01*
X58951271Y-56389302D01*
X58640202Y-56854849D01*
X58530969Y-57404000D01*
X58640202Y-57953151D01*
X58951271Y-58418698D01*
X59333356Y-58674000D01*
X58951271Y-58929302D01*
X58640202Y-59394849D01*
X58530969Y-59944000D01*
X58640202Y-60493151D01*
X58951271Y-60958698D01*
X59333356Y-61214000D01*
X58951271Y-61469302D01*
X58640202Y-61934849D01*
X58530969Y-62484000D01*
X58640202Y-63033151D01*
X58951271Y-63498698D01*
X59333356Y-63754000D01*
X58951271Y-64009302D01*
X58640202Y-64474849D01*
X58530969Y-65024000D01*
X58640202Y-65573151D01*
X58951271Y-66038698D01*
X59333356Y-66294000D01*
X58951271Y-66549302D01*
X58640202Y-67014849D01*
X58530969Y-67564000D01*
X58640202Y-68113151D01*
X58951271Y-68578698D01*
X59333356Y-68834000D01*
X58951271Y-69089302D01*
X58640202Y-69554849D01*
X58530969Y-70104000D01*
X58640202Y-70653151D01*
X58951271Y-71118698D01*
X59333356Y-71374000D01*
X58951271Y-71629302D01*
X58640202Y-72094849D01*
X58530969Y-72644000D01*
X58640202Y-73193151D01*
X58951271Y-73658698D01*
X59333356Y-73914000D01*
X58951271Y-74169302D01*
X58640202Y-74634849D01*
X58530969Y-75184000D01*
X58640202Y-75733151D01*
X58951271Y-76198698D01*
X59157320Y-76336375D01*
X59038771Y-76385359D01*
X58859987Y-76563832D01*
X58763111Y-76797136D01*
X58762890Y-77049755D01*
X58762890Y-78649755D01*
X58859359Y-78883229D01*
X59037832Y-79062013D01*
X59157315Y-79111626D01*
X58951271Y-79249302D01*
X58640202Y-79714849D01*
X58530969Y-80264000D01*
X58640202Y-80813151D01*
X58951271Y-81278698D01*
X59333356Y-81534000D01*
X58951271Y-81789302D01*
X58640202Y-82254849D01*
X58530969Y-82804000D01*
X58640202Y-83353151D01*
X58951271Y-83818698D01*
X59333356Y-84074000D01*
X58951271Y-84329302D01*
X58640202Y-84794849D01*
X58530969Y-85344000D01*
X58640202Y-85893151D01*
X58951271Y-86358698D01*
X59333356Y-86614000D01*
X58951271Y-86869302D01*
X58640202Y-87334849D01*
X58530969Y-87884000D01*
X58640202Y-88433151D01*
X58951271Y-88898698D01*
X59333356Y-89154000D01*
X58951271Y-89409302D01*
X58640202Y-89874849D01*
X58530969Y-90424000D01*
X58640202Y-90973151D01*
X58951271Y-91438698D01*
X59333356Y-91694000D01*
X58951271Y-91949302D01*
X58640202Y-92414849D01*
X58530969Y-92964000D01*
X58640202Y-93513151D01*
X58951271Y-93978698D01*
X59333356Y-94234000D01*
X58951271Y-94489302D01*
X58640202Y-94954849D01*
X58530969Y-95504000D01*
X58640202Y-96053151D01*
X58951271Y-96518698D01*
X59333356Y-96774000D01*
X58951271Y-97029302D01*
X58640202Y-97494849D01*
X58530969Y-98044000D01*
X58640202Y-98593151D01*
X58951271Y-99058698D01*
X59333356Y-99314000D01*
X58951271Y-99569302D01*
X58640202Y-100034849D01*
X58530969Y-100584000D01*
X58640202Y-101133151D01*
X58951271Y-101598698D01*
X59416818Y-101909767D01*
X59965969Y-102019000D01*
X60430031Y-102019000D01*
X60979182Y-101909767D01*
X61444729Y-101598698D01*
X61528717Y-101473000D01*
X62357000Y-101473000D01*
X62697205Y-101405329D01*
X62697206Y-101405329D01*
X62985618Y-101212618D01*
X65652618Y-98545618D01*
X65845329Y-98257206D01*
X65913000Y-97917000D01*
X65913000Y-95618235D01*
X76337444Y-85193790D01*
X76346652Y-85189986D01*
X76525437Y-85011514D01*
X77939650Y-83597300D01*
X77977974Y-83505004D01*
X78015722Y-83596360D01*
X78194194Y-83775145D01*
X79608408Y-85189358D01*
X79841713Y-85286235D01*
X80094332Y-85286455D01*
X80327804Y-85189986D01*
X80506589Y-85011514D01*
X80901720Y-84616383D01*
X80901920Y-84615899D01*
X81063365Y-84454738D01*
X81114433Y-84403669D01*
X82550000Y-85839236D01*
X82550000Y-92542754D01*
X82064702Y-92341241D01*
X81864433Y-92341066D01*
X81864433Y-88887399D01*
X81659918Y-88392436D01*
X81281556Y-88013413D01*
X80786950Y-87808035D01*
X80251399Y-87807567D01*
X79756436Y-88012082D01*
X79377413Y-88390444D01*
X79172035Y-88885050D01*
X79171567Y-89420601D01*
X79376082Y-89915564D01*
X79754444Y-90294587D01*
X80249050Y-90499965D01*
X80784601Y-90500433D01*
X81279564Y-90295918D01*
X81658587Y-89917556D01*
X81863965Y-89422950D01*
X81864433Y-88887399D01*
X81864433Y-92341066D01*
X81513715Y-92340760D01*
X81004485Y-92551169D01*
X80614539Y-92940436D01*
X80403241Y-93449298D01*
X80402760Y-94000285D01*
X80426203Y-94057021D01*
X80391000Y-94234000D01*
X80391000Y-94741890D01*
X80138245Y-94741890D01*
X79904771Y-94838359D01*
X79725987Y-95016832D01*
X79629167Y-95250000D01*
X79374595Y-95250000D01*
X79278641Y-95017771D01*
X79100168Y-94838987D01*
X78866864Y-94742111D01*
X78614245Y-94741890D01*
X76784433Y-94741890D01*
X76784433Y-88887399D01*
X76579918Y-88392436D01*
X76201556Y-88013413D01*
X75706950Y-87808035D01*
X75171399Y-87807567D01*
X74676436Y-88012082D01*
X74297413Y-88390444D01*
X74092035Y-88885050D01*
X74091567Y-89420601D01*
X74296082Y-89915564D01*
X74674444Y-90294587D01*
X75169050Y-90499965D01*
X75704601Y-90500433D01*
X76199564Y-90295918D01*
X76578587Y-89917556D01*
X76783965Y-89422950D01*
X76784433Y-88887399D01*
X76784433Y-94741890D01*
X76582245Y-94741890D01*
X76348771Y-94838359D01*
X76169987Y-95016832D01*
X76073111Y-95250136D01*
X76072890Y-95502755D01*
X76072890Y-97026755D01*
X76169359Y-97260229D01*
X76347832Y-97439013D01*
X76581136Y-97535889D01*
X76833755Y-97536110D01*
X78865755Y-97536110D01*
X79099229Y-97439641D01*
X79278013Y-97261168D01*
X79374832Y-97028000D01*
X79629404Y-97028000D01*
X79725359Y-97260229D01*
X79903832Y-97439013D01*
X80137136Y-97535889D01*
X80389755Y-97536110D01*
X82421755Y-97536110D01*
X82550000Y-97483120D01*
X82550000Y-98044000D01*
X82561470Y-98101665D01*
X82422864Y-98044111D01*
X82170245Y-98043890D01*
X80138245Y-98043890D01*
X79904771Y-98140359D01*
X79725987Y-98318832D01*
X79629111Y-98552136D01*
X79628890Y-98804755D01*
X79628890Y-100328755D01*
X79725359Y-100562229D01*
X79903832Y-100741013D01*
X80137136Y-100837889D01*
X80389755Y-100838110D01*
X80391000Y-100838110D01*
X80391000Y-104159240D01*
X80150174Y-104399647D01*
X80009906Y-104737448D01*
X79871145Y-104401620D01*
X79629000Y-104159052D01*
X79629000Y-103124000D01*
X79628999Y-103123999D01*
X79561329Y-102783794D01*
X79368618Y-102495382D01*
X79368617Y-102495381D01*
X78613000Y-101739764D01*
X78613000Y-100838110D01*
X78865755Y-100838110D01*
X79099229Y-100741641D01*
X79278013Y-100563168D01*
X79374889Y-100329864D01*
X79375110Y-100077245D01*
X79375110Y-98553245D01*
X79278641Y-98319771D01*
X79100168Y-98140987D01*
X78866864Y-98044111D01*
X78614245Y-98043890D01*
X76582245Y-98043890D01*
X76348771Y-98140359D01*
X76169987Y-98318832D01*
X76073111Y-98552136D01*
X76072890Y-98804755D01*
X76072890Y-100328755D01*
X76169359Y-100562229D01*
X76347832Y-100741013D01*
X76581136Y-100837889D01*
X76833755Y-100838110D01*
X76835000Y-100838110D01*
X76835000Y-102108000D01*
X76902671Y-102448206D01*
X77095382Y-102736618D01*
X77851000Y-103492236D01*
X77851000Y-104159240D01*
X77610174Y-104399647D01*
X77476685Y-104721122D01*
X77369798Y-104463072D01*
X77134186Y-104401419D01*
X76954581Y-104581024D01*
X76954581Y-104221814D01*
X76892928Y-103986202D01*
X76392520Y-103810076D01*
X75862802Y-103838854D01*
X75507072Y-103986202D01*
X75445419Y-104221814D01*
X76200000Y-104976395D01*
X76954581Y-104221814D01*
X76954581Y-104581024D01*
X76379605Y-105156000D01*
X77134186Y-105910581D01*
X77369798Y-105848928D01*
X77468082Y-105569683D01*
X77608855Y-105910380D01*
X77983647Y-106285826D01*
X78473587Y-106489267D01*
X79004086Y-106489730D01*
X79494380Y-106287145D01*
X79869826Y-105912353D01*
X80010093Y-105574551D01*
X80148855Y-105910380D01*
X80523647Y-106285826D01*
X81013587Y-106489267D01*
X81544086Y-106489730D01*
X82034380Y-106287145D01*
X82409826Y-105912353D01*
X82550093Y-105574551D01*
X82688855Y-105910380D01*
X83063647Y-106285826D01*
X83553587Y-106489267D01*
X84084086Y-106489730D01*
X84574380Y-106287145D01*
X84949826Y-105912353D01*
X85090093Y-105574551D01*
X85228855Y-105910380D01*
X85603647Y-106285826D01*
X86093587Y-106489267D01*
X86624086Y-106489730D01*
X87114380Y-106287145D01*
X87356947Y-106045000D01*
X94605965Y-106045000D01*
X94521487Y-106129332D01*
X94424611Y-106362636D01*
X94424390Y-106615255D01*
X94424390Y-108012255D01*
X94520859Y-108245729D01*
X94699332Y-108424513D01*
X94932636Y-108521389D01*
X95185255Y-108521610D01*
X96582255Y-108521610D01*
X96815729Y-108425141D01*
X96994513Y-108246668D01*
X97091389Y-108013364D01*
X97091610Y-107760745D01*
X97091610Y-106363745D01*
X96995141Y-106130271D01*
X96816668Y-105951487D01*
X96583364Y-105854611D01*
X96330745Y-105854390D01*
X96330272Y-105854390D01*
X96512380Y-105779145D01*
X96887826Y-105404353D01*
X97091267Y-104914413D01*
X97091730Y-104383914D01*
X96889145Y-103893620D01*
X96514353Y-103518174D01*
X96024413Y-103314733D01*
X95493914Y-103314270D01*
X95003620Y-103516855D01*
X94628174Y-103891647D01*
X94472313Y-104267000D01*
X87356759Y-104267000D01*
X87116353Y-104026174D01*
X86626413Y-103822733D01*
X86095914Y-103822270D01*
X85605620Y-104024855D01*
X85230174Y-104399647D01*
X85089906Y-104737448D01*
X84951145Y-104401620D01*
X84576353Y-104026174D01*
X84086413Y-103822733D01*
X83555914Y-103822270D01*
X83065620Y-104024855D01*
X82690174Y-104399647D01*
X82549906Y-104737448D01*
X82411145Y-104401620D01*
X82169000Y-104159052D01*
X82169000Y-100838110D01*
X82421755Y-100838110D01*
X82655229Y-100741641D01*
X82834013Y-100563168D01*
X82930889Y-100329864D01*
X82931110Y-100077245D01*
X82931110Y-98793346D01*
X85124649Y-100986885D01*
X85305481Y-101257519D01*
X85614494Y-101463995D01*
X85979000Y-101536500D01*
X94333940Y-101536500D01*
X94419359Y-101743229D01*
X94597832Y-101922013D01*
X94831136Y-102018889D01*
X95083755Y-102019110D01*
X96683755Y-102019110D01*
X96917229Y-101922641D01*
X97096013Y-101744168D01*
X97192889Y-101510864D01*
X97193110Y-101258245D01*
X97193110Y-99658245D01*
X97096641Y-99424771D01*
X96918168Y-99245987D01*
X96798684Y-99196373D01*
X97004729Y-99058698D01*
X97315798Y-98593151D01*
X97425031Y-98044000D01*
X97315798Y-97494849D01*
X97004729Y-97029302D01*
X96622643Y-96774000D01*
X97004729Y-96518698D01*
X97315798Y-96053151D01*
X97425031Y-95504000D01*
X97315798Y-94954849D01*
X97004729Y-94489302D01*
X96622643Y-94234000D01*
X97004729Y-93978698D01*
X97315798Y-93513151D01*
X97425031Y-92964000D01*
X97315798Y-92414849D01*
X97004729Y-91949302D01*
X96622643Y-91694000D01*
X97004729Y-91438698D01*
X97315798Y-90973151D01*
X97425031Y-90424000D01*
X97315798Y-89874849D01*
X97004729Y-89409302D01*
X96622643Y-89154000D01*
X97004729Y-88898698D01*
X97315798Y-88433151D01*
X97425031Y-87884000D01*
X97315798Y-87334849D01*
X97004729Y-86869302D01*
X96622643Y-86614000D01*
X97004729Y-86358698D01*
X97315798Y-85893151D01*
X97425031Y-85344000D01*
X97315798Y-84794849D01*
X97004729Y-84329302D01*
X96622643Y-84074000D01*
X97004729Y-83818698D01*
X97315798Y-83353151D01*
X97425031Y-82804000D01*
X97315798Y-82254849D01*
X97004729Y-81789302D01*
X96622643Y-81534000D01*
X97004729Y-81278698D01*
X97315798Y-80813151D01*
X97425031Y-80264000D01*
X97315798Y-79714849D01*
X97004729Y-79249302D01*
X96622643Y-78994000D01*
X97004729Y-78738698D01*
X97315798Y-78273151D01*
X97425031Y-77724000D01*
X97315798Y-77174849D01*
X97004729Y-76709302D01*
X96622643Y-76454000D01*
X97004729Y-76198698D01*
X97315798Y-75733151D01*
X97425031Y-75184000D01*
X97315798Y-74634849D01*
X97004729Y-74169302D01*
X96622643Y-73914000D01*
X97004729Y-73658698D01*
X97315798Y-73193151D01*
X97425031Y-72644000D01*
X97315798Y-72094849D01*
X97004729Y-71629302D01*
X96622643Y-71374000D01*
X97004729Y-71118698D01*
X97315798Y-70653151D01*
X97425031Y-70104000D01*
X97315798Y-69554849D01*
X97004729Y-69089302D01*
X96622643Y-68834000D01*
X97004729Y-68578698D01*
X97315798Y-68113151D01*
X97425031Y-67564000D01*
X97315798Y-67014849D01*
X97004729Y-66549302D01*
X96622643Y-66294000D01*
X97004729Y-66038698D01*
X97315798Y-65573151D01*
X97425031Y-65024000D01*
X97315798Y-64474849D01*
X97004729Y-64009302D01*
X96622643Y-63754000D01*
X97004729Y-63498698D01*
X97315798Y-63033151D01*
X97425031Y-62484000D01*
X97315798Y-61934849D01*
X97004729Y-61469302D01*
X96622643Y-61214000D01*
X97004729Y-60958698D01*
X97315798Y-60493151D01*
X97425031Y-59944000D01*
X97315798Y-59394849D01*
X97004729Y-58929302D01*
X96622643Y-58674000D01*
X97004729Y-58418698D01*
X97315798Y-57953151D01*
X97425031Y-57404000D01*
X97315798Y-56854849D01*
X97004729Y-56389302D01*
X96622643Y-56134000D01*
X97004729Y-55878698D01*
X97315798Y-55413151D01*
X97425031Y-54864000D01*
X97315798Y-54314849D01*
X97004729Y-53849302D01*
X96798684Y-53711626D01*
X96918168Y-53662013D01*
X97096641Y-53483229D01*
X97193110Y-53249755D01*
X97193110Y-51398245D01*
X97096641Y-51164771D01*
X96918168Y-50985987D01*
X96684864Y-50889111D01*
X96432245Y-50888890D01*
X96043750Y-50889000D01*
X95885000Y-51047750D01*
X95885000Y-52197000D01*
X97034250Y-52197000D01*
X97193000Y-52038250D01*
X97193110Y-51398245D01*
X97193110Y-53249755D01*
X97193000Y-52609750D01*
X97034250Y-52451000D01*
X95885000Y-52451000D01*
X95885000Y-52471000D01*
X95631000Y-52471000D01*
X95631000Y-52451000D01*
X94481750Y-52451000D01*
X94323000Y-52609750D01*
X94322890Y-53249755D01*
X94419359Y-53483229D01*
X94597832Y-53662013D01*
X94717315Y-53711626D01*
X94511271Y-53849302D01*
X94200202Y-54314849D01*
X94090969Y-54864000D01*
X94200202Y-55413151D01*
X94511271Y-55878698D01*
X94893356Y-56134000D01*
X94511271Y-56389302D01*
X94200202Y-56854849D01*
X94090969Y-57404000D01*
X94122988Y-57564973D01*
X90385481Y-61302481D01*
X90179005Y-61611494D01*
X90170000Y-61656765D01*
X90170000Y-60566235D01*
X93719614Y-57016620D01*
X93719617Y-57016618D01*
X93719618Y-57016618D01*
X93912329Y-56728206D01*
X93980000Y-56388000D01*
X93980000Y-52832000D01*
X93980000Y-51930235D01*
X94322922Y-51587313D01*
X94323000Y-52038250D01*
X94481750Y-52197000D01*
X95631000Y-52197000D01*
X95631000Y-51047750D01*
X95472250Y-50889000D01*
X95083755Y-50888890D01*
X95021291Y-50888944D01*
X97430882Y-48479352D01*
X97533000Y-48411119D01*
X97533000Y-111349000D01*
M02*
