G04 #@! TF.FileFunction,Soldermask,Bot*
%FSLAX46Y46*%
G04 Gerber Fmt 4.6, Leading zero omitted, Abs format (unit mm)*
G04 Created by KiCad (PCBNEW (2015-01-16 BZR 5376)-product) date 7/10/2015 8:52:56 AM*
%MOMM*%
G01*
G04 APERTURE LIST*
%ADD10C,0.150000*%
%ADD11C,0.100000*%
%ADD12C,1.750000*%
%ADD13C,1.600000*%
%ADD14R,2.032000X1.524000*%
%ADD15R,1.524000X2.032000*%
%ADD16R,1.600000X1.600000*%
%ADD17O,1.600000X2.000000*%
%ADD18O,2.000000X1.600000*%
%ADD19C,1.422400*%
%ADD20R,1.397000X1.397000*%
%ADD21C,1.397000*%
G04 APERTURE END LIST*
D10*
D11*
X57718000Y-36934000D02*
X57818000Y-36934000D01*
X57718000Y-112034000D02*
X57718000Y-36934000D01*
X98218000Y-112034000D02*
X57718000Y-112034000D01*
X98218000Y-39434000D02*
X98218000Y-112034000D01*
X98218000Y-36934000D02*
X97718000Y-36934000D01*
X98218000Y-39434000D02*
X98218000Y-36934000D01*
X97718000Y-36934000D02*
X57718000Y-36934000D01*
D12*
X83312000Y-49022000D03*
X83312000Y-51562000D03*
X80772000Y-49022000D03*
X80772000Y-51562000D03*
X78232000Y-49022000D03*
X78232000Y-51562000D03*
X75692000Y-49022000D03*
X75692000Y-51562000D03*
X73152000Y-49022000D03*
X73152000Y-51562000D03*
D13*
X60198000Y-106934000D03*
X65278000Y-106934000D03*
D14*
X70358000Y-87503000D03*
X70358000Y-90805000D03*
D15*
X85217000Y-96266000D03*
X88519000Y-96266000D03*
D10*
G36*
X83450669Y-74647828D02*
X82013828Y-76084669D01*
X80936197Y-75007038D01*
X82373038Y-73570197D01*
X83450669Y-74647828D01*
X83450669Y-74647828D01*
G37*
G36*
X81115803Y-72312962D02*
X79678962Y-73749803D01*
X78601331Y-72672172D01*
X80038172Y-71235331D01*
X81115803Y-72312962D01*
X81115803Y-72312962D01*
G37*
G36*
X81037669Y-77060828D02*
X79600828Y-78497669D01*
X78523197Y-77420038D01*
X79960038Y-75983197D01*
X81037669Y-77060828D01*
X81037669Y-77060828D01*
G37*
G36*
X78702803Y-74725962D02*
X77265962Y-76162803D01*
X76188331Y-75085172D01*
X77625172Y-73648331D01*
X78702803Y-74725962D01*
X78702803Y-74725962D01*
G37*
D15*
X69977000Y-98044000D03*
X73279000Y-98044000D03*
D14*
X85598000Y-87503000D03*
X85598000Y-90805000D03*
D16*
X76708000Y-39370000D03*
D17*
X74168000Y-39370000D03*
X71628000Y-39370000D03*
X69088000Y-39370000D03*
X66548000Y-39370000D03*
X64008000Y-39370000D03*
X61468000Y-39370000D03*
X58928000Y-39370000D03*
D16*
X79248000Y-39370000D03*
D17*
X81788000Y-39370000D03*
X84328000Y-39370000D03*
X86868000Y-39370000D03*
X89408000Y-39370000D03*
X91948000Y-39370000D03*
X94488000Y-39370000D03*
X97028000Y-39370000D03*
D16*
X60198000Y-77724000D03*
D18*
X60198000Y-80264000D03*
X60198000Y-82804000D03*
X60198000Y-85344000D03*
X60198000Y-87884000D03*
X60198000Y-90424000D03*
X60198000Y-92964000D03*
X60198000Y-95504000D03*
X60198000Y-98044000D03*
X60198000Y-100584000D03*
D16*
X60198000Y-52324000D03*
D18*
X60198000Y-54864000D03*
X60198000Y-57404000D03*
X60198000Y-59944000D03*
X60198000Y-62484000D03*
X60198000Y-65024000D03*
X60198000Y-67564000D03*
X60198000Y-70104000D03*
X60198000Y-72644000D03*
X60198000Y-75184000D03*
D16*
X95758000Y-100584000D03*
D18*
X95758000Y-98044000D03*
X95758000Y-95504000D03*
X95758000Y-92964000D03*
X95758000Y-90424000D03*
X95758000Y-87884000D03*
X95758000Y-85344000D03*
X95758000Y-82804000D03*
X95758000Y-80264000D03*
X95758000Y-77724000D03*
D16*
X95758000Y-52324000D03*
D18*
X95758000Y-54864000D03*
X95758000Y-57404000D03*
X95758000Y-59944000D03*
X95758000Y-62484000D03*
X95758000Y-65024000D03*
X95758000Y-67564000D03*
X95758000Y-70104000D03*
X95758000Y-72644000D03*
X95758000Y-75184000D03*
D19*
X75438000Y-89154000D03*
X80518000Y-89154000D03*
D20*
X71120000Y-105156000D03*
D21*
X73660000Y-105156000D03*
X76200000Y-105156000D03*
X78740000Y-105156000D03*
X81280000Y-105156000D03*
X83820000Y-105156000D03*
X86360000Y-105156000D03*
D20*
X95758000Y-107188000D03*
D21*
X95758000Y-104648000D03*
M02*
