G04 (created by PCBNEW (2013-07-07 BZR 4022)-stable) date 6/1/2015 2:45:58 PM*
%MOIN*%
G04 Gerber Fmt 3.4, Leading zero omitted, Abs format*
%FSLAX34Y34*%
G01*
G70*
G90*
G04 APERTURE LIST*
%ADD10C,0.00590551*%
%ADD11C,0.01*%
%ADD12C,0.00393701*%
%ADD13C,0.0688976*%
%ADD14C,0.0629921*%
%ADD15R,0.08X0.06*%
%ADD16R,0.0629921X0.0629921*%
%ADD17O,0.0629921X0.0787402*%
%ADD18O,0.0787402X0.0629921*%
%ADD19C,0.056*%
%ADD20R,0.055X0.055*%
%ADD21C,0.055*%
%ADD22C,0.0590551*%
%ADD23C,0.02*%
%ADD24C,0.025*%
%ADD25C,0.03*%
G04 APERTURE END LIST*
G54D10*
G54D11*
X65185Y-50923D02*
X65166Y-50942D01*
X65109Y-50961D01*
X65071Y-50961D01*
X65014Y-50942D01*
X64976Y-50904D01*
X64957Y-50866D01*
X64938Y-50790D01*
X64938Y-50733D01*
X64957Y-50657D01*
X64976Y-50619D01*
X65014Y-50580D01*
X65071Y-50561D01*
X65109Y-50561D01*
X65166Y-50580D01*
X65185Y-50600D01*
X65433Y-50561D02*
X65509Y-50561D01*
X65547Y-50580D01*
X65585Y-50619D01*
X65604Y-50695D01*
X65604Y-50828D01*
X65585Y-50904D01*
X65547Y-50942D01*
X65509Y-50961D01*
X65433Y-50961D01*
X65395Y-50942D01*
X65357Y-50904D01*
X65338Y-50828D01*
X65338Y-50695D01*
X65357Y-50619D01*
X65395Y-50580D01*
X65433Y-50561D01*
X65776Y-50961D02*
X65776Y-50561D01*
X65909Y-50847D01*
X66042Y-50561D01*
X66042Y-50961D01*
X66233Y-50961D02*
X66233Y-50561D01*
X66385Y-50561D01*
X66423Y-50580D01*
X66442Y-50600D01*
X66461Y-50638D01*
X66461Y-50695D01*
X66442Y-50733D01*
X66423Y-50752D01*
X66385Y-50771D01*
X66233Y-50771D01*
G54D12*
X61023Y-22440D02*
X61062Y-22440D01*
X61023Y-52007D02*
X61023Y-22440D01*
X76968Y-52007D02*
X61023Y-52007D01*
X76968Y-23425D02*
X76968Y-52007D01*
X76968Y-22440D02*
X76771Y-22440D01*
X76968Y-23425D02*
X76968Y-22440D01*
X76771Y-22440D02*
X61023Y-22440D01*
G54D10*
G36*
X68060Y-32928D02*
X68216Y-32772D01*
X68773Y-33329D01*
X68617Y-33485D01*
X68060Y-32928D01*
X68060Y-32928D01*
G37*
G36*
X67841Y-33147D02*
X67997Y-32991D01*
X68553Y-33548D01*
X68398Y-33704D01*
X67841Y-33147D01*
X67841Y-33147D01*
G37*
G36*
X67622Y-33366D02*
X67777Y-33211D01*
X68334Y-33767D01*
X68179Y-33923D01*
X67622Y-33366D01*
X67622Y-33366D01*
G37*
G36*
X67403Y-33585D02*
X67558Y-33430D01*
X68115Y-33987D01*
X67959Y-34142D01*
X67403Y-33585D01*
X67403Y-33585D01*
G37*
G36*
X67183Y-33805D02*
X67339Y-33649D01*
X67896Y-34206D01*
X67740Y-34361D01*
X67183Y-33805D01*
X67183Y-33805D01*
G37*
G36*
X66964Y-34024D02*
X67120Y-33868D01*
X67677Y-34425D01*
X67521Y-34581D01*
X66964Y-34024D01*
X66964Y-34024D01*
G37*
G36*
X66745Y-34243D02*
X66901Y-34087D01*
X67457Y-34644D01*
X67302Y-34800D01*
X66745Y-34243D01*
X66745Y-34243D01*
G37*
G36*
X66526Y-34462D02*
X66681Y-34307D01*
X67238Y-34863D01*
X67083Y-35019D01*
X66526Y-34462D01*
X66526Y-34462D01*
G37*
G36*
X66307Y-34681D02*
X66462Y-34526D01*
X67019Y-35083D01*
X66863Y-35238D01*
X66307Y-34681D01*
X66307Y-34681D01*
G37*
G36*
X66087Y-34901D02*
X66243Y-34745D01*
X66800Y-35302D01*
X66644Y-35457D01*
X66087Y-34901D01*
X66087Y-34901D01*
G37*
G36*
X65868Y-35120D02*
X66024Y-34964D01*
X66581Y-35521D01*
X66425Y-35677D01*
X65868Y-35120D01*
X65868Y-35120D01*
G37*
G36*
X65649Y-35339D02*
X65805Y-35183D01*
X66361Y-35740D01*
X66206Y-35896D01*
X65649Y-35339D01*
X65649Y-35339D01*
G37*
G36*
X65430Y-35558D02*
X65585Y-35403D01*
X66142Y-35959D01*
X65987Y-36115D01*
X65430Y-35558D01*
X65430Y-35558D01*
G37*
G36*
X65211Y-35777D02*
X65366Y-35622D01*
X65923Y-36179D01*
X65767Y-36334D01*
X65211Y-35777D01*
X65211Y-35777D01*
G37*
G36*
X64991Y-35997D02*
X65147Y-35841D01*
X65704Y-36398D01*
X65548Y-36553D01*
X64991Y-35997D01*
X64991Y-35997D01*
G37*
G36*
X64772Y-36216D02*
X64928Y-36060D01*
X65485Y-36617D01*
X65329Y-36773D01*
X64772Y-36216D01*
X64772Y-36216D01*
G37*
G36*
X64772Y-37783D02*
X65329Y-37226D01*
X65485Y-37382D01*
X64928Y-37939D01*
X64772Y-37783D01*
X64772Y-37783D01*
G37*
G36*
X64991Y-38002D02*
X65548Y-37446D01*
X65704Y-37601D01*
X65147Y-38158D01*
X64991Y-38002D01*
X64991Y-38002D01*
G37*
G36*
X65211Y-38222D02*
X65767Y-37665D01*
X65923Y-37820D01*
X65366Y-38377D01*
X65211Y-38222D01*
X65211Y-38222D01*
G37*
G36*
X65430Y-38441D02*
X65987Y-37884D01*
X66142Y-38040D01*
X65585Y-38596D01*
X65430Y-38441D01*
X65430Y-38441D01*
G37*
G36*
X65649Y-38660D02*
X66206Y-38103D01*
X66361Y-38259D01*
X65805Y-38816D01*
X65649Y-38660D01*
X65649Y-38660D01*
G37*
G36*
X65868Y-38879D02*
X66425Y-38322D01*
X66581Y-38478D01*
X66024Y-39035D01*
X65868Y-38879D01*
X65868Y-38879D01*
G37*
G36*
X66087Y-39098D02*
X66644Y-38542D01*
X66800Y-38697D01*
X66243Y-39254D01*
X66087Y-39098D01*
X66087Y-39098D01*
G37*
G36*
X66307Y-39318D02*
X66863Y-38761D01*
X67019Y-38916D01*
X66462Y-39473D01*
X66307Y-39318D01*
X66307Y-39318D01*
G37*
G36*
X66526Y-39537D02*
X67083Y-38980D01*
X67238Y-39136D01*
X66681Y-39692D01*
X66526Y-39537D01*
X66526Y-39537D01*
G37*
G36*
X66745Y-39756D02*
X67302Y-39199D01*
X67457Y-39355D01*
X66901Y-39912D01*
X66745Y-39756D01*
X66745Y-39756D01*
G37*
G36*
X66964Y-39975D02*
X67521Y-39418D01*
X67677Y-39574D01*
X67120Y-40131D01*
X66964Y-39975D01*
X66964Y-39975D01*
G37*
G36*
X67183Y-40194D02*
X67740Y-39638D01*
X67896Y-39793D01*
X67339Y-40350D01*
X67183Y-40194D01*
X67183Y-40194D01*
G37*
G36*
X67403Y-40414D02*
X67959Y-39857D01*
X68115Y-40012D01*
X67558Y-40569D01*
X67403Y-40414D01*
X67403Y-40414D01*
G37*
G36*
X67622Y-40633D02*
X68179Y-40076D01*
X68334Y-40232D01*
X67777Y-40788D01*
X67622Y-40633D01*
X67622Y-40633D01*
G37*
G36*
X67841Y-40852D02*
X68398Y-40295D01*
X68553Y-40451D01*
X67997Y-41008D01*
X67841Y-40852D01*
X67841Y-40852D01*
G37*
G36*
X68060Y-41071D02*
X68617Y-40514D01*
X68773Y-40670D01*
X68216Y-41227D01*
X68060Y-41071D01*
X68060Y-41071D01*
G37*
G36*
X69226Y-40670D02*
X69382Y-40514D01*
X69939Y-41071D01*
X69783Y-41227D01*
X69226Y-40670D01*
X69226Y-40670D01*
G37*
G36*
X69446Y-40451D02*
X69601Y-40295D01*
X70158Y-40852D01*
X70002Y-41008D01*
X69446Y-40451D01*
X69446Y-40451D01*
G37*
G36*
X69665Y-40232D02*
X69820Y-40076D01*
X70377Y-40633D01*
X70222Y-40788D01*
X69665Y-40232D01*
X69665Y-40232D01*
G37*
G36*
X69884Y-40012D02*
X70040Y-39857D01*
X70596Y-40414D01*
X70441Y-40569D01*
X69884Y-40012D01*
X69884Y-40012D01*
G37*
G36*
X70103Y-39793D02*
X70259Y-39638D01*
X70816Y-40194D01*
X70660Y-40350D01*
X70103Y-39793D01*
X70103Y-39793D01*
G37*
G36*
X70322Y-39574D02*
X70478Y-39418D01*
X71035Y-39975D01*
X70879Y-40131D01*
X70322Y-39574D01*
X70322Y-39574D01*
G37*
G36*
X70542Y-39355D02*
X70697Y-39199D01*
X71254Y-39756D01*
X71098Y-39912D01*
X70542Y-39355D01*
X70542Y-39355D01*
G37*
G36*
X70761Y-39136D02*
X70916Y-38980D01*
X71473Y-39537D01*
X71318Y-39692D01*
X70761Y-39136D01*
X70761Y-39136D01*
G37*
G36*
X70980Y-38916D02*
X71136Y-38761D01*
X71692Y-39318D01*
X71537Y-39473D01*
X70980Y-38916D01*
X70980Y-38916D01*
G37*
G36*
X71199Y-38697D02*
X71355Y-38542D01*
X71912Y-39098D01*
X71756Y-39254D01*
X71199Y-38697D01*
X71199Y-38697D01*
G37*
G36*
X71418Y-38478D02*
X71574Y-38322D01*
X72131Y-38879D01*
X71975Y-39035D01*
X71418Y-38478D01*
X71418Y-38478D01*
G37*
G36*
X71638Y-38259D02*
X71793Y-38103D01*
X72350Y-38660D01*
X72194Y-38816D01*
X71638Y-38259D01*
X71638Y-38259D01*
G37*
G36*
X71857Y-38040D02*
X72012Y-37884D01*
X72569Y-38441D01*
X72414Y-38596D01*
X71857Y-38040D01*
X71857Y-38040D01*
G37*
G36*
X72076Y-37820D02*
X72232Y-37665D01*
X72788Y-38222D01*
X72633Y-38377D01*
X72076Y-37820D01*
X72076Y-37820D01*
G37*
G36*
X72295Y-37601D02*
X72451Y-37446D01*
X73008Y-38002D01*
X72852Y-38158D01*
X72295Y-37601D01*
X72295Y-37601D01*
G37*
G36*
X72514Y-37382D02*
X72670Y-37226D01*
X73227Y-37783D01*
X73071Y-37939D01*
X72514Y-37382D01*
X72514Y-37382D01*
G37*
G36*
X72514Y-36617D02*
X73071Y-36060D01*
X73227Y-36216D01*
X72670Y-36773D01*
X72514Y-36617D01*
X72514Y-36617D01*
G37*
G36*
X72295Y-36398D02*
X72852Y-35841D01*
X73008Y-35997D01*
X72451Y-36553D01*
X72295Y-36398D01*
X72295Y-36398D01*
G37*
G36*
X72076Y-36179D02*
X72633Y-35622D01*
X72788Y-35777D01*
X72232Y-36334D01*
X72076Y-36179D01*
X72076Y-36179D01*
G37*
G36*
X71857Y-35959D02*
X72414Y-35403D01*
X72569Y-35558D01*
X72012Y-36115D01*
X71857Y-35959D01*
X71857Y-35959D01*
G37*
G36*
X71638Y-35740D02*
X72194Y-35183D01*
X72350Y-35339D01*
X71793Y-35896D01*
X71638Y-35740D01*
X71638Y-35740D01*
G37*
G36*
X71418Y-35521D02*
X71975Y-34964D01*
X72131Y-35120D01*
X71574Y-35677D01*
X71418Y-35521D01*
X71418Y-35521D01*
G37*
G36*
X71199Y-35302D02*
X71756Y-34745D01*
X71912Y-34901D01*
X71355Y-35457D01*
X71199Y-35302D01*
X71199Y-35302D01*
G37*
G36*
X70980Y-35083D02*
X71537Y-34526D01*
X71692Y-34681D01*
X71136Y-35238D01*
X70980Y-35083D01*
X70980Y-35083D01*
G37*
G36*
X70761Y-34863D02*
X71318Y-34307D01*
X71473Y-34462D01*
X70916Y-35019D01*
X70761Y-34863D01*
X70761Y-34863D01*
G37*
G36*
X70542Y-34644D02*
X71098Y-34087D01*
X71254Y-34243D01*
X70697Y-34800D01*
X70542Y-34644D01*
X70542Y-34644D01*
G37*
G36*
X70322Y-34425D02*
X70879Y-33868D01*
X71035Y-34024D01*
X70478Y-34581D01*
X70322Y-34425D01*
X70322Y-34425D01*
G37*
G36*
X70103Y-34206D02*
X70660Y-33649D01*
X70816Y-33805D01*
X70259Y-34361D01*
X70103Y-34206D01*
X70103Y-34206D01*
G37*
G36*
X69884Y-33987D02*
X70441Y-33430D01*
X70596Y-33585D01*
X70040Y-34142D01*
X69884Y-33987D01*
X69884Y-33987D01*
G37*
G36*
X69665Y-33767D02*
X70222Y-33211D01*
X70377Y-33366D01*
X69820Y-33923D01*
X69665Y-33767D01*
X69665Y-33767D01*
G37*
G36*
X69446Y-33548D02*
X70002Y-32991D01*
X70158Y-33147D01*
X69601Y-33704D01*
X69446Y-33548D01*
X69446Y-33548D01*
G37*
G36*
X69226Y-33329D02*
X69783Y-32772D01*
X69939Y-32928D01*
X69382Y-33485D01*
X69226Y-33329D01*
X69226Y-33329D01*
G37*
G54D13*
X71100Y-27200D03*
X71100Y-28200D03*
X70100Y-27200D03*
X70100Y-28200D03*
X69100Y-27200D03*
X69100Y-28200D03*
X68100Y-27200D03*
X68100Y-28200D03*
X67100Y-27200D03*
X67100Y-28200D03*
G54D14*
X62000Y-50000D03*
X64000Y-50000D03*
G54D15*
X68900Y-47050D03*
X68900Y-45750D03*
X70300Y-47050D03*
X70300Y-45750D03*
G54D16*
X68500Y-23400D03*
G54D17*
X67500Y-23400D03*
X66500Y-23400D03*
X65500Y-23400D03*
X64500Y-23400D03*
X63500Y-23400D03*
X62500Y-23400D03*
X61500Y-23400D03*
G54D16*
X69500Y-23400D03*
G54D17*
X70500Y-23400D03*
X71500Y-23400D03*
X72500Y-23400D03*
X73500Y-23400D03*
X74500Y-23400D03*
X75500Y-23400D03*
X76500Y-23400D03*
G54D16*
X62000Y-38500D03*
G54D18*
X62000Y-39500D03*
X62000Y-40500D03*
X62000Y-41500D03*
X62000Y-42500D03*
X62000Y-43500D03*
X62000Y-44500D03*
X62000Y-45500D03*
X62000Y-46500D03*
X62000Y-47500D03*
G54D16*
X62000Y-28500D03*
G54D18*
X62000Y-29500D03*
X62000Y-30500D03*
X62000Y-31500D03*
X62000Y-32500D03*
X62000Y-33500D03*
X62000Y-34500D03*
X62000Y-35500D03*
X62000Y-36500D03*
X62000Y-37500D03*
G54D16*
X76000Y-47500D03*
G54D18*
X76000Y-46500D03*
X76000Y-45500D03*
X76000Y-44500D03*
X76000Y-43500D03*
X76000Y-42500D03*
X76000Y-41500D03*
X76000Y-40500D03*
X76000Y-39500D03*
X76000Y-38500D03*
G54D16*
X76000Y-28500D03*
G54D18*
X76000Y-29500D03*
X76000Y-30500D03*
X76000Y-31500D03*
X76000Y-32500D03*
X76000Y-33500D03*
X76000Y-34500D03*
X76000Y-35500D03*
X76000Y-36500D03*
X76000Y-37500D03*
G54D19*
X68000Y-43000D03*
X70000Y-43000D03*
G54D20*
X66300Y-49300D03*
G54D21*
X67300Y-49300D03*
X68300Y-49300D03*
X69300Y-49300D03*
X70300Y-49300D03*
X71300Y-49300D03*
X72300Y-49300D03*
G54D20*
X76000Y-50100D03*
G54D21*
X76000Y-49100D03*
G54D22*
X68700Y-32250D03*
X69050Y-41500D03*
X67550Y-45150D03*
X67850Y-36900D03*
X71500Y-36700D03*
X73650Y-40300D03*
X70600Y-38500D03*
X66150Y-30600D03*
X70050Y-30450D03*
X64700Y-47300D03*
X66500Y-25750D03*
X63000Y-39950D03*
X64250Y-39500D03*
X68100Y-35850D03*
X70500Y-35800D03*
X70500Y-44800D03*
X64150Y-40600D03*
X64900Y-40550D03*
G54D23*
X70650Y-32250D02*
X70700Y-32250D01*
X68700Y-32250D02*
X70650Y-32250D01*
X68725Y-43675D02*
X68725Y-41825D01*
X68725Y-41825D02*
X69050Y-41500D01*
X70900Y-32700D02*
X70900Y-32500D01*
X70450Y-32250D02*
X70700Y-32250D01*
X70700Y-32250D02*
X70900Y-32450D01*
X70900Y-32450D02*
X70900Y-32500D01*
X67800Y-44600D02*
X68725Y-43675D01*
X68725Y-43675D02*
X68750Y-43650D01*
X67800Y-44900D02*
X67800Y-44600D01*
X67550Y-45150D02*
X67800Y-44900D01*
X70021Y-33567D02*
X70021Y-33578D01*
X68700Y-36050D02*
X67850Y-36900D01*
X68700Y-34900D02*
X68700Y-36050D01*
X70021Y-33578D02*
X68700Y-34900D01*
X66005Y-38459D02*
X66040Y-38459D01*
X66040Y-38459D02*
X67600Y-36900D01*
X67600Y-36900D02*
X67850Y-36900D01*
X72213Y-35759D02*
X72190Y-35759D01*
X71500Y-36450D02*
X71500Y-36700D01*
X72190Y-35759D02*
X71500Y-36450D01*
X69583Y-33128D02*
X69583Y-33116D01*
X69583Y-33116D02*
X70450Y-32250D01*
X70032Y-33567D02*
X70900Y-32700D01*
X70032Y-33567D02*
X70021Y-33567D01*
X72213Y-35759D02*
X72240Y-35759D01*
G54D24*
X75700Y-28500D02*
X76000Y-28500D01*
X75350Y-28850D02*
X75700Y-28500D01*
G54D23*
X75350Y-30350D02*
X75350Y-28850D01*
X73800Y-31900D02*
X75350Y-30350D01*
X73800Y-34200D02*
X73800Y-31900D01*
X72240Y-35759D02*
X73800Y-34200D01*
X75750Y-39500D02*
X76000Y-39500D01*
X74950Y-40300D02*
X75750Y-39500D01*
X73650Y-40300D02*
X74950Y-40300D01*
X66882Y-39336D02*
X66882Y-39317D01*
X67700Y-38500D02*
X70600Y-38500D01*
X66882Y-39317D02*
X67700Y-38500D01*
X65800Y-40400D02*
X65100Y-41100D01*
X62450Y-40500D02*
X62000Y-40500D01*
X63050Y-41100D02*
X62450Y-40500D01*
X65100Y-41100D02*
X63050Y-41100D01*
X66882Y-39336D02*
X66863Y-39336D01*
X66863Y-39336D02*
X65800Y-40400D01*
X69900Y-30600D02*
X66150Y-30600D01*
X70050Y-30450D02*
X69900Y-30600D01*
G54D25*
X64700Y-47300D02*
X62000Y-50000D01*
G54D23*
X65786Y-38240D02*
X65786Y-38263D01*
X65200Y-38850D02*
X63700Y-38850D01*
X63700Y-38850D02*
X63350Y-38500D01*
G54D24*
X63350Y-38500D02*
X62000Y-38500D01*
G54D23*
X65786Y-38263D02*
X65200Y-38850D01*
X69300Y-49300D02*
X69300Y-48500D01*
X69300Y-48500D02*
X68900Y-48100D01*
X68900Y-48100D02*
X68900Y-47050D01*
X71100Y-27200D02*
X71100Y-25800D01*
X68500Y-24500D02*
X68500Y-23400D01*
X69300Y-25300D02*
X68500Y-24500D01*
X70600Y-25300D02*
X69300Y-25300D01*
X71100Y-25800D02*
X70600Y-25300D01*
X70850Y-30700D02*
X70850Y-30350D01*
X67600Y-31950D02*
X68050Y-31500D01*
X68050Y-31500D02*
X70350Y-31500D01*
X70350Y-31500D02*
X70850Y-31000D01*
X70850Y-31000D02*
X70850Y-30700D01*
X68179Y-33348D02*
X67600Y-32768D01*
X68197Y-33348D02*
X68179Y-33348D01*
X67600Y-32768D02*
X67600Y-31950D01*
X71650Y-27200D02*
X71100Y-27200D01*
X72050Y-27600D02*
X71650Y-27200D01*
X72050Y-29150D02*
X72050Y-27600D01*
X70850Y-30350D02*
X72050Y-29150D01*
X62000Y-31500D02*
X62403Y-31500D01*
X62403Y-31500D02*
X66224Y-35320D01*
X70300Y-49300D02*
X70300Y-47050D01*
X67100Y-27200D02*
X67100Y-25150D01*
X67100Y-25150D02*
X67150Y-25100D01*
X66500Y-25750D02*
X67150Y-25100D01*
X67150Y-25100D02*
X67500Y-24750D01*
X67500Y-24750D02*
X67500Y-23400D01*
X65200Y-28450D02*
X65200Y-27700D01*
X65700Y-27200D02*
X67100Y-27200D01*
X65200Y-27700D02*
X65700Y-27200D01*
X67100Y-27200D02*
X67100Y-25800D01*
X67500Y-24700D02*
X67500Y-23400D01*
X66775Y-32325D02*
X65750Y-31300D01*
X67500Y-24500D02*
X67500Y-23400D01*
X65200Y-30750D02*
X65200Y-28450D01*
X65750Y-31300D02*
X65200Y-30750D01*
X67978Y-33567D02*
X67978Y-33528D01*
X67978Y-33528D02*
X66775Y-32325D01*
X69802Y-33348D02*
X69801Y-33348D01*
X69801Y-33348D02*
X69200Y-33950D01*
G54D24*
X63000Y-39950D02*
X63450Y-39500D01*
X63450Y-39500D02*
X64250Y-39500D01*
G54D23*
X69801Y-33348D02*
X68100Y-35050D01*
X68100Y-35050D02*
X68100Y-35850D01*
X66224Y-38679D02*
X66224Y-38675D01*
X68850Y-37450D02*
X70500Y-35800D01*
X67450Y-37450D02*
X68850Y-37450D01*
X66224Y-38675D02*
X67450Y-37450D01*
X71994Y-35540D02*
X71994Y-35555D01*
X70900Y-36200D02*
X70500Y-35800D01*
X71350Y-36200D02*
X70900Y-36200D01*
X71994Y-35555D02*
X71350Y-36200D01*
X70300Y-45750D02*
X70300Y-45000D01*
X70300Y-45000D02*
X70500Y-44800D01*
X68900Y-45750D02*
X70300Y-45750D01*
X70021Y-40432D02*
X70032Y-40432D01*
G54D24*
X72150Y-47500D02*
X76000Y-47500D01*
G54D23*
X71150Y-46500D02*
X72150Y-47500D01*
X71150Y-41550D02*
X71150Y-46500D01*
X70032Y-40432D02*
X71150Y-41550D01*
X70240Y-40213D02*
X70263Y-40213D01*
G54D24*
X72700Y-46500D02*
X76000Y-46500D01*
G54D23*
X71600Y-45400D02*
X72700Y-46500D01*
X71600Y-41550D02*
X71600Y-45400D01*
X70263Y-40213D02*
X71600Y-41550D01*
X70459Y-39994D02*
X70494Y-39994D01*
G54D24*
X73050Y-45500D02*
X76000Y-45500D01*
G54D23*
X72350Y-44800D02*
X73050Y-45500D01*
X72350Y-41850D02*
X72350Y-44800D01*
X70494Y-39994D02*
X72350Y-41850D01*
X70679Y-39775D02*
X70679Y-39779D01*
G54D24*
X73750Y-44500D02*
X76000Y-44500D01*
G54D23*
X72850Y-43600D02*
X73750Y-44500D01*
X72850Y-41950D02*
X72850Y-43600D01*
X70679Y-39779D02*
X72850Y-41950D01*
X72213Y-38240D02*
X72213Y-38263D01*
G54D24*
X75600Y-36500D02*
X76000Y-36500D01*
G54D23*
X75050Y-37050D02*
X75600Y-36500D01*
X75050Y-38700D02*
X75050Y-37050D01*
X74450Y-39300D02*
X75050Y-38700D01*
X73250Y-39300D02*
X74450Y-39300D01*
X72213Y-38263D02*
X73250Y-39300D01*
X74100Y-36700D02*
X74100Y-36100D01*
G54D24*
X75150Y-34350D02*
X76000Y-33500D01*
G54D23*
X75150Y-35050D02*
X75150Y-34350D01*
X74100Y-36100D02*
X75150Y-35050D01*
X72871Y-37583D02*
X72883Y-37583D01*
X74100Y-37850D02*
X74100Y-36700D01*
X73850Y-38100D02*
X74100Y-37850D01*
X73400Y-38100D02*
X73850Y-38100D01*
X72883Y-37583D02*
X73400Y-38100D01*
X74400Y-36750D02*
X74400Y-36400D01*
G54D24*
X75450Y-35050D02*
X76000Y-34500D01*
G54D23*
X75450Y-35350D02*
X75450Y-35050D01*
X74400Y-36400D02*
X75450Y-35350D01*
X72651Y-37802D02*
X72652Y-37802D01*
X74400Y-38250D02*
X74400Y-36750D01*
X74100Y-38550D02*
X74400Y-38250D01*
X73400Y-38550D02*
X74100Y-38550D01*
X72652Y-37802D02*
X73400Y-38550D01*
X74700Y-36900D02*
X74700Y-36750D01*
X75950Y-35500D02*
X76000Y-35500D01*
G54D24*
X74700Y-36750D02*
X75950Y-35500D01*
G54D23*
X72432Y-38021D02*
X72432Y-38032D01*
X74700Y-38450D02*
X74700Y-36900D01*
X74250Y-38900D02*
X74700Y-38450D01*
X73300Y-38900D02*
X74250Y-38900D01*
X72432Y-38032D02*
X73300Y-38900D01*
X71994Y-38459D02*
X72009Y-38459D01*
G54D24*
X75650Y-37500D02*
X76000Y-37500D01*
G54D23*
X75350Y-37800D02*
X75650Y-37500D01*
X75350Y-39050D02*
X75350Y-37800D01*
X74700Y-39700D02*
X75350Y-39050D01*
X73250Y-39700D02*
X74700Y-39700D01*
X72009Y-38459D02*
X73250Y-39700D01*
X65567Y-35978D02*
X65567Y-35967D01*
X64100Y-34500D02*
X62000Y-34500D01*
X65567Y-35967D02*
X64100Y-34500D01*
X74650Y-28500D02*
X74650Y-27850D01*
G54D24*
X75500Y-27000D02*
X75500Y-23400D01*
G54D23*
X74650Y-27850D02*
X75500Y-27000D01*
X71555Y-35101D02*
X71555Y-35094D01*
X74650Y-29850D02*
X74650Y-28500D01*
X73150Y-31350D02*
X74650Y-29850D01*
X73150Y-33500D02*
X73150Y-31350D01*
X71555Y-35094D02*
X73150Y-33500D01*
X65348Y-36197D02*
X65347Y-36197D01*
X64650Y-35500D02*
X62000Y-35500D01*
X65347Y-36197D02*
X64650Y-35500D01*
X74950Y-28700D02*
X74950Y-28200D01*
G54D24*
X76500Y-26650D02*
X76500Y-23400D01*
G54D23*
X74950Y-28200D02*
X76500Y-26650D01*
X71775Y-35320D02*
X71779Y-35320D01*
X74950Y-30100D02*
X74950Y-28700D01*
X73450Y-31600D02*
X74950Y-30100D01*
X73450Y-33650D02*
X73450Y-31600D01*
X71779Y-35320D02*
X73450Y-33650D01*
X65128Y-36416D02*
X65116Y-36416D01*
G54D24*
X63200Y-36500D02*
X62000Y-36500D01*
G54D23*
X63800Y-35900D02*
X63200Y-36500D01*
X64600Y-35900D02*
X63800Y-35900D01*
X65116Y-36416D02*
X64600Y-35900D01*
X65786Y-35759D02*
X65786Y-35736D01*
X63550Y-33500D02*
X62000Y-33500D01*
X65786Y-35736D02*
X63550Y-33500D01*
X72900Y-26600D02*
X72900Y-26000D01*
G54D24*
X71500Y-24600D02*
X71500Y-23400D01*
G54D23*
X72900Y-26000D02*
X71500Y-24600D01*
X70679Y-34224D02*
X70679Y-34220D01*
X72900Y-29600D02*
X72900Y-26600D01*
X71850Y-30650D02*
X72900Y-29600D01*
X71850Y-33050D02*
X71850Y-30650D01*
X70679Y-34220D02*
X71850Y-33050D01*
X70898Y-39555D02*
X70905Y-39555D01*
G54D24*
X74150Y-43500D02*
X76000Y-43500D01*
G54D23*
X73300Y-42650D02*
X74150Y-43500D01*
X73300Y-41950D02*
X73300Y-42650D01*
X70905Y-39555D02*
X73300Y-41950D01*
X67759Y-40213D02*
X67759Y-40240D01*
X67759Y-40240D02*
X63500Y-44500D01*
X63500Y-44500D02*
X62000Y-44500D01*
X73400Y-26400D02*
X73400Y-25700D01*
G54D24*
X72500Y-24800D02*
X72500Y-23400D01*
G54D23*
X73400Y-25700D02*
X72500Y-24800D01*
X70898Y-34444D02*
X70905Y-34444D01*
X73400Y-29550D02*
X73400Y-26400D01*
X72150Y-30800D02*
X73400Y-29550D01*
X72150Y-33200D02*
X72150Y-30800D01*
X70905Y-34444D02*
X72150Y-33200D01*
X64050Y-43500D02*
X62000Y-43500D01*
X67540Y-39994D02*
X67540Y-40009D01*
X67540Y-40009D02*
X64050Y-43500D01*
X73800Y-26100D02*
X73800Y-25100D01*
G54D24*
X73500Y-24800D02*
X73500Y-23400D01*
G54D23*
X73800Y-25100D02*
X73500Y-24800D01*
X71117Y-34663D02*
X71136Y-34663D01*
X73800Y-29700D02*
X73800Y-26100D01*
X72500Y-31000D02*
X73800Y-29700D01*
X72500Y-33300D02*
X72500Y-31000D01*
X71136Y-34663D02*
X72500Y-33300D01*
X67320Y-39775D02*
X67320Y-39779D01*
X67320Y-39779D02*
X64600Y-42500D01*
X64600Y-42500D02*
X62000Y-42500D01*
X74250Y-28300D02*
X74250Y-27350D01*
G54D24*
X74500Y-27100D02*
X74500Y-23400D01*
G54D23*
X74250Y-27350D02*
X74500Y-27100D01*
X71336Y-34882D02*
X71336Y-34863D01*
X74250Y-29750D02*
X74250Y-28300D01*
X72850Y-31150D02*
X74250Y-29750D01*
X72850Y-33350D02*
X72850Y-31150D01*
X71336Y-34863D02*
X72850Y-33350D01*
X65150Y-41500D02*
X62000Y-41500D01*
X67101Y-39555D02*
X67094Y-39555D01*
X67094Y-39555D02*
X65150Y-41500D01*
X72432Y-35978D02*
X72432Y-35967D01*
X75950Y-30500D02*
X76000Y-30500D01*
G54D24*
X74150Y-32300D02*
X75950Y-30500D01*
G54D23*
X74150Y-34250D02*
X74150Y-32300D01*
X72432Y-35967D02*
X74150Y-34250D01*
X64850Y-27350D02*
X64850Y-26350D01*
X66500Y-24700D02*
X66500Y-23400D01*
X64850Y-26350D02*
X66500Y-24700D01*
X66300Y-32300D02*
X64850Y-30850D01*
X67759Y-33759D02*
X66300Y-32300D01*
X67759Y-33786D02*
X67759Y-33759D01*
G54D24*
X66500Y-23750D02*
X66500Y-23400D01*
G54D23*
X64850Y-30850D02*
X64850Y-27350D01*
X72300Y-49300D02*
X75800Y-49300D01*
X75800Y-49300D02*
X76000Y-49100D01*
G54D24*
X62000Y-32500D02*
X62945Y-32500D01*
G54D23*
X65984Y-35538D02*
X66005Y-35540D01*
X62945Y-32500D02*
X65984Y-35538D01*
X71250Y-32300D02*
X71250Y-30450D01*
X69500Y-24600D02*
X69500Y-23400D01*
X69750Y-24850D02*
X69500Y-24600D01*
X70750Y-24850D02*
X69750Y-24850D01*
X72350Y-26450D02*
X70750Y-24850D01*
X72350Y-29350D02*
X72350Y-26450D01*
X71250Y-30450D02*
X72350Y-29350D01*
X70240Y-33786D02*
X70263Y-33786D01*
X71250Y-32800D02*
X71250Y-32300D01*
X70263Y-33786D02*
X71250Y-32800D01*
X71336Y-39117D02*
X71367Y-39117D01*
G54D24*
X73750Y-41500D02*
X76000Y-41500D01*
G54D23*
X71367Y-39117D02*
X73750Y-41500D01*
X68197Y-40651D02*
X68197Y-40652D01*
X62350Y-46500D02*
X62000Y-46500D01*
X68197Y-40652D02*
X62350Y-46500D01*
X72629Y-26279D02*
X72629Y-26229D01*
X70494Y-34005D02*
X71550Y-32950D01*
X71550Y-32950D02*
X71550Y-32500D01*
X70459Y-34005D02*
X70494Y-34005D01*
X71550Y-32500D02*
X71550Y-31450D01*
X71550Y-30568D02*
X72629Y-29488D01*
X72629Y-29488D02*
X72629Y-26279D01*
X71550Y-31450D02*
X71550Y-30568D01*
X70500Y-24100D02*
X70500Y-23400D01*
X72629Y-26229D02*
X70500Y-24100D01*
X70500Y-23550D02*
X70500Y-23400D01*
X62895Y-45500D02*
X62000Y-45500D01*
X67978Y-40432D02*
X67963Y-40432D01*
X67963Y-40432D02*
X62895Y-45500D01*
X72651Y-36197D02*
X72652Y-36197D01*
G54D24*
X74500Y-33000D02*
X76000Y-31500D01*
G54D23*
X74500Y-34350D02*
X74500Y-33000D01*
X72652Y-36197D02*
X74500Y-34350D01*
G54D24*
X62000Y-30500D02*
X62400Y-30500D01*
G54D23*
X62750Y-30850D02*
X62750Y-31407D01*
G54D24*
X62400Y-30500D02*
X62750Y-30850D01*
G54D23*
X62750Y-31407D02*
X66444Y-35101D01*
G54D24*
X61500Y-23400D02*
X61500Y-26050D01*
G54D23*
X66663Y-34863D02*
X63150Y-31350D01*
X63150Y-31350D02*
X63150Y-30700D01*
G54D24*
X62900Y-27450D02*
X61500Y-26050D01*
G54D23*
X66663Y-34863D02*
X66663Y-34882D01*
X63150Y-30500D02*
X62900Y-30250D01*
X62900Y-30250D02*
X62900Y-27450D01*
X63150Y-30700D02*
X63150Y-30500D01*
G54D24*
X62500Y-23400D02*
X62500Y-26150D01*
G54D23*
X66882Y-34632D02*
X63500Y-31250D01*
X63500Y-31250D02*
X63500Y-30350D01*
X63500Y-30350D02*
X63250Y-30100D01*
X63250Y-30100D02*
X63250Y-26900D01*
G54D24*
X63250Y-26900D02*
X62500Y-26150D01*
G54D23*
X66882Y-34632D02*
X66882Y-34663D01*
G54D24*
X63500Y-23400D02*
X63500Y-25400D01*
G54D23*
X67094Y-34444D02*
X63850Y-31200D01*
X63850Y-31200D02*
X63850Y-25750D01*
G54D24*
X63850Y-25750D02*
X63500Y-25400D01*
G54D23*
X67094Y-34444D02*
X67101Y-34444D01*
X64200Y-31100D02*
X64200Y-25200D01*
X67320Y-34220D02*
X64200Y-31100D01*
X67320Y-34224D02*
X67320Y-34220D01*
G54D24*
X64500Y-24900D02*
X64500Y-23400D01*
X64200Y-25200D02*
X64500Y-24900D01*
G54D23*
X64550Y-26300D02*
X64550Y-26050D01*
X65500Y-25100D02*
X65500Y-23400D01*
X64550Y-26050D02*
X65500Y-25100D01*
X64550Y-26900D02*
X64550Y-26300D01*
X67540Y-34005D02*
X67540Y-33990D01*
X64550Y-31000D02*
X64550Y-26900D01*
X67540Y-33990D02*
X64550Y-31000D01*
X65542Y-39800D02*
X66444Y-38898D01*
X64950Y-39800D02*
X65542Y-39800D01*
X64150Y-40600D02*
X64950Y-39800D01*
X66672Y-39145D02*
X66663Y-39117D01*
X64900Y-40550D02*
X65300Y-40150D01*
X65300Y-40150D02*
X65668Y-40150D01*
X65668Y-40150D02*
X66672Y-39145D01*
X72871Y-36416D02*
X72883Y-36416D01*
X76000Y-32600D02*
X76000Y-32500D01*
X74850Y-33750D02*
X76000Y-32600D01*
X74850Y-34450D02*
X74850Y-33750D01*
X72883Y-36416D02*
X74850Y-34450D01*
X65128Y-37583D02*
X65116Y-37583D01*
G54D24*
X63400Y-37500D02*
X62000Y-37500D01*
G54D23*
X64000Y-38100D02*
X63400Y-37500D01*
X64600Y-38100D02*
X64000Y-38100D01*
X65116Y-37583D02*
X64600Y-38100D01*
G54D24*
X76000Y-42500D02*
X74300Y-42500D01*
G54D23*
X74100Y-42300D02*
X74300Y-42500D01*
X71136Y-39336D02*
X71117Y-39336D01*
X71136Y-39336D02*
X73750Y-41950D01*
X73750Y-41950D02*
X74100Y-42300D01*
X73150Y-40500D02*
X73150Y-40518D01*
X75800Y-40500D02*
X76000Y-40500D01*
X75250Y-41050D02*
X75800Y-40500D01*
X73681Y-41050D02*
X75250Y-41050D01*
X73150Y-40518D02*
X73681Y-41050D01*
X71555Y-38898D02*
X71555Y-38905D01*
X71555Y-38905D02*
X73150Y-40500D01*
X62850Y-47500D02*
X62000Y-47500D01*
X63900Y-46450D02*
X62850Y-47500D01*
X63900Y-45400D02*
X63900Y-46450D01*
X68416Y-40871D02*
X68416Y-40883D01*
X68416Y-40883D02*
X63900Y-45400D01*
G54D10*
G36*
X70900Y-32655D02*
X70459Y-33095D01*
X70441Y-33076D01*
X70408Y-33109D01*
X70408Y-33097D01*
X70397Y-33070D01*
X70397Y-33032D01*
X70363Y-32999D01*
X70363Y-32999D01*
X70300Y-32935D01*
X70151Y-32786D01*
X70144Y-32780D01*
X70144Y-32780D01*
X70117Y-32753D01*
X70080Y-32753D01*
X70052Y-32741D01*
X69953Y-32741D01*
X69861Y-32779D01*
X69826Y-32815D01*
X69958Y-32682D01*
X69958Y-32594D01*
X69925Y-32560D01*
X69833Y-32522D01*
X69734Y-32522D01*
X69642Y-32560D01*
X69571Y-32630D01*
X69408Y-32794D01*
X69408Y-32883D01*
X69583Y-33058D01*
X69512Y-33128D01*
X69337Y-32953D01*
X69248Y-32953D01*
X69085Y-33117D01*
X69014Y-33188D01*
X69000Y-33223D01*
X68985Y-33188D01*
X68914Y-33117D01*
X68358Y-32560D01*
X68266Y-32522D01*
X68166Y-32522D01*
X68074Y-32560D01*
X68004Y-32630D01*
X67981Y-32654D01*
X67950Y-32623D01*
X67950Y-32094D01*
X68194Y-31850D01*
X70350Y-31850D01*
X70483Y-31823D01*
X70483Y-31823D01*
X70597Y-31747D01*
X70900Y-31444D01*
X70900Y-32300D01*
X70900Y-32655D01*
X70900Y-32655D01*
G37*
G54D11*
X70900Y-32655D02*
X70459Y-33095D01*
X70441Y-33076D01*
X70408Y-33109D01*
X70408Y-33097D01*
X70397Y-33070D01*
X70397Y-33032D01*
X70363Y-32999D01*
X70363Y-32999D01*
X70300Y-32935D01*
X70151Y-32786D01*
X70144Y-32780D01*
X70144Y-32780D01*
X70117Y-32753D01*
X70080Y-32753D01*
X70052Y-32741D01*
X69953Y-32741D01*
X69861Y-32779D01*
X69826Y-32815D01*
X69958Y-32682D01*
X69958Y-32594D01*
X69925Y-32560D01*
X69833Y-32522D01*
X69734Y-32522D01*
X69642Y-32560D01*
X69571Y-32630D01*
X69408Y-32794D01*
X69408Y-32883D01*
X69583Y-33058D01*
X69512Y-33128D01*
X69337Y-32953D01*
X69248Y-32953D01*
X69085Y-33117D01*
X69014Y-33188D01*
X69000Y-33223D01*
X68985Y-33188D01*
X68914Y-33117D01*
X68358Y-32560D01*
X68266Y-32522D01*
X68166Y-32522D01*
X68074Y-32560D01*
X68004Y-32630D01*
X67981Y-32654D01*
X67950Y-32623D01*
X67950Y-32094D01*
X68194Y-31850D01*
X70350Y-31850D01*
X70483Y-31823D01*
X70483Y-31823D01*
X70597Y-31747D01*
X70900Y-31444D01*
X70900Y-32300D01*
X70900Y-32655D01*
G54D10*
G36*
X71299Y-35755D02*
X71205Y-35850D01*
X71045Y-35850D01*
X71045Y-35692D01*
X70962Y-35491D01*
X70809Y-35338D01*
X70608Y-35254D01*
X70392Y-35254D01*
X70191Y-35337D01*
X70038Y-35490D01*
X69954Y-35691D01*
X69954Y-35850D01*
X68705Y-37100D01*
X67450Y-37100D01*
X67316Y-37126D01*
X67202Y-37202D01*
X66430Y-37974D01*
X66425Y-37969D01*
X66392Y-38002D01*
X66392Y-37990D01*
X66381Y-37963D01*
X66381Y-37925D01*
X66348Y-37891D01*
X66347Y-37891D01*
X66284Y-37828D01*
X66128Y-37672D01*
X66128Y-37672D01*
X66065Y-37609D01*
X65909Y-37453D01*
X65909Y-37453D01*
X65846Y-37389D01*
X65690Y-37234D01*
X65690Y-37234D01*
X65626Y-37170D01*
X65471Y-37015D01*
X65434Y-37000D01*
X65470Y-36985D01*
X65541Y-36914D01*
X65696Y-36759D01*
X65696Y-36759D01*
X65760Y-36695D01*
X65916Y-36540D01*
X65916Y-36539D01*
X65979Y-36476D01*
X66135Y-36320D01*
X66135Y-36320D01*
X66198Y-36257D01*
X66354Y-36101D01*
X66354Y-36101D01*
X66418Y-36038D01*
X66573Y-35882D01*
X66573Y-35882D01*
X66637Y-35818D01*
X66792Y-35663D01*
X66792Y-35663D01*
X66856Y-35599D01*
X67012Y-35444D01*
X67012Y-35443D01*
X67075Y-35380D01*
X67231Y-35224D01*
X67231Y-35224D01*
X67294Y-35161D01*
X67450Y-35005D01*
X67450Y-35005D01*
X67514Y-34942D01*
X67669Y-34786D01*
X67669Y-34786D01*
X67733Y-34722D01*
X67888Y-34567D01*
X67888Y-34567D01*
X67952Y-34503D01*
X68108Y-34348D01*
X68108Y-34347D01*
X68171Y-34284D01*
X68327Y-34128D01*
X68327Y-34128D01*
X68390Y-34065D01*
X68546Y-33909D01*
X68546Y-33909D01*
X68610Y-33846D01*
X68765Y-33690D01*
X68765Y-33690D01*
X68829Y-33626D01*
X68984Y-33471D01*
X69000Y-33434D01*
X69015Y-33471D01*
X69048Y-33504D01*
X69136Y-33504D01*
X69092Y-33548D01*
X69099Y-33555D01*
X68952Y-33702D01*
X68952Y-33702D01*
X67852Y-34802D01*
X67776Y-34916D01*
X67750Y-35050D01*
X67750Y-35428D01*
X67638Y-35540D01*
X67554Y-35741D01*
X67554Y-35957D01*
X67637Y-36158D01*
X67790Y-36311D01*
X67991Y-36395D01*
X68207Y-36395D01*
X68408Y-36312D01*
X68561Y-36159D01*
X68645Y-35958D01*
X68645Y-35742D01*
X68562Y-35541D01*
X68450Y-35428D01*
X68450Y-35194D01*
X69447Y-34197D01*
X69594Y-34050D01*
X69601Y-34057D01*
X69634Y-34024D01*
X69634Y-34036D01*
X69645Y-34064D01*
X69645Y-34101D01*
X69679Y-34135D01*
X69679Y-34135D01*
X69742Y-34198D01*
X69898Y-34354D01*
X69898Y-34354D01*
X69961Y-34418D01*
X70117Y-34573D01*
X70117Y-34573D01*
X70181Y-34637D01*
X70336Y-34792D01*
X70336Y-34792D01*
X70400Y-34856D01*
X70555Y-35012D01*
X70556Y-35012D01*
X70619Y-35075D01*
X70775Y-35231D01*
X70775Y-35231D01*
X70838Y-35294D01*
X70994Y-35450D01*
X70994Y-35450D01*
X71057Y-35514D01*
X71213Y-35669D01*
X71213Y-35669D01*
X71277Y-35733D01*
X71299Y-35755D01*
X71299Y-35755D01*
G37*
G54D11*
X71299Y-35755D02*
X71205Y-35850D01*
X71045Y-35850D01*
X71045Y-35692D01*
X70962Y-35491D01*
X70809Y-35338D01*
X70608Y-35254D01*
X70392Y-35254D01*
X70191Y-35337D01*
X70038Y-35490D01*
X69954Y-35691D01*
X69954Y-35850D01*
X68705Y-37100D01*
X67450Y-37100D01*
X67316Y-37126D01*
X67202Y-37202D01*
X66430Y-37974D01*
X66425Y-37969D01*
X66392Y-38002D01*
X66392Y-37990D01*
X66381Y-37963D01*
X66381Y-37925D01*
X66348Y-37891D01*
X66347Y-37891D01*
X66284Y-37828D01*
X66128Y-37672D01*
X66128Y-37672D01*
X66065Y-37609D01*
X65909Y-37453D01*
X65909Y-37453D01*
X65846Y-37389D01*
X65690Y-37234D01*
X65690Y-37234D01*
X65626Y-37170D01*
X65471Y-37015D01*
X65434Y-37000D01*
X65470Y-36985D01*
X65541Y-36914D01*
X65696Y-36759D01*
X65696Y-36759D01*
X65760Y-36695D01*
X65916Y-36540D01*
X65916Y-36539D01*
X65979Y-36476D01*
X66135Y-36320D01*
X66135Y-36320D01*
X66198Y-36257D01*
X66354Y-36101D01*
X66354Y-36101D01*
X66418Y-36038D01*
X66573Y-35882D01*
X66573Y-35882D01*
X66637Y-35818D01*
X66792Y-35663D01*
X66792Y-35663D01*
X66856Y-35599D01*
X67012Y-35444D01*
X67012Y-35443D01*
X67075Y-35380D01*
X67231Y-35224D01*
X67231Y-35224D01*
X67294Y-35161D01*
X67450Y-35005D01*
X67450Y-35005D01*
X67514Y-34942D01*
X67669Y-34786D01*
X67669Y-34786D01*
X67733Y-34722D01*
X67888Y-34567D01*
X67888Y-34567D01*
X67952Y-34503D01*
X68108Y-34348D01*
X68108Y-34347D01*
X68171Y-34284D01*
X68327Y-34128D01*
X68327Y-34128D01*
X68390Y-34065D01*
X68546Y-33909D01*
X68546Y-33909D01*
X68610Y-33846D01*
X68765Y-33690D01*
X68765Y-33690D01*
X68829Y-33626D01*
X68984Y-33471D01*
X69000Y-33434D01*
X69015Y-33471D01*
X69048Y-33504D01*
X69136Y-33504D01*
X69092Y-33548D01*
X69099Y-33555D01*
X68952Y-33702D01*
X68952Y-33702D01*
X67852Y-34802D01*
X67776Y-34916D01*
X67750Y-35050D01*
X67750Y-35428D01*
X67638Y-35540D01*
X67554Y-35741D01*
X67554Y-35957D01*
X67637Y-36158D01*
X67790Y-36311D01*
X67991Y-36395D01*
X68207Y-36395D01*
X68408Y-36312D01*
X68561Y-36159D01*
X68645Y-35958D01*
X68645Y-35742D01*
X68562Y-35541D01*
X68450Y-35428D01*
X68450Y-35194D01*
X69447Y-34197D01*
X69594Y-34050D01*
X69601Y-34057D01*
X69634Y-34024D01*
X69634Y-34036D01*
X69645Y-34064D01*
X69645Y-34101D01*
X69679Y-34135D01*
X69679Y-34135D01*
X69742Y-34198D01*
X69898Y-34354D01*
X69898Y-34354D01*
X69961Y-34418D01*
X70117Y-34573D01*
X70117Y-34573D01*
X70181Y-34637D01*
X70336Y-34792D01*
X70336Y-34792D01*
X70400Y-34856D01*
X70555Y-35012D01*
X70556Y-35012D01*
X70619Y-35075D01*
X70775Y-35231D01*
X70775Y-35231D01*
X70838Y-35294D01*
X70994Y-35450D01*
X70994Y-35450D01*
X71057Y-35514D01*
X71213Y-35669D01*
X71213Y-35669D01*
X71277Y-35733D01*
X71299Y-35755D01*
G54D10*
G36*
X71700Y-29005D02*
X71699Y-29005D01*
X71699Y-28292D01*
X71688Y-28056D01*
X71618Y-27885D01*
X71518Y-27852D01*
X71170Y-28200D01*
X71518Y-28547D01*
X71618Y-28514D01*
X71699Y-28292D01*
X71699Y-29005D01*
X71447Y-29257D01*
X71447Y-28618D01*
X71100Y-28270D01*
X70752Y-28618D01*
X70785Y-28718D01*
X71007Y-28799D01*
X71243Y-28788D01*
X71414Y-28718D01*
X71447Y-28618D01*
X71447Y-29257D01*
X70602Y-30102D01*
X70536Y-30200D01*
X70512Y-30141D01*
X70359Y-29988D01*
X70158Y-29904D01*
X69942Y-29904D01*
X69741Y-29987D01*
X69588Y-30140D01*
X69542Y-30250D01*
X66571Y-30250D01*
X66459Y-30138D01*
X66258Y-30054D01*
X66042Y-30054D01*
X65841Y-30137D01*
X65688Y-30290D01*
X65604Y-30491D01*
X65604Y-30659D01*
X65550Y-30605D01*
X65550Y-28450D01*
X65550Y-27844D01*
X65844Y-27550D01*
X66609Y-27550D01*
X66759Y-27700D01*
X66596Y-27862D01*
X66505Y-28081D01*
X66505Y-28317D01*
X66595Y-28536D01*
X66762Y-28703D01*
X66981Y-28794D01*
X67217Y-28794D01*
X67436Y-28704D01*
X67600Y-28540D01*
X67762Y-28703D01*
X67981Y-28794D01*
X68217Y-28794D01*
X68436Y-28704D01*
X68600Y-28540D01*
X68762Y-28703D01*
X68981Y-28794D01*
X69217Y-28794D01*
X69436Y-28704D01*
X69600Y-28540D01*
X69762Y-28703D01*
X69981Y-28794D01*
X70217Y-28794D01*
X70436Y-28704D01*
X70603Y-28537D01*
X70609Y-28523D01*
X70681Y-28547D01*
X71029Y-28200D01*
X70681Y-27852D01*
X70609Y-27876D01*
X70604Y-27863D01*
X70440Y-27699D01*
X70600Y-27540D01*
X70762Y-27703D01*
X70776Y-27709D01*
X70752Y-27781D01*
X71100Y-28129D01*
X71447Y-27781D01*
X71423Y-27709D01*
X71436Y-27704D01*
X71547Y-27592D01*
X71700Y-27744D01*
X71700Y-29005D01*
X71700Y-29005D01*
G37*
G54D11*
X71700Y-29005D02*
X71699Y-29005D01*
X71699Y-28292D01*
X71688Y-28056D01*
X71618Y-27885D01*
X71518Y-27852D01*
X71170Y-28200D01*
X71518Y-28547D01*
X71618Y-28514D01*
X71699Y-28292D01*
X71699Y-29005D01*
X71447Y-29257D01*
X71447Y-28618D01*
X71100Y-28270D01*
X70752Y-28618D01*
X70785Y-28718D01*
X71007Y-28799D01*
X71243Y-28788D01*
X71414Y-28718D01*
X71447Y-28618D01*
X71447Y-29257D01*
X70602Y-30102D01*
X70536Y-30200D01*
X70512Y-30141D01*
X70359Y-29988D01*
X70158Y-29904D01*
X69942Y-29904D01*
X69741Y-29987D01*
X69588Y-30140D01*
X69542Y-30250D01*
X66571Y-30250D01*
X66459Y-30138D01*
X66258Y-30054D01*
X66042Y-30054D01*
X65841Y-30137D01*
X65688Y-30290D01*
X65604Y-30491D01*
X65604Y-30659D01*
X65550Y-30605D01*
X65550Y-28450D01*
X65550Y-27844D01*
X65844Y-27550D01*
X66609Y-27550D01*
X66759Y-27700D01*
X66596Y-27862D01*
X66505Y-28081D01*
X66505Y-28317D01*
X66595Y-28536D01*
X66762Y-28703D01*
X66981Y-28794D01*
X67217Y-28794D01*
X67436Y-28704D01*
X67600Y-28540D01*
X67762Y-28703D01*
X67981Y-28794D01*
X68217Y-28794D01*
X68436Y-28704D01*
X68600Y-28540D01*
X68762Y-28703D01*
X68981Y-28794D01*
X69217Y-28794D01*
X69436Y-28704D01*
X69600Y-28540D01*
X69762Y-28703D01*
X69981Y-28794D01*
X70217Y-28794D01*
X70436Y-28704D01*
X70603Y-28537D01*
X70609Y-28523D01*
X70681Y-28547D01*
X71029Y-28200D01*
X70681Y-27852D01*
X70609Y-27876D01*
X70604Y-27863D01*
X70440Y-27699D01*
X70600Y-27540D01*
X70762Y-27703D01*
X70776Y-27709D01*
X70752Y-27781D01*
X71100Y-28129D01*
X71447Y-27781D01*
X71423Y-27709D01*
X71436Y-27704D01*
X71547Y-27592D01*
X71700Y-27744D01*
X71700Y-29005D01*
G54D10*
G36*
X72565Y-36999D02*
X72529Y-37014D01*
X72458Y-37085D01*
X72303Y-37240D01*
X72303Y-37240D01*
X72239Y-37304D01*
X72083Y-37459D01*
X72083Y-37460D01*
X72020Y-37523D01*
X71864Y-37679D01*
X71864Y-37679D01*
X71801Y-37742D01*
X71645Y-37898D01*
X71645Y-37898D01*
X71581Y-37961D01*
X71426Y-38117D01*
X71426Y-38117D01*
X71362Y-38181D01*
X71207Y-38336D01*
X71207Y-38336D01*
X71145Y-38398D01*
X71145Y-38392D01*
X71062Y-38191D01*
X70909Y-38038D01*
X70708Y-37954D01*
X70492Y-37954D01*
X70291Y-38037D01*
X70178Y-38150D01*
X67700Y-38150D01*
X67566Y-38176D01*
X67452Y-38252D01*
X67080Y-38624D01*
X67005Y-38549D01*
X67005Y-38549D01*
X66942Y-38485D01*
X66925Y-38469D01*
X67594Y-37800D01*
X68850Y-37800D01*
X68983Y-37773D01*
X68983Y-37773D01*
X69097Y-37697D01*
X70449Y-36345D01*
X70550Y-36345D01*
X70652Y-36447D01*
X70652Y-36447D01*
X70766Y-36523D01*
X70899Y-36549D01*
X70900Y-36550D01*
X71350Y-36550D01*
X71483Y-36523D01*
X71483Y-36523D01*
X71597Y-36447D01*
X71826Y-36218D01*
X71826Y-36228D01*
X71837Y-36256D01*
X71837Y-36294D01*
X71871Y-36327D01*
X71871Y-36327D01*
X71934Y-36390D01*
X72090Y-36546D01*
X72090Y-36546D01*
X72153Y-36610D01*
X72309Y-36765D01*
X72309Y-36765D01*
X72373Y-36829D01*
X72528Y-36984D01*
X72565Y-36999D01*
X72565Y-36999D01*
G37*
G54D11*
X72565Y-36999D02*
X72529Y-37014D01*
X72458Y-37085D01*
X72303Y-37240D01*
X72303Y-37240D01*
X72239Y-37304D01*
X72083Y-37459D01*
X72083Y-37460D01*
X72020Y-37523D01*
X71864Y-37679D01*
X71864Y-37679D01*
X71801Y-37742D01*
X71645Y-37898D01*
X71645Y-37898D01*
X71581Y-37961D01*
X71426Y-38117D01*
X71426Y-38117D01*
X71362Y-38181D01*
X71207Y-38336D01*
X71207Y-38336D01*
X71145Y-38398D01*
X71145Y-38392D01*
X71062Y-38191D01*
X70909Y-38038D01*
X70708Y-37954D01*
X70492Y-37954D01*
X70291Y-38037D01*
X70178Y-38150D01*
X67700Y-38150D01*
X67566Y-38176D01*
X67452Y-38252D01*
X67080Y-38624D01*
X67005Y-38549D01*
X67005Y-38549D01*
X66942Y-38485D01*
X66925Y-38469D01*
X67594Y-37800D01*
X68850Y-37800D01*
X68983Y-37773D01*
X68983Y-37773D01*
X69097Y-37697D01*
X70449Y-36345D01*
X70550Y-36345D01*
X70652Y-36447D01*
X70652Y-36447D01*
X70766Y-36523D01*
X70899Y-36549D01*
X70900Y-36550D01*
X71350Y-36550D01*
X71483Y-36523D01*
X71483Y-36523D01*
X71597Y-36447D01*
X71826Y-36218D01*
X71826Y-36228D01*
X71837Y-36256D01*
X71837Y-36294D01*
X71871Y-36327D01*
X71871Y-36327D01*
X71934Y-36390D01*
X72090Y-36546D01*
X72090Y-36546D01*
X72153Y-36610D01*
X72309Y-36765D01*
X72309Y-36765D01*
X72373Y-36829D01*
X72528Y-36984D01*
X72565Y-36999D01*
G54D10*
G36*
X76698Y-51738D02*
X68597Y-51738D01*
X68597Y-49667D01*
X68300Y-49370D01*
X68229Y-49441D01*
X68229Y-49300D01*
X67932Y-49002D01*
X67839Y-49027D01*
X67800Y-49137D01*
X67745Y-49003D01*
X67597Y-48855D01*
X67404Y-48775D01*
X67196Y-48774D01*
X67003Y-48854D01*
X66855Y-49002D01*
X66825Y-49074D01*
X66825Y-48975D01*
X66787Y-48883D01*
X66716Y-48813D01*
X66624Y-48775D01*
X66525Y-48774D01*
X65975Y-48774D01*
X65883Y-48812D01*
X65813Y-48883D01*
X65775Y-48975D01*
X65774Y-49074D01*
X65774Y-49624D01*
X65812Y-49716D01*
X65883Y-49786D01*
X65975Y-49824D01*
X66074Y-49825D01*
X66624Y-49825D01*
X66716Y-49787D01*
X66786Y-49716D01*
X66824Y-49624D01*
X66825Y-49525D01*
X66825Y-49525D01*
X66854Y-49597D01*
X67002Y-49744D01*
X67195Y-49824D01*
X67403Y-49825D01*
X67597Y-49745D01*
X67744Y-49597D01*
X67797Y-49471D01*
X67839Y-49572D01*
X67932Y-49597D01*
X68229Y-49300D01*
X68229Y-49441D01*
X68002Y-49667D01*
X68027Y-49760D01*
X68224Y-49829D01*
X68432Y-49818D01*
X68572Y-49760D01*
X68597Y-49667D01*
X68597Y-51738D01*
X66838Y-51738D01*
X66838Y-51380D01*
X66838Y-50120D01*
X65245Y-50120D01*
X65245Y-47192D01*
X65162Y-46991D01*
X65009Y-46838D01*
X64808Y-46754D01*
X64592Y-46754D01*
X64391Y-46837D01*
X64238Y-46990D01*
X64154Y-47191D01*
X64154Y-47279D01*
X61999Y-49435D01*
X61888Y-49434D01*
X61680Y-49520D01*
X61521Y-49679D01*
X61435Y-49887D01*
X61434Y-50111D01*
X61520Y-50319D01*
X61679Y-50478D01*
X61887Y-50564D01*
X62111Y-50565D01*
X62319Y-50479D01*
X62478Y-50320D01*
X62564Y-50112D01*
X62564Y-50000D01*
X64720Y-47845D01*
X64807Y-47845D01*
X65008Y-47762D01*
X65161Y-47609D01*
X65245Y-47408D01*
X65245Y-47192D01*
X65245Y-50120D01*
X64565Y-50120D01*
X64565Y-49888D01*
X64479Y-49680D01*
X64320Y-49521D01*
X64112Y-49435D01*
X63888Y-49434D01*
X63680Y-49520D01*
X63521Y-49679D01*
X63435Y-49887D01*
X63434Y-50111D01*
X63520Y-50319D01*
X63679Y-50478D01*
X63887Y-50564D01*
X64111Y-50565D01*
X64319Y-50479D01*
X64478Y-50320D01*
X64564Y-50112D01*
X64565Y-49888D01*
X64565Y-50120D01*
X64561Y-50120D01*
X64561Y-51380D01*
X66838Y-51380D01*
X66838Y-51738D01*
X61293Y-51738D01*
X61293Y-26373D01*
X62550Y-27630D01*
X62550Y-28099D01*
X62527Y-28043D01*
X62456Y-27973D01*
X62364Y-27935D01*
X62265Y-27934D01*
X61635Y-27934D01*
X61543Y-27972D01*
X61473Y-28043D01*
X61435Y-28135D01*
X61434Y-28234D01*
X61434Y-28864D01*
X61472Y-28956D01*
X61543Y-29026D01*
X61590Y-29046D01*
X61509Y-29100D01*
X61386Y-29283D01*
X61343Y-29500D01*
X61386Y-29716D01*
X61509Y-29899D01*
X61659Y-30000D01*
X61509Y-30100D01*
X61386Y-30283D01*
X61343Y-30500D01*
X61386Y-30716D01*
X61509Y-30899D01*
X61659Y-31000D01*
X61509Y-31100D01*
X61386Y-31283D01*
X61343Y-31500D01*
X61386Y-31716D01*
X61509Y-31899D01*
X61659Y-32000D01*
X61509Y-32100D01*
X61386Y-32283D01*
X61343Y-32500D01*
X61386Y-32716D01*
X61509Y-32899D01*
X61659Y-33000D01*
X61509Y-33100D01*
X61386Y-33283D01*
X61343Y-33500D01*
X61386Y-33716D01*
X61509Y-33899D01*
X61659Y-34000D01*
X61509Y-34100D01*
X61386Y-34283D01*
X61343Y-34500D01*
X61386Y-34716D01*
X61509Y-34899D01*
X61659Y-35000D01*
X61509Y-35100D01*
X61386Y-35283D01*
X61343Y-35500D01*
X61386Y-35716D01*
X61509Y-35899D01*
X61659Y-36000D01*
X61509Y-36100D01*
X61386Y-36283D01*
X61343Y-36500D01*
X61386Y-36716D01*
X61509Y-36899D01*
X61659Y-37000D01*
X61509Y-37100D01*
X61386Y-37283D01*
X61343Y-37500D01*
X61386Y-37716D01*
X61509Y-37899D01*
X61590Y-37953D01*
X61543Y-37972D01*
X61473Y-38043D01*
X61435Y-38135D01*
X61434Y-38234D01*
X61434Y-38864D01*
X61472Y-38956D01*
X61543Y-39026D01*
X61590Y-39046D01*
X61509Y-39100D01*
X61386Y-39283D01*
X61343Y-39500D01*
X61386Y-39716D01*
X61509Y-39899D01*
X61659Y-40000D01*
X61509Y-40100D01*
X61386Y-40283D01*
X61343Y-40500D01*
X61386Y-40716D01*
X61509Y-40899D01*
X61659Y-41000D01*
X61509Y-41100D01*
X61386Y-41283D01*
X61343Y-41500D01*
X61386Y-41716D01*
X61509Y-41899D01*
X61659Y-42000D01*
X61509Y-42100D01*
X61386Y-42283D01*
X61343Y-42500D01*
X61386Y-42716D01*
X61509Y-42899D01*
X61659Y-43000D01*
X61509Y-43100D01*
X61386Y-43283D01*
X61343Y-43500D01*
X61386Y-43716D01*
X61509Y-43899D01*
X61659Y-44000D01*
X61509Y-44100D01*
X61386Y-44283D01*
X61343Y-44500D01*
X61386Y-44716D01*
X61509Y-44899D01*
X61659Y-45000D01*
X61509Y-45100D01*
X61386Y-45283D01*
X61343Y-45500D01*
X61386Y-45716D01*
X61509Y-45899D01*
X61659Y-46000D01*
X61509Y-46100D01*
X61386Y-46283D01*
X61343Y-46500D01*
X61386Y-46716D01*
X61509Y-46899D01*
X61659Y-47000D01*
X61509Y-47100D01*
X61386Y-47283D01*
X61343Y-47500D01*
X61386Y-47716D01*
X61509Y-47899D01*
X61692Y-48021D01*
X61908Y-48064D01*
X62091Y-48064D01*
X62307Y-48021D01*
X62490Y-47899D01*
X62523Y-47850D01*
X62850Y-47850D01*
X62983Y-47823D01*
X62983Y-47823D01*
X63097Y-47747D01*
X64147Y-46697D01*
X64223Y-46583D01*
X64250Y-46450D01*
X64250Y-45544D01*
X68354Y-41440D01*
X68357Y-41439D01*
X68428Y-41369D01*
X68984Y-40812D01*
X68999Y-40775D01*
X69014Y-40811D01*
X69085Y-40882D01*
X69641Y-41439D01*
X69733Y-41477D01*
X69833Y-41477D01*
X69925Y-41439D01*
X69995Y-41369D01*
X70151Y-41213D01*
X70151Y-41213D01*
X70214Y-41149D01*
X70234Y-41129D01*
X70800Y-41694D01*
X70800Y-44334D01*
X70608Y-44254D01*
X70530Y-44254D01*
X70530Y-42895D01*
X70449Y-42700D01*
X70300Y-42550D01*
X70105Y-42470D01*
X69895Y-42469D01*
X69700Y-42550D01*
X69550Y-42699D01*
X69470Y-42894D01*
X69469Y-43104D01*
X69550Y-43299D01*
X69699Y-43449D01*
X69894Y-43529D01*
X70104Y-43530D01*
X70299Y-43449D01*
X70449Y-43300D01*
X70529Y-43105D01*
X70530Y-42895D01*
X70530Y-44254D01*
X70392Y-44254D01*
X70191Y-44337D01*
X70038Y-44490D01*
X69954Y-44691D01*
X69954Y-44907D01*
X69963Y-44930D01*
X69950Y-45000D01*
X69950Y-45199D01*
X69850Y-45199D01*
X69758Y-45237D01*
X69688Y-45308D01*
X69650Y-45400D01*
X69549Y-45400D01*
X69512Y-45308D01*
X69441Y-45238D01*
X69349Y-45200D01*
X69250Y-45199D01*
X68530Y-45199D01*
X68530Y-42895D01*
X68449Y-42700D01*
X68300Y-42550D01*
X68105Y-42470D01*
X67895Y-42469D01*
X67700Y-42550D01*
X67550Y-42699D01*
X67470Y-42894D01*
X67469Y-43104D01*
X67550Y-43299D01*
X67699Y-43449D01*
X67894Y-43529D01*
X68104Y-43530D01*
X68299Y-43449D01*
X68449Y-43300D01*
X68529Y-43105D01*
X68530Y-42895D01*
X68530Y-45199D01*
X68450Y-45199D01*
X68358Y-45237D01*
X68288Y-45308D01*
X68250Y-45400D01*
X68249Y-45499D01*
X68249Y-46099D01*
X68287Y-46191D01*
X68358Y-46261D01*
X68450Y-46299D01*
X68549Y-46300D01*
X69349Y-46300D01*
X69441Y-46262D01*
X69511Y-46191D01*
X69549Y-46100D01*
X69650Y-46100D01*
X69687Y-46191D01*
X69758Y-46261D01*
X69850Y-46299D01*
X69949Y-46300D01*
X70749Y-46300D01*
X70800Y-46279D01*
X70800Y-46500D01*
X70804Y-46522D01*
X70749Y-46500D01*
X70650Y-46499D01*
X69850Y-46499D01*
X69758Y-46537D01*
X69688Y-46608D01*
X69650Y-46700D01*
X69649Y-46799D01*
X69649Y-47399D01*
X69687Y-47491D01*
X69758Y-47561D01*
X69850Y-47599D01*
X69949Y-47600D01*
X69950Y-47600D01*
X69950Y-48907D01*
X69855Y-49002D01*
X69799Y-49135D01*
X69745Y-49003D01*
X69650Y-48907D01*
X69650Y-48500D01*
X69649Y-48499D01*
X69623Y-48366D01*
X69547Y-48252D01*
X69547Y-48252D01*
X69250Y-47955D01*
X69250Y-47600D01*
X69349Y-47600D01*
X69441Y-47562D01*
X69511Y-47491D01*
X69549Y-47399D01*
X69550Y-47300D01*
X69550Y-46700D01*
X69512Y-46608D01*
X69441Y-46538D01*
X69349Y-46500D01*
X69250Y-46499D01*
X68450Y-46499D01*
X68358Y-46537D01*
X68288Y-46608D01*
X68250Y-46700D01*
X68249Y-46799D01*
X68249Y-47399D01*
X68287Y-47491D01*
X68358Y-47561D01*
X68450Y-47599D01*
X68549Y-47600D01*
X68550Y-47600D01*
X68550Y-48100D01*
X68576Y-48233D01*
X68652Y-48347D01*
X68950Y-48644D01*
X68950Y-48907D01*
X68855Y-49002D01*
X68802Y-49128D01*
X68760Y-49027D01*
X68667Y-49002D01*
X68597Y-49073D01*
X68597Y-48932D01*
X68572Y-48839D01*
X68375Y-48770D01*
X68167Y-48781D01*
X68027Y-48839D01*
X68002Y-48932D01*
X68300Y-49229D01*
X68597Y-48932D01*
X68597Y-49073D01*
X68370Y-49300D01*
X68667Y-49597D01*
X68760Y-49572D01*
X68799Y-49462D01*
X68854Y-49597D01*
X69002Y-49744D01*
X69195Y-49824D01*
X69403Y-49825D01*
X69597Y-49745D01*
X69744Y-49597D01*
X69800Y-49464D01*
X69854Y-49597D01*
X70002Y-49744D01*
X70195Y-49824D01*
X70403Y-49825D01*
X70597Y-49745D01*
X70744Y-49597D01*
X70800Y-49464D01*
X70854Y-49597D01*
X71002Y-49744D01*
X71195Y-49824D01*
X71403Y-49825D01*
X71597Y-49745D01*
X71744Y-49597D01*
X71800Y-49464D01*
X71854Y-49597D01*
X72002Y-49744D01*
X72195Y-49824D01*
X72403Y-49825D01*
X72597Y-49745D01*
X72692Y-49650D01*
X75546Y-49650D01*
X75513Y-49683D01*
X75475Y-49775D01*
X75474Y-49874D01*
X75474Y-50424D01*
X75512Y-50516D01*
X75583Y-50586D01*
X75675Y-50624D01*
X75774Y-50625D01*
X76324Y-50625D01*
X76416Y-50587D01*
X76486Y-50516D01*
X76524Y-50424D01*
X76525Y-50325D01*
X76525Y-49775D01*
X76487Y-49683D01*
X76416Y-49613D01*
X76324Y-49575D01*
X76225Y-49574D01*
X76225Y-49574D01*
X76297Y-49545D01*
X76444Y-49397D01*
X76524Y-49204D01*
X76525Y-48996D01*
X76445Y-48803D01*
X76297Y-48655D01*
X76104Y-48575D01*
X75896Y-48574D01*
X75703Y-48654D01*
X75555Y-48802D01*
X75493Y-48950D01*
X72692Y-48950D01*
X72597Y-48855D01*
X72404Y-48775D01*
X72196Y-48774D01*
X72003Y-48854D01*
X71855Y-49002D01*
X71799Y-49135D01*
X71745Y-49003D01*
X71597Y-48855D01*
X71404Y-48775D01*
X71196Y-48774D01*
X71003Y-48854D01*
X70855Y-49002D01*
X70799Y-49135D01*
X70745Y-49003D01*
X70650Y-48907D01*
X70650Y-47600D01*
X70749Y-47600D01*
X70841Y-47562D01*
X70911Y-47491D01*
X70949Y-47399D01*
X70950Y-47300D01*
X70950Y-46795D01*
X71813Y-47658D01*
X71884Y-47765D01*
X72006Y-47846D01*
X72150Y-47875D01*
X75439Y-47875D01*
X75472Y-47956D01*
X75543Y-48026D01*
X75635Y-48064D01*
X75734Y-48065D01*
X76364Y-48065D01*
X76456Y-48027D01*
X76526Y-47956D01*
X76564Y-47864D01*
X76565Y-47765D01*
X76565Y-47135D01*
X76527Y-47043D01*
X76456Y-46973D01*
X76409Y-46953D01*
X76490Y-46899D01*
X76613Y-46716D01*
X76656Y-46500D01*
X76613Y-46283D01*
X76490Y-46100D01*
X76340Y-46000D01*
X76490Y-45899D01*
X76613Y-45716D01*
X76656Y-45500D01*
X76613Y-45283D01*
X76490Y-45100D01*
X76340Y-45000D01*
X76490Y-44899D01*
X76613Y-44716D01*
X76656Y-44500D01*
X76613Y-44283D01*
X76490Y-44100D01*
X76340Y-44000D01*
X76490Y-43899D01*
X76613Y-43716D01*
X76656Y-43500D01*
X76613Y-43283D01*
X76490Y-43100D01*
X76340Y-43000D01*
X76490Y-42899D01*
X76613Y-42716D01*
X76656Y-42500D01*
X76613Y-42283D01*
X76490Y-42100D01*
X76340Y-42000D01*
X76490Y-41899D01*
X76613Y-41716D01*
X76656Y-41500D01*
X76613Y-41283D01*
X76490Y-41100D01*
X76340Y-41000D01*
X76490Y-40899D01*
X76613Y-40716D01*
X76656Y-40500D01*
X76613Y-40283D01*
X76490Y-40100D01*
X76340Y-40000D01*
X76490Y-39899D01*
X76613Y-39716D01*
X76656Y-39500D01*
X76613Y-39283D01*
X76490Y-39100D01*
X76340Y-39000D01*
X76490Y-38899D01*
X76613Y-38716D01*
X76656Y-38500D01*
X76613Y-38283D01*
X76490Y-38100D01*
X76340Y-38000D01*
X76490Y-37899D01*
X76613Y-37716D01*
X76656Y-37500D01*
X76613Y-37283D01*
X76490Y-37100D01*
X76340Y-37000D01*
X76490Y-36899D01*
X76613Y-36716D01*
X76656Y-36500D01*
X76613Y-36283D01*
X76490Y-36100D01*
X76340Y-36000D01*
X76490Y-35899D01*
X76613Y-35716D01*
X76656Y-35500D01*
X76613Y-35283D01*
X76490Y-35100D01*
X76340Y-35000D01*
X76490Y-34899D01*
X76613Y-34716D01*
X76656Y-34500D01*
X76613Y-34283D01*
X76490Y-34100D01*
X76340Y-34000D01*
X76490Y-33899D01*
X76613Y-33716D01*
X76656Y-33500D01*
X76613Y-33283D01*
X76490Y-33100D01*
X76340Y-33000D01*
X76490Y-32899D01*
X76613Y-32716D01*
X76656Y-32500D01*
X76613Y-32283D01*
X76490Y-32100D01*
X76340Y-32000D01*
X76490Y-31899D01*
X76613Y-31716D01*
X76656Y-31500D01*
X76613Y-31283D01*
X76490Y-31100D01*
X76340Y-31000D01*
X76490Y-30899D01*
X76613Y-30716D01*
X76656Y-30500D01*
X76613Y-30283D01*
X76490Y-30100D01*
X76340Y-30000D01*
X76490Y-29899D01*
X76613Y-29716D01*
X76656Y-29500D01*
X76613Y-29283D01*
X76490Y-29100D01*
X76409Y-29046D01*
X76456Y-29026D01*
X76527Y-28956D01*
X76565Y-28864D01*
X76565Y-28135D01*
X76527Y-28043D01*
X76456Y-27973D01*
X76364Y-27935D01*
X76265Y-27934D01*
X76112Y-27935D01*
X76050Y-27997D01*
X76050Y-28450D01*
X76502Y-28450D01*
X76564Y-28387D01*
X76565Y-28135D01*
X76565Y-28864D01*
X76564Y-28612D01*
X76502Y-28550D01*
X76050Y-28550D01*
X76050Y-28557D01*
X75950Y-28557D01*
X75950Y-28550D01*
X75497Y-28550D01*
X75435Y-28612D01*
X75434Y-28864D01*
X75472Y-28956D01*
X75543Y-29026D01*
X75590Y-29046D01*
X75509Y-29100D01*
X75386Y-29283D01*
X75343Y-29500D01*
X75386Y-29716D01*
X75509Y-29899D01*
X75659Y-30000D01*
X75509Y-30100D01*
X75386Y-30283D01*
X75343Y-30500D01*
X75356Y-30563D01*
X73884Y-32034D01*
X73803Y-32156D01*
X73800Y-32174D01*
X73800Y-31744D01*
X75197Y-30347D01*
X75197Y-30347D01*
X75197Y-30347D01*
X75273Y-30233D01*
X75300Y-30100D01*
X75300Y-28700D01*
X75300Y-28344D01*
X75435Y-28209D01*
X75435Y-28387D01*
X75497Y-28450D01*
X75950Y-28450D01*
X75950Y-27997D01*
X75887Y-27935D01*
X75734Y-27934D01*
X75709Y-27935D01*
X76658Y-26986D01*
X76698Y-26959D01*
X76698Y-51738D01*
X76698Y-51738D01*
G37*
G54D11*
X76698Y-51738D02*
X68597Y-51738D01*
X68597Y-49667D01*
X68300Y-49370D01*
X68229Y-49441D01*
X68229Y-49300D01*
X67932Y-49002D01*
X67839Y-49027D01*
X67800Y-49137D01*
X67745Y-49003D01*
X67597Y-48855D01*
X67404Y-48775D01*
X67196Y-48774D01*
X67003Y-48854D01*
X66855Y-49002D01*
X66825Y-49074D01*
X66825Y-48975D01*
X66787Y-48883D01*
X66716Y-48813D01*
X66624Y-48775D01*
X66525Y-48774D01*
X65975Y-48774D01*
X65883Y-48812D01*
X65813Y-48883D01*
X65775Y-48975D01*
X65774Y-49074D01*
X65774Y-49624D01*
X65812Y-49716D01*
X65883Y-49786D01*
X65975Y-49824D01*
X66074Y-49825D01*
X66624Y-49825D01*
X66716Y-49787D01*
X66786Y-49716D01*
X66824Y-49624D01*
X66825Y-49525D01*
X66825Y-49525D01*
X66854Y-49597D01*
X67002Y-49744D01*
X67195Y-49824D01*
X67403Y-49825D01*
X67597Y-49745D01*
X67744Y-49597D01*
X67797Y-49471D01*
X67839Y-49572D01*
X67932Y-49597D01*
X68229Y-49300D01*
X68229Y-49441D01*
X68002Y-49667D01*
X68027Y-49760D01*
X68224Y-49829D01*
X68432Y-49818D01*
X68572Y-49760D01*
X68597Y-49667D01*
X68597Y-51738D01*
X66838Y-51738D01*
X66838Y-51380D01*
X66838Y-50120D01*
X65245Y-50120D01*
X65245Y-47192D01*
X65162Y-46991D01*
X65009Y-46838D01*
X64808Y-46754D01*
X64592Y-46754D01*
X64391Y-46837D01*
X64238Y-46990D01*
X64154Y-47191D01*
X64154Y-47279D01*
X61999Y-49435D01*
X61888Y-49434D01*
X61680Y-49520D01*
X61521Y-49679D01*
X61435Y-49887D01*
X61434Y-50111D01*
X61520Y-50319D01*
X61679Y-50478D01*
X61887Y-50564D01*
X62111Y-50565D01*
X62319Y-50479D01*
X62478Y-50320D01*
X62564Y-50112D01*
X62564Y-50000D01*
X64720Y-47845D01*
X64807Y-47845D01*
X65008Y-47762D01*
X65161Y-47609D01*
X65245Y-47408D01*
X65245Y-47192D01*
X65245Y-50120D01*
X64565Y-50120D01*
X64565Y-49888D01*
X64479Y-49680D01*
X64320Y-49521D01*
X64112Y-49435D01*
X63888Y-49434D01*
X63680Y-49520D01*
X63521Y-49679D01*
X63435Y-49887D01*
X63434Y-50111D01*
X63520Y-50319D01*
X63679Y-50478D01*
X63887Y-50564D01*
X64111Y-50565D01*
X64319Y-50479D01*
X64478Y-50320D01*
X64564Y-50112D01*
X64565Y-49888D01*
X64565Y-50120D01*
X64561Y-50120D01*
X64561Y-51380D01*
X66838Y-51380D01*
X66838Y-51738D01*
X61293Y-51738D01*
X61293Y-26373D01*
X62550Y-27630D01*
X62550Y-28099D01*
X62527Y-28043D01*
X62456Y-27973D01*
X62364Y-27935D01*
X62265Y-27934D01*
X61635Y-27934D01*
X61543Y-27972D01*
X61473Y-28043D01*
X61435Y-28135D01*
X61434Y-28234D01*
X61434Y-28864D01*
X61472Y-28956D01*
X61543Y-29026D01*
X61590Y-29046D01*
X61509Y-29100D01*
X61386Y-29283D01*
X61343Y-29500D01*
X61386Y-29716D01*
X61509Y-29899D01*
X61659Y-30000D01*
X61509Y-30100D01*
X61386Y-30283D01*
X61343Y-30500D01*
X61386Y-30716D01*
X61509Y-30899D01*
X61659Y-31000D01*
X61509Y-31100D01*
X61386Y-31283D01*
X61343Y-31500D01*
X61386Y-31716D01*
X61509Y-31899D01*
X61659Y-32000D01*
X61509Y-32100D01*
X61386Y-32283D01*
X61343Y-32500D01*
X61386Y-32716D01*
X61509Y-32899D01*
X61659Y-33000D01*
X61509Y-33100D01*
X61386Y-33283D01*
X61343Y-33500D01*
X61386Y-33716D01*
X61509Y-33899D01*
X61659Y-34000D01*
X61509Y-34100D01*
X61386Y-34283D01*
X61343Y-34500D01*
X61386Y-34716D01*
X61509Y-34899D01*
X61659Y-35000D01*
X61509Y-35100D01*
X61386Y-35283D01*
X61343Y-35500D01*
X61386Y-35716D01*
X61509Y-35899D01*
X61659Y-36000D01*
X61509Y-36100D01*
X61386Y-36283D01*
X61343Y-36500D01*
X61386Y-36716D01*
X61509Y-36899D01*
X61659Y-37000D01*
X61509Y-37100D01*
X61386Y-37283D01*
X61343Y-37500D01*
X61386Y-37716D01*
X61509Y-37899D01*
X61590Y-37953D01*
X61543Y-37972D01*
X61473Y-38043D01*
X61435Y-38135D01*
X61434Y-38234D01*
X61434Y-38864D01*
X61472Y-38956D01*
X61543Y-39026D01*
X61590Y-39046D01*
X61509Y-39100D01*
X61386Y-39283D01*
X61343Y-39500D01*
X61386Y-39716D01*
X61509Y-39899D01*
X61659Y-40000D01*
X61509Y-40100D01*
X61386Y-40283D01*
X61343Y-40500D01*
X61386Y-40716D01*
X61509Y-40899D01*
X61659Y-41000D01*
X61509Y-41100D01*
X61386Y-41283D01*
X61343Y-41500D01*
X61386Y-41716D01*
X61509Y-41899D01*
X61659Y-42000D01*
X61509Y-42100D01*
X61386Y-42283D01*
X61343Y-42500D01*
X61386Y-42716D01*
X61509Y-42899D01*
X61659Y-43000D01*
X61509Y-43100D01*
X61386Y-43283D01*
X61343Y-43500D01*
X61386Y-43716D01*
X61509Y-43899D01*
X61659Y-44000D01*
X61509Y-44100D01*
X61386Y-44283D01*
X61343Y-44500D01*
X61386Y-44716D01*
X61509Y-44899D01*
X61659Y-45000D01*
X61509Y-45100D01*
X61386Y-45283D01*
X61343Y-45500D01*
X61386Y-45716D01*
X61509Y-45899D01*
X61659Y-46000D01*
X61509Y-46100D01*
X61386Y-46283D01*
X61343Y-46500D01*
X61386Y-46716D01*
X61509Y-46899D01*
X61659Y-47000D01*
X61509Y-47100D01*
X61386Y-47283D01*
X61343Y-47500D01*
X61386Y-47716D01*
X61509Y-47899D01*
X61692Y-48021D01*
X61908Y-48064D01*
X62091Y-48064D01*
X62307Y-48021D01*
X62490Y-47899D01*
X62523Y-47850D01*
X62850Y-47850D01*
X62983Y-47823D01*
X62983Y-47823D01*
X63097Y-47747D01*
X64147Y-46697D01*
X64223Y-46583D01*
X64250Y-46450D01*
X64250Y-45544D01*
X68354Y-41440D01*
X68357Y-41439D01*
X68428Y-41369D01*
X68984Y-40812D01*
X68999Y-40775D01*
X69014Y-40811D01*
X69085Y-40882D01*
X69641Y-41439D01*
X69733Y-41477D01*
X69833Y-41477D01*
X69925Y-41439D01*
X69995Y-41369D01*
X70151Y-41213D01*
X70151Y-41213D01*
X70214Y-41149D01*
X70234Y-41129D01*
X70800Y-41694D01*
X70800Y-44334D01*
X70608Y-44254D01*
X70530Y-44254D01*
X70530Y-42895D01*
X70449Y-42700D01*
X70300Y-42550D01*
X70105Y-42470D01*
X69895Y-42469D01*
X69700Y-42550D01*
X69550Y-42699D01*
X69470Y-42894D01*
X69469Y-43104D01*
X69550Y-43299D01*
X69699Y-43449D01*
X69894Y-43529D01*
X70104Y-43530D01*
X70299Y-43449D01*
X70449Y-43300D01*
X70529Y-43105D01*
X70530Y-42895D01*
X70530Y-44254D01*
X70392Y-44254D01*
X70191Y-44337D01*
X70038Y-44490D01*
X69954Y-44691D01*
X69954Y-44907D01*
X69963Y-44930D01*
X69950Y-45000D01*
X69950Y-45199D01*
X69850Y-45199D01*
X69758Y-45237D01*
X69688Y-45308D01*
X69650Y-45400D01*
X69549Y-45400D01*
X69512Y-45308D01*
X69441Y-45238D01*
X69349Y-45200D01*
X69250Y-45199D01*
X68530Y-45199D01*
X68530Y-42895D01*
X68449Y-42700D01*
X68300Y-42550D01*
X68105Y-42470D01*
X67895Y-42469D01*
X67700Y-42550D01*
X67550Y-42699D01*
X67470Y-42894D01*
X67469Y-43104D01*
X67550Y-43299D01*
X67699Y-43449D01*
X67894Y-43529D01*
X68104Y-43530D01*
X68299Y-43449D01*
X68449Y-43300D01*
X68529Y-43105D01*
X68530Y-42895D01*
X68530Y-45199D01*
X68450Y-45199D01*
X68358Y-45237D01*
X68288Y-45308D01*
X68250Y-45400D01*
X68249Y-45499D01*
X68249Y-46099D01*
X68287Y-46191D01*
X68358Y-46261D01*
X68450Y-46299D01*
X68549Y-46300D01*
X69349Y-46300D01*
X69441Y-46262D01*
X69511Y-46191D01*
X69549Y-46100D01*
X69650Y-46100D01*
X69687Y-46191D01*
X69758Y-46261D01*
X69850Y-46299D01*
X69949Y-46300D01*
X70749Y-46300D01*
X70800Y-46279D01*
X70800Y-46500D01*
X70804Y-46522D01*
X70749Y-46500D01*
X70650Y-46499D01*
X69850Y-46499D01*
X69758Y-46537D01*
X69688Y-46608D01*
X69650Y-46700D01*
X69649Y-46799D01*
X69649Y-47399D01*
X69687Y-47491D01*
X69758Y-47561D01*
X69850Y-47599D01*
X69949Y-47600D01*
X69950Y-47600D01*
X69950Y-48907D01*
X69855Y-49002D01*
X69799Y-49135D01*
X69745Y-49003D01*
X69650Y-48907D01*
X69650Y-48500D01*
X69649Y-48499D01*
X69623Y-48366D01*
X69547Y-48252D01*
X69547Y-48252D01*
X69250Y-47955D01*
X69250Y-47600D01*
X69349Y-47600D01*
X69441Y-47562D01*
X69511Y-47491D01*
X69549Y-47399D01*
X69550Y-47300D01*
X69550Y-46700D01*
X69512Y-46608D01*
X69441Y-46538D01*
X69349Y-46500D01*
X69250Y-46499D01*
X68450Y-46499D01*
X68358Y-46537D01*
X68288Y-46608D01*
X68250Y-46700D01*
X68249Y-46799D01*
X68249Y-47399D01*
X68287Y-47491D01*
X68358Y-47561D01*
X68450Y-47599D01*
X68549Y-47600D01*
X68550Y-47600D01*
X68550Y-48100D01*
X68576Y-48233D01*
X68652Y-48347D01*
X68950Y-48644D01*
X68950Y-48907D01*
X68855Y-49002D01*
X68802Y-49128D01*
X68760Y-49027D01*
X68667Y-49002D01*
X68597Y-49073D01*
X68597Y-48932D01*
X68572Y-48839D01*
X68375Y-48770D01*
X68167Y-48781D01*
X68027Y-48839D01*
X68002Y-48932D01*
X68300Y-49229D01*
X68597Y-48932D01*
X68597Y-49073D01*
X68370Y-49300D01*
X68667Y-49597D01*
X68760Y-49572D01*
X68799Y-49462D01*
X68854Y-49597D01*
X69002Y-49744D01*
X69195Y-49824D01*
X69403Y-49825D01*
X69597Y-49745D01*
X69744Y-49597D01*
X69800Y-49464D01*
X69854Y-49597D01*
X70002Y-49744D01*
X70195Y-49824D01*
X70403Y-49825D01*
X70597Y-49745D01*
X70744Y-49597D01*
X70800Y-49464D01*
X70854Y-49597D01*
X71002Y-49744D01*
X71195Y-49824D01*
X71403Y-49825D01*
X71597Y-49745D01*
X71744Y-49597D01*
X71800Y-49464D01*
X71854Y-49597D01*
X72002Y-49744D01*
X72195Y-49824D01*
X72403Y-49825D01*
X72597Y-49745D01*
X72692Y-49650D01*
X75546Y-49650D01*
X75513Y-49683D01*
X75475Y-49775D01*
X75474Y-49874D01*
X75474Y-50424D01*
X75512Y-50516D01*
X75583Y-50586D01*
X75675Y-50624D01*
X75774Y-50625D01*
X76324Y-50625D01*
X76416Y-50587D01*
X76486Y-50516D01*
X76524Y-50424D01*
X76525Y-50325D01*
X76525Y-49775D01*
X76487Y-49683D01*
X76416Y-49613D01*
X76324Y-49575D01*
X76225Y-49574D01*
X76225Y-49574D01*
X76297Y-49545D01*
X76444Y-49397D01*
X76524Y-49204D01*
X76525Y-48996D01*
X76445Y-48803D01*
X76297Y-48655D01*
X76104Y-48575D01*
X75896Y-48574D01*
X75703Y-48654D01*
X75555Y-48802D01*
X75493Y-48950D01*
X72692Y-48950D01*
X72597Y-48855D01*
X72404Y-48775D01*
X72196Y-48774D01*
X72003Y-48854D01*
X71855Y-49002D01*
X71799Y-49135D01*
X71745Y-49003D01*
X71597Y-48855D01*
X71404Y-48775D01*
X71196Y-48774D01*
X71003Y-48854D01*
X70855Y-49002D01*
X70799Y-49135D01*
X70745Y-49003D01*
X70650Y-48907D01*
X70650Y-47600D01*
X70749Y-47600D01*
X70841Y-47562D01*
X70911Y-47491D01*
X70949Y-47399D01*
X70950Y-47300D01*
X70950Y-46795D01*
X71813Y-47658D01*
X71884Y-47765D01*
X72006Y-47846D01*
X72150Y-47875D01*
X75439Y-47875D01*
X75472Y-47956D01*
X75543Y-48026D01*
X75635Y-48064D01*
X75734Y-48065D01*
X76364Y-48065D01*
X76456Y-48027D01*
X76526Y-47956D01*
X76564Y-47864D01*
X76565Y-47765D01*
X76565Y-47135D01*
X76527Y-47043D01*
X76456Y-46973D01*
X76409Y-46953D01*
X76490Y-46899D01*
X76613Y-46716D01*
X76656Y-46500D01*
X76613Y-46283D01*
X76490Y-46100D01*
X76340Y-46000D01*
X76490Y-45899D01*
X76613Y-45716D01*
X76656Y-45500D01*
X76613Y-45283D01*
X76490Y-45100D01*
X76340Y-45000D01*
X76490Y-44899D01*
X76613Y-44716D01*
X76656Y-44500D01*
X76613Y-44283D01*
X76490Y-44100D01*
X76340Y-44000D01*
X76490Y-43899D01*
X76613Y-43716D01*
X76656Y-43500D01*
X76613Y-43283D01*
X76490Y-43100D01*
X76340Y-43000D01*
X76490Y-42899D01*
X76613Y-42716D01*
X76656Y-42500D01*
X76613Y-42283D01*
X76490Y-42100D01*
X76340Y-42000D01*
X76490Y-41899D01*
X76613Y-41716D01*
X76656Y-41500D01*
X76613Y-41283D01*
X76490Y-41100D01*
X76340Y-41000D01*
X76490Y-40899D01*
X76613Y-40716D01*
X76656Y-40500D01*
X76613Y-40283D01*
X76490Y-40100D01*
X76340Y-40000D01*
X76490Y-39899D01*
X76613Y-39716D01*
X76656Y-39500D01*
X76613Y-39283D01*
X76490Y-39100D01*
X76340Y-39000D01*
X76490Y-38899D01*
X76613Y-38716D01*
X76656Y-38500D01*
X76613Y-38283D01*
X76490Y-38100D01*
X76340Y-38000D01*
X76490Y-37899D01*
X76613Y-37716D01*
X76656Y-37500D01*
X76613Y-37283D01*
X76490Y-37100D01*
X76340Y-37000D01*
X76490Y-36899D01*
X76613Y-36716D01*
X76656Y-36500D01*
X76613Y-36283D01*
X76490Y-36100D01*
X76340Y-36000D01*
X76490Y-35899D01*
X76613Y-35716D01*
X76656Y-35500D01*
X76613Y-35283D01*
X76490Y-35100D01*
X76340Y-35000D01*
X76490Y-34899D01*
X76613Y-34716D01*
X76656Y-34500D01*
X76613Y-34283D01*
X76490Y-34100D01*
X76340Y-34000D01*
X76490Y-33899D01*
X76613Y-33716D01*
X76656Y-33500D01*
X76613Y-33283D01*
X76490Y-33100D01*
X76340Y-33000D01*
X76490Y-32899D01*
X76613Y-32716D01*
X76656Y-32500D01*
X76613Y-32283D01*
X76490Y-32100D01*
X76340Y-32000D01*
X76490Y-31899D01*
X76613Y-31716D01*
X76656Y-31500D01*
X76613Y-31283D01*
X76490Y-31100D01*
X76340Y-31000D01*
X76490Y-30899D01*
X76613Y-30716D01*
X76656Y-30500D01*
X76613Y-30283D01*
X76490Y-30100D01*
X76340Y-30000D01*
X76490Y-29899D01*
X76613Y-29716D01*
X76656Y-29500D01*
X76613Y-29283D01*
X76490Y-29100D01*
X76409Y-29046D01*
X76456Y-29026D01*
X76527Y-28956D01*
X76565Y-28864D01*
X76565Y-28135D01*
X76527Y-28043D01*
X76456Y-27973D01*
X76364Y-27935D01*
X76265Y-27934D01*
X76112Y-27935D01*
X76050Y-27997D01*
X76050Y-28450D01*
X76502Y-28450D01*
X76564Y-28387D01*
X76565Y-28135D01*
X76565Y-28864D01*
X76564Y-28612D01*
X76502Y-28550D01*
X76050Y-28550D01*
X76050Y-28557D01*
X75950Y-28557D01*
X75950Y-28550D01*
X75497Y-28550D01*
X75435Y-28612D01*
X75434Y-28864D01*
X75472Y-28956D01*
X75543Y-29026D01*
X75590Y-29046D01*
X75509Y-29100D01*
X75386Y-29283D01*
X75343Y-29500D01*
X75386Y-29716D01*
X75509Y-29899D01*
X75659Y-30000D01*
X75509Y-30100D01*
X75386Y-30283D01*
X75343Y-30500D01*
X75356Y-30563D01*
X73884Y-32034D01*
X73803Y-32156D01*
X73800Y-32174D01*
X73800Y-31744D01*
X75197Y-30347D01*
X75197Y-30347D01*
X75197Y-30347D01*
X75273Y-30233D01*
X75300Y-30100D01*
X75300Y-28700D01*
X75300Y-28344D01*
X75435Y-28209D01*
X75435Y-28387D01*
X75497Y-28450D01*
X75950Y-28450D01*
X75950Y-27997D01*
X75887Y-27935D01*
X75734Y-27934D01*
X75709Y-27935D01*
X76658Y-26986D01*
X76698Y-26959D01*
X76698Y-51738D01*
M02*
