G04 #@! TF.FileFunction,Soldermask,Top*
%FSLAX46Y46*%
G04 Gerber Fmt 4.6, Leading zero omitted, Abs format (unit mm)*
G04 Created by KiCad (PCBNEW (2015-01-16 BZR 5376)-product) date 7/27/2015 11:16:33 AM*
%MOMM*%
G01*
G04 APERTURE LIST*
%ADD10C,0.150000*%
%ADD11C,0.100000*%
%ADD12C,1.600000*%
%ADD13R,1.600000X1.600000*%
%ADD14O,1.600000X2.000000*%
%ADD15O,2.000000X1.600000*%
%ADD16R,1.397000X1.397000*%
%ADD17C,1.397000*%
%ADD18R,1.800860X1.597660*%
%ADD19R,1.597660X1.800860*%
%ADD20C,1.506220*%
%ADD21C,1.422400*%
G04 APERTURE END LIST*
D10*
D11*
X57500000Y-109500000D02*
X57500000Y-37000000D01*
X60000000Y-112000000D02*
X96000000Y-112000000D01*
X98500000Y-109500000D02*
X98500000Y-37000000D01*
X57500000Y-109500000D02*
G75*
G03X60000000Y-112000000I2500000J0D01*
G01*
X96000000Y-112000000D02*
G75*
G03X98500000Y-109500000I0J2500000D01*
G01*
X57500000Y-37000000D02*
X98500000Y-37000000D01*
D10*
G36*
X75592293Y-63571786D02*
X75987424Y-63176655D01*
X77401637Y-64590868D01*
X77006506Y-64985999D01*
X75592293Y-63571786D01*
X75592293Y-63571786D01*
G37*
G36*
X75035517Y-64128562D02*
X75430648Y-63733431D01*
X76844861Y-65147644D01*
X76449730Y-65542775D01*
X75035517Y-64128562D01*
X75035517Y-64128562D01*
G37*
G36*
X74478741Y-64685337D02*
X74873872Y-64290206D01*
X76288085Y-65704419D01*
X75892954Y-66099550D01*
X74478741Y-64685337D01*
X74478741Y-64685337D01*
G37*
G36*
X73921965Y-65242113D02*
X74317096Y-64846982D01*
X75731309Y-66261195D01*
X75336178Y-66656326D01*
X73921965Y-65242113D01*
X73921965Y-65242113D01*
G37*
G36*
X73365189Y-65798889D02*
X73760320Y-65403758D01*
X75174533Y-66817971D01*
X74779402Y-67213102D01*
X73365189Y-65798889D01*
X73365189Y-65798889D01*
G37*
G36*
X72808413Y-66355665D02*
X73203544Y-65960534D01*
X74617757Y-67374747D01*
X74222626Y-67769878D01*
X72808413Y-66355665D01*
X72808413Y-66355665D01*
G37*
G36*
X72251638Y-66912441D02*
X72646769Y-66517310D01*
X74060982Y-67931523D01*
X73665851Y-68326654D01*
X72251638Y-66912441D01*
X72251638Y-66912441D01*
G37*
G36*
X71694862Y-67469217D02*
X72089993Y-67074086D01*
X73504206Y-68488299D01*
X73109075Y-68883430D01*
X71694862Y-67469217D01*
X71694862Y-67469217D01*
G37*
G36*
X71138086Y-68025993D02*
X71533217Y-67630862D01*
X72947430Y-69045075D01*
X72552299Y-69440206D01*
X71138086Y-68025993D01*
X71138086Y-68025993D01*
G37*
G36*
X70581310Y-68582769D02*
X70976441Y-68187638D01*
X72390654Y-69601851D01*
X71995523Y-69996982D01*
X70581310Y-68582769D01*
X70581310Y-68582769D01*
G37*
G36*
X70024534Y-69139544D02*
X70419665Y-68744413D01*
X71833878Y-70158626D01*
X71438747Y-70553757D01*
X70024534Y-69139544D01*
X70024534Y-69139544D01*
G37*
G36*
X69467758Y-69696320D02*
X69862889Y-69301189D01*
X71277102Y-70715402D01*
X70881971Y-71110533D01*
X69467758Y-69696320D01*
X69467758Y-69696320D01*
G37*
G36*
X68910982Y-70253096D02*
X69306113Y-69857965D01*
X70720326Y-71272178D01*
X70325195Y-71667309D01*
X68910982Y-70253096D01*
X68910982Y-70253096D01*
G37*
G36*
X68354206Y-70809872D02*
X68749337Y-70414741D01*
X70163550Y-71828954D01*
X69768419Y-72224085D01*
X68354206Y-70809872D01*
X68354206Y-70809872D01*
G37*
G36*
X67797431Y-71366648D02*
X68192562Y-70971517D01*
X69606775Y-72385730D01*
X69211644Y-72780861D01*
X67797431Y-71366648D01*
X67797431Y-71366648D01*
G37*
G36*
X67240655Y-71923424D02*
X67635786Y-71528293D01*
X69049999Y-72942506D01*
X68654868Y-73337637D01*
X67240655Y-71923424D01*
X67240655Y-71923424D01*
G37*
G36*
X67240655Y-75904576D02*
X68654868Y-74490363D01*
X69049999Y-74885494D01*
X67635786Y-76299707D01*
X67240655Y-75904576D01*
X67240655Y-75904576D01*
G37*
G36*
X67797431Y-76461352D02*
X69211644Y-75047139D01*
X69606775Y-75442270D01*
X68192562Y-76856483D01*
X67797431Y-76461352D01*
X67797431Y-76461352D01*
G37*
G36*
X68354206Y-77018128D02*
X69768419Y-75603915D01*
X70163550Y-75999046D01*
X68749337Y-77413259D01*
X68354206Y-77018128D01*
X68354206Y-77018128D01*
G37*
G36*
X68910982Y-77574904D02*
X70325195Y-76160691D01*
X70720326Y-76555822D01*
X69306113Y-77970035D01*
X68910982Y-77574904D01*
X68910982Y-77574904D01*
G37*
G36*
X69467758Y-78131680D02*
X70881971Y-76717467D01*
X71277102Y-77112598D01*
X69862889Y-78526811D01*
X69467758Y-78131680D01*
X69467758Y-78131680D01*
G37*
G36*
X70024534Y-78688456D02*
X71438747Y-77274243D01*
X71833878Y-77669374D01*
X70419665Y-79083587D01*
X70024534Y-78688456D01*
X70024534Y-78688456D01*
G37*
G36*
X70581310Y-79245231D02*
X71995523Y-77831018D01*
X72390654Y-78226149D01*
X70976441Y-79640362D01*
X70581310Y-79245231D01*
X70581310Y-79245231D01*
G37*
G36*
X71138086Y-79802007D02*
X72552299Y-78387794D01*
X72947430Y-78782925D01*
X71533217Y-80197138D01*
X71138086Y-79802007D01*
X71138086Y-79802007D01*
G37*
G36*
X71694862Y-80358783D02*
X73109075Y-78944570D01*
X73504206Y-79339701D01*
X72089993Y-80753914D01*
X71694862Y-80358783D01*
X71694862Y-80358783D01*
G37*
G36*
X72251638Y-80915559D02*
X73665851Y-79501346D01*
X74060982Y-79896477D01*
X72646769Y-81310690D01*
X72251638Y-80915559D01*
X72251638Y-80915559D01*
G37*
G36*
X72808413Y-81472335D02*
X74222626Y-80058122D01*
X74617757Y-80453253D01*
X73203544Y-81867466D01*
X72808413Y-81472335D01*
X72808413Y-81472335D01*
G37*
G36*
X73365189Y-82029111D02*
X74779402Y-80614898D01*
X75174533Y-81010029D01*
X73760320Y-82424242D01*
X73365189Y-82029111D01*
X73365189Y-82029111D01*
G37*
G36*
X73921965Y-82585887D02*
X75336178Y-81171674D01*
X75731309Y-81566805D01*
X74317096Y-82981018D01*
X73921965Y-82585887D01*
X73921965Y-82585887D01*
G37*
G36*
X74478741Y-83142663D02*
X75892954Y-81728450D01*
X76288085Y-82123581D01*
X74873872Y-83537794D01*
X74478741Y-83142663D01*
X74478741Y-83142663D01*
G37*
G36*
X75035517Y-83699438D02*
X76449730Y-82285225D01*
X76844861Y-82680356D01*
X75430648Y-84094569D01*
X75035517Y-83699438D01*
X75035517Y-83699438D01*
G37*
G36*
X75592293Y-84256214D02*
X77006506Y-82842001D01*
X77401637Y-83237132D01*
X75987424Y-84651345D01*
X75592293Y-84256214D01*
X75592293Y-84256214D01*
G37*
G36*
X78554363Y-83237132D02*
X78949494Y-82842001D01*
X80363707Y-84256214D01*
X79968576Y-84651345D01*
X78554363Y-83237132D01*
X78554363Y-83237132D01*
G37*
G36*
X79111139Y-82680356D02*
X79506270Y-82285225D01*
X80920483Y-83699438D01*
X80525352Y-84094569D01*
X79111139Y-82680356D01*
X79111139Y-82680356D01*
G37*
G36*
X79667915Y-82123581D02*
X80063046Y-81728450D01*
X81477259Y-83142663D01*
X81082128Y-83537794D01*
X79667915Y-82123581D01*
X79667915Y-82123581D01*
G37*
G36*
X80224691Y-81566805D02*
X80619822Y-81171674D01*
X82034035Y-82585887D01*
X81638904Y-82981018D01*
X80224691Y-81566805D01*
X80224691Y-81566805D01*
G37*
G36*
X80781467Y-81010029D02*
X81176598Y-80614898D01*
X82590811Y-82029111D01*
X82195680Y-82424242D01*
X80781467Y-81010029D01*
X80781467Y-81010029D01*
G37*
G36*
X81338243Y-80453253D02*
X81733374Y-80058122D01*
X83147587Y-81472335D01*
X82752456Y-81867466D01*
X81338243Y-80453253D01*
X81338243Y-80453253D01*
G37*
G36*
X81895018Y-79896477D02*
X82290149Y-79501346D01*
X83704362Y-80915559D01*
X83309231Y-81310690D01*
X81895018Y-79896477D01*
X81895018Y-79896477D01*
G37*
G36*
X82451794Y-79339701D02*
X82846925Y-78944570D01*
X84261138Y-80358783D01*
X83866007Y-80753914D01*
X82451794Y-79339701D01*
X82451794Y-79339701D01*
G37*
G36*
X83008570Y-78782925D02*
X83403701Y-78387794D01*
X84817914Y-79802007D01*
X84422783Y-80197138D01*
X83008570Y-78782925D01*
X83008570Y-78782925D01*
G37*
G36*
X83565346Y-78226149D02*
X83960477Y-77831018D01*
X85374690Y-79245231D01*
X84979559Y-79640362D01*
X83565346Y-78226149D01*
X83565346Y-78226149D01*
G37*
G36*
X84122122Y-77669374D02*
X84517253Y-77274243D01*
X85931466Y-78688456D01*
X85536335Y-79083587D01*
X84122122Y-77669374D01*
X84122122Y-77669374D01*
G37*
G36*
X84678898Y-77112598D02*
X85074029Y-76717467D01*
X86488242Y-78131680D01*
X86093111Y-78526811D01*
X84678898Y-77112598D01*
X84678898Y-77112598D01*
G37*
G36*
X85235674Y-76555822D02*
X85630805Y-76160691D01*
X87045018Y-77574904D01*
X86649887Y-77970035D01*
X85235674Y-76555822D01*
X85235674Y-76555822D01*
G37*
G36*
X85792450Y-75999046D02*
X86187581Y-75603915D01*
X87601794Y-77018128D01*
X87206663Y-77413259D01*
X85792450Y-75999046D01*
X85792450Y-75999046D01*
G37*
G36*
X86349225Y-75442270D02*
X86744356Y-75047139D01*
X88158569Y-76461352D01*
X87763438Y-76856483D01*
X86349225Y-75442270D01*
X86349225Y-75442270D01*
G37*
G36*
X86906001Y-74885494D02*
X87301132Y-74490363D01*
X88715345Y-75904576D01*
X88320214Y-76299707D01*
X86906001Y-74885494D01*
X86906001Y-74885494D01*
G37*
G36*
X86906001Y-72942506D02*
X88320214Y-71528293D01*
X88715345Y-71923424D01*
X87301132Y-73337637D01*
X86906001Y-72942506D01*
X86906001Y-72942506D01*
G37*
G36*
X86349225Y-72385730D02*
X87763438Y-70971517D01*
X88158569Y-71366648D01*
X86744356Y-72780861D01*
X86349225Y-72385730D01*
X86349225Y-72385730D01*
G37*
G36*
X85792450Y-71828954D02*
X87206663Y-70414741D01*
X87601794Y-70809872D01*
X86187581Y-72224085D01*
X85792450Y-71828954D01*
X85792450Y-71828954D01*
G37*
G36*
X85235674Y-71272178D02*
X86649887Y-69857965D01*
X87045018Y-70253096D01*
X85630805Y-71667309D01*
X85235674Y-71272178D01*
X85235674Y-71272178D01*
G37*
G36*
X84678898Y-70715402D02*
X86093111Y-69301189D01*
X86488242Y-69696320D01*
X85074029Y-71110533D01*
X84678898Y-70715402D01*
X84678898Y-70715402D01*
G37*
G36*
X84122122Y-70158626D02*
X85536335Y-68744413D01*
X85931466Y-69139544D01*
X84517253Y-70553757D01*
X84122122Y-70158626D01*
X84122122Y-70158626D01*
G37*
G36*
X83565346Y-69601851D02*
X84979559Y-68187638D01*
X85374690Y-68582769D01*
X83960477Y-69996982D01*
X83565346Y-69601851D01*
X83565346Y-69601851D01*
G37*
G36*
X83008570Y-69045075D02*
X84422783Y-67630862D01*
X84817914Y-68025993D01*
X83403701Y-69440206D01*
X83008570Y-69045075D01*
X83008570Y-69045075D01*
G37*
G36*
X82451794Y-68488299D02*
X83866007Y-67074086D01*
X84261138Y-67469217D01*
X82846925Y-68883430D01*
X82451794Y-68488299D01*
X82451794Y-68488299D01*
G37*
G36*
X81895018Y-67931523D02*
X83309231Y-66517310D01*
X83704362Y-66912441D01*
X82290149Y-68326654D01*
X81895018Y-67931523D01*
X81895018Y-67931523D01*
G37*
G36*
X81338243Y-67374747D02*
X82752456Y-65960534D01*
X83147587Y-66355665D01*
X81733374Y-67769878D01*
X81338243Y-67374747D01*
X81338243Y-67374747D01*
G37*
G36*
X80781467Y-66817971D02*
X82195680Y-65403758D01*
X82590811Y-65798889D01*
X81176598Y-67213102D01*
X80781467Y-66817971D01*
X80781467Y-66817971D01*
G37*
G36*
X80224691Y-66261195D02*
X81638904Y-64846982D01*
X82034035Y-65242113D01*
X80619822Y-66656326D01*
X80224691Y-66261195D01*
X80224691Y-66261195D01*
G37*
G36*
X79667915Y-65704419D02*
X81082128Y-64290206D01*
X81477259Y-64685337D01*
X80063046Y-66099550D01*
X79667915Y-65704419D01*
X79667915Y-65704419D01*
G37*
G36*
X79111139Y-65147644D02*
X80525352Y-63733431D01*
X80920483Y-64128562D01*
X79506270Y-65542775D01*
X79111139Y-65147644D01*
X79111139Y-65147644D01*
G37*
G36*
X78554363Y-64590868D02*
X79968576Y-63176655D01*
X80363707Y-63571786D01*
X78949494Y-64985999D01*
X78554363Y-64590868D01*
X78554363Y-64590868D01*
G37*
D12*
X60198000Y-106934000D03*
X65278000Y-106934000D03*
D13*
X76708000Y-39370000D03*
D14*
X74168000Y-39370000D03*
X71628000Y-39370000D03*
X69088000Y-39370000D03*
X66548000Y-39370000D03*
X64008000Y-39370000D03*
X61468000Y-39370000D03*
X58928000Y-39370000D03*
D13*
X79248000Y-39370000D03*
D14*
X81788000Y-39370000D03*
X84328000Y-39370000D03*
X86868000Y-39370000D03*
X89408000Y-39370000D03*
X91948000Y-39370000D03*
X94488000Y-39370000D03*
X97028000Y-39370000D03*
D13*
X60198000Y-77724000D03*
D15*
X60198000Y-80264000D03*
X60198000Y-82804000D03*
X60198000Y-85344000D03*
X60198000Y-87884000D03*
X60198000Y-90424000D03*
X60198000Y-92964000D03*
X60198000Y-95504000D03*
X60198000Y-98044000D03*
X60198000Y-100584000D03*
D13*
X60198000Y-52324000D03*
D15*
X60198000Y-54864000D03*
X60198000Y-57404000D03*
X60198000Y-59944000D03*
X60198000Y-62484000D03*
X60198000Y-65024000D03*
X60198000Y-67564000D03*
X60198000Y-70104000D03*
X60198000Y-72644000D03*
X60198000Y-75184000D03*
D13*
X95758000Y-100584000D03*
D15*
X95758000Y-98044000D03*
X95758000Y-95504000D03*
X95758000Y-92964000D03*
X95758000Y-90424000D03*
X95758000Y-87884000D03*
X95758000Y-85344000D03*
X95758000Y-82804000D03*
X95758000Y-80264000D03*
X95758000Y-77724000D03*
D13*
X95758000Y-52324000D03*
D15*
X95758000Y-54864000D03*
X95758000Y-57404000D03*
X95758000Y-59944000D03*
X95758000Y-62484000D03*
X95758000Y-65024000D03*
X95758000Y-67564000D03*
X95758000Y-70104000D03*
X95758000Y-72644000D03*
X95758000Y-75184000D03*
D16*
X71120000Y-105156000D03*
D17*
X73660000Y-105156000D03*
X76200000Y-105156000D03*
X78740000Y-105156000D03*
X81280000Y-105156000D03*
X83820000Y-105156000D03*
X86360000Y-105156000D03*
D16*
X95758000Y-107188000D03*
D17*
X95758000Y-104648000D03*
D18*
X77724000Y-96370140D03*
X77724000Y-99209860D03*
X81280000Y-96370140D03*
X81280000Y-99209860D03*
D19*
X96288860Y-45212000D03*
X93449140Y-45212000D03*
D20*
X83312000Y-49022000D03*
X83312000Y-51562000D03*
X80772000Y-49022000D03*
X80772000Y-51562000D03*
X78232000Y-49022000D03*
X78232000Y-51562000D03*
X75692000Y-49022000D03*
X75692000Y-51562000D03*
X73152000Y-49022000D03*
X73152000Y-51562000D03*
D21*
X75438000Y-89154000D03*
X80518000Y-89154000D03*
M02*
