M48
;DRILL file {kicad (2015-01-16 BZR 5376)-product} date 7/27/2015 11:16:47 AM
;FORMAT={-:-/ absolute / metric / decimal}
FMAT,2
METRIC,TZ
T1C0.762
T2C0.813
T3C0.850
T4C0.998
%
G90
G05
M71
T1
X75.438Y-89.154
X80.518Y-89.154
T2
X58.928Y-39.37
X60.198Y-52.324
X60.198Y-54.864
X60.198Y-57.404
X60.198Y-59.944
X60.198Y-62.484
X60.198Y-65.024
X60.198Y-67.564
X60.198Y-70.104
X60.198Y-72.644
X60.198Y-75.184
X60.198Y-77.724
X60.198Y-80.264
X60.198Y-82.804
X60.198Y-85.344
X60.198Y-87.884
X60.198Y-90.424
X60.198Y-92.964
X60.198Y-95.504
X60.198Y-98.044
X60.198Y-100.584
X60.198Y-106.934
X61.468Y-39.37
X64.008Y-39.37
X65.278Y-106.934
X66.548Y-39.37
X69.088Y-39.37
X71.12Y-105.156
X71.628Y-39.37
X73.66Y-105.156
X74.168Y-39.37
X76.2Y-105.156
X76.708Y-39.37
X78.74Y-105.156
X79.248Y-39.37
X81.28Y-105.156
X81.788Y-39.37
X83.82Y-105.156
X84.328Y-39.37
X86.36Y-105.156
X86.868Y-39.37
X89.408Y-39.37
X91.948Y-39.37
X94.488Y-39.37
X95.758Y-52.324
X95.758Y-54.864
X95.758Y-57.404
X95.758Y-59.944
X95.758Y-62.484
X95.758Y-65.024
X95.758Y-67.564
X95.758Y-70.104
X95.758Y-72.644
X95.758Y-75.184
X95.758Y-77.724
X95.758Y-80.264
X95.758Y-82.804
X95.758Y-85.344
X95.758Y-87.884
X95.758Y-90.424
X95.758Y-92.964
X95.758Y-95.504
X95.758Y-98.044
X95.758Y-100.584
X95.758Y-104.648
X95.758Y-107.188
X97.028Y-39.37
T3
X62.738Y-81.407
X65.659Y-83.058
X65.913Y-80.264
X67.056Y-100.076
X67.564Y-82.931
X71.501Y-55.626
X71.628Y-45.339
X74.295Y-94.615
X75.057Y-73.66
X75.692Y-70.993
X77.216Y-61.849
X78.105Y-85.344
X79.756Y-55.753
X81.788Y-70.866
X81.788Y-93.726
X82.042Y-77.724
X84.328Y-73.152
X89.789Y-82.296
X93.599Y-46.355
X96.901Y-42.926
T4
X73.152Y-49.022
X73.152Y-51.562
X75.692Y-49.022
X75.692Y-51.562
X78.232Y-49.022
X78.232Y-51.562
X80.772Y-49.022
X80.772Y-51.562
X83.312Y-49.022
X83.312Y-51.562
T0
M30
