<?xml version="1.0" standalone="no"?>
 <!DOCTYPE svg PUBLIC "-//W3C//DTD SVG 1.1//EN" 
 "http://www.w3.org/Graphics/SVG/1.1/DTD/svg11.dtd"> 
<svg xmlns="http://www.w3.org/2000/svg" version="1.1" 
    width="29.7002cm" height="21.0007cm" viewBox="0 0 116930 82680 ">
<title>SVG Picture created as ATMega128_Breakout-F_Cu.svg date 2015/07/17 13:49:09 </title>
  <desc>Picture generated by PCBNEW </desc>
<g style="fill:#000000; fill-opacity:1;stroke:#000000; stroke-opacity:1;
stroke-linecap:round; stroke-linejoin:round; "
 transform="translate(0 0) scale(1 1)">
</g>
<g style="fill:#000000; fill-opacity:0.0; 
stroke:#000000; stroke-width:100; stroke-opacity:1; 
stroke-linecap:round; stroke-linejoin:round;">
<path d="M26885 43042
L26866 43061
L26809 43080
L26771 43080
L26714 43061
L26676 43023
L26657 42985
L26638 42909
L26638 42852
L26657 42776
L26676 42738
L26714 42700
L26771 42680
L26809 42680
L26866 42700
L26885 42719
" />
<path d="M27133 42680
L27209 42680
L27247 42700
L27285 42738
L27304 42814
L27304 42947
L27285 43023
L27247 43061
L27209 43080
L27133 43080
L27095 43061
L27057 43023
L27038 42947
L27038 42814
L27057 42738
L27095 42700
L27133 42680
" />
<path d="M27476 43080
L27476 42680
L27609 42966
L27742 42680
L27742 43080
" />
<path d="M27933 43080
L27933 42680
L28085 42680
L28123 42700
L28142 42719
L28161 42757
L28161 42814
L28142 42852
L28123 42871
L28085 42890
L27933 42890
" />
</g>
<g style="fill:#000000; fill-opacity:0.0; 
stroke:#000000; stroke-width:39.3701; stroke-opacity:1; 
stroke-linecap:round; stroke-linejoin:round;">
<path d="M22723 14540
L22762 14540
" />
<path d="M22723 44107
L22723 14540
" />
<path d="M38668 44107
L22723 44107
" />
<path d="M38668 15525
L38668 44107
" />
<path d="M38668 14540
L38471 14540
" />
<path d="M38668 15525
L38668 14540
" />
<path d="M38471 14540
L22723 14540
" />
</g>
<g style="fill:#000000; fill-opacity:0.0; 
stroke:#000000; stroke-width:59.0551; stroke-opacity:1; 
stroke-linecap:round; stroke-linejoin:round;">
</g>
<g style="fill:#000000; fill-opacity:1.0; 
stroke:#000000; stroke-width:59.0551; stroke-opacity:1; 
stroke-linecap:round; stroke-linejoin:round;">
<polyline style="fill-rule:evenodd;"
points="29802,25028
29916,24914
30431,25429
30317,25543
29802,25028
" /> 
<polyline style="fill-rule:evenodd;"
points="29583,25247
29697,25133
30212,25648
30098,25762
29583,25247
" /> 
<polyline style="fill-rule:evenodd;"
points="29364,25466
29477,25352
29992,25867
29879,25981
29364,25466
" /> 
<polyline style="fill-rule:evenodd;"
points="29144,25685
29258,25572
29773,26087
29659,26200
29144,25685
" /> 
<polyline style="fill-rule:evenodd;"
points="28925,25905
29039,25791
29554,26306
29440,26420
28925,25905
" /> 
<polyline style="fill-rule:evenodd;"
points="28706,26124
28820,26010
29335,26525
29221,26639
28706,26124
" /> 
<polyline style="fill-rule:evenodd;"
points="28487,26343
28601,26229
29116,26744
29002,26858
28487,26343
" /> 
<polyline style="fill-rule:evenodd;"
points="28268,26562
28381,26448
28896,26963
28783,27077
28268,26562
" /> 
<polyline style="fill-rule:evenodd;"
points="28048,26781
28162,26668
28677,27183
28563,27296
28048,26781
" /> 
<polyline style="fill-rule:evenodd;"
points="27829,27001
27943,26887
28458,27402
28344,27516
27829,27001
" /> 
<polyline style="fill-rule:evenodd;"
points="27610,27220
27724,27106
28239,27621
28125,27735
27610,27220
" /> 
<polyline style="fill-rule:evenodd;"
points="27391,27439
27505,27325
28020,27840
27906,27954
27391,27439
" /> 
<polyline style="fill-rule:evenodd;"
points="27172,27658
27285,27544
27800,28059
27687,28173
27172,27658
" /> 
<polyline style="fill-rule:evenodd;"
points="26952,27877
27066,27764
27581,28279
27467,28392
26952,27877
" /> 
<polyline style="fill-rule:evenodd;"
points="26733,28097
26847,27983
27362,28498
27248,28612
26733,28097
" /> 
<polyline style="fill-rule:evenodd;"
points="26514,28316
26628,28202
27143,28717
27029,28831
26514,28316
" /> 
<polyline style="fill-rule:evenodd;"
points="26514,29883
27029,29368
27143,29482
26628,29997
26514,29883
" /> 
<polyline style="fill-rule:evenodd;"
points="26733,30102
27248,29587
27362,29701
26847,30216
26733,30102
" /> 
<polyline style="fill-rule:evenodd;"
points="26952,30322
27467,29807
27581,29920
27066,30435
26952,30322
" /> 
<polyline style="fill-rule:evenodd;"
points="27172,30541
27687,30026
27800,30140
27285,30655
27172,30541
" /> 
<polyline style="fill-rule:evenodd;"
points="27391,30760
27906,30245
28020,30359
27505,30874
27391,30760
" /> 
<polyline style="fill-rule:evenodd;"
points="27610,30979
28125,30464
28239,30578
27724,31093
27610,30979
" /> 
<polyline style="fill-rule:evenodd;"
points="27829,31198
28344,30683
28458,30797
27943,31312
27829,31198
" /> 
<polyline style="fill-rule:evenodd;"
points="28048,31418
28563,30903
28677,31016
28162,31531
28048,31418
" /> 
<polyline style="fill-rule:evenodd;"
points="28268,31637
28783,31122
28896,31236
28381,31751
28268,31637
" /> 
<polyline style="fill-rule:evenodd;"
points="28487,31856
29002,31341
29116,31455
28601,31970
28487,31856
" /> 
<polyline style="fill-rule:evenodd;"
points="28706,32075
29221,31560
29335,31674
28820,32189
28706,32075
" /> 
<polyline style="fill-rule:evenodd;"
points="28925,32294
29440,31779
29554,31893
29039,32408
28925,32294
" /> 
<polyline style="fill-rule:evenodd;"
points="29144,32514
29659,31999
29773,32112
29258,32627
29144,32514
" /> 
<polyline style="fill-rule:evenodd;"
points="29364,32733
29879,32218
29992,32332
29477,32847
29364,32733
" /> 
<polyline style="fill-rule:evenodd;"
points="29583,32952
30098,32437
30212,32551
29697,33066
29583,32952
" /> 
<polyline style="fill-rule:evenodd;"
points="29802,33171
30317,32656
30431,32770
29916,33285
29802,33171
" /> 
<polyline style="fill-rule:evenodd;"
points="30968,32770
31082,32656
31597,33171
31483,33285
30968,32770
" /> 
<polyline style="fill-rule:evenodd;"
points="31187,32551
31301,32437
31816,32952
31702,33066
31187,32551
" /> 
<polyline style="fill-rule:evenodd;"
points="31407,32332
31520,32218
32035,32733
31922,32847
31407,32332
" /> 
<polyline style="fill-rule:evenodd;"
points="31626,32112
31740,31999
32255,32514
32141,32627
31626,32112
" /> 
<polyline style="fill-rule:evenodd;"
points="31845,31893
31959,31779
32474,32294
32360,32408
31845,31893
" /> 
<polyline style="fill-rule:evenodd;"
points="32064,31674
32178,31560
32693,32075
32579,32189
32064,31674
" /> 
<polyline style="fill-rule:evenodd;"
points="32283,31455
32397,31341
32912,31856
32798,31970
32283,31455
" /> 
<polyline style="fill-rule:evenodd;"
points="32503,31236
32616,31122
33131,31637
33018,31751
32503,31236
" /> 
<polyline style="fill-rule:evenodd;"
points="32722,31016
32836,30903
33351,31418
33237,31531
32722,31016
" /> 
<polyline style="fill-rule:evenodd;"
points="32941,30797
33055,30683
33570,31198
33456,31312
32941,30797
" /> 
<polyline style="fill-rule:evenodd;"
points="33160,30578
33274,30464
33789,30979
33675,31093
33160,30578
" /> 
<polyline style="fill-rule:evenodd;"
points="33379,30359
33493,30245
34008,30760
33894,30874
33379,30359
" /> 
<polyline style="fill-rule:evenodd;"
points="33599,30140
33712,30026
34227,30541
34114,30655
33599,30140
" /> 
<polyline style="fill-rule:evenodd;"
points="33818,29920
33932,29807
34447,30322
34333,30435
33818,29920
" /> 
<polyline style="fill-rule:evenodd;"
points="34037,29701
34151,29587
34666,30102
34552,30216
34037,29701
" /> 
<polyline style="fill-rule:evenodd;"
points="34256,29482
34370,29368
34885,29883
34771,29997
34256,29482
" /> 
<polyline style="fill-rule:evenodd;"
points="34256,28717
34771,28202
34885,28316
34370,28831
34256,28717
" /> 
<polyline style="fill-rule:evenodd;"
points="34037,28498
34552,27983
34666,28097
34151,28612
34037,28498
" /> 
<polyline style="fill-rule:evenodd;"
points="33818,28279
34333,27764
34447,27877
33932,28392
33818,28279
" /> 
<polyline style="fill-rule:evenodd;"
points="33599,28059
34114,27544
34227,27658
33712,28173
33599,28059
" /> 
<polyline style="fill-rule:evenodd;"
points="33379,27840
33894,27325
34008,27439
33493,27954
33379,27840
" /> 
<polyline style="fill-rule:evenodd;"
points="33160,27621
33675,27106
33789,27220
33274,27735
33160,27621
" /> 
<polyline style="fill-rule:evenodd;"
points="32941,27402
33456,26887
33570,27001
33055,27516
32941,27402
" /> 
<polyline style="fill-rule:evenodd;"
points="32722,27183
33237,26668
33351,26781
32836,27296
32722,27183
" /> 
<polyline style="fill-rule:evenodd;"
points="32503,26963
33018,26448
33131,26562
32616,27077
32503,26963
" /> 
<polyline style="fill-rule:evenodd;"
points="32283,26744
32798,26229
32912,26343
32397,26858
32283,26744
" /> 
<polyline style="fill-rule:evenodd;"
points="32064,26525
32579,26010
32693,26124
32178,26639
32064,26525
" /> 
<polyline style="fill-rule:evenodd;"
points="31845,26306
32360,25791
32474,25905
31959,26420
31845,26306
" /> 
<polyline style="fill-rule:evenodd;"
points="31626,26087
32141,25572
32255,25685
31740,26200
31626,26087
" /> 
<polyline style="fill-rule:evenodd;"
points="31407,25867
31922,25352
32035,25466
31520,25981
31407,25867
" /> 
<polyline style="fill-rule:evenodd;"
points="31187,25648
31702,25133
31816,25247
31301,25762
31187,25648
" /> 
<polyline style="fill-rule:evenodd;"
points="30968,25429
31483,24914
31597,25028
31082,25543
30968,25429
" /> 
<circle cx="32800" cy="19300" r="314.961" /> 
<circle cx="32800" cy="20300" r="314.961" /> 
<circle cx="31800" cy="19300" r="314.961" /> 
<circle cx="31800" cy="20300" r="314.961" /> 
<circle cx="30800" cy="19300" r="314.961" /> 
<circle cx="30800" cy="20300" r="314.961" /> 
<circle cx="29800" cy="19300" r="314.961" /> 
<circle cx="29800" cy="20300" r="314.961" /> 
<circle cx="28800" cy="19300" r="314.961" /> 
<circle cx="28800" cy="20300" r="314.961" /> 
<circle cx="23700" cy="42100" r="285.433" /> 
<circle cx="25700" cy="42100" r="285.433" /> 
<polyline style="fill-rule:evenodd;"
points="30970,39420
30229,39420
30229,38879
30970,38879
30970,39420
" /> 
<polyline style="fill-rule:evenodd;"
points="30970,38120
30229,38120
30229,37579
30970,37579
30970,38120
" /> 
<polyline style="fill-rule:evenodd;"
points="32370,39420
31629,39420
31629,38879
32370,38879
32370,39420
" /> 
<polyline style="fill-rule:evenodd;"
points="32370,38120
31629,38120
31629,37579
32370,37579
32370,38120
" /> 
<polyline style="fill-rule:evenodd;"
points="30485,15214
30485,15785
29914,15785
29914,15214
30485,15214
" /> 
</g>
<g style="fill:#000000; fill-opacity:1.0; 
stroke:#000000; stroke-width:629.921; stroke-opacity:1; 
stroke-linecap:round; stroke-linejoin:round;">
</g>
<g style="fill:#000000; fill-opacity:0.0; 
stroke:#000000; stroke-width:629.921; stroke-opacity:1; 
stroke-linecap:round; stroke-linejoin:round;">
<path d="M29200 15578
L29200 15421
" />
<path d="M28200 15578
L28200 15421
" />
<path d="M27200 15578
L27200 15421
" />
<path d="M26200 15578
L26200 15421
" />
<path d="M25200 15578
L25200 15421
" />
<path d="M24200 15578
L24200 15421
" />
<path d="M23200 15578
L23200 15421
" />
</g>
<g style="fill:#000000; fill-opacity:0.0; 
stroke:#000000; stroke-width:59.0551; stroke-opacity:1; 
stroke-linecap:round; stroke-linejoin:round;">
</g>
<g style="fill:#000000; fill-opacity:1.0; 
stroke:#000000; stroke-width:59.0551; stroke-opacity:1; 
stroke-linecap:round; stroke-linejoin:round;">
<polyline style="fill-rule:evenodd;"
points="30914,15785
30914,15214
31485,15214
31485,15785
30914,15785
" /> 
</g>
<g style="fill:#000000; fill-opacity:1.0; 
stroke:#000000; stroke-width:629.921; stroke-opacity:1; 
stroke-linecap:round; stroke-linejoin:round;">
</g>
<g style="fill:#000000; fill-opacity:0.0; 
stroke:#000000; stroke-width:629.921; stroke-opacity:1; 
stroke-linecap:round; stroke-linejoin:round;">
<path d="M32200 15421
L32200 15578
" />
<path d="M33200 15421
L33200 15578
" />
<path d="M34200 15421
L34200 15578
" />
<path d="M35200 15421
L35200 15578
" />
<path d="M36200 15421
L36200 15578
" />
<path d="M37200 15421
L37200 15578
" />
<path d="M38200 15421
L38200 15578
" />
</g>
<g style="fill:#000000; fill-opacity:0.0; 
stroke:#000000; stroke-width:59.0551; stroke-opacity:1; 
stroke-linecap:round; stroke-linejoin:round;">
</g>
<g style="fill:#000000; fill-opacity:1.0; 
stroke:#000000; stroke-width:59.0551; stroke-opacity:1; 
stroke-linecap:round; stroke-linejoin:round;">
<polyline style="fill-rule:evenodd;"
points="23414,30314
23985,30314
23985,30885
23414,30885
23414,30314
" /> 
</g>
<g style="fill:#000000; fill-opacity:1.0; 
stroke:#000000; stroke-width:629.921; stroke-opacity:1; 
stroke-linecap:round; stroke-linejoin:round;">
</g>
<g style="fill:#000000; fill-opacity:0.0; 
stroke:#000000; stroke-width:629.921; stroke-opacity:1; 
stroke-linecap:round; stroke-linejoin:round;">
<path d="M23778 31600
L23621 31600
" />
<path d="M23778 32600
L23621 32600
" />
<path d="M23778 33600
L23621 33600
" />
<path d="M23778 34600
L23621 34600
" />
<path d="M23778 35600
L23621 35600
" />
<path d="M23778 36600
L23621 36600
" />
<path d="M23778 37600
L23621 37600
" />
<path d="M23778 38600
L23621 38600
" />
<path d="M23778 39600
L23621 39600
" />
</g>
<g style="fill:#000000; fill-opacity:0.0; 
stroke:#000000; stroke-width:59.0551; stroke-opacity:1; 
stroke-linecap:round; stroke-linejoin:round;">
</g>
<g style="fill:#000000; fill-opacity:1.0; 
stroke:#000000; stroke-width:59.0551; stroke-opacity:1; 
stroke-linecap:round; stroke-linejoin:round;">
<polyline style="fill-rule:evenodd;"
points="23414,20314
23985,20314
23985,20885
23414,20885
23414,20314
" /> 
</g>
<g style="fill:#000000; fill-opacity:1.0; 
stroke:#000000; stroke-width:629.921; stroke-opacity:1; 
stroke-linecap:round; stroke-linejoin:round;">
</g>
<g style="fill:#000000; fill-opacity:0.0; 
stroke:#000000; stroke-width:629.921; stroke-opacity:1; 
stroke-linecap:round; stroke-linejoin:round;">
<path d="M23778 21600
L23621 21600
" />
<path d="M23778 22600
L23621 22600
" />
<path d="M23778 23600
L23621 23600
" />
<path d="M23778 24600
L23621 24600
" />
<path d="M23778 25600
L23621 25600
" />
<path d="M23778 26600
L23621 26600
" />
<path d="M23778 27600
L23621 27600
" />
<path d="M23778 28600
L23621 28600
" />
<path d="M23778 29600
L23621 29600
" />
</g>
<g style="fill:#000000; fill-opacity:0.0; 
stroke:#000000; stroke-width:59.0551; stroke-opacity:1; 
stroke-linecap:round; stroke-linejoin:round;">
</g>
<g style="fill:#000000; fill-opacity:1.0; 
stroke:#000000; stroke-width:59.0551; stroke-opacity:1; 
stroke-linecap:round; stroke-linejoin:round;">
<polyline style="fill-rule:evenodd;"
points="37985,39885
37414,39885
37414,39314
37985,39314
37985,39885
" /> 
</g>
<g style="fill:#000000; fill-opacity:1.0; 
stroke:#000000; stroke-width:629.921; stroke-opacity:1; 
stroke-linecap:round; stroke-linejoin:round;">
</g>
<g style="fill:#000000; fill-opacity:0.0; 
stroke:#000000; stroke-width:629.921; stroke-opacity:1; 
stroke-linecap:round; stroke-linejoin:round;">
<path d="M37621 38600
L37778 38600
" />
<path d="M37621 37600
L37778 37600
" />
<path d="M37621 36600
L37778 36600
" />
<path d="M37621 35600
L37778 35600
" />
<path d="M37621 34600
L37778 34600
" />
<path d="M37621 33600
L37778 33600
" />
<path d="M37621 32600
L37778 32600
" />
<path d="M37621 31600
L37778 31600
" />
<path d="M37621 30600
L37778 30600
" />
</g>
<g style="fill:#000000; fill-opacity:0.0; 
stroke:#000000; stroke-width:59.0551; stroke-opacity:1; 
stroke-linecap:round; stroke-linejoin:round;">
</g>
<g style="fill:#000000; fill-opacity:1.0; 
stroke:#000000; stroke-width:59.0551; stroke-opacity:1; 
stroke-linecap:round; stroke-linejoin:round;">
<polyline style="fill-rule:evenodd;"
points="37414,20314
37985,20314
37985,20885
37414,20885
37414,20314
" /> 
</g>
<g style="fill:#000000; fill-opacity:1.0; 
stroke:#000000; stroke-width:629.921; stroke-opacity:1; 
stroke-linecap:round; stroke-linejoin:round;">
</g>
<g style="fill:#000000; fill-opacity:0.0; 
stroke:#000000; stroke-width:629.921; stroke-opacity:1; 
stroke-linecap:round; stroke-linejoin:round;">
<path d="M37778 21600
L37621 21600
" />
<path d="M37778 22600
L37621 22600
" />
<path d="M37778 23600
L37621 23600
" />
<path d="M37778 24600
L37621 24600
" />
<path d="M37778 25600
L37621 25600
" />
<path d="M37778 26600
L37621 26600
" />
<path d="M37778 27600
L37621 27600
" />
<path d="M37778 28600
L37621 28600
" />
<path d="M37778 29600
L37621 29600
" />
</g>
<g style="fill:#000000; fill-opacity:0.0; 
stroke:#000000; stroke-width:59.0551; stroke-opacity:1; 
stroke-linecap:round; stroke-linejoin:round;">
</g>
<g style="fill:#000000; fill-opacity:1.0; 
stroke:#000000; stroke-width:59.0551; stroke-opacity:1; 
stroke-linecap:round; stroke-linejoin:round;">
<circle cx="29700" cy="35100" r="250.472" /> 
<circle cx="31700" cy="35100" r="250.472" /> 
<polyline style="fill-rule:evenodd;"
points="27754,41645
27754,41154
28245,41154
28245,41645
27754,41645
" /> 
<circle cx="29000" cy="41400" r="245.472" /> 
<circle cx="30000" cy="41400" r="245.472" /> 
<circle cx="31000" cy="41400" r="245.472" /> 
<circle cx="32000" cy="41400" r="245.472" /> 
<circle cx="33000" cy="41400" r="245.472" /> 
<circle cx="34000" cy="41400" r="245.472" /> 
<polyline style="fill-rule:evenodd;"
points="37945,42445
37454,42445
37454,41954
37945,41954
37945,42445
" /> 
<circle cx="37700" cy="41200" r="245.472" /> 
<circle cx="30400" cy="24350" r="265.748" /> 
<circle cx="30750" cy="33600" r="265.748" /> 
<circle cx="29250" cy="37250" r="265.748" /> 
<circle cx="29550" cy="29000" r="265.748" /> 
<circle cx="33200" cy="28800" r="265.748" /> 
<circle cx="35350" cy="32400" r="265.748" /> 
<circle cx="32300" cy="30600" r="265.748" /> 
<circle cx="27850" cy="22700" r="265.748" /> 
<circle cx="31750" cy="22550" r="265.748" /> 
<circle cx="26400" cy="39400" r="265.748" /> 
<circle cx="28200" cy="17850" r="265.748" /> 
<circle cx="24700" cy="32050" r="265.748" /> 
<circle cx="25950" cy="31600" r="265.748" /> 
<circle cx="29800" cy="27950" r="265.748" /> 
<circle cx="32200" cy="27900" r="265.748" /> 
<circle cx="32200" cy="36900" r="265.748" /> 
<circle cx="25850" cy="32700" r="265.748" /> 
<circle cx="26600" cy="32650" r="265.748" /> 
</g>
<g style="fill:#000000; fill-opacity:1.0; 
stroke:#000000; stroke-width:200; stroke-opacity:1; 
stroke-linecap:round; stroke-linejoin:round;">
</g>
<g style="fill:#000000; fill-opacity:0.0; 
stroke:#000000; stroke-width:200; stroke-opacity:1; 
stroke-linecap:round; stroke-linejoin:round;">
<path d="M32350 24350
L32400 24350
" />
<path d="M30400 24350
L32350 24350
" />
<path d="M30425 35775
L30425 33925
" />
<path d="M30425 33925
L30750 33600
" />
<path d="M32600 24800
L32600 24600
" />
<path d="M32150 24350
L32400 24350
" />
<path d="M32400 24350
L32600 24550
" />
<path d="M32600 24550
L32600 24600
" />
<path d="M29500 36700
L30425 35775
" />
<path d="M30425 35775
L30450 35750
" />
<path d="M29500 37000
L29500 36700
" />
<path d="M29250 37250
L29500 37000
" />
<path d="M31721 25667
L31721 25678
" />
<path d="M30400 28150
L29550 29000
" />
<path d="M30400 27000
L30400 28150
" />
<path d="M31721 25678
L30400 27000
" />
<path d="M27705 30559
L27740 30559
" />
<path d="M27740 30559
L29300 29000
" />
<path d="M29300 29000
L29550 29000
" />
<path d="M33913 27859
L33890 27859
" />
<path d="M33200 28550
L33200 28800
" />
<path d="M33890 27859
L33200 28550
" />
<path d="M31283 25228
L31283 25216
" />
<path d="M31283 25216
L32150 24350
" />
<path d="M31732 25667
L32600 24800
" />
<path d="M31732 25667
L31721 25667
" />
<path d="M33913 27859
L33940 27859
" />
</g>
<g style="fill:#000000; fill-opacity:0.0; 
stroke:#000000; stroke-width:250; stroke-opacity:1; 
stroke-linecap:round; stroke-linejoin:round;">
<path d="M37400 20600
L37700 20600
" />
<path d="M37050 20950
L37400 20600
" />
</g>
<g style="fill:#000000; fill-opacity:0.0; 
stroke:#000000; stroke-width:200; stroke-opacity:1; 
stroke-linecap:round; stroke-linejoin:round;">
<path d="M37050 22450
L37050 20950
" />
<path d="M35500 24000
L37050 22450
" />
<path d="M35500 26300
L35500 24000
" />
<path d="M33940 27859
L35500 26300
" />
<path d="M37450 31600
L37700 31600
" />
<path d="M36650 32400
L37450 31600
" />
<path d="M35350 32400
L36650 32400
" />
<path d="M28582 31436
L28582 31417
" />
<path d="M29400 30600
L32300 30600
" />
<path d="M28582 31417
L29400 30600
" />
<path d="M27500 32500
L26800 33200
" />
<path d="M24150 32600
L23700 32600
" />
<path d="M24750 33200
L24150 32600
" />
<path d="M26800 33200
L24750 33200
" />
<path d="M28582 31436
L28563 31436
" />
<path d="M28563 31436
L27500 32500
" />
<path d="M31600 22700
L27850 22700
" />
<path d="M31750 22550
L31600 22700
" />
</g>
<g style="fill:#000000; fill-opacity:0.0; 
stroke:#000000; stroke-width:300; stroke-opacity:1; 
stroke-linecap:round; stroke-linejoin:round;">
<path d="M26400 39400
L23700 42100
" />
</g>
<g style="fill:#000000; fill-opacity:0.0; 
stroke:#000000; stroke-width:200; stroke-opacity:1; 
stroke-linecap:round; stroke-linejoin:round;">
<path d="M27486 30340
L27486 30363
" />
<path d="M26900 30950
L25400 30950
" />
<path d="M25400 30950
L25050 30600
" />
</g>
<g style="fill:#000000; fill-opacity:0.0; 
stroke:#000000; stroke-width:250; stroke-opacity:1; 
stroke-linecap:round; stroke-linejoin:round;">
<path d="M25050 30600
L23700 30600
" />
</g>
<g style="fill:#000000; fill-opacity:0.0; 
stroke:#000000; stroke-width:200; stroke-opacity:1; 
stroke-linecap:round; stroke-linejoin:round;">
<path d="M27486 30363
L26900 30950
" />
<path d="M31000 41400
L31000 40600
" />
<path d="M31000 40600
L30600 40200
" />
<path d="M30600 40200
L30600 39150
" />
<path d="M32800 19300
L32800 17900
" />
<path d="M30200 16600
L30200 15500
" />
<path d="M31000 17400
L30200 16600
" />
<path d="M32300 17400
L31000 17400
" />
<path d="M32800 17900
L32300 17400
" />
<path d="M32550 22800
L32550 22450
" />
<path d="M29300 24050
L29750 23600
" />
<path d="M29750 23600
L32050 23600
" />
<path d="M32050 23600
L32550 23100
" />
<path d="M32550 23100
L32550 22800
" />
<path d="M29879 25448
L29300 24868
" />
<path d="M29897 25448
L29879 25448
" />
<path d="M29300 24868
L29300 24050
" />
<path d="M33350 19300
L32800 19300
" />
<path d="M33750 19700
L33350 19300
" />
<path d="M33750 21250
L33750 19700
" />
<path d="M32550 22450
L33750 21250
" />
<path d="M23700 23600
L24103 23600
" />
<path d="M24103 23600
L27924 27420
" />
<path d="M32000 41400
L32000 39150
" />
<path d="M28800 19300
L28800 17250
" />
<path d="M28800 17250
L28850 17200
" />
<path d="M28200 17850
L28850 17200
" />
<path d="M28850 17200
L29200 16850
" />
<path d="M29200 16850
L29200 15500
" />
<path d="M26900 20550
L26900 19800
" />
<path d="M27400 19300
L28800 19300
" />
<path d="M26900 19800
L27400 19300
" />
<path d="M28800 19300
L28800 17900
" />
<path d="M29200 16800
L29200 15500
" />
<path d="M28475 24425
L27450 23400
" />
<path d="M29200 16600
L29200 15500
" />
<path d="M26900 22850
L26900 20550
" />
<path d="M27450 23400
L26900 22850
" />
<path d="M29678 25667
L29678 25628
" />
<path d="M29678 25628
L28475 24425
" />
<path d="M31502 25448
L31501 25448
" />
<path d="M31501 25448
L30900 26050
" />
</g>
<g style="fill:#000000; fill-opacity:0.0; 
stroke:#000000; stroke-width:250; stroke-opacity:1; 
stroke-linecap:round; stroke-linejoin:round;">
<path d="M24700 32050
L25150 31600
" />
<path d="M25150 31600
L25950 31600
" />
</g>
<g style="fill:#000000; fill-opacity:0.0; 
stroke:#000000; stroke-width:200; stroke-opacity:1; 
stroke-linecap:round; stroke-linejoin:round;">
<path d="M31501 25448
L29800 27150
" />
<path d="M29800 27150
L29800 27950
" />
<path d="M27924 30779
L27924 30775
" />
<path d="M30550 29550
L32200 27900
" />
<path d="M29150 29550
L30550 29550
" />
<path d="M27924 30775
L29150 29550
" />
<path d="M33694 27640
L33694 27655
" />
<path d="M32600 28300
L32200 27900
" />
<path d="M33050 28300
L32600 28300
" />
<path d="M33694 27655
L33050 28300
" />
<path d="M32000 37850
L32000 37100
" />
<path d="M32000 37100
L32200 36900
" />
<path d="M30600 37850
L32000 37850
" />
<path d="M31721 32532
L31732 32532
" />
</g>
<g style="fill:#000000; fill-opacity:0.0; 
stroke:#000000; stroke-width:250; stroke-opacity:1; 
stroke-linecap:round; stroke-linejoin:round;">
<path d="M33850 39600
L37700 39600
" />
</g>
<g style="fill:#000000; fill-opacity:0.0; 
stroke:#000000; stroke-width:200; stroke-opacity:1; 
stroke-linecap:round; stroke-linejoin:round;">
<path d="M32850 38600
L33850 39600
" />
<path d="M32850 33650
L32850 38600
" />
<path d="M31732 32532
L32850 33650
" />
<path d="M31940 32313
L31963 32313
" />
</g>
<g style="fill:#000000; fill-opacity:0.0; 
stroke:#000000; stroke-width:250; stroke-opacity:1; 
stroke-linecap:round; stroke-linejoin:round;">
<path d="M34400 38600
L37700 38600
" />
</g>
<g style="fill:#000000; fill-opacity:0.0; 
stroke:#000000; stroke-width:200; stroke-opacity:1; 
stroke-linecap:round; stroke-linejoin:round;">
<path d="M33300 37500
L34400 38600
" />
<path d="M33300 33650
L33300 37500
" />
<path d="M31963 32313
L33300 33650
" />
<path d="M32159 32094
L32194 32094
" />
</g>
<g style="fill:#000000; fill-opacity:0.0; 
stroke:#000000; stroke-width:250; stroke-opacity:1; 
stroke-linecap:round; stroke-linejoin:round;">
<path d="M34750 37600
L37700 37600
" />
</g>
<g style="fill:#000000; fill-opacity:0.0; 
stroke:#000000; stroke-width:200; stroke-opacity:1; 
stroke-linecap:round; stroke-linejoin:round;">
<path d="M34050 36900
L34750 37600
" />
<path d="M34050 33950
L34050 36900
" />
<path d="M32194 32094
L34050 33950
" />
<path d="M32379 31875
L32379 31879
" />
</g>
<g style="fill:#000000; fill-opacity:0.0; 
stroke:#000000; stroke-width:250; stroke-opacity:1; 
stroke-linecap:round; stroke-linejoin:round;">
<path d="M35450 36600
L37700 36600
" />
</g>
<g style="fill:#000000; fill-opacity:0.0; 
stroke:#000000; stroke-width:200; stroke-opacity:1; 
stroke-linecap:round; stroke-linejoin:round;">
<path d="M34550 35700
L35450 36600
" />
<path d="M34550 34050
L34550 35700
" />
<path d="M32379 31879
L34550 34050
" />
<path d="M33913 30340
L33913 30363
" />
</g>
<g style="fill:#000000; fill-opacity:0.0; 
stroke:#000000; stroke-width:250; stroke-opacity:1; 
stroke-linecap:round; stroke-linejoin:round;">
<path d="M37300 28600
L37700 28600
" />
</g>
<g style="fill:#000000; fill-opacity:0.0; 
stroke:#000000; stroke-width:200; stroke-opacity:1; 
stroke-linecap:round; stroke-linejoin:round;">
<path d="M36750 29150
L37300 28600
" />
<path d="M36750 30800
L36750 29150
" />
<path d="M36150 31400
L36750 30800
" />
<path d="M34950 31400
L36150 31400
" />
<path d="M33913 30363
L34950 31400
" />
<path d="M35800 28800
L35800 28200
" />
</g>
<g style="fill:#000000; fill-opacity:0.0; 
stroke:#000000; stroke-width:250; stroke-opacity:1; 
stroke-linecap:round; stroke-linejoin:round;">
<path d="M36850 26450
L37700 25600
" />
</g>
<g style="fill:#000000; fill-opacity:0.0; 
stroke:#000000; stroke-width:200; stroke-opacity:1; 
stroke-linecap:round; stroke-linejoin:round;">
<path d="M36850 27150
L36850 26450
" />
<path d="M35800 28200
L36850 27150
" />
<path d="M34571 29683
L34583 29683
" />
<path d="M35800 29950
L35800 28800
" />
<path d="M35550 30200
L35800 29950
" />
<path d="M35100 30200
L35550 30200
" />
<path d="M34583 29683
L35100 30200
" />
<path d="M36100 28850
L36100 28500
" />
</g>
<g style="fill:#000000; fill-opacity:0.0; 
stroke:#000000; stroke-width:250; stroke-opacity:1; 
stroke-linecap:round; stroke-linejoin:round;">
<path d="M37150 27150
L37700 26600
" />
</g>
<g style="fill:#000000; fill-opacity:0.0; 
stroke:#000000; stroke-width:200; stroke-opacity:1; 
stroke-linecap:round; stroke-linejoin:round;">
<path d="M37150 27450
L37150 27150
" />
<path d="M36100 28500
L37150 27450
" />
<path d="M34351 29902
L34352 29902
" />
<path d="M36100 30350
L36100 28850
" />
<path d="M35800 30650
L36100 30350
" />
<path d="M35100 30650
L35800 30650
" />
<path d="M34352 29902
L35100 30650
" />
<path d="M36400 29000
L36400 28850
" />
<path d="M37650 27600
L37700 27600
" />
</g>
<g style="fill:#000000; fill-opacity:0.0; 
stroke:#000000; stroke-width:250; stroke-opacity:1; 
stroke-linecap:round; stroke-linejoin:round;">
<path d="M36400 28850
L37650 27600
" />
</g>
<g style="fill:#000000; fill-opacity:0.0; 
stroke:#000000; stroke-width:200; stroke-opacity:1; 
stroke-linecap:round; stroke-linejoin:round;">
<path d="M34132 30121
L34132 30132
" />
<path d="M36400 30550
L36400 29000
" />
<path d="M35950 31000
L36400 30550
" />
<path d="M35000 31000
L35950 31000
" />
<path d="M34132 30132
L35000 31000
" />
<path d="M33694 30559
L33709 30559
" />
</g>
<g style="fill:#000000; fill-opacity:0.0; 
stroke:#000000; stroke-width:250; stroke-opacity:1; 
stroke-linecap:round; stroke-linejoin:round;">
<path d="M37350 29600
L37700 29600
" />
</g>
<g style="fill:#000000; fill-opacity:0.0; 
stroke:#000000; stroke-width:200; stroke-opacity:1; 
stroke-linecap:round; stroke-linejoin:round;">
<path d="M37050 29900
L37350 29600
" />
<path d="M37050 31150
L37050 29900
" />
<path d="M36400 31800
L37050 31150
" />
<path d="M34950 31800
L36400 31800
" />
<path d="M33709 30559
L34950 31800
" />
<path d="M27267 28078
L27267 28067
" />
<path d="M25800 26600
L23700 26600
" />
<path d="M27267 28067
L25800 26600
" />
<path d="M36350 20600
L36350 19950
" />
</g>
<g style="fill:#000000; fill-opacity:0.0; 
stroke:#000000; stroke-width:250; stroke-opacity:1; 
stroke-linecap:round; stroke-linejoin:round;">
<path d="M37200 19100
L37200 15500
" />
</g>
<g style="fill:#000000; fill-opacity:0.0; 
stroke:#000000; stroke-width:200; stroke-opacity:1; 
stroke-linecap:round; stroke-linejoin:round;">
<path d="M36350 19950
L37200 19100
" />
<path d="M33255 27201
L33255 27194
" />
<path d="M36350 21950
L36350 20600
" />
<path d="M34850 23450
L36350 21950
" />
<path d="M34850 25600
L34850 23450
" />
<path d="M33255 27194
L34850 25600
" />
<path d="M27048 28297
L27047 28297
" />
<path d="M26350 27600
L23700 27600
" />
<path d="M27047 28297
L26350 27600
" />
<path d="M36650 20800
L36650 20300
" />
</g>
<g style="fill:#000000; fill-opacity:0.0; 
stroke:#000000; stroke-width:250; stroke-opacity:1; 
stroke-linecap:round; stroke-linejoin:round;">
<path d="M38200 18750
L38200 15500
" />
</g>
<g style="fill:#000000; fill-opacity:0.0; 
stroke:#000000; stroke-width:200; stroke-opacity:1; 
stroke-linecap:round; stroke-linejoin:round;">
<path d="M36650 20300
L38200 18750
" />
<path d="M33475 27420
L33479 27420
" />
<path d="M36650 22200
L36650 20800
" />
<path d="M35150 23700
L36650 22200
" />
<path d="M35150 25750
L35150 23700
" />
<path d="M33479 27420
L35150 25750
" />
<path d="M26828 28516
L26816 28516
" />
</g>
<g style="fill:#000000; fill-opacity:0.0; 
stroke:#000000; stroke-width:250; stroke-opacity:1; 
stroke-linecap:round; stroke-linejoin:round;">
<path d="M24900 28600
L23700 28600
" />
</g>
<g style="fill:#000000; fill-opacity:0.0; 
stroke:#000000; stroke-width:200; stroke-opacity:1; 
stroke-linecap:round; stroke-linejoin:round;">
<path d="M25500 28000
L24900 28600
" />
<path d="M26300 28000
L25500 28000
" />
<path d="M26816 28516
L26300 28000
" />
<path d="M27486 27859
L27486 27836
" />
<path d="M25250 25600
L23700 25600
" />
<path d="M27486 27836
L25250 25600
" />
<path d="M34600 18700
L34600 18100
" />
</g>
<g style="fill:#000000; fill-opacity:0.0; 
stroke:#000000; stroke-width:250; stroke-opacity:1; 
stroke-linecap:round; stroke-linejoin:round;">
<path d="M33200 16700
L33200 15500
" />
</g>
<g style="fill:#000000; fill-opacity:0.0; 
stroke:#000000; stroke-width:200; stroke-opacity:1; 
stroke-linecap:round; stroke-linejoin:round;">
<path d="M34600 18100
L33200 16700
" />
<path d="M32379 26324
L32379 26320
" />
<path d="M34600 21700
L34600 18700
" />
<path d="M33550 22750
L34600 21700
" />
<path d="M33550 25150
L33550 22750
" />
<path d="M32379 26320
L33550 25150
" />
<path d="M32598 31655
L32605 31655
" />
</g>
<g style="fill:#000000; fill-opacity:0.0; 
stroke:#000000; stroke-width:250; stroke-opacity:1; 
stroke-linecap:round; stroke-linejoin:round;">
<path d="M35850 35600
L37700 35600
" />
</g>
<g style="fill:#000000; fill-opacity:0.0; 
stroke:#000000; stroke-width:200; stroke-opacity:1; 
stroke-linecap:round; stroke-linejoin:round;">
<path d="M35000 34750
L35850 35600
" />
<path d="M35000 34050
L35000 34750
" />
<path d="M32605 31655
L35000 34050
" />
<path d="M29459 32313
L29459 32340
" />
<path d="M29459 32340
L25200 36600
" />
<path d="M25200 36600
L23700 36600
" />
<path d="M35100 18500
L35100 17800
" />
</g>
<g style="fill:#000000; fill-opacity:0.0; 
stroke:#000000; stroke-width:250; stroke-opacity:1; 
stroke-linecap:round; stroke-linejoin:round;">
<path d="M34200 16900
L34200 15500
" />
</g>
<g style="fill:#000000; fill-opacity:0.0; 
stroke:#000000; stroke-width:200; stroke-opacity:1; 
stroke-linecap:round; stroke-linejoin:round;">
<path d="M35100 17800
L34200 16900
" />
<path d="M32598 26544
L32605 26544
" />
<path d="M35100 21650
L35100 18500
" />
<path d="M33850 22900
L35100 21650
" />
<path d="M33850 25300
L33850 22900
" />
<path d="M32605 26544
L33850 25300
" />
<path d="M25750 35600
L23700 35600
" />
<path d="M29240 32094
L29240 32109
" />
<path d="M29240 32109
L25750 35600
" />
<path d="M35500 18200
L35500 17200
" />
</g>
<g style="fill:#000000; fill-opacity:0.0; 
stroke:#000000; stroke-width:250; stroke-opacity:1; 
stroke-linecap:round; stroke-linejoin:round;">
<path d="M35200 16900
L35200 15500
" />
</g>
<g style="fill:#000000; fill-opacity:0.0; 
stroke:#000000; stroke-width:200; stroke-opacity:1; 
stroke-linecap:round; stroke-linejoin:round;">
<path d="M35500 17200
L35200 16900
" />
<path d="M32817 26763
L32836 26763
" />
<path d="M35500 21800
L35500 18200
" />
<path d="M34200 23100
L35500 21800
" />
<path d="M34200 25400
L34200 23100
" />
<path d="M32836 26763
L34200 25400
" />
<path d="M29020 31875
L29020 31879
" />
<path d="M29020 31879
L26300 34600
" />
<path d="M26300 34600
L23700 34600
" />
<path d="M35950 20400
L35950 19450
" />
</g>
<g style="fill:#000000; fill-opacity:0.0; 
stroke:#000000; stroke-width:250; stroke-opacity:1; 
stroke-linecap:round; stroke-linejoin:round;">
<path d="M36200 19200
L36200 15500
" />
</g>
<g style="fill:#000000; fill-opacity:0.0; 
stroke:#000000; stroke-width:200; stroke-opacity:1; 
stroke-linecap:round; stroke-linejoin:round;">
<path d="M35950 19450
L36200 19200
" />
<path d="M33036 26982
L33036 26963
" />
<path d="M35950 21850
L35950 20400
" />
<path d="M34550 23250
L35950 21850
" />
<path d="M34550 25450
L34550 23250
" />
<path d="M33036 26963
L34550 25450
" />
<path d="M26850 33600
L23700 33600
" />
<path d="M28801 31655
L28794 31655
" />
<path d="M28794 31655
L26850 33600
" />
<path d="M34132 28078
L34132 28067
" />
<path d="M37650 22600
L37700 22600
" />
</g>
<g style="fill:#000000; fill-opacity:0.0; 
stroke:#000000; stroke-width:250; stroke-opacity:1; 
stroke-linecap:round; stroke-linejoin:round;">
<path d="M35850 24400
L37650 22600
" />
</g>
<g style="fill:#000000; fill-opacity:0.0; 
stroke:#000000; stroke-width:200; stroke-opacity:1; 
stroke-linecap:round; stroke-linejoin:round;">
<path d="M35850 26350
L35850 24400
" />
<path d="M34132 28067
L35850 26350
" />
<path d="M26550 19450
L26550 18450
" />
<path d="M28200 16800
L28200 15500
" />
<path d="M26550 18450
L28200 16800
" />
<path d="M28000 24400
L26550 22950
" />
<path d="M29459 25859
L28000 24400
" />
<path d="M29459 25886
L29459 25859
" />
</g>
<g style="fill:#000000; fill-opacity:0.0; 
stroke:#000000; stroke-width:250; stroke-opacity:1; 
stroke-linecap:round; stroke-linejoin:round;">
<path d="M28200 15850
L28200 15500
" />
</g>
<g style="fill:#000000; fill-opacity:0.0; 
stroke:#000000; stroke-width:200; stroke-opacity:1; 
stroke-linecap:round; stroke-linejoin:round;">
<path d="M26550 22950
L26550 19450
" />
<path d="M34000 41400
L37500 41400
" />
<path d="M37500 41400
L37700 41200
" />
</g>
<g style="fill:#000000; fill-opacity:0.0; 
stroke:#000000; stroke-width:250; stroke-opacity:1; 
stroke-linecap:round; stroke-linejoin:round;">
<path d="M23700 24600
L24645 24600
" />
</g>
<g style="fill:#000000; fill-opacity:0.0; 
stroke:#000000; stroke-width:200; stroke-opacity:1; 
stroke-linecap:round; stroke-linejoin:round;">
<path d="M27684 27638
L27705 27640
" />
<path d="M24645 24600
L27684 27638
" />
<path d="M32950 24400
L32950 22550
" />
<path d="M31200 16700
L31200 15500
" />
<path d="M31450 16950
L31200 16700
" />
<path d="M32450 16950
L31450 16950
" />
<path d="M34050 18550
L32450 16950
" />
<path d="M34050 21450
L34050 18550
" />
<path d="M32950 22550
L34050 21450
" />
<path d="M31940 25886
L31963 25886
" />
<path d="M32950 24900
L32950 24400
" />
<path d="M31963 25886
L32950 24900
" />
<path d="M33036 31217
L33067 31217
" />
</g>
<g style="fill:#000000; fill-opacity:0.0; 
stroke:#000000; stroke-width:250; stroke-opacity:1; 
stroke-linecap:round; stroke-linejoin:round;">
<path d="M35450 33600
L37700 33600
" />
</g>
<g style="fill:#000000; fill-opacity:0.0; 
stroke:#000000; stroke-width:200; stroke-opacity:1; 
stroke-linecap:round; stroke-linejoin:round;">
<path d="M33067 31217
L35450 33600
" />
<path d="M29897 32751
L29897 32752
" />
<path d="M24050 38600
L23700 38600
" />
<path d="M29897 32752
L24050 38600
" />
<path d="M34329 18379
L34329 18329
" />
<path d="M32194 26105
L33250 25050
" />
<path d="M33250 25050
L33250 24600
" />
<path d="M32159 26105
L32194 26105
" />
<path d="M33250 24600
L33250 23550
" />
<path d="M33250 22668
L34329 21588
" />
<path d="M34329 21588
L34329 18379
" />
<path d="M33250 23550
L33250 22668
" />
<path d="M32200 16200
L32200 15500
" />
<path d="M34329 18329
L32200 16200
" />
<path d="M32200 15650
L32200 15500
" />
<path d="M24595 37600
L23700 37600
" />
<path d="M29678 32532
L29663 32532
" />
<path d="M29663 32532
L24595 37600
" />
<path d="M34351 28297
L34352 28297
" />
</g>
<g style="fill:#000000; fill-opacity:0.0; 
stroke:#000000; stroke-width:250; stroke-opacity:1; 
stroke-linecap:round; stroke-linejoin:round;">
<path d="M36200 25100
L37700 23600
" />
</g>
<g style="fill:#000000; fill-opacity:0.0; 
stroke:#000000; stroke-width:200; stroke-opacity:1; 
stroke-linecap:round; stroke-linejoin:round;">
<path d="M36200 26450
L36200 25100
" />
<path d="M34352 28297
L36200 26450
" />
</g>
<g style="fill:#000000; fill-opacity:0.0; 
stroke:#000000; stroke-width:250; stroke-opacity:1; 
stroke-linecap:round; stroke-linejoin:round;">
<path d="M23700 22600
L24100 22600
" />
</g>
<g style="fill:#000000; fill-opacity:0.0; 
stroke:#000000; stroke-width:200; stroke-opacity:1; 
stroke-linecap:round; stroke-linejoin:round;">
<path d="M24450 22950
L24450 23507
" />
</g>
<g style="fill:#000000; fill-opacity:0.0; 
stroke:#000000; stroke-width:250; stroke-opacity:1; 
stroke-linecap:round; stroke-linejoin:round;">
<path d="M24100 22600
L24450 22950
" />
</g>
<g style="fill:#000000; fill-opacity:0.0; 
stroke:#000000; stroke-width:200; stroke-opacity:1; 
stroke-linecap:round; stroke-linejoin:round;">
<path d="M24450 23507
L28144 27201
" />
</g>
<g style="fill:#000000; fill-opacity:0.0; 
stroke:#000000; stroke-width:250; stroke-opacity:1; 
stroke-linecap:round; stroke-linejoin:round;">
<path d="M23200 15500
L23200 18150
" />
</g>
<g style="fill:#000000; fill-opacity:0.0; 
stroke:#000000; stroke-width:200; stroke-opacity:1; 
stroke-linecap:round; stroke-linejoin:round;">
<path d="M28363 26963
L24850 23450
" />
<path d="M24850 23450
L24850 22800
" />
</g>
<g style="fill:#000000; fill-opacity:0.0; 
stroke:#000000; stroke-width:250; stroke-opacity:1; 
stroke-linecap:round; stroke-linejoin:round;">
<path d="M24600 19550
L23200 18150
" />
</g>
<g style="fill:#000000; fill-opacity:0.0; 
stroke:#000000; stroke-width:200; stroke-opacity:1; 
stroke-linecap:round; stroke-linejoin:round;">
<path d="M28363 26963
L28363 26982
" />
<path d="M24850 22600
L24600 22350
" />
<path d="M24600 22350
L24600 19550
" />
<path d="M24850 22800
L24850 22600
" />
</g>
<g style="fill:#000000; fill-opacity:0.0; 
stroke:#000000; stroke-width:250; stroke-opacity:1; 
stroke-linecap:round; stroke-linejoin:round;">
<path d="M24200 15500
L24200 18250
" />
</g>
<g style="fill:#000000; fill-opacity:0.0; 
stroke:#000000; stroke-width:200; stroke-opacity:1; 
stroke-linecap:round; stroke-linejoin:round;">
<path d="M28582 26732
L25200 23350
" />
<path d="M25200 23350
L25200 22450
" />
<path d="M25200 22450
L24950 22200
" />
<path d="M24950 22200
L24950 19000
" />
</g>
<g style="fill:#000000; fill-opacity:0.0; 
stroke:#000000; stroke-width:250; stroke-opacity:1; 
stroke-linecap:round; stroke-linejoin:round;">
<path d="M24950 19000
L24200 18250
" />
</g>
<g style="fill:#000000; fill-opacity:0.0; 
stroke:#000000; stroke-width:200; stroke-opacity:1; 
stroke-linecap:round; stroke-linejoin:round;">
<path d="M28582 26732
L28582 26763
" />
</g>
<g style="fill:#000000; fill-opacity:0.0; 
stroke:#000000; stroke-width:250; stroke-opacity:1; 
stroke-linecap:round; stroke-linejoin:round;">
<path d="M25200 15500
L25200 17500
" />
</g>
<g style="fill:#000000; fill-opacity:0.0; 
stroke:#000000; stroke-width:200; stroke-opacity:1; 
stroke-linecap:round; stroke-linejoin:round;">
<path d="M28794 26544
L25550 23300
" />
<path d="M25550 23300
L25550 17850
" />
</g>
<g style="fill:#000000; fill-opacity:0.0; 
stroke:#000000; stroke-width:250; stroke-opacity:1; 
stroke-linecap:round; stroke-linejoin:round;">
<path d="M25550 17850
L25200 17500
" />
</g>
<g style="fill:#000000; fill-opacity:0.0; 
stroke:#000000; stroke-width:200; stroke-opacity:1; 
stroke-linecap:round; stroke-linejoin:round;">
<path d="M28794 26544
L28801 26544
" />
<path d="M25900 23200
L25900 17300
" />
<path d="M29020 26320
L25900 23200
" />
<path d="M29020 26324
L29020 26320
" />
</g>
<g style="fill:#000000; fill-opacity:0.0; 
stroke:#000000; stroke-width:250; stroke-opacity:1; 
stroke-linecap:round; stroke-linejoin:round;">
<path d="M26200 17000
L26200 15500
" />
<path d="M25900 17300
L26200 17000
" />
</g>
<g style="fill:#000000; fill-opacity:0.0; 
stroke:#000000; stroke-width:200; stroke-opacity:1; 
stroke-linecap:round; stroke-linejoin:round;">
<path d="M26250 18400
L26250 18150
" />
<path d="M27200 17200
L27200 15500
" />
<path d="M26250 18150
L27200 17200
" />
<path d="M26250 19000
L26250 18400
" />
<path d="M29240 26105
L29240 26090
" />
<path d="M26250 23100
L26250 19000
" />
<path d="M29240 26090
L26250 23100
" />
<path d="M27242 31900
L28144 30998
" />
<path d="M26650 31900
L27242 31900
" />
<path d="M25850 32700
L26650 31900
" />
<path d="M28372 31245
L28363 31217
" />
<path d="M26600 32650
L27000 32250
" />
<path d="M27000 32250
L27368 32250
" />
<path d="M27368 32250
L28372 31245
" />
<path d="M34571 28516
L34583 28516
" />
<path d="M37700 24700
L37700 24600
" />
<path d="M36550 25850
L37700 24700
" />
<path d="M36550 26550
L36550 25850
" />
<path d="M34583 28516
L36550 26550
" />
<path d="M26828 29683
L26816 29683
" />
</g>
<g style="fill:#000000; fill-opacity:0.0; 
stroke:#000000; stroke-width:250; stroke-opacity:1; 
stroke-linecap:round; stroke-linejoin:round;">
<path d="M25100 29600
L23700 29600
" />
</g>
<g style="fill:#000000; fill-opacity:0.0; 
stroke:#000000; stroke-width:200; stroke-opacity:1; 
stroke-linecap:round; stroke-linejoin:round;">
<path d="M25700 30200
L25100 29600
" />
<path d="M26300 30200
L25700 30200
" />
<path d="M26816 29683
L26300 30200
" />
</g>
<g style="fill:#000000; fill-opacity:0.0; 
stroke:#000000; stroke-width:250; stroke-opacity:1; 
stroke-linecap:round; stroke-linejoin:round;">
<path d="M37700 34600
L36000 34600
" />
</g>
<g style="fill:#000000; fill-opacity:0.0; 
stroke:#000000; stroke-width:200; stroke-opacity:1; 
stroke-linecap:round; stroke-linejoin:round;">
<path d="M35800 34400
L36000 34600
" />
<path d="M32836 31436
L32817 31436
" />
<path d="M32836 31436
L35450 34050
" />
<path d="M35450 34050
L35800 34400
" />
<path d="M34850 32600
L34850 32618
" />
<path d="M37500 32600
L37700 32600
" />
<path d="M36950 33150
L37500 32600
" />
<path d="M35381 33150
L36950 33150
" />
<path d="M34850 32618
L35381 33150
" />
<path d="M33255 30998
L33255 31005
" />
<path d="M33255 31005
L34850 32600
" />
<path d="M24550 39600
L23700 39600
" />
<path d="M25600 38550
L24550 39600
" />
<path d="M25600 37500
L25600 38550
" />
<path d="M30116 32971
L30116 32983
" />
<path d="M30116 32983
L25600 37500
" />
</g> 
</svg>
