<?xml version="1.0" standalone="no"?>
 <!DOCTYPE svg PUBLIC "-//W3C//DTD SVG 1.1//EN" 
 "http://www.w3.org/Graphics/SVG/1.1/DTD/svg11.dtd"> 
<svg xmlns="http://www.w3.org/2000/svg" version="1.1" 
    width="29.7002cm" height="21.0007cm" viewBox="0 0 116930 82680 ">
<title>SVG Picture created as ATMega128_Breakout-F_SilkS.svg date 2015/11/03 13:42:10 </title>
  <desc>Picture generated by PCBNEW </desc>
<g style="fill:#000000; fill-opacity:1;stroke:#000000; stroke-opacity:1;
stroke-linecap:round; stroke-linejoin:round; "
 transform="translate(0 0) scale(1 1)">
</g>
<g style="fill:#000000; fill-opacity:0.0; 
stroke:#000000; stroke-width:39.3701; stroke-opacity:1; 
stroke-linecap:round; stroke-linejoin:round;">
<path d="M22637 43110
L22637 14566
" />
<path d="M23622 44094
L37795 44094
" />
<path d="M38779 43110
L38779 14566
" />
<path d="M22637.8 43110.2 A984.252 984.252 0.0 0 0 23622 44094.5 " />
<path d="M37795.3 44094.5 A984.252 984.252 0.0 0 0 38779.5 43110.2 " />
<path d="M22637 14566
L38779 14566
" />
</g>
<g style="fill:#000000; fill-opacity:0.0; 
stroke:#000000; stroke-width:87.5; stroke-opacity:1; 
stroke-linecap:round; stroke-linejoin:round;">
<path d="M25583 33841
L25566 33825
L25533 33775
L25516 33741
L25500 33691
L25483 33608
L25483 33541
L25500 33458
L25516 33408
L25533 33375
L25566 33325
L25583 33308
" />
<path d="M25700 33691
L25750 33708
L25833 33708
L25866 33691
L25883 33675
L25900 33641
L25900 33608
L25883 33575
L25866 33558
L25833 33541
L25766 33525
L25733 33508
L25716 33491
L25700 33458
L25700 33425
L25716 33391
L25733 33375
L25766 33358
L25850 33358
L25900 33375
" />
<path d="M26050 33708
L26050 33358
L26133 33358
L26183 33375
L26216 33408
L26233 33441
L26250 33508
L26250 33558
L26233 33625
L26216 33658
L26183 33691
L26133 33708
L26050 33708
" />
<path d="M26383 33608
L26550 33608
" />
<path d="M26350 33708
L26466 33358
L26583 33708
" />
<path d="M26950 33341
L26650 33791
" />
<path d="M27066 33708
L27066 33358
" />
<path d="M27233 33708
L27233 33358
L27433 33708
L27433 33358
" />
<path d="M27550 33358
L27750 33358
" />
<path d="M27650 33708
L27650 33358
" />
<path d="M28066 33708
L27949 33541
" />
<path d="M27866 33708
L27866 33358
L27999 33358
L28033 33375
L28049 33391
L28066 33425
L28066 33475
L28049 33508
L28033 33525
L27999 33541
L27866 33541
" />
<path d="M28399 33708
L28199 33708
" />
<path d="M28299 33708
L28299 33358
L28266 33408
L28233 33441
L28199 33458
" />
<path d="M28516 33841
L28533 33825
L28566 33775
L28583 33741
L28600 33691
L28616 33608
L28616 33541
L28600 33458
L28583 33408
L28566 33375
L28533 33325
L28516 33308
" />
<path d="M25591 32841
L25575 32825
L25541 32775
L25525 32741
L25508 32691
L25491 32608
L25491 32541
L25508 32458
L25525 32408
L25541 32375
L25575 32325
L25591 32308
" />
<path d="M25708 32691
L25758 32708
L25841 32708
L25875 32691
L25891 32675
L25908 32641
L25908 32608
L25891 32575
L25875 32558
L25841 32541
L25775 32525
L25741 32508
L25725 32491
L25708 32458
L25708 32425
L25725 32391
L25741 32375
L25775 32358
L25858 32358
L25908 32375
" />
<path d="M26258 32675
L26241 32691
L26191 32708
L26158 32708
L26108 32691
L26075 32658
L26058 32625
L26041 32558
L26041 32508
L26058 32441
L26075 32408
L26108 32375
L26158 32358
L26191 32358
L26241 32375
L26258 32391
" />
<path d="M26575 32708
L26408 32708
L26408 32358
" />
<path d="M26941 32341
L26641 32791
" />
<path d="M27058 32708
L27058 32358
" />
<path d="M27225 32708
L27225 32358
L27425 32708
L27425 32358
" />
<path d="M27541 32358
L27741 32358
" />
<path d="M27641 32708
L27641 32358
" />
<path d="M28058 32708
L27941 32541
" />
<path d="M27858 32708
L27858 32358
L27991 32358
L28025 32375
L28041 32391
L28058 32425
L28058 32475
L28041 32508
L28025 32525
L27991 32541
L27858 32541
" />
<path d="M28275 32358
L28308 32358
L28341 32375
L28358 32391
L28375 32425
L28391 32491
L28391 32575
L28375 32641
L28358 32675
L28341 32691
L28308 32708
L28275 32708
L28241 32691
L28225 32675
L28208 32641
L28191 32575
L28191 32491
L28208 32425
L28225 32391
L28241 32375
L28275 32358
" />
<path d="M28508 32841
L28525 32825
L28558 32775
L28575 32741
L28591 32691
L28608 32608
L28608 32541
L28591 32458
L28575 32408
L28558 32375
L28525 32325
L28508 32308
" />
</g>
<g style="fill:#000000; fill-opacity:0.0; 
stroke:#000000; stroke-width:118.11; stroke-opacity:1; 
stroke-linecap:round; stroke-linejoin:round;">
<path d="M29226 40642
L28726 40642
L29226 40357
L28726 40357
" />
<path d="M29178 39833
L29202 39857
L29226 39928
L29226 39976
L29202 40047
L29154 40095
L29107 40119
L29011 40142
L28940 40142
L28845 40119
L28797 40095
L28750 40047
L28726 39976
L28726 39928
L28750 39857
L28773 39833
" />
<path d="M33226 40642
L32726 40642
L33226 40357
L32726 40357
" />
<path d="M33178 39833
L33202 39857
L33226 39928
L33226 39976
L33202 40047
L33154 40095
L33107 40119
L33011 40142
L32940 40142
L32845 40119
L32797 40095
L32750 40047
L32726 39976
L32726 39928
L32750 39857
L32773 39833
" />
</g>
<g style="fill:#000000; fill-opacity:0.0; 
stroke:#000000; stroke-width:100; stroke-opacity:1; 
stroke-linecap:round; stroke-linejoin:round;">
<path d="M36271 42247
L36290 42190
L36309 42171
L36347 42152
L36404 42152
L36442 42171
L36461 42190
L36480 42228
L36480 42380
L36080 42380
L36080 42247
L36100 42209
L36119 42190
L36157 42171
L36195 42171
L36233 42190
L36252 42209
L36271 42247
L36271 42380
" />
<path d="M36480 41923
L36461 41961
L36442 41980
L36404 41999
L36290 41999
L36252 41980
L36233 41961
L36214 41923
L36214 41866
L36233 41828
L36252 41809
L36290 41790
L36404 41790
L36442 41809
L36461 41828
L36480 41866
L36480 41923
" />
<path d="M36480 41561
L36461 41599
L36442 41619
L36404 41638
L36290 41638
L36252 41619
L36233 41599
L36214 41561
L36214 41504
L36233 41466
L36252 41447
L36290 41428
L36404 41428
L36442 41447
L36461 41466
L36480 41504
L36480 41561
" />
<path d="M36214 41314
L36214 41161
" />
<path d="M36080 41257
L36423 41257
L36461 41238
L36480 41199
L36480 41161
" />
</g>
<g style="fill:#000000; fill-opacity:0.0; 
stroke:#000000; stroke-width:118.11; stroke-opacity:1; 
stroke-linecap:round; stroke-linejoin:round;">
<path d="M27850 40430
L27826 40478
L27826 40550
L27850 40621
L27897 40669
L27945 40692
L28040 40716
L28111 40716
L28207 40692
L28254 40669
L28302 40621
L28326 40550
L28326 40502
L28302 40430
L28278 40407
L28111 40407
L28111 40502
" />
<path d="M28326 40192
L27826 40192
L28326 39907
L27826 39907
" />
<path d="M28326 39669
L27826 39669
L27826 39550
L27850 39478
L27897 39430
L27945 39407
L28040 39383
L28111 39383
L28207 39407
L28254 39430
L28302 39478
L28326 39550
L28326 39669
" />
</g>
<g style="fill:#000000; fill-opacity:0.0; 
stroke:#000000; stroke-width:125; stroke-opacity:1; 
stroke-linecap:round; stroke-linejoin:round;">
<path d="M29726 40395
L29726 40633
L29964 40657
L29940 40633
L29916 40585
L29916 40466
L29940 40419
L29964 40395
L30011 40371
L30130 40371
L30178 40395
L30202 40419
L30226 40466
L30226 40585
L30202 40633
L30178 40657
" />
<path d="M29726 40228
L30226 40061
L29726 39895
" />
</g>
<g style="fill:#000000; fill-opacity:0.0; 
stroke:#000000; stroke-width:118.11; stroke-opacity:1; 
stroke-linecap:round; stroke-linejoin:round;">
<path d="M34326 40721
L33826 40721
L33826 40602
L33850 40530
L33897 40483
L33945 40459
L34040 40435
L34111 40435
L34207 40459
L34254 40483
L34302 40530
L34326 40602
L34326 40721
" />
<path d="M33826 40292
L33826 40007
" />
<path d="M34326 40149
L33826 40149
" />
<path d="M34326 39554
L34088 39721
" />
<path d="M34326 39840
L33826 39840
L33826 39650
L33850 39602
L33873 39578
L33921 39554
L33992 39554
L34040 39578
L34064 39602
L34088 39650
L34088 39840
" />
<path d="M31776 40730
L31776 40445
" />
<path d="M32276 40588
L31776 40588
" />
<path d="M31776 40326
L32276 39992
" />
<path d="M31776 39992
L32276 40326
" />
<path d="M31326 40433
L31088 40600
" />
<path d="M31326 40719
L30826 40719
L30826 40528
L30850 40480
L30873 40457
L30921 40433
L30992 40433
L31040 40457
L31064 40480
L31088 40528
L31088 40719
" />
<path d="M30826 40266
L31326 39933
" />
<path d="M30826 39933
L31326 40266
" />
<path d="M26921 23157
L27121 23157
" />
<path d="M27207 23471
L26921 23471
L26921 22871
L27207 22871
" />
<path d="M27407 23471
L27721 23071
" />
<path d="M27407 23071
L27721 23471
" />
<path d="M27949 23071
L27949 23671
" />
<path d="M27949 23100
L28007 23071
L28121 23071
L28178 23100
L28207 23128
L28235 23185
L28235 23357
L28207 23414
L28178 23442
L28121 23471
L28007 23471
L27949 23442
" />
<path d="M28578 23471
L28521 23442
L28492 23385
L28492 22871
" />
<path d="M28892 23471
L28835 23442
L28807 23414
L28778 23357
L28778 23185
L28807 23128
L28835 23100
L28892 23071
L28978 23071
L29035 23100
L29064 23128
L29092 23185
L29092 23357
L29064 23414
L29035 23442
L28978 23471
L28892 23471
" />
<path d="M29349 23471
L29349 23071
" />
<path d="M29349 23185
L29378 23128
L29407 23100
L29464 23071
L29521 23071
" />
<path d="M29950 23442
L29892 23471
L29778 23471
L29721 23442
L29692 23385
L29692 23157
L29721 23100
L29778 23071
L29892 23071
L29950 23100
L29978 23157
L29978 23214
L29692 23271
" />
<path d="M30664 23300
L30950 23300
" />
<path d="M30607 23471
L30807 22871
L31007 23471
" />
<path d="M31121 22871
L31464 22871
" />
<path d="M31292 23471
L31292 22871
" />
<path d="M31664 23471
L31664 22871
L31864 23300
L32064 22871
L32064 23471
" />
<path d="M32578 23442
L32521 23471
L32407 23471
L32350 23442
L32321 23385
L32321 23157
L32350 23100
L32407 23071
L32521 23071
L32578 23100
L32607 23157
L32607 23214
L32321 23271
" />
<path d="M33121 23071
L33121 23557
L33092 23614
L33064 23642
L33007 23671
L32921 23671
L32864 23642
" />
<path d="M33121 23442
L33064 23471
L32950 23471
L32892 23442
L32864 23414
L32835 23357
L32835 23185
L32864 23128
L32892 23100
L32950 23071
L33064 23071
L33121 23100
" />
<path d="M33664 23471
L33664 23157
L33635 23100
L33578 23071
L33464 23071
L33407 23100
" />
<path d="M33664 23442
L33607 23471
L33464 23471
L33407 23442
L33378 23385
L33378 23328
L33407 23271
L33464 23242
L33607 23242
L33664 23214
" />
<path d="M34264 23471
L33921 23471
" />
<path d="M34092 23471
L34092 22871
L34035 22957
L33978 23014
L33921 23042
" />
<path d="M34492 22928
L34521 22900
L34578 22871
L34721 22871
L34778 22900
L34807 22928
L34835 22985
L34835 23042
L34807 23128
L34464 23471
L34835 23471
" />
<path d="M35178 23128
L35121 23100
L35092 23071
L35064 23014
L35064 22985
L35092 22928
L35121 22900
L35178 22871
L35292 22871
L35350 22900
L35378 22928
L35407 22985
L35407 23014
L35378 23071
L35350 23100
L35292 23128
L35178 23128
L35121 23157
L35092 23185
L35064 23242
L35064 23357
L35092 23414
L35121 23442
L35178 23471
L35292 23471
L35350 23442
L35378 23414
L35407 23357
L35407 23242
L35378 23185
L35350 23157
L35292 23128
" />
</g>
<g style="fill:#000000; fill-opacity:0.0; 
stroke:#000000; stroke-width:100; stroke-opacity:1; 
stroke-linecap:round; stroke-linejoin:round;">
<path d="M36195 21500
L36157 21480
L36100 21480
L36042 21500
L36004 21538
L35985 21576
L35966 21652
L35966 21709
L35985 21785
L36004 21823
L36042 21861
L36100 21880
L36138 21880
L36195 21861
L36214 21842
L36214 21709
L36138 21709
" />
<path d="M36385 21880
L36385 21480
L36614 21880
L36614 21480
" />
<path d="M36804 21880
L36804 21480
L36900 21480
L36957 21500
L36995 21538
L37014 21576
L37033 21652
L37033 21709
L37014 21785
L36995 21823
L36957 21861
L36900 21880
L36804 21880
" />
<path d="M35966 20480
L36100 20880
L36233 20480
" />
<path d="M36595 20842
L36576 20861
L36519 20880
L36480 20880
L36423 20861
L36385 20823
L36366 20785
L36347 20709
L36347 20652
L36366 20576
L36385 20538
L36423 20500
L36480 20480
L36519 20480
L36576 20500
L36595 20519
" />
<path d="M36995 20842
L36976 20861
L36919 20880
L36880 20880
L36823 20861
L36785 20823
L36766 20785
L36747 20709
L36747 20652
L36766 20576
L36785 20538
L36823 20500
L36880 20480
L36919 20480
L36976 20500
L36995 20519
" />
<path d="M24385 21380
L24614 21380
" />
<path d="M24500 21780
L24500 21380
" />
<path d="M24709 21380
L24976 21780
" />
<path d="M24976 21380
L24709 21780
" />
<path d="M25204 21380
L25280 21380
L25319 21400
L25357 21438
L25376 21514
L25376 21647
L25357 21723
L25319 21761
L25280 21780
L25204 21780
L25166 21761
L25128 21723
L25109 21647
L25109 21514
L25128 21438
L25166 21400
L25204 21380
" />
<path d="M24642 20780
L24509 20590
" />
<path d="M24414 20780
L24414 20380
L24566 20380
L24604 20400
L24623 20419
L24642 20457
L24642 20514
L24623 20552
L24604 20571
L24566 20590
L24414 20590
" />
<path d="M24776 20380
L25042 20780
" />
<path d="M25042 20380
L24776 20780
" />
<path d="M25271 20380
L25309 20380
L25347 20400
L25366 20419
L25385 20457
L25404 20533
L25404 20628
L25385 20704
L25366 20742
L25347 20761
L25309 20780
L25271 20780
L25233 20761
L25214 20742
L25195 20704
L25176 20628
L25176 20533
L25195 20457
L25214 20419
L25233 20400
L25271 20380
" />
<path d="M35888 31780
L35888 31380
" />
<path d="M36078 31780
L36078 31380
L36307 31780
L36307 31380
" />
<path d="M36440 31380
L36669 31380
" />
<path d="M36554 31780
L36554 31380
" />
<path d="M37030 31780
L36897 31590
" />
<path d="M36802 31780
L36802 31380
L36954 31380
L36992 31400
L37011 31419
L37030 31457
L37030 31514
L37011 31552
L36992 31571
L36954 31590
L36802 31590
" />
<path d="M36285 30780
L36285 30380
L36514 30780
L36514 30380
" />
<path d="M36933 30742
L36914 30761
L36857 30780
L36819 30780
L36761 30761
L36723 30723
L36704 30685
L36685 30609
L36685 30552
L36704 30476
L36723 30438
L36761 30400
L36819 30380
L36857 30380
L36914 30400
L36933 30419
" />
<path d="M24485 31780
L24485 31380
L24714 31780
L24714 31380
" />
<path d="M25133 31742
L25114 31761
L25057 31780
L25019 31780
L24961 31761
L24923 31723
L24904 31685
L24885 31609
L24885 31552
L24904 31476
L24923 31438
L24961 31400
L25019 31380
L25057 31380
L25114 31400
L25133 31419
" />
<path d="M24680 30780
L24547 30590
" />
<path d="M24452 30780
L24452 30380
L24604 30380
L24642 30400
L24661 30419
L24680 30457
L24680 30514
L24661 30552
L24642 30571
L24604 30590
L24452 30590
" />
<path d="M24833 30761
L24890 30780
L24985 30780
L25023 30761
L25042 30742
L25061 30704
L25061 30666
L25042 30628
L25023 30609
L24985 30590
L24909 30571
L24871 30552
L24852 30533
L24833 30495
L24833 30457
L24852 30419
L24871 30400
L24909 30380
L25004 30380
L25061 30400
" />
<path d="M25176 30380
L25404 30380
" />
<path d="M25290 30780
L25290 30380
" />
<path d="M36004 32880
L36004 32480
L36157 32480
L36195 32500
L36214 32519
L36233 32557
L36233 32614
L36214 32652
L36195 32671
L36157 32690
L36004 32690
" />
<path d="M36633 32842
L36614 32861
L36557 32880
L36519 32880
L36461 32861
L36423 32823
L36404 32785
L36385 32709
L36385 32652
L36404 32576
L36423 32538
L36461 32500
L36519 32480
L36557 32480
L36614 32500
L36633 32519
" />
<path d="M36766 32480
L37033 32480
L36861 32880
" />
<path d="M36004 33880
L36004 33480
L36157 33480
L36195 33500
L36214 33519
L36233 33557
L36233 33614
L36214 33652
L36195 33671
L36157 33690
L36004 33690
" />
<path d="M36633 33842
L36614 33861
L36557 33880
L36519 33880
L36461 33861
L36423 33823
L36404 33785
L36385 33709
L36385 33652
L36404 33576
L36423 33538
L36461 33500
L36519 33480
L36557 33480
L36614 33500
L36633 33519
" />
<path d="M36976 33480
L36900 33480
L36861 33500
L36842 33519
L36804 33576
L36785 33652
L36785 33804
L36804 33842
L36823 33861
L36861 33880
L36938 33880
L36976 33861
L36995 33842
L37014 33804
L37014 33709
L36995 33671
L36976 33652
L36938 33633
L36861 33633
L36823 33652
L36804 33671
L36785 33709
" />
<path d="M36004 34880
L36004 34480
L36157 34480
L36195 34500
L36214 34519
L36233 34557
L36233 34614
L36214 34652
L36195 34671
L36157 34690
L36004 34690
" />
<path d="M36633 34842
L36614 34861
L36557 34880
L36519 34880
L36461 34861
L36423 34823
L36404 34785
L36385 34709
L36385 34652
L36404 34576
L36423 34538
L36461 34500
L36519 34480
L36557 34480
L36614 34500
L36633 34519
" />
<path d="M36995 34480
L36804 34480
L36785 34671
L36804 34652
L36842 34633
L36938 34633
L36976 34652
L36995 34671
L37014 34709
L37014 34804
L36995 34842
L36976 34861
L36938 34880
L36842 34880
L36804 34861
L36785 34842
" />
<path d="M36004 35880
L36004 35480
L36157 35480
L36195 35500
L36214 35519
L36233 35557
L36233 35614
L36214 35652
L36195 35671
L36157 35690
L36004 35690
" />
<path d="M36633 35842
L36614 35861
L36557 35880
L36519 35880
L36461 35861
L36423 35823
L36404 35785
L36385 35709
L36385 35652
L36404 35576
L36423 35538
L36461 35500
L36519 35480
L36557 35480
L36614 35500
L36633 35519
" />
<path d="M36976 35614
L36976 35880
" />
<path d="M36880 35461
L36785 35747
L37033 35747
" />
<path d="M36004 36780
L36004 36380
L36157 36380
L36195 36400
L36214 36419
L36233 36457
L36233 36514
L36214 36552
L36195 36571
L36157 36590
L36004 36590
" />
<path d="M36633 36742
L36614 36761
L36557 36780
L36519 36780
L36461 36761
L36423 36723
L36404 36685
L36385 36609
L36385 36552
L36404 36476
L36423 36438
L36461 36400
L36519 36380
L36557 36380
L36614 36400
L36633 36419
" />
<path d="M36766 36380
L37014 36380
L36880 36533
L36938 36533
L36976 36552
L36995 36571
L37014 36609
L37014 36704
L36995 36742
L36976 36761
L36938 36780
L36823 36780
L36785 36761
L36766 36742
" />
<path d="M36004 37880
L36004 37480
L36157 37480
L36195 37500
L36214 37519
L36233 37557
L36233 37614
L36214 37652
L36195 37671
L36157 37690
L36004 37690
" />
<path d="M36633 37842
L36614 37861
L36557 37880
L36519 37880
L36461 37861
L36423 37823
L36404 37785
L36385 37709
L36385 37652
L36404 37576
L36423 37538
L36461 37500
L36519 37480
L36557 37480
L36614 37500
L36633 37519
" />
<path d="M36785 37519
L36804 37500
L36842 37480
L36938 37480
L36976 37500
L36995 37519
L37014 37557
L37014 37595
L36995 37652
L36766 37880
L37014 37880
" />
<path d="M36004 38880
L36004 38480
L36157 38480
L36195 38500
L36214 38519
L36233 38557
L36233 38614
L36214 38652
L36195 38671
L36157 38690
L36004 38690
" />
<path d="M36633 38842
L36614 38861
L36557 38880
L36519 38880
L36461 38861
L36423 38823
L36404 38785
L36385 38709
L36385 38652
L36404 38576
L36423 38538
L36461 38500
L36519 38480
L36557 38480
L36614 38500
L36633 38519
" />
<path d="M37014 38880
L36785 38880
" />
<path d="M36900 38880
L36900 38480
L36861 38538
L36823 38576
L36785 38595
" />
<path d="M36004 39880
L36004 39480
L36157 39480
L36195 39500
L36214 39519
L36233 39557
L36233 39614
L36214 39652
L36195 39671
L36157 39690
L36004 39690
" />
<path d="M36633 39842
L36614 39861
L36557 39880
L36519 39880
L36461 39861
L36423 39823
L36404 39785
L36385 39709
L36385 39652
L36404 39576
L36423 39538
L36461 39500
L36519 39480
L36557 39480
L36614 39500
L36633 39519
" />
<path d="M36880 39480
L36919 39480
L36957 39500
L36976 39519
L36995 39557
L37014 39633
L37014 39728
L36995 39804
L36976 39842
L36957 39861
L36919 39880
L36880 39880
L36842 39861
L36823 39842
L36804 39804
L36785 39728
L36785 39633
L36804 39557
L36823 39519
L36842 39500
L36880 39480
" />
<path d="M36033 29780
L36033 29380
L36185 29380
L36223 29400
L36242 29419
L36261 29457
L36261 29514
L36242 29552
L36223 29571
L36185 29590
L36033 29590
" />
<path d="M36414 29666
L36604 29666
" />
<path d="M36376 29780
L36509 29380
L36642 29780
" />
<path d="M36738 29380
L37004 29380
L36833 29780
" />
<path d="M36033 28780
L36033 28380
L36185 28380
L36223 28400
L36242 28419
L36261 28457
L36261 28514
L36242 28552
L36223 28571
L36185 28590
L36033 28590
" />
<path d="M36414 28666
L36604 28666
" />
<path d="M36376 28780
L36509 28380
L36642 28780
" />
<path d="M36947 28380
L36871 28380
L36833 28400
L36814 28419
L36776 28476
L36757 28552
L36757 28704
L36776 28742
L36795 28761
L36833 28780
L36909 28780
L36947 28761
L36966 28742
L36985 28704
L36985 28609
L36966 28571
L36947 28552
L36909 28533
L36833 28533
L36795 28552
L36776 28571
L36757 28609
" />
<path d="M36033 27780
L36033 27380
L36185 27380
L36223 27400
L36242 27419
L36261 27457
L36261 27514
L36242 27552
L36223 27571
L36185 27590
L36033 27590
" />
<path d="M36414 27666
L36604 27666
" />
<path d="M36376 27780
L36509 27380
L36642 27780
" />
<path d="M36966 27380
L36776 27380
L36757 27571
L36776 27552
L36814 27533
L36909 27533
L36947 27552
L36966 27571
L36985 27609
L36985 27704
L36966 27742
L36947 27761
L36909 27780
L36814 27780
L36776 27761
L36757 27742
" />
<path d="M36033 26780
L36033 26380
L36185 26380
L36223 26400
L36242 26419
L36261 26457
L36261 26514
L36242 26552
L36223 26571
L36185 26590
L36033 26590
" />
<path d="M36414 26666
L36604 26666
" />
<path d="M36376 26780
L36509 26380
L36642 26780
" />
<path d="M36947 26514
L36947 26780
" />
<path d="M36852 26361
L36757 26647
L37004 26647
" />
<path d="M36033 25780
L36033 25380
L36185 25380
L36223 25400
L36242 25419
L36261 25457
L36261 25514
L36242 25552
L36223 25571
L36185 25590
L36033 25590
" />
<path d="M36414 25666
L36604 25666
" />
<path d="M36376 25780
L36509 25380
L36642 25780
" />
<path d="M36738 25380
L36985 25380
L36852 25533
L36909 25533
L36947 25552
L36966 25571
L36985 25609
L36985 25704
L36966 25742
L36947 25761
L36909 25780
L36795 25780
L36757 25761
L36738 25742
" />
<path d="M36033 24780
L36033 24380
L36185 24380
L36223 24400
L36242 24419
L36261 24457
L36261 24514
L36242 24552
L36223 24571
L36185 24590
L36033 24590
" />
<path d="M36414 24666
L36604 24666
" />
<path d="M36376 24780
L36509 24380
L36642 24780
" />
<path d="M36757 24419
L36776 24400
L36814 24380
L36909 24380
L36947 24400
L36966 24419
L36985 24457
L36985 24495
L36966 24552
L36738 24780
L36985 24780
" />
<path d="M36033 23780
L36033 23380
L36185 23380
L36223 23400
L36242 23419
L36261 23457
L36261 23514
L36242 23552
L36223 23571
L36185 23590
L36033 23590
" />
<path d="M36414 23666
L36604 23666
" />
<path d="M36376 23780
L36509 23380
L36642 23780
" />
<path d="M36985 23780
L36757 23780
" />
<path d="M36871 23780
L36871 23380
L36833 23438
L36795 23476
L36757 23495
" />
<path d="M36033 22780
L36033 22380
L36185 22380
L36223 22400
L36242 22419
L36261 22457
L36261 22514
L36242 22552
L36223 22571
L36185 22590
L36033 22590
" />
<path d="M36414 22666
L36604 22666
" />
<path d="M36376 22780
L36509 22380
L36642 22780
" />
<path d="M36852 22380
L36890 22380
L36928 22400
L36947 22419
L36966 22457
L36985 22533
L36985 22628
L36966 22704
L36947 22742
L36928 22761
L36890 22780
L36852 22780
L36814 22761
L36795 22742
L36776 22704
L36757 22628
L36757 22533
L36776 22457
L36795 22419
L36814 22400
L36852 22380
" />
<path d="M24404 39780
L24404 39380
L24557 39380
L24595 39400
L24614 39419
L24633 39457
L24633 39514
L24614 39552
L24595 39571
L24557 39590
L24404 39590
" />
<path d="M24804 39780
L24804 39380
L24900 39380
L24957 39400
L24995 39438
L25014 39476
L25033 39552
L25033 39609
L25014 39685
L24995 39723
L24957 39761
L24900 39780
L24804 39780
" />
<path d="M25166 39380
L25433 39380
L25261 39780
" />
<path d="M24404 38780
L24404 38380
L24557 38380
L24595 38400
L24614 38419
L24633 38457
L24633 38514
L24614 38552
L24595 38571
L24557 38590
L24404 38590
" />
<path d="M24804 38780
L24804 38380
L24900 38380
L24957 38400
L24995 38438
L25014 38476
L25033 38552
L25033 38609
L25014 38685
L24995 38723
L24957 38761
L24900 38780
L24804 38780
" />
<path d="M25376 38380
L25300 38380
L25261 38400
L25242 38419
L25204 38476
L25185 38552
L25185 38704
L25204 38742
L25223 38761
L25261 38780
L25338 38780
L25376 38761
L25395 38742
L25414 38704
L25414 38609
L25395 38571
L25376 38552
L25338 38533
L25261 38533
L25223 38552
L25204 38571
L25185 38609
" />
<path d="M24404 37780
L24404 37380
L24557 37380
L24595 37400
L24614 37419
L24633 37457
L24633 37514
L24614 37552
L24595 37571
L24557 37590
L24404 37590
" />
<path d="M24804 37780
L24804 37380
L24900 37380
L24957 37400
L24995 37438
L25014 37476
L25033 37552
L25033 37609
L25014 37685
L24995 37723
L24957 37761
L24900 37780
L24804 37780
" />
<path d="M25395 37380
L25204 37380
L25185 37571
L25204 37552
L25242 37533
L25338 37533
L25376 37552
L25395 37571
L25414 37609
L25414 37704
L25395 37742
L25376 37761
L25338 37780
L25242 37780
L25204 37761
L25185 37742
" />
<path d="M24404 36780
L24404 36380
L24557 36380
L24595 36400
L24614 36419
L24633 36457
L24633 36514
L24614 36552
L24595 36571
L24557 36590
L24404 36590
" />
<path d="M24804 36780
L24804 36380
L24900 36380
L24957 36400
L24995 36438
L25014 36476
L25033 36552
L25033 36609
L25014 36685
L24995 36723
L24957 36761
L24900 36780
L24804 36780
" />
<path d="M25376 36514
L25376 36780
" />
<path d="M25280 36361
L25185 36647
L25433 36647
" />
<path d="M24354 35830
L24354 35430
L24507 35430
L24545 35450
L24564 35469
L24583 35507
L24583 35564
L24564 35602
L24545 35621
L24507 35640
L24354 35640
" />
<path d="M24754 35830
L24754 35430
L24850 35430
L24907 35450
L24945 35488
L24964 35526
L24983 35602
L24983 35659
L24964 35735
L24945 35773
L24907 35811
L24850 35830
L24754 35830
" />
<path d="M25116 35430
L25364 35430
L25230 35583
L25288 35583
L25326 35602
L25345 35621
L25364 35659
L25364 35754
L25345 35792
L25326 35811
L25288 35830
L25173 35830
L25135 35811
L25116 35792
" />
<path d="M25650 35983
L25630 35964
L25592 35907
L25573 35869
L25554 35811
L25535 35716
L25535 35640
L25554 35545
L25573 35488
L25592 35450
L25630 35392
L25650 35373
" />
<path d="M25745 35430
L25973 35430
" />
<path d="M25859 35830
L25859 35430
" />
<path d="M26069 35430
L26335 35830
" />
<path d="M26335 35430
L26069 35830
" />
<path d="M26697 35830
L26469 35830
" />
<path d="M26583 35830
L26583 35430
L26545 35488
L26507 35526
L26469 35545
" />
<path d="M26830 35983
L26850 35964
L26888 35907
L26907 35869
L26926 35811
L26945 35716
L26945 35640
L26926 35545
L26907 35488
L26888 35450
L26850 35392
L26830 35373
" />
<path d="M24357 34830
L24357 34430
L24509 34430
L24547 34450
L24566 34469
L24585 34507
L24585 34564
L24566 34602
L24547 34621
L24509 34640
L24357 34640
" />
<path d="M24757 34830
L24757 34430
L24852 34430
L24909 34450
L24947 34488
L24966 34526
L24985 34602
L24985 34659
L24966 34735
L24947 34773
L24909 34811
L24852 34830
L24757 34830
" />
<path d="M25138 34469
L25157 34450
L25195 34430
L25290 34430
L25328 34450
L25347 34469
L25366 34507
L25366 34545
L25347 34602
L25119 34830
L25366 34830
" />
<path d="M25652 34983
L25633 34964
L25595 34907
L25576 34869
L25557 34811
L25538 34716
L25538 34640
L25557 34545
L25576 34488
L25595 34450
L25633 34392
L25652 34373
" />
<path d="M26033 34830
L25900 34640
" />
<path d="M25804 34830
L25804 34430
L25957 34430
L25995 34450
L26014 34469
L26033 34507
L26033 34564
L26014 34602
L25995 34621
L25957 34640
L25804 34640
" />
<path d="M26166 34430
L26433 34830
" />
<path d="M26433 34430
L26166 34830
" />
<path d="M26795 34830
L26566 34830
" />
<path d="M26680 34830
L26680 34430
L26642 34488
L26604 34526
L26566 34545
" />
<path d="M26928 34983
L26947 34964
L26985 34907
L27004 34869
L27023 34811
L27042 34716
L27042 34640
L27023 34545
L27004 34488
L26985 34450
L26947 34392
L26928 34373
" />
<path d="M24404 33780
L24404 33380
L24557 33380
L24595 33400
L24614 33419
L24633 33457
L24633 33514
L24614 33552
L24595 33571
L24557 33590
L24404 33590
" />
<path d="M24804 33780
L24804 33380
L24900 33380
L24957 33400
L24995 33438
L25014 33476
L25033 33552
L25033 33609
L25014 33685
L24995 33723
L24957 33761
L24900 33780
L24804 33780
" />
<path d="M25414 33780
L25185 33780
" />
<path d="M25300 33780
L25300 33380
L25261 33438
L25223 33476
L25185 33495
" />
<path d="M24354 32780
L24354 32380
L24507 32380
L24545 32400
L24564 32419
L24583 32457
L24583 32514
L24564 32552
L24545 32571
L24507 32590
L24354 32590
" />
<path d="M24754 32780
L24754 32380
L24850 32380
L24907 32400
L24945 32438
L24964 32476
L24983 32552
L24983 32609
L24964 32685
L24945 32723
L24907 32761
L24850 32780
L24754 32780
" />
<path d="M25230 32380
L25269 32380
L25307 32400
L25326 32419
L25345 32457
L25364 32533
L25364 32628
L25345 32704
L25326 32742
L25307 32761
L25269 32780
L25230 32780
L25192 32761
L25173 32742
L25154 32704
L25135 32628
L25135 32533
L25154 32457
L25173 32419
L25192 32400
L25230 32380
" />
<path d="M24400 29830
L24400 29430
L24552 29430
L24590 29450
L24609 29469
L24628 29507
L24628 29564
L24609 29602
L24590 29621
L24552 29640
L24400 29640
" />
<path d="M24933 29621
L24990 29640
L25009 29659
L25028 29697
L25028 29754
L25009 29792
L24990 29811
L24952 29830
L24800 29830
L24800 29430
L24933 29430
L24971 29450
L24990 29469
L25009 29507
L25009 29545
L24990 29583
L24971 29602
L24933 29621
L24800 29621
" />
<path d="M25161 29430
L25428 29430
L25257 29830
" />
<path d="M25942 29430
L25942 29526
" />
<path d="M25847 29488
L25942 29526
L26038 29488
" />
<path d="M25885 29602
L25942 29526
L26000 29602
" />
<path d="M24400 28830
L24400 28430
L24552 28430
L24590 28450
L24609 28469
L24628 28507
L24628 28564
L24609 28602
L24590 28621
L24552 28640
L24400 28640
" />
<path d="M24933 28621
L24990 28640
L25009 28659
L25028 28697
L25028 28754
L25009 28792
L24990 28811
L24952 28830
L24800 28830
L24800 28430
L24933 28430
L24971 28450
L24990 28469
L25009 28507
L25009 28545
L24990 28583
L24971 28602
L24933 28621
L24800 28621
" />
<path d="M25371 28430
L25295 28430
L25257 28450
L25238 28469
L25200 28526
L25180 28602
L25180 28754
L25200 28792
L25219 28811
L25257 28830
L25333 28830
L25371 28811
L25390 28792
L25409 28754
L25409 28659
L25390 28621
L25371 28602
L25333 28583
L25257 28583
L25219 28602
L25200 28621
L25180 28659
" />
<path d="M25942 28430
L25942 28526
" />
<path d="M25847 28488
L25942 28526
L26038 28488
" />
<path d="M25885 28602
L25942 28526
L26000 28602
" />
<path d="M24400 27780
L24400 27380
L24552 27380
L24590 27400
L24609 27419
L24628 27457
L24628 27514
L24609 27552
L24590 27571
L24552 27590
L24400 27590
" />
<path d="M24933 27571
L24990 27590
L25009 27609
L25028 27647
L25028 27704
L25009 27742
L24990 27761
L24952 27780
L24800 27780
L24800 27380
L24933 27380
L24971 27400
L24990 27419
L25009 27457
L25009 27495
L24990 27533
L24971 27552
L24933 27571
L24800 27571
" />
<path d="M25390 27380
L25200 27380
L25180 27571
L25200 27552
L25238 27533
L25333 27533
L25371 27552
L25390 27571
L25409 27609
L25409 27704
L25390 27742
L25371 27761
L25333 27780
L25238 27780
L25200 27761
L25180 27742
" />
<path d="M25942 27380
L25942 27476
" />
<path d="M25847 27438
L25942 27476
L26038 27438
" />
<path d="M25885 27552
L25942 27476
L26000 27552
" />
<path d="M24350 26780
L24350 26380
L24502 26380
L24540 26400
L24559 26419
L24578 26457
L24578 26514
L24559 26552
L24540 26571
L24502 26590
L24350 26590
" />
<path d="M24883 26571
L24940 26590
L24959 26609
L24978 26647
L24978 26704
L24959 26742
L24940 26761
L24902 26780
L24750 26780
L24750 26380
L24883 26380
L24921 26400
L24940 26419
L24959 26457
L24959 26495
L24940 26533
L24921 26552
L24883 26571
L24750 26571
" />
<path d="M25321 26514
L25321 26780
" />
<path d="M25226 26361
L25130 26647
L25378 26647
" />
<path d="M25892 26380
L25892 26476
" />
<path d="M25797 26438
L25892 26476
L25988 26438
" />
<path d="M25835 26552
L25892 26476
L25950 26552
" />
<path d="M24404 25780
L24404 25380
L24557 25380
L24595 25400
L24614 25419
L24633 25457
L24633 25514
L24614 25552
L24595 25571
L24557 25590
L24404 25590
" />
<path d="M24938 25571
L24995 25590
L25014 25609
L25033 25647
L25033 25704
L25014 25742
L24995 25761
L24957 25780
L24804 25780
L24804 25380
L24938 25380
L24976 25400
L24995 25419
L25014 25457
L25014 25495
L24995 25533
L24976 25552
L24938 25571
L24804 25571
" />
<path d="M25166 25380
L25414 25380
L25280 25533
L25338 25533
L25376 25552
L25395 25571
L25414 25609
L25414 25704
L25395 25742
L25376 25761
L25338 25780
L25223 25780
L25185 25761
L25166 25742
" />
<path d="M24404 24780
L24404 24380
L24557 24380
L24595 24400
L24614 24419
L24633 24457
L24633 24514
L24614 24552
L24595 24571
L24557 24590
L24404 24590
" />
<path d="M24938 24571
L24995 24590
L25014 24609
L25033 24647
L25033 24704
L25014 24742
L24995 24761
L24957 24780
L24804 24780
L24804 24380
L24938 24380
L24976 24400
L24995 24419
L25014 24457
L25014 24495
L24995 24533
L24976 24552
L24938 24571
L24804 24571
" />
<path d="M25185 24419
L25204 24400
L25242 24380
L25338 24380
L25376 24400
L25395 24419
L25414 24457
L25414 24495
L25395 24552
L25166 24780
L25414 24780
" />
<path d="M24404 23780
L24404 23380
L24557 23380
L24595 23400
L24614 23419
L24633 23457
L24633 23514
L24614 23552
L24595 23571
L24557 23590
L24404 23590
" />
<path d="M24938 23571
L24995 23590
L25014 23609
L25033 23647
L25033 23704
L25014 23742
L24995 23761
L24957 23780
L24804 23780
L24804 23380
L24938 23380
L24976 23400
L24995 23419
L25014 23457
L25014 23495
L24995 23533
L24976 23552
L24938 23571
L24804 23571
" />
<path d="M25414 23780
L25185 23780
" />
<path d="M25300 23780
L25300 23380
L25261 23438
L25223 23476
L25185 23495
" />
<path d="M24404 22780
L24404 22380
L24557 22380
L24595 22400
L24614 22419
L24633 22457
L24633 22514
L24614 22552
L24595 22571
L24557 22590
L24404 22590
" />
<path d="M24938 22571
L24995 22590
L25014 22609
L25033 22647
L25033 22704
L25014 22742
L24995 22761
L24957 22780
L24804 22780
L24804 22380
L24938 22380
L24976 22400
L24995 22419
L25014 22457
L25014 22495
L24995 22533
L24976 22552
L24938 22571
L24804 22571
" />
<path d="M25280 22380
L25319 22380
L25357 22400
L25376 22419
L25395 22457
L25414 22533
L25414 22628
L25395 22704
L25376 22742
L25357 22761
L25319 22780
L25280 22780
L25242 22761
L25223 22742
L25204 22704
L25185 22628
L25185 22533
L25204 22457
L25223 22419
L25242 22400
L25280 22380
" />
<path d="M37969 16183
L38369 16183
L38369 16335
L38350 16373
L38330 16392
L38292 16411
L38235 16411
L38197 16392
L38178 16373
L38159 16335
L38159 16183
" />
<path d="M38178 16716
L38178 16583
" />
<path d="M37969 16583
L38369 16583
L38369 16773
" />
<path d="M38369 16888
L38369 17154
L37969 16983
" />
<path d="M36969 16183
L37369 16183
L37369 16335
L37350 16373
L37330 16392
L37292 16411
L37235 16411
L37197 16392
L37178 16373
L37159 16335
L37159 16183
" />
<path d="M37178 16716
L37178 16583
" />
<path d="M36969 16583
L37369 16583
L37369 16773
" />
<path d="M37369 17097
L37369 17021
L37350 16983
L37330 16964
L37273 16926
L37197 16907
L37045 16907
L37007 16926
L36988 16945
L36969 16983
L36969 17059
L36988 17097
L37007 17116
L37045 17135
L37140 17135
L37178 17116
L37197 17097
L37216 17059
L37216 16983
L37197 16945
L37178 16926
L37140 16907
" />
<path d="M36019 16183
L36419 16183
L36419 16335
L36400 16373
L36380 16392
L36342 16411
L36285 16411
L36247 16392
L36228 16373
L36209 16335
L36209 16183
" />
<path d="M36228 16716
L36228 16583
" />
<path d="M36019 16583
L36419 16583
L36419 16773
" />
<path d="M36419 17116
L36419 16926
L36228 16907
L36247 16926
L36266 16964
L36266 17059
L36247 17097
L36228 17116
L36190 17135
L36095 17135
L36057 17116
L36038 17097
L36019 17059
L36019 16964
L36038 16926
L36057 16907
" />
<path d="M34969 16183
L35369 16183
L35369 16335
L35350 16373
L35330 16392
L35292 16411
L35235 16411
L35197 16392
L35178 16373
L35159 16335
L35159 16183
" />
<path d="M35178 16716
L35178 16583
" />
<path d="M34969 16583
L35369 16583
L35369 16773
" />
<path d="M35235 17097
L34969 17097
" />
<path d="M35388 17002
L35102 16907
L35102 17154
" />
<path d="M33969 16183
L34369 16183
L34369 16335
L34350 16373
L34330 16392
L34292 16411
L34235 16411
L34197 16392
L34178 16373
L34159 16335
L34159 16183
" />
<path d="M34178 16716
L34178 16583
" />
<path d="M33969 16583
L34369 16583
L34369 16773
" />
<path d="M34369 16888
L34369 17135
L34216 17002
L34216 17059
L34197 17097
L34178 17116
L34140 17135
L34045 17135
L34007 17116
L33988 17097
L33969 17059
L33969 16945
L33988 16907
L34007 16888
" />
<path d="M32969 16183
L33369 16183
L33369 16335
L33350 16373
L33330 16392
L33292 16411
L33235 16411
L33197 16392
L33178 16373
L33159 16335
L33159 16183
" />
<path d="M33178 16716
L33178 16583
" />
<path d="M32969 16583
L33369 16583
L33369 16773
" />
<path d="M33330 16907
L33350 16926
L33369 16964
L33369 17059
L33350 17097
L33330 17116
L33292 17135
L33254 17135
L33197 17116
L32969 16888
L32969 17135
" />
<path d="M32019 16183
L32419 16183
L32419 16335
L32400 16373
L32380 16392
L32342 16411
L32285 16411
L32247 16392
L32228 16373
L32209 16335
L32209 16183
" />
<path d="M32228 16716
L32228 16583
" />
<path d="M32019 16583
L32419 16583
L32419 16773
" />
<path d="M32019 17135
L32019 16907
" />
<path d="M32019 17021
L32419 17021
L32361 16983
L32323 16945
L32304 16907
" />
<path d="M31019 16183
L31419 16183
L31419 16335
L31400 16373
L31380 16392
L31342 16411
L31285 16411
L31247 16392
L31228 16373
L31209 16335
L31209 16183
" />
<path d="M31228 16716
L31228 16583
" />
<path d="M31019 16583
L31419 16583
L31419 16773
" />
<path d="M31419 17002
L31419 17040
L31400 17078
L31380 17097
L31342 17116
L31266 17135
L31171 17135
L31095 17116
L31057 17097
L31038 17078
L31019 17040
L31019 17002
L31038 16964
L31057 16945
L31095 16926
L31171 16907
L31266 16907
L31342 16926
L31380 16945
L31400 16964
L31419 17002
" />
<path d="M22919 16173
L23319 16173
L23319 16326
L23300 16364
L23280 16383
L23242 16402
L23185 16402
L23147 16383
L23128 16364
L23109 16326
L23109 16173
" />
<path d="M23128 16573
L23128 16707
" />
<path d="M22919 16764
L22919 16573
L23319 16573
L23319 16764
" />
<path d="M23319 16897
L23319 17164
L22919 16992
" />
<path d="M23969 16173
L24369 16173
L24369 16326
L24350 16364
L24330 16383
L24292 16402
L24235 16402
L24197 16383
L24178 16364
L24159 16326
L24159 16173
" />
<path d="M24178 16573
L24178 16707
" />
<path d="M23969 16764
L23969 16573
L24369 16573
L24369 16764
" />
<path d="M24369 17107
L24369 17030
L24350 16992
L24330 16973
L24273 16935
L24197 16916
L24045 16916
L24007 16935
L23988 16954
L23969 16992
L23969 17069
L23988 17107
L24007 17126
L24045 17145
L24140 17145
L24178 17126
L24197 17107
L24216 17069
L24216 16992
L24197 16954
L24178 16935
L24140 16916
" />
<path d="M24919 16169
L25319 16169
L25319 16321
L25300 16359
L25280 16378
L25242 16397
L25185 16397
L25147 16378
L25128 16359
L25109 16321
L25109 16169
" />
<path d="M25128 16569
L25128 16702
" />
<path d="M24919 16759
L24919 16569
L25319 16569
L25319 16759
" />
<path d="M25319 17121
L25319 16930
L25128 16911
L25147 16930
L25166 16969
L25166 17064
L25147 17102
L25128 17121
L25090 17140
L24995 17140
L24957 17121
L24938 17102
L24919 17064
L24919 16969
L24938 16930
L24957 16911
" />
<path d="M25319 17673
L25223 17673
" />
<path d="M25261 17578
L25223 17673
L25261 17769
" />
<path d="M25147 17616
L25223 17673
L25147 17730
" />
<path d="M26019 16169
L26419 16169
L26419 16321
L26400 16359
L26380 16378
L26342 16397
L26285 16397
L26247 16378
L26228 16359
L26209 16321
L26209 16169
" />
<path d="M26228 16569
L26228 16702
" />
<path d="M26019 16759
L26019 16569
L26419 16569
L26419 16759
" />
<path d="M26285 17102
L26019 17102
" />
<path d="M26438 17007
L26152 16911
L26152 17159
" />
<path d="M26419 17673
L26323 17673
" />
<path d="M26361 17578
L26323 17673
L26361 17769
" />
<path d="M26247 17616
L26323 17673
L26247 17730
" />
<path d="M27019 16169
L27419 16169
L27419 16321
L27400 16359
L27380 16378
L27342 16397
L27285 16397
L27247 16378
L27228 16359
L27209 16321
L27209 16169
" />
<path d="M27228 16569
L27228 16702
" />
<path d="M27019 16759
L27019 16569
L27419 16569
L27419 16759
" />
<path d="M27419 16892
L27419 17140
L27266 17007
L27266 17064
L27247 17102
L27228 17121
L27190 17140
L27095 17140
L27057 17121
L27038 17102
L27019 17064
L27019 16950
L27038 16911
L27057 16892
" />
<path d="M27419 17673
L27323 17673
" />
<path d="M27361 17578
L27323 17673
L27361 17769
" />
<path d="M27247 17616
L27323 17673
L27247 17730
" />
<path d="M27919 16173
L28319 16173
L28319 16326
L28300 16364
L28280 16383
L28242 16402
L28185 16402
L28147 16383
L28128 16364
L28109 16326
L28109 16173
" />
<path d="M28128 16573
L28128 16707
" />
<path d="M27919 16764
L27919 16573
L28319 16573
L28319 16764
" />
<path d="M28280 16916
L28300 16935
L28319 16973
L28319 17069
L28300 17107
L28280 17126
L28242 17145
L28204 17145
L28147 17126
L27919 16897
L27919 17145
" />
<path d="M29019 16173
L29419 16173
L29419 16326
L29400 16364
L29380 16383
L29342 16402
L29285 16402
L29247 16383
L29228 16364
L29209 16326
L29209 16173
" />
<path d="M29228 16573
L29228 16707
" />
<path d="M29019 16764
L29019 16573
L29419 16573
L29419 16764
" />
<path d="M29019 17145
L29019 16916
" />
<path d="M29019 17030
L29419 17030
L29361 16992
L29323 16954
L29304 16916
" />
<path d="M29919 16173
L30319 16173
L30319 16326
L30300 16364
L30280 16383
L30242 16402
L30185 16402
L30147 16383
L30128 16364
L30109 16326
L30109 16173
" />
<path d="M30128 16573
L30128 16707
" />
<path d="M29919 16764
L29919 16573
L30319 16573
L30319 16764
" />
<path d="M30319 17011
L30319 17050
L30300 17088
L30280 17107
L30242 17126
L30166 17145
L30071 17145
L29995 17126
L29957 17107
L29938 17088
L29919 17050
L29919 17011
L29938 16973
L29957 16954
L29995 16935
L30071 16916
L30166 16916
L30242 16935
L30280 16954
L30300 16973
L30319 17011
" />
</g>
<g style="fill:#000000; fill-opacity:0.0; 
stroke:#000000; stroke-width:26; stroke-opacity:1; 
stroke-linecap:round; stroke-linejoin:round;">
<path d="M32718 31026
L33022 31330
" />
<path d="M33022 31330
L33150 31203
" />
<path d="M32846 30899
L33150 31203
" />
<path d="M32718 31026
L32846 30899
" />
<path d="M32937 30807
L33242 31111
" />
<path d="M33242 31111
L33369 30984
" />
<path d="M33065 30680
L33369 30984
" />
<path d="M32937 30807
L33065 30680
" />
<path d="M33157 30588
L33461 30892
" />
<path d="M33461 30892
L33587 30765
" />
<path d="M33283 30461
L33587 30765
" />
<path d="M33157 30588
L33283 30461
" />
<path d="M33376 30369
L33680 30673
" />
<path d="M33680 30673
L33807 30546
" />
<path d="M33503 30241
L33807 30546
" />
<path d="M33376 30369
L33503 30241
" />
<path d="M33595 30150
L33899 30454
" />
<path d="M33899 30454
L34026 30326
" />
<path d="M33722 30022
L34026 30326
" />
<path d="M33595 30150
L33722 30022
" />
<path d="M33814 29930
L34118 30234
" />
<path d="M34118 30234
L34246 30107
" />
<path d="M33942 29803
L34246 30107
" />
<path d="M33814 29930
L33942 29803
" />
<path d="M34034 29711
L34338 30015
" />
<path d="M34338 30015
L34465 29888
" />
<path d="M34161 29584
L34465 29888
" />
<path d="M34034 29711
L34161 29584
" />
<path d="M34253 29492
L34557 29796
" />
<path d="M34557 29796
L34684 29669
" />
<path d="M34380 29365
L34684 29669
" />
<path d="M34253 29492
L34380 29365
" />
<path d="M32499 31246
L32803 31550
" />
<path d="M32803 31550
L32930 31422
" />
<path d="M32626 31118
L32930 31422
" />
<path d="M32499 31246
L32626 31118
" />
<path d="M32280 31465
L32584 31769
" />
<path d="M32584 31769
L32711 31642
" />
<path d="M32407 31337
L32711 31642
" />
<path d="M32280 31465
L32407 31337
" />
<path d="M32061 31683
L32365 31987
" />
<path d="M32365 31987
L32492 31861
" />
<path d="M32188 31557
L32492 31861
" />
<path d="M32061 31683
L32188 31557
" />
<path d="M31841 31903
L32146 32207
" />
<path d="M32146 32207
L32273 32080
" />
<path d="M31969 31776
L32273 32080
" />
<path d="M31841 31903
L31969 31776
" />
<path d="M31622 32122
L31926 32426
" />
<path d="M31926 32426
L32054 32299
" />
<path d="M31750 31995
L32054 32299
" />
<path d="M31622 32122
L31750 31995
" />
<path d="M31403 32342
L31707 32646
" />
<path d="M31707 32646
L31834 32518
" />
<path d="M31530 32214
L31834 32518
" />
<path d="M31403 32342
L31530 32214
" />
<path d="M31184 32561
L31488 32865
" />
<path d="M31488 32865
L31615 32738
" />
<path d="M31311 32434
L31615 32738
" />
<path d="M31184 32561
L31311 32434
" />
<path d="M30965 32780
L31269 33084
" />
<path d="M31269 33084
L31396 32957
" />
<path d="M31092 32653
L31396 32957
" />
<path d="M30965 32780
L31092 32653
" />
<path d="M28469 31422
L28596 31550
" />
<path d="M28596 31550
L28900 31246
" />
<path d="M28773 31118
L28900 31246
" />
<path d="M28469 31422
L28773 31118
" />
<path d="M28688 31642
L28815 31769
" />
<path d="M28815 31769
L29119 31465
" />
<path d="M28992 31337
L29119 31465
" />
<path d="M28688 31642
L28992 31337
" />
<path d="M28907 31861
L29034 31987
" />
<path d="M29034 31987
L29338 31683
" />
<path d="M29211 31557
L29338 31683
" />
<path d="M28907 31861
L29211 31557
" />
<path d="M29126 32080
L29253 32207
" />
<path d="M29253 32207
L29558 31903
" />
<path d="M29430 31776
L29558 31903
" />
<path d="M29126 32080
L29430 31776
" />
<path d="M29345 32299
L29473 32426
" />
<path d="M29473 32426
L29777 32122
" />
<path d="M29649 31995
L29777 32122
" />
<path d="M29345 32299
L29649 31995
" />
<path d="M29565 32518
L29692 32646
" />
<path d="M29692 32646
L29996 32342
" />
<path d="M29869 32214
L29996 32342
" />
<path d="M29565 32518
L29869 32214
" />
<path d="M29784 32738
L29911 32865
" />
<path d="M29911 32865
L30215 32561
" />
<path d="M30088 32434
L30215 32561
" />
<path d="M29784 32738
L30088 32434
" />
<path d="M30003 32957
L30130 33084
" />
<path d="M30130 33084
L30434 32780
" />
<path d="M30307 32653
L30434 32780
" />
<path d="M30003 32957
L30307 32653
" />
<path d="M28249 31203
L28377 31330
" />
<path d="M28377 31330
L28681 31026
" />
<path d="M28553 30899
L28681 31026
" />
<path d="M28249 31203
L28553 30899
" />
<path d="M28030 30984
L28157 31111
" />
<path d="M28157 31111
L28462 30807
" />
<path d="M28334 30680
L28462 30807
" />
<path d="M28030 30984
L28334 30680
" />
<path d="M27812 30765
L27938 30892
" />
<path d="M27938 30892
L28242 30588
" />
<path d="M28116 30461
L28242 30588
" />
<path d="M27812 30765
L28116 30461
" />
<path d="M27592 30546
L27719 30673
" />
<path d="M27719 30673
L28023 30369
" />
<path d="M27896 30241
L28023 30369
" />
<path d="M27592 30546
L27896 30241
" />
<path d="M27373 30326
L27500 30454
" />
<path d="M27500 30454
L27804 30150
" />
<path d="M27677 30022
L27804 30150
" />
<path d="M27373 30326
L27677 30022
" />
<path d="M27153 30107
L27281 30234
" />
<path d="M27281 30234
L27585 29930
" />
<path d="M27457 29803
L27585 29930
" />
<path d="M27153 30107
L27457 29803
" />
<path d="M26934 29888
L27061 30015
" />
<path d="M27061 30015
L27365 29711
" />
<path d="M27238 29584
L27365 29711
" />
<path d="M26934 29888
L27238 29584
" />
<path d="M26715 29669
L26842 29796
" />
<path d="M26842 29796
L27146 29492
" />
<path d="M27019 29365
L27146 29492
" />
<path d="M26715 29669
L27019 29365
" />
<path d="M28249 26996
L28553 27300
" />
<path d="M28553 27300
L28681 27173
" />
<path d="M28377 26869
L28681 27173
" />
<path d="M28249 26996
L28377 26869
" />
<path d="M28030 27215
L28334 27519
" />
<path d="M28334 27519
L28462 27392
" />
<path d="M28157 27088
L28462 27392
" />
<path d="M28030 27215
L28157 27088
" />
<path d="M27812 27434
L28116 27738
" />
<path d="M28116 27738
L28242 27611
" />
<path d="M27938 27307
L28242 27611
" />
<path d="M27812 27434
L27938 27307
" />
<path d="M27592 27653
L27896 27958
" />
<path d="M27896 27958
L28023 27830
" />
<path d="M27719 27526
L28023 27830
" />
<path d="M27592 27653
L27719 27526
" />
<path d="M27373 27873
L27677 28177
" />
<path d="M27677 28177
L27804 28049
" />
<path d="M27500 27745
L27804 28049
" />
<path d="M27373 27873
L27500 27745
" />
<path d="M27153 28092
L27457 28396
" />
<path d="M27457 28396
L27585 28269
" />
<path d="M27281 27965
L27585 28269
" />
<path d="M27153 28092
L27281 27965
" />
<path d="M26934 28311
L27238 28615
" />
<path d="M27238 28615
L27365 28488
" />
<path d="M27061 28184
L27365 28488
" />
<path d="M26934 28311
L27061 28184
" />
<path d="M26715 28530
L27019 28834
" />
<path d="M27019 28834
L27146 28707
" />
<path d="M26842 28403
L27146 28707
" />
<path d="M26715 28530
L26842 28403
" />
<path d="M28469 26777
L28773 27081
" />
<path d="M28773 27081
L28900 26953
" />
<path d="M28596 26649
L28900 26953
" />
<path d="M28469 26777
L28596 26649
" />
<path d="M28688 26557
L28992 26862
" />
<path d="M28992 26862
L29119 26734
" />
<path d="M28815 26430
L29119 26734
" />
<path d="M28688 26557
L28815 26430
" />
<path d="M28907 26338
L29211 26642
" />
<path d="M29211 26642
L29338 26516
" />
<path d="M29034 26212
L29338 26516
" />
<path d="M28907 26338
L29034 26212
" />
<path d="M29126 26119
L29430 26423
" />
<path d="M29430 26423
L29558 26296
" />
<path d="M29253 25992
L29558 26296
" />
<path d="M29126 26119
L29253 25992
" />
<path d="M29345 25900
L29649 26204
" />
<path d="M29649 26204
L29777 26077
" />
<path d="M29473 25773
L29777 26077
" />
<path d="M29345 25900
L29473 25773
" />
<path d="M29565 25681
L29869 25985
" />
<path d="M29869 25985
L29996 25857
" />
<path d="M29692 25553
L29996 25857
" />
<path d="M29565 25681
L29692 25553
" />
<path d="M29784 25461
L30088 25765
" />
<path d="M30088 25765
L30215 25638
" />
<path d="M29911 25334
L30215 25638
" />
<path d="M29784 25461
L29911 25334
" />
<path d="M30003 25242
L30307 25546
" />
<path d="M30307 25546
L30434 25419
" />
<path d="M30130 25115
L30434 25419
" />
<path d="M30003 25242
L30130 25115
" />
<path d="M32499 26953
L32626 27081
" />
<path d="M32626 27081
L32930 26777
" />
<path d="M32803 26649
L32930 26777
" />
<path d="M32499 26953
L32803 26649
" />
<path d="M32280 26734
L32407 26862
" />
<path d="M32407 26862
L32711 26557
" />
<path d="M32584 26430
L32711 26557
" />
<path d="M32280 26734
L32584 26430
" />
<path d="M32061 26516
L32188 26642
" />
<path d="M32188 26642
L32492 26338
" />
<path d="M32365 26212
L32492 26338
" />
<path d="M32061 26516
L32365 26212
" />
<path d="M31841 26296
L31969 26423
" />
<path d="M31969 26423
L32273 26119
" />
<path d="M32146 25992
L32273 26119
" />
<path d="M31841 26296
L32146 25992
" />
<path d="M31622 26077
L31750 26204
" />
<path d="M31750 26204
L32054 25900
" />
<path d="M31926 25773
L32054 25900
" />
<path d="M31622 26077
L31926 25773
" />
<path d="M31403 25857
L31530 25985
" />
<path d="M31530 25985
L31834 25681
" />
<path d="M31707 25553
L31834 25681
" />
<path d="M31403 25857
L31707 25553
" />
<path d="M31184 25638
L31311 25765
" />
<path d="M31311 25765
L31615 25461
" />
<path d="M31488 25334
L31615 25461
" />
<path d="M31184 25638
L31488 25334
" />
<path d="M30965 25419
L31092 25546
" />
<path d="M31092 25546
L31396 25242
" />
<path d="M31269 25115
L31396 25242
" />
<path d="M30965 25419
L31269 25115
" />
<path d="M32718 27173
L32846 27300
" />
<path d="M32846 27300
L33150 26996
" />
<path d="M33022 26869
L33150 26996
" />
<path d="M32718 27173
L33022 26869
" />
<path d="M32937 27392
L33065 27519
" />
<path d="M33065 27519
L33369 27215
" />
<path d="M33242 27088
L33369 27215
" />
<path d="M32937 27392
L33242 27088
" />
<path d="M33157 27611
L33283 27738
" />
<path d="M33283 27738
L33587 27434
" />
<path d="M33461 27307
L33587 27434
" />
<path d="M33157 27611
L33461 27307
" />
<path d="M33376 27830
L33503 27958
" />
<path d="M33503 27958
L33807 27653
" />
<path d="M33680 27526
L33807 27653
" />
<path d="M33376 27830
L33680 27526
" />
<path d="M33595 28049
L33722 28177
" />
<path d="M33722 28177
L34026 27873
" />
<path d="M33899 27745
L34026 27873
" />
<path d="M33595 28049
L33899 27745
" />
<path d="M33814 28269
L33942 28396
" />
<path d="M33942 28396
L34246 28092
" />
<path d="M34118 27965
L34246 28092
" />
<path d="M33814 28269
L34118 27965
" />
<path d="M34034 28488
L34161 28615
" />
<path d="M34161 28615
L34465 28311
" />
<path d="M34338 28184
L34465 28311
" />
<path d="M34034 28488
L34338 28184
" />
<path d="M34253 28707
L34380 28834
" />
<path d="M34380 28834
L34684 28530
" />
<path d="M34557 28403
L34684 28530
" />
<path d="M34253 28707
L34557 28403
" />
</g>
<g style="fill:#000000; fill-opacity:0.0; 
stroke:#000000; stroke-width:70; stroke-opacity:1; 
stroke-linecap:round; stroke-linejoin:round;">
<path d="M34617 29100
L30700 33017
" />
<path d="M30700 33017
L26782 29100
" />
<path d="M26782 29100
L30579 25302
" />
<path d="M30820 25302
L34617 29100
" />
<path d="M30579 25302
L30820 25302
" />
</g>
<g style="fill:#000000; fill-opacity:0.0; 
stroke:#000000; stroke-width:1; stroke-opacity:1; 
stroke-linecap:round; stroke-linejoin:round;">
<circle cx="30700" cy="25813.4" r="77.7819" /> 
</g>
<g style="fill:#000000; fill-opacity:0.0; 
stroke:#000000; stroke-width:150; stroke-opacity:1; 
stroke-linecap:round; stroke-linejoin:round;">
<path d="M24700 40600
L26200 40600
" />
<path d="M26200 40600
L26200 43350
" />
<path d="M26200 43350
L23200 43350
" />
<path d="M23200 43350
L23200 40600
" />
<path d="M23200 40600
L24700 40600
" />
<circle cx="24700" cy="42100" r="500" /> 
</g>
<g style="fill:#000000; fill-opacity:0.0; 
stroke:#000000; stroke-width:120; stroke-opacity:1; 
stroke-linecap:round; stroke-linejoin:round;">
<path d="M30700 16000
L22700 16000
" />
<path d="M22700 16000
L22700 15000
" />
<path d="M22700 15000
L30700 15000
" />
<path d="M30700 15000
L30700 16000
" />
<path d="M29700 15000
L29700 16000
" />
<path d="M30700 15000
L38700 15000
" />
<path d="M38700 15000
L38700 16000
" />
<path d="M38700 16000
L30700 16000
" />
<path d="M30700 16000
L30700 15000
" />
<path d="M31700 16000
L31700 15000
" />
<path d="M23200 30100
L24200 30100
" />
<path d="M24200 30100
L24200 40100
" />
<path d="M24200 40100
L23200 40100
" />
<path d="M23200 40100
L23200 30100
" />
<path d="M23200 31100
L24200 31100
" />
<path d="M23200 20100
L24200 20100
" />
<path d="M24200 20100
L24200 30100
" />
<path d="M24200 30100
L23200 30100
" />
<path d="M23200 30100
L23200 20100
" />
<path d="M23200 21100
L24200 21100
" />
<path d="M38200 40100
L37200 40100
" />
<path d="M37200 40100
L37200 30100
" />
<path d="M37200 30100
L38200 30100
" />
<path d="M38200 30100
L38200 40100
" />
<path d="M38200 39100
L37200 39100
" />
<path d="M37200 20100
L38200 20100
" />
<path d="M38200 20100
L38200 30100
" />
<path d="M38200 30100
L37200 30100
" />
<path d="M37200 30100
L37200 20100
" />
<path d="M37200 21100
L38200 21100
" />
<path d="M27500 40900
L27500 40900
" />
<path d="M27500 40900
L34500 40900
" />
<path d="M34500 40900
L34500 41900
" />
<path d="M34500 41900
L27500 41900
" />
<path d="M27500 41900
L27500 40900
" />
<path d="M28500 41900
L28500 41900
" />
<path d="M28500 41900
L28500 40900
" />
<path d="M38200 42700
L37200 42700
" />
<path d="M37200 42700
L37200 40700
" />
<path d="M37200 40700
L38200 40700
" />
<path d="M38200 40700
L38200 42700
" />
</g>
<g style="fill:#000000; fill-opacity:0.0; 
stroke:#000000; stroke-width:59.0551; stroke-opacity:1; 
stroke-linecap:round; stroke-linejoin:round;">
<circle cx="30245.7" cy="37948.8" r="39.3701" /> 
<path d="M30639 38461
L30639 38539
" />
<path d="M30639 38539
L30561 38539
" />
<path d="M30561 38461
L30561 38539
" />
<path d="M30639 38461
L30561 38461
" />
<path d="M30875 38677
L30875 38814
" />
<path d="M30875 38814
L30777 38814
" />
<path d="M30777 38677
L30777 38814
" />
<path d="M30875 38677
L30777 38677
" />
<path d="M30875 38814
L30875 38854
" />
<path d="M30875 38854
L30404 38854
" />
<path d="M30404 38814
L30404 38854
" />
<path d="M30875 38814
L30404 38814
" />
<path d="M30384 38814
L30384 38854
" />
<path d="M30384 38854
L30325 38854
" />
<path d="M30325 38814
L30325 38854
" />
<path d="M30384 38814
L30325 38814
" />
<path d="M30875 38146
L30875 38186
" />
<path d="M30875 38186
L30404 38186
" />
<path d="M30404 38146
L30404 38186
" />
<path d="M30875 38146
L30404 38146
" />
<path d="M30384 38146
L30384 38186
" />
<path d="M30384 38186
L30325 38186
" />
<path d="M30325 38146
L30325 38186
" />
<path d="M30384 38146
L30325 38146
" />
<path d="M30875 38677
L30875 38736
" />
<path d="M30875 38736
L30777 38736
" />
<path d="M30777 38677
L30777 38736
" />
<path d="M30875 38677
L30777 38677
" />
<path d="M30895 39110
L30895 37890
" />
<path d="M30895 37890
L30305 37890
" />
<path d="M30305 37890
L30305 39110
" />
<path d="M30305 39110
L30895 39110
" />
<path d="M30796 38716 A291.671 291.671 0.0 0 0 30796.6 38284.5 " />
<path d="M30796 38284 A291.671 291.671 0.0 0 0 30403.8 38284.2 " />
<path d="M30404 38284 A291.671 291.671 0.0 0 0 30403.4 38715.5 " />
<path d="M30404 38716 A291.671 291.671 0.0 0 0 30796.2 38715.8 " />
<circle cx="31645.7" cy="37948.8" r="39.3701" /> 
<path d="M32039 38461
L32039 38539
" />
<path d="M32039 38539
L31961 38539
" />
<path d="M31961 38461
L31961 38539
" />
<path d="M32039 38461
L31961 38461
" />
<path d="M32275 38677
L32275 38814
" />
<path d="M32275 38814
L32177 38814
" />
<path d="M32177 38677
L32177 38814
" />
<path d="M32275 38677
L32177 38677
" />
<path d="M32275 38814
L32275 38854
" />
<path d="M32275 38854
L31804 38854
" />
<path d="M31804 38814
L31804 38854
" />
<path d="M32275 38814
L31804 38814
" />
<path d="M31784 38814
L31784 38854
" />
<path d="M31784 38854
L31725 38854
" />
<path d="M31725 38814
L31725 38854
" />
<path d="M31784 38814
L31725 38814
" />
<path d="M32275 38146
L32275 38186
" />
<path d="M32275 38186
L31804 38186
" />
<path d="M31804 38146
L31804 38186
" />
<path d="M32275 38146
L31804 38146
" />
<path d="M31784 38146
L31784 38186
" />
<path d="M31784 38186
L31725 38186
" />
<path d="M31725 38146
L31725 38186
" />
<path d="M31784 38146
L31725 38146
" />
<path d="M32275 38677
L32275 38736
" />
<path d="M32275 38736
L32177 38736
" />
<path d="M32177 38677
L32177 38736
" />
<path d="M32275 38677
L32177 38677
" />
<path d="M32295 39110
L32295 37890
" />
<path d="M32295 37890
L31705 37890
" />
<path d="M31705 37890
L31705 39110
" />
<path d="M31705 39110
L32295 39110
" />
<path d="M32196 38716 A291.671 291.671 0.0 0 0 32196.6 38284.5 " />
<path d="M32196 38284 A291.671 291.671 0.0 0 0 31803.8 38284.2 " />
<path d="M31804 38284 A291.671 291.671 0.0 0 0 31803.4 38715.5 " />
<path d="M31804 38716 A291.671 291.671 0.0 0 0 32196.2 38715.8 " />
<circle cx="37901.2" cy="17445.7" r="39.3701" /> 
<path d="M37389 17839
L37311 17839
" />
<path d="M37311 17839
L37311 17761
" />
<path d="M37389 17761
L37311 17761
" />
<path d="M37389 17839
L37389 17761
" />
<path d="M37173 18075
L37036 18075
" />
<path d="M37036 18075
L37036 17977
" />
<path d="M37173 17977
L37036 17977
" />
<path d="M37173 18075
L37173 17977
" />
<path d="M37036 18075
L36996 18075
" />
<path d="M36996 18075
L36996 17604
" />
<path d="M37036 17604
L36996 17604
" />
<path d="M37036 18075
L37036 17604
" />
<path d="M37036 17584
L36996 17584
" />
<path d="M36996 17584
L36996 17525
" />
<path d="M37036 17525
L36996 17525
" />
<path d="M37036 17584
L37036 17525
" />
<path d="M37704 18075
L37664 18075
" />
<path d="M37664 18075
L37664 17604
" />
<path d="M37704 17604
L37664 17604
" />
<path d="M37704 18075
L37704 17604
" />
<path d="M37704 17584
L37664 17584
" />
<path d="M37664 17584
L37664 17525
" />
<path d="M37704 17525
L37664 17525
" />
<path d="M37704 17584
L37704 17525
" />
<path d="M37173 18075
L37114 18075
" />
<path d="M37114 18075
L37114 17977
" />
<path d="M37173 17977
L37114 17977
" />
<path d="M37173 18075
L37173 17977
" />
<path d="M36740 18095
L37960 18095
" />
<path d="M37960 18095
L37960 17505
" />
<path d="M37960 17505
L36740 17505
" />
<path d="M36740 17505
L36740 18095
" />
<path d="M37134 17996 A291.671 291.671 0.0 0 0 37565.5 17996.6 " />
<path d="M37566 17996 A291.671 291.671 0.0 0 0 37565.8 17603.8 " />
<path d="M37566 17604 A291.671 291.671 0.0 0 0 37134.5 17603.4 " />
<path d="M37134 17604 A291.671 291.671 0.0 0 0 37134.2 17996.2 " />
<path d="M34550 21300
L34800 21550
" />
<path d="M34550 18300
L34800 18050
" />
<path d="M27050 18300
L26800 18050
" />
<path d="M27050 21300
L26800 21550
" />
<path d="M30050 18050
L30050 18300
" />
<path d="M30050 18300
L27050 18300
" />
<path d="M27050 18300
L27050 21300
" />
<path d="M27050 21300
L34550 21300
" />
<path d="M34550 21300
L34550 18300
" />
<path d="M34550 18300
L31550 18300
" />
<path d="M31550 18300
L31550 18050
" />
<path d="M34800 18050
L26800 18050
" />
<path d="M26800 21550
L34800 21550
" />
<path d="M34800 21550
L34800 18050
" />
<path d="M26800 21550
L26800 18050
" />
<path d="M33752 19025
L33477 18604
" />
<path d="M33477 18604
L33201 19025
" />
<path d="M33201 19025
L33752 19025
" />
<path d="M29450 36100
L31950 36100
" />
<path d="M29450 34100
L31950 34100
" />
<path d="M32950 35100 A1000 1000 0.0 0 0 31950 34100 " />
<path d="M31950 36100 A1000 1000 0.0 0 0 32950 35100 " />
<path d="M29450 34100 A1000 1000 0.0 0 0 28450 35100 " />
<path d="M28450 35100 A1000 1000 0.0 0 0 29450 36100 " />
</g>
<g style="fill:#000000; fill-opacity:0.0; 
stroke:#000000; stroke-width:35; stroke-opacity:1; 
stroke-linecap:round; stroke-linejoin:round;">
<path d="M29258 28063
L28975 27780
" />
<path d="M29527 27740
L29527 27767
L29500 27821
L29474 27848
L29420 27875
L29366 27875
L29325 27861
L29258 27821
L29218 27780
L29177 27713
L29164 27673
L29164 27619
L29191 27565
L29218 27538
L29272 27511
L29298 27511
" />
<path d="M29824 27497
L29662 27659
" />
<path d="M29743 27578
L29460 27295
L29474 27363
L29474 27417
L29460 27457
" />
</g>
<g style="fill:#000000; fill-opacity:0.0; 
stroke:#000000; stroke-width:80; stroke-opacity:1; 
stroke-linecap:round; stroke-linejoin:round;">
<path d="M26930 42630
L26740 42764
" />
<path d="M26930 42859
L26530 42859
L26530 42707
L26550 42669
L26569 42650
L26607 42630
L26664 42630
L26702 42650
L26721 42669
L26740 42707
L26740 42859
" />
<path d="M26721 42459
L26721 42326
" />
<path d="M26930 42269
L26930 42459
L26530 42459
L26530 42269
" />
<path d="M26911 42116
L26930 42059
L26930 41964
L26911 41926
L26892 41907
L26854 41888
L26816 41888
L26778 41907
L26759 41926
L26740 41964
L26721 42040
L26702 42078
L26683 42097
L26645 42116
L26607 42116
L26569 42097
L26550 42078
L26530 42040
L26530 41945
L26550 41888
" />
<path d="M26721 41716
L26721 41583
" />
<path d="M26930 41526
L26930 41716
L26530 41716
L26530 41526
" />
<path d="M26530 41411
L26530 41183
" />
<path d="M26930 41297
L26530 41297
" />
</g>
<g style="fill:#000000; fill-opacity:0.0; 
stroke:#000000; stroke-width:59.0551; stroke-opacity:1; 
stroke-linecap:round; stroke-linejoin:round;">
<path d="M30051 38697
L29657 38697
L29657 38603
L29676 38547
L29713 38510
L29751 38491
L29826 38472
L29882 38472
L29957 38491
L29995 38510
L30032 38547
L30051 38603
L30051 38697
" />
<path d="M30051 38097
L30051 38322
" />
<path d="M30051 38210
L29657 38210
L29713 38247
L29751 38285
L29770 38322
" />
<path d="M31451 38697
L31057 38697
L31057 38603
L31076 38547
L31113 38510
L31151 38491
L31226 38472
L31282 38472
L31357 38491
L31395 38510
L31432 38547
L31451 38603
L31451 38697
" />
<path d="M31095 38322
L31076 38303
L31057 38266
L31057 38172
L31076 38135
L31095 38116
L31132 38097
L31170 38097
L31226 38116
L31451 38341
L31451 38097
" />
<path d="M35733 18091
L35733 17697
L35826 17697
L35883 17716
L35920 17754
L35939 17791
L35958 17866
L35958 17922
L35939 17997
L35920 18035
L35883 18072
L35826 18091
L35733 18091
" />
<path d="M36089 17697
L36332 17697
L36201 17847
L36257 17847
L36295 17866
L36314 17885
L36332 17922
L36332 18016
L36314 18053
L36295 18072
L36257 18091
L36145 18091
L36107 18072
L36089 18053
" />
<path d="M34945 21437
L34945 21044
L35095 21044
L35133 21062
L35151 21081
L35170 21119
L35170 21175
L35151 21212
L35133 21231
L35095 21250
L34945 21250
" />
<path d="M35395 21212
L35358 21194
L35339 21175
L35320 21137
L35320 21119
L35339 21081
L35358 21062
L35395 21044
L35470 21044
L35508 21062
L35526 21081
L35545 21119
L35545 21137
L35526 21175
L35508 21194
L35470 21212
L35395 21212
L35358 21231
L35339 21250
L35320 21287
L35320 21362
L35339 21400
L35358 21419
L35395 21437
L35470 21437
L35508 21419
L35526 21400
L35545 21362
L35545 21287
L35526 21250
L35508 21231
L35470 21212
" />
<path d="M30381 33384
L30643 33778
" />
<path d="M30643 33384
L30381 33778
" />
<path d="M30999 33778
L30774 33778
" />
<path d="M30887 33778
L30887 33384
L30849 33440
L30812 33478
L30774 33496
" />
</g> 
</svg>
