<?xml version="1.0" standalone="no"?>
 <!DOCTYPE svg PUBLIC "-//W3C//DTD SVG 1.1//EN" 
 "http://www.w3.org/Graphics/SVG/1.1/DTD/svg11.dtd"> 
<svg xmlns="http://www.w3.org/2000/svg" version="1.1" 
    width="29.7002cm" height="21.0007cm" viewBox="0 0 116930 82680 ">
<title>SVG Picture created as ATMega128_Breakout-F_SilkS.svg date 2015/07/25 13:08:12 </title>
  <desc>Picture generated by PCBNEW </desc>
<g style="fill:#000000; fill-opacity:1;stroke:#000000; stroke-opacity:1;
stroke-linecap:round; stroke-linejoin:round; "
 transform="translate(0 0) scale(1 1)">
</g>
<g style="fill:#000000; fill-opacity:0.0; 
stroke:#000000; stroke-width:39.3701; stroke-opacity:1; 
stroke-linecap:round; stroke-linejoin:round;">
<path d="M22723 14540
L22762 14540
" />
<path d="M22723 44107
L22723 14540
" />
<path d="M38668 44107
L22723 44107
" />
<path d="M38668 15525
L38668 44107
" />
<path d="M38668 14540
L38471 14540
" />
<path d="M38668 15525
L38668 14540
" />
<path d="M38471 14540
L22723 14540
" />
</g>
<g style="fill:#000000; fill-opacity:0.0; 
stroke:#000000; stroke-width:100; stroke-opacity:1; 
stroke-linecap:round; stroke-linejoin:round;">
<path d="M35691 42197
L35710 42140
L35729 42121
L35767 42102
L35824 42102
L35862 42121
L35881 42140
L35900 42178
L35900 42330
L35500 42330
L35500 42197
L35520 42159
L35539 42140
L35577 42121
L35615 42121
L35653 42140
L35672 42159
L35691 42197
L35691 42330
" />
<path d="M35900 41873
L35881 41911
L35862 41930
L35824 41949
L35710 41949
L35672 41930
L35653 41911
L35634 41873
L35634 41816
L35653 41778
L35672 41759
L35710 41740
L35824 41740
L35862 41759
L35881 41778
L35900 41816
L35900 41873
" />
<path d="M35900 41511
L35881 41549
L35862 41569
L35824 41588
L35710 41588
L35672 41569
L35653 41549
L35634 41511
L35634 41454
L35653 41416
L35672 41397
L35710 41378
L35824 41378
L35862 41397
L35881 41416
L35900 41454
L35900 41511
" />
<path d="M35634 41264
L35634 41111
" />
<path d="M35500 41207
L35843 41207
L35881 41188
L35900 41149
L35900 41111
" />
<path d="M36160 42616
L36446 42616
L36503 42635
L36541 42673
L36560 42730
L36560 42769
" />
<path d="M36294 42254
L36560 42254
" />
<path d="M36294 42426
L36503 42426
L36541 42407
L36560 42369
L36560 42311
L36541 42273
L36522 42254
" />
<path d="M36560 42064
L36294 42064
" />
<path d="M36332 42064
L36313 42045
L36294 42007
L36294 41950
L36313 41911
L36351 41892
L36560 41892
" />
<path d="M36351 41892
L36313 41873
L36294 41835
L36294 41778
L36313 41740
L36351 41721
L36560 41721
" />
<path d="M36294 41530
L36694 41530
" />
<path d="M36313 41530
L36294 41492
L36294 41416
L36313 41378
L36332 41359
L36370 41340
L36484 41340
L36522 41359
L36541 41378
L36560 41416
L36560 41492
L36541 41530
" />
<path d="M36541 41016
L36560 41054
L36560 41130
L36541 41169
L36503 41188
L36351 41188
L36313 41169
L36294 41130
L36294 41054
L36313 41016
L36351 40997
L36389 40997
L36427 41188
" />
<path d="M36560 40826
L36294 40826
" />
<path d="M36370 40826
L36332 40807
L36313 40788
L36294 40749
L36294 40711
" />
</g>
<g style="fill:#000000; fill-opacity:0.0; 
stroke:#000000; stroke-width:118.11; stroke-opacity:1; 
stroke-linecap:round; stroke-linejoin:round;">
<path d="M27850 40430
L27826 40478
L27826 40550
L27850 40621
L27897 40669
L27945 40692
L28040 40716
L28111 40716
L28207 40692
L28254 40669
L28302 40621
L28326 40550
L28326 40502
L28302 40430
L28278 40407
L28111 40407
L28111 40502
" />
<path d="M28326 40192
L27826 40192
L28326 39907
L27826 39907
" />
<path d="M28326 39669
L27826 39669
L27826 39550
L27850 39478
L27897 39430
L27945 39407
L28040 39383
L28111 39383
L28207 39407
L28254 39430
L28302 39478
L28326 39550
L28326 39669
" />
</g>
<g style="fill:#000000; fill-opacity:0.0; 
stroke:#000000; stroke-width:125; stroke-opacity:1; 
stroke-linecap:round; stroke-linejoin:round;">
<path d="M29776 40445
L29776 40683
L30014 40707
L29990 40683
L29966 40635
L29966 40516
L29990 40469
L30014 40445
L30061 40421
L30180 40421
L30228 40445
L30252 40469
L30276 40516
L30276 40635
L30252 40683
L30228 40707
" />
<path d="M29776 40278
L30276 40111
L29776 39945
" />
</g>
<g style="fill:#000000; fill-opacity:0.0; 
stroke:#000000; stroke-width:118.11; stroke-opacity:1; 
stroke-linecap:round; stroke-linejoin:round;">
<path d="M34326 40721
L33826 40721
L33826 40602
L33850 40530
L33897 40483
L33945 40459
L34040 40435
L34111 40435
L34207 40459
L34254 40483
L34302 40530
L34326 40602
L34326 40721
" />
<path d="M33826 40292
L33826 40007
" />
<path d="M34326 40149
L33826 40149
" />
<path d="M34326 39554
L34088 39721
" />
<path d="M34326 39840
L33826 39840
L33826 39650
L33850 39602
L33873 39578
L33921 39554
L33992 39554
L34040 39578
L34064 39602
L34088 39650
L34088 39840
" />
<path d="M31776 40730
L31776 40445
" />
<path d="M32276 40588
L31776 40588
" />
<path d="M31776 40326
L32276 39992
" />
<path d="M31776 39992
L32276 40326
" />
<path d="M31326 40433
L31088 40600
" />
<path d="M31326 40719
L30826 40719
L30826 40528
L30850 40480
L30873 40457
L30921 40433
L30992 40433
L31040 40457
L31064 40480
L31088 40528
L31088 40719
" />
<path d="M30826 40266
L31326 39933
" />
<path d="M30826 39933
L31326 40266
" />
<path d="M26149 23607
L26349 23607
" />
<path d="M26435 23921
L26149 23921
L26149 23321
L26435 23321
" />
<path d="M26635 23921
L26949 23521
" />
<path d="M26635 23521
L26949 23921
" />
<path d="M27178 23521
L27178 24121
" />
<path d="M27178 23550
L27235 23521
L27349 23521
L27407 23550
L27435 23578
L27464 23635
L27464 23807
L27435 23864
L27407 23892
L27349 23921
L27235 23921
L27178 23892
" />
<path d="M27807 23921
L27749 23892
L27721 23835
L27721 23321
" />
<path d="M28121 23921
L28064 23892
L28035 23864
L28007 23807
L28007 23635
L28035 23578
L28064 23550
L28121 23521
L28207 23521
L28264 23550
L28292 23578
L28321 23635
L28321 23807
L28292 23864
L28264 23892
L28207 23921
L28121 23921
" />
<path d="M28578 23921
L28578 23521
" />
<path d="M28578 23635
L28607 23578
L28635 23550
L28692 23521
L28749 23521
" />
<path d="M29178 23892
L29121 23921
L29007 23921
L28949 23892
L28921 23835
L28921 23607
L28949 23550
L29007 23521
L29121 23521
L29178 23550
L29207 23607
L29207 23664
L28921 23721
" />
<path d="M29892 23750
L30178 23750
" />
<path d="M29835 23921
L30035 23321
L30235 23921
" />
<path d="M30350 23321
L30692 23321
" />
<path d="M30521 23921
L30521 23321
" />
<path d="M30892 23921
L30892 23321
L31092 23750
L31292 23321
L31292 23921
" />
<path d="M31807 23892
L31750 23921
L31635 23921
L31578 23892
L31550 23835
L31550 23607
L31578 23550
L31635 23521
L31750 23521
L31807 23550
L31835 23607
L31835 23664
L31550 23721
" />
<path d="M32350 23521
L32350 24007
L32321 24064
L32292 24092
L32235 24121
L32150 24121
L32092 24092
" />
<path d="M32350 23892
L32292 23921
L32178 23921
L32121 23892
L32092 23864
L32064 23807
L32064 23635
L32092 23578
L32121 23550
L32178 23521
L32292 23521
L32350 23550
" />
<path d="M32892 23921
L32892 23607
L32864 23550
L32807 23521
L32692 23521
L32635 23550
" />
<path d="M32892 23892
L32835 23921
L32692 23921
L32635 23892
L32607 23835
L32607 23778
L32635 23721
L32692 23692
L32835 23692
L32892 23664
" />
<path d="M33178 23692
L33635 23692
" />
<path d="M34235 23921
L33892 23921
" />
<path d="M34064 23921
L34064 23321
L34007 23407
L33950 23464
L33892 23492
" />
<path d="M34464 23378
L34492 23350
L34550 23321
L34692 23321
L34750 23350
L34778 23378
L34807 23435
L34807 23492
L34778 23578
L34435 23921
L34807 23921
" />
<path d="M35150 23578
L35092 23550
L35064 23521
L35035 23464
L35035 23435
L35064 23378
L35092 23350
L35150 23321
L35264 23321
L35321 23350
L35350 23378
L35378 23435
L35378 23464
L35350 23521
L35321 23550
L35264 23578
L35150 23578
L35092 23607
L35064 23635
L35035 23692
L35035 23807
L35064 23864
L35092 23892
L35150 23921
L35264 23921
L35321 23892
L35350 23864
L35378 23807
L35378 23692
L35350 23635
L35321 23607
L35264 23578
" />
</g>
<g style="fill:#000000; fill-opacity:0.0; 
stroke:#000000; stroke-width:100; stroke-opacity:1; 
stroke-linecap:round; stroke-linejoin:round;">
<path d="M36195 21500
L36157 21480
L36100 21480
L36042 21500
L36004 21538
L35985 21576
L35966 21652
L35966 21709
L35985 21785
L36004 21823
L36042 21861
L36100 21880
L36138 21880
L36195 21861
L36214 21842
L36214 21709
L36138 21709
" />
<path d="M36385 21880
L36385 21480
L36614 21880
L36614 21480
" />
<path d="M36804 21880
L36804 21480
L36900 21480
L36957 21500
L36995 21538
L37014 21576
L37033 21652
L37033 21709
L37014 21785
L36995 21823
L36957 21861
L36900 21880
L36804 21880
" />
<path d="M35966 20480
L36100 20880
L36233 20480
" />
<path d="M36595 20842
L36576 20861
L36519 20880
L36480 20880
L36423 20861
L36385 20823
L36366 20785
L36347 20709
L36347 20652
L36366 20576
L36385 20538
L36423 20500
L36480 20480
L36519 20480
L36576 20500
L36595 20519
" />
<path d="M36995 20842
L36976 20861
L36919 20880
L36880 20880
L36823 20861
L36785 20823
L36766 20785
L36747 20709
L36747 20652
L36766 20576
L36785 20538
L36823 20500
L36880 20480
L36919 20480
L36976 20500
L36995 20519
" />
<path d="M24385 21380
L24614 21380
" />
<path d="M24500 21780
L24500 21380
" />
<path d="M24709 21380
L24976 21780
" />
<path d="M24976 21380
L24709 21780
" />
<path d="M25204 21380
L25280 21380
L25319 21400
L25357 21438
L25376 21514
L25376 21647
L25357 21723
L25319 21761
L25280 21780
L25204 21780
L25166 21761
L25128 21723
L25109 21647
L25109 21514
L25128 21438
L25166 21400
L25204 21380
" />
<path d="M24642 20780
L24509 20590
" />
<path d="M24414 20780
L24414 20380
L24566 20380
L24604 20400
L24623 20419
L24642 20457
L24642 20514
L24623 20552
L24604 20571
L24566 20590
L24414 20590
" />
<path d="M24776 20380
L25042 20780
" />
<path d="M25042 20380
L24776 20780
" />
<path d="M25271 20380
L25309 20380
L25347 20400
L25366 20419
L25385 20457
L25404 20533
L25404 20628
L25385 20704
L25366 20742
L25347 20761
L25309 20780
L25271 20780
L25233 20761
L25214 20742
L25195 20704
L25176 20628
L25176 20533
L25195 20457
L25214 20419
L25233 20400
L25271 20380
" />
<path d="M35888 31780
L35888 31380
" />
<path d="M36078 31780
L36078 31380
L36307 31780
L36307 31380
" />
<path d="M36440 31380
L36669 31380
" />
<path d="M36554 31780
L36554 31380
" />
<path d="M37030 31780
L36897 31590
" />
<path d="M36802 31780
L36802 31380
L36954 31380
L36992 31400
L37011 31419
L37030 31457
L37030 31514
L37011 31552
L36992 31571
L36954 31590
L36802 31590
" />
<path d="M36285 30780
L36285 30380
L36514 30780
L36514 30380
" />
<path d="M36933 30742
L36914 30761
L36857 30780
L36819 30780
L36761 30761
L36723 30723
L36704 30685
L36685 30609
L36685 30552
L36704 30476
L36723 30438
L36761 30400
L36819 30380
L36857 30380
L36914 30400
L36933 30419
" />
<path d="M24485 31780
L24485 31380
L24714 31780
L24714 31380
" />
<path d="M25133 31742
L25114 31761
L25057 31780
L25019 31780
L24961 31761
L24923 31723
L24904 31685
L24885 31609
L24885 31552
L24904 31476
L24923 31438
L24961 31400
L25019 31380
L25057 31380
L25114 31400
L25133 31419
" />
<path d="M24680 30780
L24547 30590
" />
<path d="M24452 30780
L24452 30380
L24604 30380
L24642 30400
L24661 30419
L24680 30457
L24680 30514
L24661 30552
L24642 30571
L24604 30590
L24452 30590
" />
<path d="M24833 30761
L24890 30780
L24985 30780
L25023 30761
L25042 30742
L25061 30704
L25061 30666
L25042 30628
L25023 30609
L24985 30590
L24909 30571
L24871 30552
L24852 30533
L24833 30495
L24833 30457
L24852 30419
L24871 30400
L24909 30380
L25004 30380
L25061 30400
" />
<path d="M25176 30380
L25404 30380
" />
<path d="M25290 30780
L25290 30380
" />
<path d="M36004 32880
L36004 32480
L36157 32480
L36195 32500
L36214 32519
L36233 32557
L36233 32614
L36214 32652
L36195 32671
L36157 32690
L36004 32690
" />
<path d="M36633 32842
L36614 32861
L36557 32880
L36519 32880
L36461 32861
L36423 32823
L36404 32785
L36385 32709
L36385 32652
L36404 32576
L36423 32538
L36461 32500
L36519 32480
L36557 32480
L36614 32500
L36633 32519
" />
<path d="M36766 32480
L37033 32480
L36861 32880
" />
<path d="M36004 33880
L36004 33480
L36157 33480
L36195 33500
L36214 33519
L36233 33557
L36233 33614
L36214 33652
L36195 33671
L36157 33690
L36004 33690
" />
<path d="M36633 33842
L36614 33861
L36557 33880
L36519 33880
L36461 33861
L36423 33823
L36404 33785
L36385 33709
L36385 33652
L36404 33576
L36423 33538
L36461 33500
L36519 33480
L36557 33480
L36614 33500
L36633 33519
" />
<path d="M36976 33480
L36900 33480
L36861 33500
L36842 33519
L36804 33576
L36785 33652
L36785 33804
L36804 33842
L36823 33861
L36861 33880
L36938 33880
L36976 33861
L36995 33842
L37014 33804
L37014 33709
L36995 33671
L36976 33652
L36938 33633
L36861 33633
L36823 33652
L36804 33671
L36785 33709
" />
<path d="M36004 34880
L36004 34480
L36157 34480
L36195 34500
L36214 34519
L36233 34557
L36233 34614
L36214 34652
L36195 34671
L36157 34690
L36004 34690
" />
<path d="M36633 34842
L36614 34861
L36557 34880
L36519 34880
L36461 34861
L36423 34823
L36404 34785
L36385 34709
L36385 34652
L36404 34576
L36423 34538
L36461 34500
L36519 34480
L36557 34480
L36614 34500
L36633 34519
" />
<path d="M36995 34480
L36804 34480
L36785 34671
L36804 34652
L36842 34633
L36938 34633
L36976 34652
L36995 34671
L37014 34709
L37014 34804
L36995 34842
L36976 34861
L36938 34880
L36842 34880
L36804 34861
L36785 34842
" />
<path d="M36004 35880
L36004 35480
L36157 35480
L36195 35500
L36214 35519
L36233 35557
L36233 35614
L36214 35652
L36195 35671
L36157 35690
L36004 35690
" />
<path d="M36633 35842
L36614 35861
L36557 35880
L36519 35880
L36461 35861
L36423 35823
L36404 35785
L36385 35709
L36385 35652
L36404 35576
L36423 35538
L36461 35500
L36519 35480
L36557 35480
L36614 35500
L36633 35519
" />
<path d="M36976 35614
L36976 35880
" />
<path d="M36880 35461
L36785 35747
L37033 35747
" />
<path d="M36004 36780
L36004 36380
L36157 36380
L36195 36400
L36214 36419
L36233 36457
L36233 36514
L36214 36552
L36195 36571
L36157 36590
L36004 36590
" />
<path d="M36633 36742
L36614 36761
L36557 36780
L36519 36780
L36461 36761
L36423 36723
L36404 36685
L36385 36609
L36385 36552
L36404 36476
L36423 36438
L36461 36400
L36519 36380
L36557 36380
L36614 36400
L36633 36419
" />
<path d="M36766 36380
L37014 36380
L36880 36533
L36938 36533
L36976 36552
L36995 36571
L37014 36609
L37014 36704
L36995 36742
L36976 36761
L36938 36780
L36823 36780
L36785 36761
L36766 36742
" />
<path d="M36004 37880
L36004 37480
L36157 37480
L36195 37500
L36214 37519
L36233 37557
L36233 37614
L36214 37652
L36195 37671
L36157 37690
L36004 37690
" />
<path d="M36633 37842
L36614 37861
L36557 37880
L36519 37880
L36461 37861
L36423 37823
L36404 37785
L36385 37709
L36385 37652
L36404 37576
L36423 37538
L36461 37500
L36519 37480
L36557 37480
L36614 37500
L36633 37519
" />
<path d="M36785 37519
L36804 37500
L36842 37480
L36938 37480
L36976 37500
L36995 37519
L37014 37557
L37014 37595
L36995 37652
L36766 37880
L37014 37880
" />
<path d="M36004 38880
L36004 38480
L36157 38480
L36195 38500
L36214 38519
L36233 38557
L36233 38614
L36214 38652
L36195 38671
L36157 38690
L36004 38690
" />
<path d="M36633 38842
L36614 38861
L36557 38880
L36519 38880
L36461 38861
L36423 38823
L36404 38785
L36385 38709
L36385 38652
L36404 38576
L36423 38538
L36461 38500
L36519 38480
L36557 38480
L36614 38500
L36633 38519
" />
<path d="M37014 38880
L36785 38880
" />
<path d="M36900 38880
L36900 38480
L36861 38538
L36823 38576
L36785 38595
" />
<path d="M36004 39880
L36004 39480
L36157 39480
L36195 39500
L36214 39519
L36233 39557
L36233 39614
L36214 39652
L36195 39671
L36157 39690
L36004 39690
" />
<path d="M36633 39842
L36614 39861
L36557 39880
L36519 39880
L36461 39861
L36423 39823
L36404 39785
L36385 39709
L36385 39652
L36404 39576
L36423 39538
L36461 39500
L36519 39480
L36557 39480
L36614 39500
L36633 39519
" />
<path d="M36880 39480
L36919 39480
L36957 39500
L36976 39519
L36995 39557
L37014 39633
L37014 39728
L36995 39804
L36976 39842
L36957 39861
L36919 39880
L36880 39880
L36842 39861
L36823 39842
L36804 39804
L36785 39728
L36785 39633
L36804 39557
L36823 39519
L36842 39500
L36880 39480
" />
<path d="M36033 29780
L36033 29380
L36185 29380
L36223 29400
L36242 29419
L36261 29457
L36261 29514
L36242 29552
L36223 29571
L36185 29590
L36033 29590
" />
<path d="M36414 29666
L36604 29666
" />
<path d="M36376 29780
L36509 29380
L36642 29780
" />
<path d="M36738 29380
L37004 29380
L36833 29780
" />
<path d="M36033 28780
L36033 28380
L36185 28380
L36223 28400
L36242 28419
L36261 28457
L36261 28514
L36242 28552
L36223 28571
L36185 28590
L36033 28590
" />
<path d="M36414 28666
L36604 28666
" />
<path d="M36376 28780
L36509 28380
L36642 28780
" />
<path d="M36947 28380
L36871 28380
L36833 28400
L36814 28419
L36776 28476
L36757 28552
L36757 28704
L36776 28742
L36795 28761
L36833 28780
L36909 28780
L36947 28761
L36966 28742
L36985 28704
L36985 28609
L36966 28571
L36947 28552
L36909 28533
L36833 28533
L36795 28552
L36776 28571
L36757 28609
" />
<path d="M36033 27780
L36033 27380
L36185 27380
L36223 27400
L36242 27419
L36261 27457
L36261 27514
L36242 27552
L36223 27571
L36185 27590
L36033 27590
" />
<path d="M36414 27666
L36604 27666
" />
<path d="M36376 27780
L36509 27380
L36642 27780
" />
<path d="M36966 27380
L36776 27380
L36757 27571
L36776 27552
L36814 27533
L36909 27533
L36947 27552
L36966 27571
L36985 27609
L36985 27704
L36966 27742
L36947 27761
L36909 27780
L36814 27780
L36776 27761
L36757 27742
" />
<path d="M36033 26780
L36033 26380
L36185 26380
L36223 26400
L36242 26419
L36261 26457
L36261 26514
L36242 26552
L36223 26571
L36185 26590
L36033 26590
" />
<path d="M36414 26666
L36604 26666
" />
<path d="M36376 26780
L36509 26380
L36642 26780
" />
<path d="M36947 26514
L36947 26780
" />
<path d="M36852 26361
L36757 26647
L37004 26647
" />
<path d="M36033 25780
L36033 25380
L36185 25380
L36223 25400
L36242 25419
L36261 25457
L36261 25514
L36242 25552
L36223 25571
L36185 25590
L36033 25590
" />
<path d="M36414 25666
L36604 25666
" />
<path d="M36376 25780
L36509 25380
L36642 25780
" />
<path d="M36738 25380
L36985 25380
L36852 25533
L36909 25533
L36947 25552
L36966 25571
L36985 25609
L36985 25704
L36966 25742
L36947 25761
L36909 25780
L36795 25780
L36757 25761
L36738 25742
" />
<path d="M36033 24780
L36033 24380
L36185 24380
L36223 24400
L36242 24419
L36261 24457
L36261 24514
L36242 24552
L36223 24571
L36185 24590
L36033 24590
" />
<path d="M36414 24666
L36604 24666
" />
<path d="M36376 24780
L36509 24380
L36642 24780
" />
<path d="M36757 24419
L36776 24400
L36814 24380
L36909 24380
L36947 24400
L36966 24419
L36985 24457
L36985 24495
L36966 24552
L36738 24780
L36985 24780
" />
<path d="M36033 23780
L36033 23380
L36185 23380
L36223 23400
L36242 23419
L36261 23457
L36261 23514
L36242 23552
L36223 23571
L36185 23590
L36033 23590
" />
<path d="M36414 23666
L36604 23666
" />
<path d="M36376 23780
L36509 23380
L36642 23780
" />
<path d="M36985 23780
L36757 23780
" />
<path d="M36871 23780
L36871 23380
L36833 23438
L36795 23476
L36757 23495
" />
<path d="M36033 22780
L36033 22380
L36185 22380
L36223 22400
L36242 22419
L36261 22457
L36261 22514
L36242 22552
L36223 22571
L36185 22590
L36033 22590
" />
<path d="M36414 22666
L36604 22666
" />
<path d="M36376 22780
L36509 22380
L36642 22780
" />
<path d="M36852 22380
L36890 22380
L36928 22400
L36947 22419
L36966 22457
L36985 22533
L36985 22628
L36966 22704
L36947 22742
L36928 22761
L36890 22780
L36852 22780
L36814 22761
L36795 22742
L36776 22704
L36757 22628
L36757 22533
L36776 22457
L36795 22419
L36814 22400
L36852 22380
" />
<path d="M24404 39780
L24404 39380
L24557 39380
L24595 39400
L24614 39419
L24633 39457
L24633 39514
L24614 39552
L24595 39571
L24557 39590
L24404 39590
" />
<path d="M24804 39780
L24804 39380
L24900 39380
L24957 39400
L24995 39438
L25014 39476
L25033 39552
L25033 39609
L25014 39685
L24995 39723
L24957 39761
L24900 39780
L24804 39780
" />
<path d="M25166 39380
L25433 39380
L25261 39780
" />
<path d="M24404 38780
L24404 38380
L24557 38380
L24595 38400
L24614 38419
L24633 38457
L24633 38514
L24614 38552
L24595 38571
L24557 38590
L24404 38590
" />
<path d="M24804 38780
L24804 38380
L24900 38380
L24957 38400
L24995 38438
L25014 38476
L25033 38552
L25033 38609
L25014 38685
L24995 38723
L24957 38761
L24900 38780
L24804 38780
" />
<path d="M25376 38380
L25300 38380
L25261 38400
L25242 38419
L25204 38476
L25185 38552
L25185 38704
L25204 38742
L25223 38761
L25261 38780
L25338 38780
L25376 38761
L25395 38742
L25414 38704
L25414 38609
L25395 38571
L25376 38552
L25338 38533
L25261 38533
L25223 38552
L25204 38571
L25185 38609
" />
<path d="M24404 37780
L24404 37380
L24557 37380
L24595 37400
L24614 37419
L24633 37457
L24633 37514
L24614 37552
L24595 37571
L24557 37590
L24404 37590
" />
<path d="M24804 37780
L24804 37380
L24900 37380
L24957 37400
L24995 37438
L25014 37476
L25033 37552
L25033 37609
L25014 37685
L24995 37723
L24957 37761
L24900 37780
L24804 37780
" />
<path d="M25395 37380
L25204 37380
L25185 37571
L25204 37552
L25242 37533
L25338 37533
L25376 37552
L25395 37571
L25414 37609
L25414 37704
L25395 37742
L25376 37761
L25338 37780
L25242 37780
L25204 37761
L25185 37742
" />
<path d="M24404 36780
L24404 36380
L24557 36380
L24595 36400
L24614 36419
L24633 36457
L24633 36514
L24614 36552
L24595 36571
L24557 36590
L24404 36590
" />
<path d="M24804 36780
L24804 36380
L24900 36380
L24957 36400
L24995 36438
L25014 36476
L25033 36552
L25033 36609
L25014 36685
L24995 36723
L24957 36761
L24900 36780
L24804 36780
" />
<path d="M25376 36514
L25376 36780
" />
<path d="M25280 36361
L25185 36647
L25433 36647
" />
<path d="M24404 35780
L24404 35380
L24557 35380
L24595 35400
L24614 35419
L24633 35457
L24633 35514
L24614 35552
L24595 35571
L24557 35590
L24404 35590
" />
<path d="M24804 35780
L24804 35380
L24900 35380
L24957 35400
L24995 35438
L25014 35476
L25033 35552
L25033 35609
L25014 35685
L24995 35723
L24957 35761
L24900 35780
L24804 35780
" />
<path d="M25166 35380
L25414 35380
L25280 35533
L25338 35533
L25376 35552
L25395 35571
L25414 35609
L25414 35704
L25395 35742
L25376 35761
L25338 35780
L25223 35780
L25185 35761
L25166 35742
" />
<path d="M24404 34880
L24404 34480
L24557 34480
L24595 34500
L24614 34519
L24633 34557
L24633 34614
L24614 34652
L24595 34671
L24557 34690
L24404 34690
" />
<path d="M24804 34880
L24804 34480
L24900 34480
L24957 34500
L24995 34538
L25014 34576
L25033 34652
L25033 34709
L25014 34785
L24995 34823
L24957 34861
L24900 34880
L24804 34880
" />
<path d="M25185 34519
L25204 34500
L25242 34480
L25338 34480
L25376 34500
L25395 34519
L25414 34557
L25414 34595
L25395 34652
L25166 34880
L25414 34880
" />
<path d="M24404 33780
L24404 33380
L24557 33380
L24595 33400
L24614 33419
L24633 33457
L24633 33514
L24614 33552
L24595 33571
L24557 33590
L24404 33590
" />
<path d="M24804 33780
L24804 33380
L24900 33380
L24957 33400
L24995 33438
L25014 33476
L25033 33552
L25033 33609
L25014 33685
L24995 33723
L24957 33761
L24900 33780
L24804 33780
" />
<path d="M25414 33780
L25185 33780
" />
<path d="M25300 33780
L25300 33380
L25261 33438
L25223 33476
L25185 33495
" />
<path d="M24404 32780
L24404 32380
L24557 32380
L24595 32400
L24614 32419
L24633 32457
L24633 32514
L24614 32552
L24595 32571
L24557 32590
L24404 32590
" />
<path d="M24804 32780
L24804 32380
L24900 32380
L24957 32400
L24995 32438
L25014 32476
L25033 32552
L25033 32609
L25014 32685
L24995 32723
L24957 32761
L24900 32780
L24804 32780
" />
<path d="M25280 32380
L25319 32380
L25357 32400
L25376 32419
L25395 32457
L25414 32533
L25414 32628
L25395 32704
L25376 32742
L25357 32761
L25319 32780
L25280 32780
L25242 32761
L25223 32742
L25204 32704
L25185 32628
L25185 32533
L25204 32457
L25223 32419
L25242 32400
L25280 32380
" />
<path d="M24404 29780
L24404 29380
L24557 29380
L24595 29400
L24614 29419
L24633 29457
L24633 29514
L24614 29552
L24595 29571
L24557 29590
L24404 29590
" />
<path d="M24938 29571
L24995 29590
L25014 29609
L25033 29647
L25033 29704
L25014 29742
L24995 29761
L24957 29780
L24804 29780
L24804 29380
L24938 29380
L24976 29400
L24995 29419
L25014 29457
L25014 29495
L24995 29533
L24976 29552
L24938 29571
L24804 29571
" />
<path d="M25166 29380
L25433 29380
L25261 29780
" />
<path d="M24404 28780
L24404 28380
L24557 28380
L24595 28400
L24614 28419
L24633 28457
L24633 28514
L24614 28552
L24595 28571
L24557 28590
L24404 28590
" />
<path d="M24938 28571
L24995 28590
L25014 28609
L25033 28647
L25033 28704
L25014 28742
L24995 28761
L24957 28780
L24804 28780
L24804 28380
L24938 28380
L24976 28400
L24995 28419
L25014 28457
L25014 28495
L24995 28533
L24976 28552
L24938 28571
L24804 28571
" />
<path d="M25376 28380
L25300 28380
L25261 28400
L25242 28419
L25204 28476
L25185 28552
L25185 28704
L25204 28742
L25223 28761
L25261 28780
L25338 28780
L25376 28761
L25395 28742
L25414 28704
L25414 28609
L25395 28571
L25376 28552
L25338 28533
L25261 28533
L25223 28552
L25204 28571
L25185 28609
" />
<path d="M24404 27780
L24404 27380
L24557 27380
L24595 27400
L24614 27419
L24633 27457
L24633 27514
L24614 27552
L24595 27571
L24557 27590
L24404 27590
" />
<path d="M24938 27571
L24995 27590
L25014 27609
L25033 27647
L25033 27704
L25014 27742
L24995 27761
L24957 27780
L24804 27780
L24804 27380
L24938 27380
L24976 27400
L24995 27419
L25014 27457
L25014 27495
L24995 27533
L24976 27552
L24938 27571
L24804 27571
" />
<path d="M25395 27380
L25204 27380
L25185 27571
L25204 27552
L25242 27533
L25338 27533
L25376 27552
L25395 27571
L25414 27609
L25414 27704
L25395 27742
L25376 27761
L25338 27780
L25242 27780
L25204 27761
L25185 27742
" />
<path d="M24404 26780
L24404 26380
L24557 26380
L24595 26400
L24614 26419
L24633 26457
L24633 26514
L24614 26552
L24595 26571
L24557 26590
L24404 26590
" />
<path d="M24938 26571
L24995 26590
L25014 26609
L25033 26647
L25033 26704
L25014 26742
L24995 26761
L24957 26780
L24804 26780
L24804 26380
L24938 26380
L24976 26400
L24995 26419
L25014 26457
L25014 26495
L24995 26533
L24976 26552
L24938 26571
L24804 26571
" />
<path d="M25376 26514
L25376 26780
" />
<path d="M25280 26361
L25185 26647
L25433 26647
" />
<path d="M24404 25780
L24404 25380
L24557 25380
L24595 25400
L24614 25419
L24633 25457
L24633 25514
L24614 25552
L24595 25571
L24557 25590
L24404 25590
" />
<path d="M24938 25571
L24995 25590
L25014 25609
L25033 25647
L25033 25704
L25014 25742
L24995 25761
L24957 25780
L24804 25780
L24804 25380
L24938 25380
L24976 25400
L24995 25419
L25014 25457
L25014 25495
L24995 25533
L24976 25552
L24938 25571
L24804 25571
" />
<path d="M25166 25380
L25414 25380
L25280 25533
L25338 25533
L25376 25552
L25395 25571
L25414 25609
L25414 25704
L25395 25742
L25376 25761
L25338 25780
L25223 25780
L25185 25761
L25166 25742
" />
<path d="M24404 24780
L24404 24380
L24557 24380
L24595 24400
L24614 24419
L24633 24457
L24633 24514
L24614 24552
L24595 24571
L24557 24590
L24404 24590
" />
<path d="M24938 24571
L24995 24590
L25014 24609
L25033 24647
L25033 24704
L25014 24742
L24995 24761
L24957 24780
L24804 24780
L24804 24380
L24938 24380
L24976 24400
L24995 24419
L25014 24457
L25014 24495
L24995 24533
L24976 24552
L24938 24571
L24804 24571
" />
<path d="M25185 24419
L25204 24400
L25242 24380
L25338 24380
L25376 24400
L25395 24419
L25414 24457
L25414 24495
L25395 24552
L25166 24780
L25414 24780
" />
<path d="M24404 23780
L24404 23380
L24557 23380
L24595 23400
L24614 23419
L24633 23457
L24633 23514
L24614 23552
L24595 23571
L24557 23590
L24404 23590
" />
<path d="M24938 23571
L24995 23590
L25014 23609
L25033 23647
L25033 23704
L25014 23742
L24995 23761
L24957 23780
L24804 23780
L24804 23380
L24938 23380
L24976 23400
L24995 23419
L25014 23457
L25014 23495
L24995 23533
L24976 23552
L24938 23571
L24804 23571
" />
<path d="M25414 23780
L25185 23780
" />
<path d="M25300 23780
L25300 23380
L25261 23438
L25223 23476
L25185 23495
" />
<path d="M24404 22780
L24404 22380
L24557 22380
L24595 22400
L24614 22419
L24633 22457
L24633 22514
L24614 22552
L24595 22571
L24557 22590
L24404 22590
" />
<path d="M24938 22571
L24995 22590
L25014 22609
L25033 22647
L25033 22704
L25014 22742
L24995 22761
L24957 22780
L24804 22780
L24804 22380
L24938 22380
L24976 22400
L24995 22419
L25014 22457
L25014 22495
L24995 22533
L24976 22552
L24938 22571
L24804 22571
" />
<path d="M25280 22380
L25319 22380
L25357 22400
L25376 22419
L25395 22457
L25414 22533
L25414 22628
L25395 22704
L25376 22742
L25357 22761
L25319 22780
L25280 22780
L25242 22761
L25223 22742
L25204 22704
L25185 22628
L25185 22533
L25204 22457
L25223 22419
L25242 22400
L25280 22380
" />
<path d="M38019 16333
L38419 16333
L38419 16485
L38400 16523
L38380 16542
L38342 16561
L38285 16561
L38247 16542
L38228 16523
L38209 16485
L38209 16333
" />
<path d="M38228 16866
L38228 16733
" />
<path d="M38019 16733
L38419 16733
L38419 16923
" />
<path d="M38419 17038
L38419 17304
L38019 17133
" />
<path d="M36919 16333
L37319 16333
L37319 16485
L37300 16523
L37280 16542
L37242 16561
L37185 16561
L37147 16542
L37128 16523
L37109 16485
L37109 16333
" />
<path d="M37128 16866
L37128 16733
" />
<path d="M36919 16733
L37319 16733
L37319 16923
" />
<path d="M37319 17247
L37319 17171
L37300 17133
L37280 17114
L37223 17076
L37147 17057
L36995 17057
L36957 17076
L36938 17095
L36919 17133
L36919 17209
L36938 17247
L36957 17266
L36995 17285
L37090 17285
L37128 17266
L37147 17247
L37166 17209
L37166 17133
L37147 17095
L37128 17076
L37090 17057
" />
<path d="M36019 16333
L36419 16333
L36419 16485
L36400 16523
L36380 16542
L36342 16561
L36285 16561
L36247 16542
L36228 16523
L36209 16485
L36209 16333
" />
<path d="M36228 16866
L36228 16733
" />
<path d="M36019 16733
L36419 16733
L36419 16923
" />
<path d="M36419 17266
L36419 17076
L36228 17057
L36247 17076
L36266 17114
L36266 17209
L36247 17247
L36228 17266
L36190 17285
L36095 17285
L36057 17266
L36038 17247
L36019 17209
L36019 17114
L36038 17076
L36057 17057
" />
<path d="M35019 16333
L35419 16333
L35419 16485
L35400 16523
L35380 16542
L35342 16561
L35285 16561
L35247 16542
L35228 16523
L35209 16485
L35209 16333
" />
<path d="M35228 16866
L35228 16733
" />
<path d="M35019 16733
L35419 16733
L35419 16923
" />
<path d="M35285 17247
L35019 17247
" />
<path d="M35438 17152
L35152 17057
L35152 17304
" />
<path d="M33919 16333
L34319 16333
L34319 16485
L34300 16523
L34280 16542
L34242 16561
L34185 16561
L34147 16542
L34128 16523
L34109 16485
L34109 16333
" />
<path d="M34128 16866
L34128 16733
" />
<path d="M33919 16733
L34319 16733
L34319 16923
" />
<path d="M34319 17038
L34319 17285
L34166 17152
L34166 17209
L34147 17247
L34128 17266
L34090 17285
L33995 17285
L33957 17266
L33938 17247
L33919 17209
L33919 17095
L33938 17057
L33957 17038
" />
<path d="M32919 16333
L33319 16333
L33319 16485
L33300 16523
L33280 16542
L33242 16561
L33185 16561
L33147 16542
L33128 16523
L33109 16485
L33109 16333
" />
<path d="M33128 16866
L33128 16733
" />
<path d="M32919 16733
L33319 16733
L33319 16923
" />
<path d="M33280 17057
L33300 17076
L33319 17114
L33319 17209
L33300 17247
L33280 17266
L33242 17285
L33204 17285
L33147 17266
L32919 17038
L32919 17285
" />
<path d="M31919 16333
L32319 16333
L32319 16485
L32300 16523
L32280 16542
L32242 16561
L32185 16561
L32147 16542
L32128 16523
L32109 16485
L32109 16333
" />
<path d="M32128 16866
L32128 16733
" />
<path d="M31919 16733
L32319 16733
L32319 16923
" />
<path d="M31919 17285
L31919 17057
" />
<path d="M31919 17171
L32319 17171
L32261 17133
L32223 17095
L32204 17057
" />
<path d="M31019 16333
L31419 16333
L31419 16485
L31400 16523
L31380 16542
L31342 16561
L31285 16561
L31247 16542
L31228 16523
L31209 16485
L31209 16333
" />
<path d="M31228 16866
L31228 16733
" />
<path d="M31019 16733
L31419 16733
L31419 16923
" />
<path d="M31419 17152
L31419 17190
L31400 17228
L31380 17247
L31342 17266
L31266 17285
L31171 17285
L31095 17266
L31057 17247
L31038 17228
L31019 17190
L31019 17152
L31038 17114
L31057 17095
L31095 17076
L31171 17057
L31266 17057
L31342 17076
L31380 17095
L31400 17114
L31419 17152
" />
<path d="M22919 16323
L23319 16323
L23319 16476
L23300 16514
L23280 16533
L23242 16552
L23185 16552
L23147 16533
L23128 16514
L23109 16476
L23109 16323
" />
<path d="M23128 16723
L23128 16857
" />
<path d="M22919 16914
L22919 16723
L23319 16723
L23319 16914
" />
<path d="M23319 17047
L23319 17314
L22919 17142
" />
<path d="M23919 16323
L24319 16323
L24319 16476
L24300 16514
L24280 16533
L24242 16552
L24185 16552
L24147 16533
L24128 16514
L24109 16476
L24109 16323
" />
<path d="M24128 16723
L24128 16857
" />
<path d="M23919 16914
L23919 16723
L24319 16723
L24319 16914
" />
<path d="M24319 17257
L24319 17180
L24300 17142
L24280 17123
L24223 17085
L24147 17066
L23995 17066
L23957 17085
L23938 17104
L23919 17142
L23919 17219
L23938 17257
L23957 17276
L23995 17295
L24090 17295
L24128 17276
L24147 17257
L24166 17219
L24166 17142
L24147 17104
L24128 17085
L24090 17066
" />
<path d="M24919 16323
L25319 16323
L25319 16476
L25300 16514
L25280 16533
L25242 16552
L25185 16552
L25147 16533
L25128 16514
L25109 16476
L25109 16323
" />
<path d="M25128 16723
L25128 16857
" />
<path d="M24919 16914
L24919 16723
L25319 16723
L25319 16914
" />
<path d="M25319 17276
L25319 17085
L25128 17066
L25147 17085
L25166 17123
L25166 17219
L25147 17257
L25128 17276
L25090 17295
L24995 17295
L24957 17276
L24938 17257
L24919 17219
L24919 17123
L24938 17085
L24957 17066
" />
<path d="M26019 16323
L26419 16323
L26419 16476
L26400 16514
L26380 16533
L26342 16552
L26285 16552
L26247 16533
L26228 16514
L26209 16476
L26209 16323
" />
<path d="M26228 16723
L26228 16857
" />
<path d="M26019 16914
L26019 16723
L26419 16723
L26419 16914
" />
<path d="M26285 17257
L26019 17257
" />
<path d="M26438 17161
L26152 17066
L26152 17314
" />
<path d="M27019 16323
L27419 16323
L27419 16476
L27400 16514
L27380 16533
L27342 16552
L27285 16552
L27247 16533
L27228 16514
L27209 16476
L27209 16323
" />
<path d="M27228 16723
L27228 16857
" />
<path d="M27019 16914
L27019 16723
L27419 16723
L27419 16914
" />
<path d="M27419 17047
L27419 17295
L27266 17161
L27266 17219
L27247 17257
L27228 17276
L27190 17295
L27095 17295
L27057 17276
L27038 17257
L27019 17219
L27019 17104
L27038 17066
L27057 17047
" />
<path d="M27919 16323
L28319 16323
L28319 16476
L28300 16514
L28280 16533
L28242 16552
L28185 16552
L28147 16533
L28128 16514
L28109 16476
L28109 16323
" />
<path d="M28128 16723
L28128 16857
" />
<path d="M27919 16914
L27919 16723
L28319 16723
L28319 16914
" />
<path d="M28280 17066
L28300 17085
L28319 17123
L28319 17219
L28300 17257
L28280 17276
L28242 17295
L28204 17295
L28147 17276
L27919 17047
L27919 17295
" />
<path d="M29019 16323
L29419 16323
L29419 16476
L29400 16514
L29380 16533
L29342 16552
L29285 16552
L29247 16533
L29228 16514
L29209 16476
L29209 16323
" />
<path d="M29228 16723
L29228 16857
" />
<path d="M29019 16914
L29019 16723
L29419 16723
L29419 16914
" />
<path d="M29019 17295
L29019 17066
" />
<path d="M29019 17180
L29419 17180
L29361 17142
L29323 17104
L29304 17066
" />
<path d="M29919 16323
L30319 16323
L30319 16476
L30300 16514
L30280 16533
L30242 16552
L30185 16552
L30147 16533
L30128 16514
L30109 16476
L30109 16323
" />
<path d="M30128 16723
L30128 16857
" />
<path d="M29919 16914
L29919 16723
L30319 16723
L30319 16914
" />
<path d="M30319 17161
L30319 17200
L30300 17238
L30280 17257
L30242 17276
L30166 17295
L30071 17295
L29995 17276
L29957 17257
L29938 17238
L29919 17200
L29919 17161
L29938 17123
L29957 17104
L29995 17085
L30071 17066
L30166 17066
L30242 17085
L30280 17104
L30300 17123
L30319 17161
" />
</g>
<g style="fill:#000000; fill-opacity:0.0; 
stroke:#000000; stroke-width:26; stroke-opacity:1; 
stroke-linecap:round; stroke-linejoin:round;">
<path d="M32718 31026
L33022 31330
" />
<path d="M33022 31330
L33150 31203
" />
<path d="M32846 30899
L33150 31203
" />
<path d="M32718 31026
L32846 30899
" />
<path d="M32937 30807
L33242 31111
" />
<path d="M33242 31111
L33369 30984
" />
<path d="M33065 30680
L33369 30984
" />
<path d="M32937 30807
L33065 30680
" />
<path d="M33157 30588
L33461 30892
" />
<path d="M33461 30892
L33587 30765
" />
<path d="M33283 30461
L33587 30765
" />
<path d="M33157 30588
L33283 30461
" />
<path d="M33376 30369
L33680 30673
" />
<path d="M33680 30673
L33807 30546
" />
<path d="M33503 30241
L33807 30546
" />
<path d="M33376 30369
L33503 30241
" />
<path d="M33595 30150
L33899 30454
" />
<path d="M33899 30454
L34026 30326
" />
<path d="M33722 30022
L34026 30326
" />
<path d="M33595 30150
L33722 30022
" />
<path d="M33814 29930
L34118 30234
" />
<path d="M34118 30234
L34246 30107
" />
<path d="M33942 29803
L34246 30107
" />
<path d="M33814 29930
L33942 29803
" />
<path d="M34034 29711
L34338 30015
" />
<path d="M34338 30015
L34465 29888
" />
<path d="M34161 29584
L34465 29888
" />
<path d="M34034 29711
L34161 29584
" />
<path d="M34253 29492
L34557 29796
" />
<path d="M34557 29796
L34684 29669
" />
<path d="M34380 29365
L34684 29669
" />
<path d="M34253 29492
L34380 29365
" />
<path d="M32499 31246
L32803 31550
" />
<path d="M32803 31550
L32930 31422
" />
<path d="M32626 31118
L32930 31422
" />
<path d="M32499 31246
L32626 31118
" />
<path d="M32280 31465
L32584 31769
" />
<path d="M32584 31769
L32711 31642
" />
<path d="M32407 31337
L32711 31642
" />
<path d="M32280 31465
L32407 31337
" />
<path d="M32061 31683
L32365 31987
" />
<path d="M32365 31987
L32492 31861
" />
<path d="M32188 31557
L32492 31861
" />
<path d="M32061 31683
L32188 31557
" />
<path d="M31841 31903
L32146 32207
" />
<path d="M32146 32207
L32273 32080
" />
<path d="M31969 31776
L32273 32080
" />
<path d="M31841 31903
L31969 31776
" />
<path d="M31622 32122
L31926 32426
" />
<path d="M31926 32426
L32054 32299
" />
<path d="M31750 31995
L32054 32299
" />
<path d="M31622 32122
L31750 31995
" />
<path d="M31403 32342
L31707 32646
" />
<path d="M31707 32646
L31834 32518
" />
<path d="M31530 32214
L31834 32518
" />
<path d="M31403 32342
L31530 32214
" />
<path d="M31184 32561
L31488 32865
" />
<path d="M31488 32865
L31615 32738
" />
<path d="M31311 32434
L31615 32738
" />
<path d="M31184 32561
L31311 32434
" />
<path d="M30965 32780
L31269 33084
" />
<path d="M31269 33084
L31396 32957
" />
<path d="M31092 32653
L31396 32957
" />
<path d="M30965 32780
L31092 32653
" />
<path d="M28469 31422
L28596 31550
" />
<path d="M28596 31550
L28900 31246
" />
<path d="M28773 31118
L28900 31246
" />
<path d="M28469 31422
L28773 31118
" />
<path d="M28688 31642
L28815 31769
" />
<path d="M28815 31769
L29119 31465
" />
<path d="M28992 31337
L29119 31465
" />
<path d="M28688 31642
L28992 31337
" />
<path d="M28907 31861
L29034 31987
" />
<path d="M29034 31987
L29338 31683
" />
<path d="M29211 31557
L29338 31683
" />
<path d="M28907 31861
L29211 31557
" />
<path d="M29126 32080
L29253 32207
" />
<path d="M29253 32207
L29558 31903
" />
<path d="M29430 31776
L29558 31903
" />
<path d="M29126 32080
L29430 31776
" />
<path d="M29345 32299
L29473 32426
" />
<path d="M29473 32426
L29777 32122
" />
<path d="M29649 31995
L29777 32122
" />
<path d="M29345 32299
L29649 31995
" />
<path d="M29565 32518
L29692 32646
" />
<path d="M29692 32646
L29996 32342
" />
<path d="M29869 32214
L29996 32342
" />
<path d="M29565 32518
L29869 32214
" />
<path d="M29784 32738
L29911 32865
" />
<path d="M29911 32865
L30215 32561
" />
<path d="M30088 32434
L30215 32561
" />
<path d="M29784 32738
L30088 32434
" />
<path d="M30003 32957
L30130 33084
" />
<path d="M30130 33084
L30434 32780
" />
<path d="M30307 32653
L30434 32780
" />
<path d="M30003 32957
L30307 32653
" />
<path d="M28249 31203
L28377 31330
" />
<path d="M28377 31330
L28681 31026
" />
<path d="M28553 30899
L28681 31026
" />
<path d="M28249 31203
L28553 30899
" />
<path d="M28030 30984
L28157 31111
" />
<path d="M28157 31111
L28462 30807
" />
<path d="M28334 30680
L28462 30807
" />
<path d="M28030 30984
L28334 30680
" />
<path d="M27812 30765
L27938 30892
" />
<path d="M27938 30892
L28242 30588
" />
<path d="M28116 30461
L28242 30588
" />
<path d="M27812 30765
L28116 30461
" />
<path d="M27592 30546
L27719 30673
" />
<path d="M27719 30673
L28023 30369
" />
<path d="M27896 30241
L28023 30369
" />
<path d="M27592 30546
L27896 30241
" />
<path d="M27373 30326
L27500 30454
" />
<path d="M27500 30454
L27804 30150
" />
<path d="M27677 30022
L27804 30150
" />
<path d="M27373 30326
L27677 30022
" />
<path d="M27153 30107
L27281 30234
" />
<path d="M27281 30234
L27585 29930
" />
<path d="M27457 29803
L27585 29930
" />
<path d="M27153 30107
L27457 29803
" />
<path d="M26934 29888
L27061 30015
" />
<path d="M27061 30015
L27365 29711
" />
<path d="M27238 29584
L27365 29711
" />
<path d="M26934 29888
L27238 29584
" />
<path d="M26715 29669
L26842 29796
" />
<path d="M26842 29796
L27146 29492
" />
<path d="M27019 29365
L27146 29492
" />
<path d="M26715 29669
L27019 29365
" />
<path d="M28249 26996
L28553 27300
" />
<path d="M28553 27300
L28681 27173
" />
<path d="M28377 26869
L28681 27173
" />
<path d="M28249 26996
L28377 26869
" />
<path d="M28030 27215
L28334 27519
" />
<path d="M28334 27519
L28462 27392
" />
<path d="M28157 27088
L28462 27392
" />
<path d="M28030 27215
L28157 27088
" />
<path d="M27812 27434
L28116 27738
" />
<path d="M28116 27738
L28242 27611
" />
<path d="M27938 27307
L28242 27611
" />
<path d="M27812 27434
L27938 27307
" />
<path d="M27592 27653
L27896 27958
" />
<path d="M27896 27958
L28023 27830
" />
<path d="M27719 27526
L28023 27830
" />
<path d="M27592 27653
L27719 27526
" />
<path d="M27373 27873
L27677 28177
" />
<path d="M27677 28177
L27804 28049
" />
<path d="M27500 27745
L27804 28049
" />
<path d="M27373 27873
L27500 27745
" />
<path d="M27153 28092
L27457 28396
" />
<path d="M27457 28396
L27585 28269
" />
<path d="M27281 27965
L27585 28269
" />
<path d="M27153 28092
L27281 27965
" />
<path d="M26934 28311
L27238 28615
" />
<path d="M27238 28615
L27365 28488
" />
<path d="M27061 28184
L27365 28488
" />
<path d="M26934 28311
L27061 28184
" />
<path d="M26715 28530
L27019 28834
" />
<path d="M27019 28834
L27146 28707
" />
<path d="M26842 28403
L27146 28707
" />
<path d="M26715 28530
L26842 28403
" />
<path d="M28469 26777
L28773 27081
" />
<path d="M28773 27081
L28900 26953
" />
<path d="M28596 26649
L28900 26953
" />
<path d="M28469 26777
L28596 26649
" />
<path d="M28688 26557
L28992 26862
" />
<path d="M28992 26862
L29119 26734
" />
<path d="M28815 26430
L29119 26734
" />
<path d="M28688 26557
L28815 26430
" />
<path d="M28907 26338
L29211 26642
" />
<path d="M29211 26642
L29338 26516
" />
<path d="M29034 26212
L29338 26516
" />
<path d="M28907 26338
L29034 26212
" />
<path d="M29126 26119
L29430 26423
" />
<path d="M29430 26423
L29558 26296
" />
<path d="M29253 25992
L29558 26296
" />
<path d="M29126 26119
L29253 25992
" />
<path d="M29345 25900
L29649 26204
" />
<path d="M29649 26204
L29777 26077
" />
<path d="M29473 25773
L29777 26077
" />
<path d="M29345 25900
L29473 25773
" />
<path d="M29565 25681
L29869 25985
" />
<path d="M29869 25985
L29996 25857
" />
<path d="M29692 25553
L29996 25857
" />
<path d="M29565 25681
L29692 25553
" />
<path d="M29784 25461
L30088 25765
" />
<path d="M30088 25765
L30215 25638
" />
<path d="M29911 25334
L30215 25638
" />
<path d="M29784 25461
L29911 25334
" />
<path d="M30003 25242
L30307 25546
" />
<path d="M30307 25546
L30434 25419
" />
<path d="M30130 25115
L30434 25419
" />
<path d="M30003 25242
L30130 25115
" />
<path d="M32499 26953
L32626 27081
" />
<path d="M32626 27081
L32930 26777
" />
<path d="M32803 26649
L32930 26777
" />
<path d="M32499 26953
L32803 26649
" />
<path d="M32280 26734
L32407 26862
" />
<path d="M32407 26862
L32711 26557
" />
<path d="M32584 26430
L32711 26557
" />
<path d="M32280 26734
L32584 26430
" />
<path d="M32061 26516
L32188 26642
" />
<path d="M32188 26642
L32492 26338
" />
<path d="M32365 26212
L32492 26338
" />
<path d="M32061 26516
L32365 26212
" />
<path d="M31841 26296
L31969 26423
" />
<path d="M31969 26423
L32273 26119
" />
<path d="M32146 25992
L32273 26119
" />
<path d="M31841 26296
L32146 25992
" />
<path d="M31622 26077
L31750 26204
" />
<path d="M31750 26204
L32054 25900
" />
<path d="M31926 25773
L32054 25900
" />
<path d="M31622 26077
L31926 25773
" />
<path d="M31403 25857
L31530 25985
" />
<path d="M31530 25985
L31834 25681
" />
<path d="M31707 25553
L31834 25681
" />
<path d="M31403 25857
L31707 25553
" />
<path d="M31184 25638
L31311 25765
" />
<path d="M31311 25765
L31615 25461
" />
<path d="M31488 25334
L31615 25461
" />
<path d="M31184 25638
L31488 25334
" />
<path d="M30965 25419
L31092 25546
" />
<path d="M31092 25546
L31396 25242
" />
<path d="M31269 25115
L31396 25242
" />
<path d="M30965 25419
L31269 25115
" />
<path d="M32718 27173
L32846 27300
" />
<path d="M32846 27300
L33150 26996
" />
<path d="M33022 26869
L33150 26996
" />
<path d="M32718 27173
L33022 26869
" />
<path d="M32937 27392
L33065 27519
" />
<path d="M33065 27519
L33369 27215
" />
<path d="M33242 27088
L33369 27215
" />
<path d="M32937 27392
L33242 27088
" />
<path d="M33157 27611
L33283 27738
" />
<path d="M33283 27738
L33587 27434
" />
<path d="M33461 27307
L33587 27434
" />
<path d="M33157 27611
L33461 27307
" />
<path d="M33376 27830
L33503 27958
" />
<path d="M33503 27958
L33807 27653
" />
<path d="M33680 27526
L33807 27653
" />
<path d="M33376 27830
L33680 27526
" />
<path d="M33595 28049
L33722 28177
" />
<path d="M33722 28177
L34026 27873
" />
<path d="M33899 27745
L34026 27873
" />
<path d="M33595 28049
L33899 27745
" />
<path d="M33814 28269
L33942 28396
" />
<path d="M33942 28396
L34246 28092
" />
<path d="M34118 27965
L34246 28092
" />
<path d="M33814 28269
L34118 27965
" />
<path d="M34034 28488
L34161 28615
" />
<path d="M34161 28615
L34465 28311
" />
<path d="M34338 28184
L34465 28311
" />
<path d="M34034 28488
L34338 28184
" />
<path d="M34253 28707
L34380 28834
" />
<path d="M34380 28834
L34684 28530
" />
<path d="M34557 28403
L34684 28530
" />
<path d="M34253 28707
L34557 28403
" />
</g>
<g style="fill:#000000; fill-opacity:0.0; 
stroke:#000000; stroke-width:70; stroke-opacity:1; 
stroke-linecap:round; stroke-linejoin:round;">
<path d="M34617 29100
L30700 33017
" />
<path d="M30700 33017
L26782 29100
" />
<path d="M26782 29100
L30579 25302
" />
<path d="M30820 25302
L34617 29100
" />
<path d="M30579 25302
L30820 25302
" />
</g>
<g style="fill:#000000; fill-opacity:0.0; 
stroke:#000000; stroke-width:1; stroke-opacity:1; 
stroke-linecap:round; stroke-linejoin:round;">
<circle cx="30700" cy="25813.4" r="77.7819" /> 
</g>
<g style="fill:#000000; fill-opacity:0.0; 
stroke:#000000; stroke-width:100; stroke-opacity:1; 
stroke-linecap:round; stroke-linejoin:round;">
<path d="M34550 21300
L34800 21550
" />
<path d="M34550 18300
L34800 18050
" />
<path d="M27050 18300
L26800 18050
" />
<path d="M27050 21300
L26800 21550
" />
<path d="M30050 18050
L30050 18300
" />
<path d="M30050 18300
L27050 18300
" />
<path d="M27050 18300
L27050 21300
" />
<path d="M27050 21300
L34550 21300
" />
<path d="M34550 21300
L34550 18300
" />
<path d="M34550 18300
L31550 18300
" />
<path d="M31550 18300
L31550 18050
" />
<path d="M34800 18050
L26800 18050
" />
<path d="M26800 21550
L34800 21550
" />
<path d="M34800 21550
L34800 18050
" />
<path d="M26800 21550
L26800 18050
" />
</g>
<g style="fill:#000000; fill-opacity:0.0; 
stroke:#000000; stroke-width:160; stroke-opacity:1; 
stroke-linecap:round; stroke-linejoin:round;">
<path d="M33752 19025
L33477 18604
" />
<path d="M33477 18604
L33201 19025
" />
<path d="M33201 19025
L33752 19025
" />
</g>
<g style="fill:#000000; fill-opacity:0.0; 
stroke:#000000; stroke-width:150; stroke-opacity:1; 
stroke-linecap:round; stroke-linejoin:round;">
<path d="M24700 40600
L26200 40600
" />
<path d="M26200 40600
L26200 43350
" />
<path d="M26200 43350
L23200 43350
" />
<path d="M23200 43350
L23200 40600
" />
<path d="M23200 40600
L24700 40600
" />
<circle cx="24700" cy="42100" r="500" /> 
</g>
<g style="fill:#000000; fill-opacity:0.0; 
stroke:#000000; stroke-width:50; stroke-opacity:1; 
stroke-linecap:round; stroke-linejoin:round;">
<path d="M30150 39500
L31050 39500
" />
<path d="M31050 39500
L31050 38850
" />
<path d="M30150 38150
L30150 37500
" />
<path d="M30150 37500
L31050 37500
" />
<path d="M31050 37500
L31050 38150
" />
<path d="M30150 38850
L30150 39500
" />
<path d="M31550 39500
L32450 39500
" />
<path d="M32450 39500
L32450 38850
" />
<path d="M31550 38150
L31550 37500
" />
<path d="M31550 37500
L32450 37500
" />
<path d="M32450 37500
L32450 38150
" />
<path d="M31550 38850
L31550 39500
" />
</g>
<g style="fill:#000000; fill-opacity:0.0; 
stroke:#000000; stroke-width:120; stroke-opacity:1; 
stroke-linecap:round; stroke-linejoin:round;">
<path d="M30700 16000
L22700 16000
" />
<path d="M22700 16000
L22700 15000
" />
<path d="M22700 15000
L30700 15000
" />
<path d="M30700 15000
L30700 16000
" />
<path d="M29700 15000
L29700 16000
" />
<path d="M30700 15000
L38700 15000
" />
<path d="M38700 15000
L38700 16000
" />
<path d="M38700 16000
L30700 16000
" />
<path d="M30700 16000
L30700 15000
" />
<path d="M31700 16000
L31700 15000
" />
<path d="M23200 30100
L24200 30100
" />
<path d="M24200 30100
L24200 40100
" />
<path d="M24200 40100
L23200 40100
" />
<path d="M23200 40100
L23200 30100
" />
<path d="M23200 31100
L24200 31100
" />
<path d="M23200 20100
L24200 20100
" />
<path d="M24200 20100
L24200 30100
" />
<path d="M24200 30100
L23200 30100
" />
<path d="M23200 30100
L23200 20100
" />
<path d="M23200 21100
L24200 21100
" />
<path d="M38200 40100
L37200 40100
" />
<path d="M37200 40100
L37200 30100
" />
<path d="M37200 30100
L38200 30100
" />
<path d="M38200 30100
L38200 40100
" />
<path d="M38200 39100
L37200 39100
" />
<path d="M37200 20100
L38200 20100
" />
<path d="M38200 20100
L38200 30100
" />
<path d="M38200 30100
L37200 30100
" />
<path d="M37200 30100
L37200 20100
" />
<path d="M37200 21100
L38200 21100
" />
</g>
<g style="fill:#000000; fill-opacity:0.0; 
stroke:#000000; stroke-width:125; stroke-opacity:1; 
stroke-linecap:round; stroke-linejoin:round;">
<path d="M29450 36100
L31950 36100
" />
<path d="M29450 34100
L31950 34100
" />
<path d="M32950 35100 A1000 1000 0.0 0 0 31950 34100 " />
<path d="M31950 36100 A1000 1000 0.0 0 0 32950 35100 " />
<path d="M29450 34100 A1000 1000 0.0 0 0 28450 35100 " />
<path d="M28450 35100 A1000 1000 0.0 0 0 29450 36100 " />
</g>
<g style="fill:#000000; fill-opacity:0.0; 
stroke:#000000; stroke-width:120; stroke-opacity:1; 
stroke-linecap:round; stroke-linejoin:round;">
<path d="M27500 40900
L27500 40900
" />
<path d="M27500 40900
L34500 40900
" />
<path d="M34500 40900
L34500 41900
" />
<path d="M34500 41900
L27500 41900
" />
<path d="M27500 41900
L27500 40900
" />
<path d="M28500 41900
L28500 41900
" />
<path d="M28500 41900
L28500 40900
" />
<path d="M38200 42700
L37200 42700
" />
<path d="M37200 42700
L37200 40700
" />
<path d="M37200 40700
L38200 40700
" />
<path d="M38200 40700
L38200 42700
" />
</g>
<g style="fill:#000000; fill-opacity:0.0; 
stroke:#000000; stroke-width:35; stroke-opacity:1; 
stroke-linecap:round; stroke-linejoin:round;">
<path d="M29258 28063
L28975 27780
" />
<path d="M29527 27740
L29527 27767
L29500 27821
L29474 27848
L29420 27875
L29366 27875
L29325 27861
L29258 27821
L29218 27780
L29177 27713
L29164 27673
L29164 27619
L29191 27565
L29218 27538
L29272 27511
L29298 27511
" />
<path d="M29824 27497
L29662 27659
" />
<path d="M29743 27578
L29460 27295
L29474 27363
L29474 27417
L29460 27457
" />
</g>
<g style="fill:#000000; fill-opacity:0.0; 
stroke:#000000; stroke-width:50; stroke-opacity:1; 
stroke-linecap:round; stroke-linejoin:round;">
<path d="M30735 38721
L30435 38721
L30435 38650
L30450 38607
L30478 38578
L30507 38564
L30564 38550
L30607 38550
L30664 38564
L30692 38578
L30721 38607
L30735 38650
L30735 38721
" />
<path d="M30735 38264
L30735 38435
" />
<path d="M30735 38350
L30435 38350
L30478 38378
L30507 38407
L30521 38435
" />
<path d="M32135 38721
L31835 38721
L31835 38650
L31850 38607
L31878 38578
L31907 38564
L31964 38550
L32007 38550
L32064 38564
L32092 38578
L32121 38607
L32135 38650
L32135 38721
" />
<path d="M31864 38435
L31850 38421
L31835 38392
L31835 38321
L31850 38292
L31864 38278
L31892 38264
L31921 38264
L31964 38278
L32135 38450
L32135 38264
" />
</g> 
</svg>
