G04 #@! TF.FileFunction,Legend,Top*
%FSLAX46Y46*%
G04 Gerber Fmt 4.6, Leading zero omitted, Abs format (unit mm)*
G04 Created by KiCad (PCBNEW (2015-01-16 BZR 5376)-product) date 7/10/2015 8:52:56 AM*
%MOMM*%
G01*
G04 APERTURE LIST*
%ADD10C,0.150000*%
%ADD11C,0.100000*%
%ADD12C,0.254000*%
%ADD13C,0.300000*%
%ADD14C,0.317500*%
%ADD15C,0.066040*%
%ADD16C,0.177800*%
%ADD17C,0.002540*%
%ADD18C,0.406400*%
%ADD19C,0.381000*%
%ADD20C,0.127000*%
%ADD21C,0.304800*%
%ADD22C,0.088900*%
G04 APERTURE END LIST*
D10*
D11*
X57718000Y-36934000D02*
X57818000Y-36934000D01*
X57718000Y-112034000D02*
X57718000Y-36934000D01*
X98218000Y-112034000D02*
X57718000Y-112034000D01*
X98218000Y-39434000D02*
X98218000Y-112034000D01*
X98218000Y-36934000D02*
X97718000Y-36934000D01*
X98218000Y-39434000D02*
X98218000Y-36934000D01*
X97718000Y-36934000D02*
X57718000Y-36934000D01*
D12*
X90656229Y-107181952D02*
X90704610Y-107036809D01*
X90752990Y-106988428D01*
X90849752Y-106940047D01*
X90994895Y-106940047D01*
X91091657Y-106988428D01*
X91140038Y-107036809D01*
X91188419Y-107133571D01*
X91188419Y-107520618D01*
X90172419Y-107520618D01*
X90172419Y-107181952D01*
X90220800Y-107085190D01*
X90269181Y-107036809D01*
X90365943Y-106988428D01*
X90462705Y-106988428D01*
X90559467Y-107036809D01*
X90607848Y-107085190D01*
X90656229Y-107181952D01*
X90656229Y-107520618D01*
X91188419Y-106359475D02*
X91140038Y-106456237D01*
X91091657Y-106504618D01*
X90994895Y-106552999D01*
X90704610Y-106552999D01*
X90607848Y-106504618D01*
X90559467Y-106456237D01*
X90511086Y-106359475D01*
X90511086Y-106214333D01*
X90559467Y-106117571D01*
X90607848Y-106069190D01*
X90704610Y-106020809D01*
X90994895Y-106020809D01*
X91091657Y-106069190D01*
X91140038Y-106117571D01*
X91188419Y-106214333D01*
X91188419Y-106359475D01*
X91188419Y-105440237D02*
X91140038Y-105536999D01*
X91091657Y-105585380D01*
X90994895Y-105633761D01*
X90704610Y-105633761D01*
X90607848Y-105585380D01*
X90559467Y-105536999D01*
X90511086Y-105440237D01*
X90511086Y-105295095D01*
X90559467Y-105198333D01*
X90607848Y-105149952D01*
X90704610Y-105101571D01*
X90994895Y-105101571D01*
X91091657Y-105149952D01*
X91140038Y-105198333D01*
X91188419Y-105295095D01*
X91188419Y-105440237D01*
X90511086Y-104811285D02*
X90511086Y-104424237D01*
X90172419Y-104666142D02*
X91043276Y-104666142D01*
X91140038Y-104617761D01*
X91188419Y-104520999D01*
X91188419Y-104424237D01*
X91848819Y-108246333D02*
X92574533Y-108246333D01*
X92719676Y-108294713D01*
X92816438Y-108391475D01*
X92864819Y-108536618D01*
X92864819Y-108633380D01*
X92187486Y-107327095D02*
X92864819Y-107327095D01*
X92187486Y-107762523D02*
X92719676Y-107762523D01*
X92816438Y-107714142D01*
X92864819Y-107617380D01*
X92864819Y-107472238D01*
X92816438Y-107375476D01*
X92768057Y-107327095D01*
X92864819Y-106843285D02*
X92187486Y-106843285D01*
X92284248Y-106843285D02*
X92235867Y-106794904D01*
X92187486Y-106698142D01*
X92187486Y-106553000D01*
X92235867Y-106456238D01*
X92332629Y-106407857D01*
X92864819Y-106407857D01*
X92332629Y-106407857D02*
X92235867Y-106359476D01*
X92187486Y-106262714D01*
X92187486Y-106117571D01*
X92235867Y-106020809D01*
X92332629Y-105972428D01*
X92864819Y-105972428D01*
X92187486Y-105488618D02*
X93203486Y-105488618D01*
X92235867Y-105488618D02*
X92187486Y-105391856D01*
X92187486Y-105198333D01*
X92235867Y-105101571D01*
X92284248Y-105053190D01*
X92381010Y-105004809D01*
X92671295Y-105004809D01*
X92768057Y-105053190D01*
X92816438Y-105101571D01*
X92864819Y-105198333D01*
X92864819Y-105391856D01*
X92816438Y-105488618D01*
X92816438Y-104182333D02*
X92864819Y-104279095D01*
X92864819Y-104472618D01*
X92816438Y-104569380D01*
X92719676Y-104617761D01*
X92332629Y-104617761D01*
X92235867Y-104569380D01*
X92187486Y-104472618D01*
X92187486Y-104279095D01*
X92235867Y-104182333D01*
X92332629Y-104133952D01*
X92429390Y-104133952D01*
X92526152Y-104617761D01*
X92864819Y-103698523D02*
X92187486Y-103698523D01*
X92381010Y-103698523D02*
X92284248Y-103650142D01*
X92235867Y-103601761D01*
X92187486Y-103504999D01*
X92187486Y-103408238D01*
D13*
X70739000Y-102694619D02*
X70678524Y-102815571D01*
X70678524Y-102997000D01*
X70739000Y-103178428D01*
X70859952Y-103299381D01*
X70980905Y-103359857D01*
X71222810Y-103420333D01*
X71404238Y-103420333D01*
X71646143Y-103359857D01*
X71767095Y-103299381D01*
X71888048Y-103178428D01*
X71948524Y-102997000D01*
X71948524Y-102876048D01*
X71888048Y-102694619D01*
X71827571Y-102634143D01*
X71404238Y-102634143D01*
X71404238Y-102876048D01*
X71948524Y-102089857D02*
X70678524Y-102089857D01*
X71948524Y-101364143D01*
X70678524Y-101364143D01*
X71948524Y-100759381D02*
X70678524Y-100759381D01*
X70678524Y-100457000D01*
X70739000Y-100275572D01*
X70859952Y-100154619D01*
X70980905Y-100094143D01*
X71222810Y-100033667D01*
X71404238Y-100033667D01*
X71646143Y-100094143D01*
X71767095Y-100154619D01*
X71888048Y-100275572D01*
X71948524Y-100457000D01*
X71948524Y-100759381D01*
D14*
X75631524Y-102730904D02*
X75631524Y-103335666D01*
X76236286Y-103396142D01*
X76175810Y-103335666D01*
X76115333Y-103214714D01*
X76115333Y-102912333D01*
X76175810Y-102791380D01*
X76236286Y-102730904D01*
X76357238Y-102670428D01*
X76659619Y-102670428D01*
X76780571Y-102730904D01*
X76841048Y-102791380D01*
X76901524Y-102912333D01*
X76901524Y-103214714D01*
X76841048Y-103335666D01*
X76780571Y-103396142D01*
X75631524Y-102307571D02*
X76901524Y-101884237D01*
X75631524Y-101460904D01*
D13*
X87188524Y-103432428D02*
X85918524Y-103432428D01*
X85918524Y-103130047D01*
X85979000Y-102948619D01*
X86099952Y-102827666D01*
X86220905Y-102767190D01*
X86462810Y-102706714D01*
X86644238Y-102706714D01*
X86886143Y-102767190D01*
X87007095Y-102827666D01*
X87128048Y-102948619D01*
X87188524Y-103130047D01*
X87188524Y-103432428D01*
X85918524Y-102343857D02*
X85918524Y-101618142D01*
X87188524Y-101980999D02*
X85918524Y-101980999D01*
X87188524Y-100469095D02*
X86583762Y-100892428D01*
X87188524Y-101194809D02*
X85918524Y-101194809D01*
X85918524Y-100711000D01*
X85979000Y-100590047D01*
X86039476Y-100529571D01*
X86160429Y-100469095D01*
X86341857Y-100469095D01*
X86462810Y-100529571D01*
X86523286Y-100590047D01*
X86583762Y-100711000D01*
X86583762Y-101194809D01*
X80711524Y-103456619D02*
X80711524Y-102730904D01*
X81981524Y-103093761D02*
X80711524Y-103093761D01*
X80711524Y-102428523D02*
X81981524Y-101581857D01*
X80711524Y-101581857D02*
X81981524Y-102428523D01*
X79568524Y-102700667D02*
X78963762Y-103124000D01*
X79568524Y-103426381D02*
X78298524Y-103426381D01*
X78298524Y-102942572D01*
X78359000Y-102821619D01*
X78419476Y-102761143D01*
X78540429Y-102700667D01*
X78721857Y-102700667D01*
X78842810Y-102761143D01*
X78903286Y-102821619D01*
X78963762Y-102942572D01*
X78963762Y-103426381D01*
X78298524Y-102277333D02*
X79568524Y-101430667D01*
X78298524Y-101430667D02*
X79568524Y-102277333D01*
X66420999Y-59962143D02*
X66928999Y-59962143D01*
X67146713Y-60760429D02*
X66420999Y-60760429D01*
X66420999Y-59236429D01*
X67146713Y-59236429D01*
X67654713Y-60760429D02*
X68452999Y-59744429D01*
X67654713Y-59744429D02*
X68452999Y-60760429D01*
X69033570Y-59744429D02*
X69033570Y-61268429D01*
X69033570Y-59817000D02*
X69178713Y-59744429D01*
X69468999Y-59744429D01*
X69614142Y-59817000D01*
X69686713Y-59889571D01*
X69759284Y-60034714D01*
X69759284Y-60470143D01*
X69686713Y-60615286D01*
X69614142Y-60687857D01*
X69468999Y-60760429D01*
X69178713Y-60760429D01*
X69033570Y-60687857D01*
X70630141Y-60760429D02*
X70484999Y-60687857D01*
X70412427Y-60542714D01*
X70412427Y-59236429D01*
X71428427Y-60760429D02*
X71283285Y-60687857D01*
X71210713Y-60615286D01*
X71138142Y-60470143D01*
X71138142Y-60034714D01*
X71210713Y-59889571D01*
X71283285Y-59817000D01*
X71428427Y-59744429D01*
X71646142Y-59744429D01*
X71791285Y-59817000D01*
X71863856Y-59889571D01*
X71936427Y-60034714D01*
X71936427Y-60470143D01*
X71863856Y-60615286D01*
X71791285Y-60687857D01*
X71646142Y-60760429D01*
X71428427Y-60760429D01*
X72589570Y-60760429D02*
X72589570Y-59744429D01*
X72589570Y-60034714D02*
X72662142Y-59889571D01*
X72734713Y-59817000D01*
X72879856Y-59744429D01*
X73024999Y-59744429D01*
X74113571Y-60687857D02*
X73968428Y-60760429D01*
X73678142Y-60760429D01*
X73532999Y-60687857D01*
X73460428Y-60542714D01*
X73460428Y-59962143D01*
X73532999Y-59817000D01*
X73678142Y-59744429D01*
X73968428Y-59744429D01*
X74113571Y-59817000D01*
X74186142Y-59962143D01*
X74186142Y-60107286D01*
X73460428Y-60252429D01*
X75927857Y-60325000D02*
X76653571Y-60325000D01*
X75782714Y-60760429D02*
X76290714Y-59236429D01*
X76798714Y-60760429D01*
X77089000Y-59236429D02*
X77959857Y-59236429D01*
X77524428Y-60760429D02*
X77524428Y-59236429D01*
X78467857Y-60760429D02*
X78467857Y-59236429D01*
X78975857Y-60325000D01*
X79483857Y-59236429D01*
X79483857Y-60760429D01*
X80790143Y-60687857D02*
X80645000Y-60760429D01*
X80354714Y-60760429D01*
X80209571Y-60687857D01*
X80137000Y-60542714D01*
X80137000Y-59962143D01*
X80209571Y-59817000D01*
X80354714Y-59744429D01*
X80645000Y-59744429D01*
X80790143Y-59817000D01*
X80862714Y-59962143D01*
X80862714Y-60107286D01*
X80137000Y-60252429D01*
X82169000Y-59744429D02*
X82169000Y-60978143D01*
X82096429Y-61123286D01*
X82023857Y-61195857D01*
X81878714Y-61268429D01*
X81661000Y-61268429D01*
X81515857Y-61195857D01*
X82169000Y-60687857D02*
X82023857Y-60760429D01*
X81733571Y-60760429D01*
X81588429Y-60687857D01*
X81515857Y-60615286D01*
X81443286Y-60470143D01*
X81443286Y-60034714D01*
X81515857Y-59889571D01*
X81588429Y-59817000D01*
X81733571Y-59744429D01*
X82023857Y-59744429D01*
X82169000Y-59817000D01*
X83547857Y-60760429D02*
X83547857Y-59962143D01*
X83475286Y-59817000D01*
X83330143Y-59744429D01*
X83039857Y-59744429D01*
X82894714Y-59817000D01*
X83547857Y-60687857D02*
X83402714Y-60760429D01*
X83039857Y-60760429D01*
X82894714Y-60687857D01*
X82822143Y-60542714D01*
X82822143Y-60397571D01*
X82894714Y-60252429D01*
X83039857Y-60179857D01*
X83402714Y-60179857D01*
X83547857Y-60107286D01*
X84273571Y-60179857D02*
X85434714Y-60179857D01*
X86958714Y-60760429D02*
X86087857Y-60760429D01*
X86523285Y-60760429D02*
X86523285Y-59236429D01*
X86378142Y-59454143D01*
X86233000Y-59599286D01*
X86087857Y-59671857D01*
X87539286Y-59381571D02*
X87611857Y-59309000D01*
X87757000Y-59236429D01*
X88119857Y-59236429D01*
X88265000Y-59309000D01*
X88337571Y-59381571D01*
X88410143Y-59526714D01*
X88410143Y-59671857D01*
X88337571Y-59889571D01*
X87466714Y-60760429D01*
X88410143Y-60760429D01*
X89281000Y-59889571D02*
X89135858Y-59817000D01*
X89063286Y-59744429D01*
X88990715Y-59599286D01*
X88990715Y-59526714D01*
X89063286Y-59381571D01*
X89135858Y-59309000D01*
X89281000Y-59236429D01*
X89571286Y-59236429D01*
X89716429Y-59309000D01*
X89789000Y-59381571D01*
X89861572Y-59526714D01*
X89861572Y-59599286D01*
X89789000Y-59744429D01*
X89716429Y-59817000D01*
X89571286Y-59889571D01*
X89281000Y-59889571D01*
X89135858Y-59962143D01*
X89063286Y-60034714D01*
X88990715Y-60179857D01*
X88990715Y-60470143D01*
X89063286Y-60615286D01*
X89135858Y-60687857D01*
X89281000Y-60760429D01*
X89571286Y-60760429D01*
X89716429Y-60687857D01*
X89789000Y-60615286D01*
X89861572Y-60470143D01*
X89861572Y-60179857D01*
X89789000Y-60034714D01*
X89716429Y-59962143D01*
X89571286Y-59889571D01*
D12*
X91935905Y-54610000D02*
X91839143Y-54561619D01*
X91694000Y-54561619D01*
X91548858Y-54610000D01*
X91452096Y-54706762D01*
X91403715Y-54803524D01*
X91355334Y-54997048D01*
X91355334Y-55142190D01*
X91403715Y-55335714D01*
X91452096Y-55432476D01*
X91548858Y-55529238D01*
X91694000Y-55577619D01*
X91790762Y-55577619D01*
X91935905Y-55529238D01*
X91984286Y-55480857D01*
X91984286Y-55142190D01*
X91790762Y-55142190D01*
X92419715Y-55577619D02*
X92419715Y-54561619D01*
X93000286Y-55577619D01*
X93000286Y-54561619D01*
X93484096Y-55577619D02*
X93484096Y-54561619D01*
X93726001Y-54561619D01*
X93871143Y-54610000D01*
X93967905Y-54706762D01*
X94016286Y-54803524D01*
X94064667Y-54997048D01*
X94064667Y-55142190D01*
X94016286Y-55335714D01*
X93967905Y-55432476D01*
X93871143Y-55529238D01*
X93726001Y-55577619D01*
X93484096Y-55577619D01*
X91355334Y-52021619D02*
X91694001Y-53037619D01*
X92032667Y-52021619D01*
X92951905Y-52940857D02*
X92903524Y-52989238D01*
X92758381Y-53037619D01*
X92661619Y-53037619D01*
X92516477Y-52989238D01*
X92419715Y-52892476D01*
X92371334Y-52795714D01*
X92322953Y-52602190D01*
X92322953Y-52457048D01*
X92371334Y-52263524D01*
X92419715Y-52166762D01*
X92516477Y-52070000D01*
X92661619Y-52021619D01*
X92758381Y-52021619D01*
X92903524Y-52070000D01*
X92951905Y-52118381D01*
X93967905Y-52940857D02*
X93919524Y-52989238D01*
X93774381Y-53037619D01*
X93677619Y-53037619D01*
X93532477Y-52989238D01*
X93435715Y-52892476D01*
X93387334Y-52795714D01*
X93338953Y-52602190D01*
X93338953Y-52457048D01*
X93387334Y-52263524D01*
X93435715Y-52166762D01*
X93532477Y-52070000D01*
X93677619Y-52021619D01*
X93774381Y-52021619D01*
X93919524Y-52070000D01*
X93967905Y-52118381D01*
X61939715Y-54307619D02*
X62520286Y-54307619D01*
X62230001Y-55323619D02*
X62230001Y-54307619D01*
X62762191Y-54307619D02*
X63439524Y-55323619D01*
X63439524Y-54307619D02*
X62762191Y-55323619D01*
X64020096Y-54307619D02*
X64213619Y-54307619D01*
X64310381Y-54356000D01*
X64407143Y-54452762D01*
X64455524Y-54646286D01*
X64455524Y-54984952D01*
X64407143Y-55178476D01*
X64310381Y-55275238D01*
X64213619Y-55323619D01*
X64020096Y-55323619D01*
X63923334Y-55275238D01*
X63826572Y-55178476D01*
X63778191Y-54984952D01*
X63778191Y-54646286D01*
X63826572Y-54452762D01*
X63923334Y-54356000D01*
X64020096Y-54307619D01*
X62592857Y-52783619D02*
X62254191Y-52299810D01*
X62012286Y-52783619D02*
X62012286Y-51767619D01*
X62399333Y-51767619D01*
X62496095Y-51816000D01*
X62544476Y-51864381D01*
X62592857Y-51961143D01*
X62592857Y-52106286D01*
X62544476Y-52203048D01*
X62496095Y-52251429D01*
X62399333Y-52299810D01*
X62012286Y-52299810D01*
X62931524Y-51767619D02*
X63608857Y-52783619D01*
X63608857Y-51767619D02*
X62931524Y-52783619D01*
X64189429Y-51767619D02*
X64286190Y-51767619D01*
X64382952Y-51816000D01*
X64431333Y-51864381D01*
X64479714Y-51961143D01*
X64528095Y-52154667D01*
X64528095Y-52396571D01*
X64479714Y-52590095D01*
X64431333Y-52686857D01*
X64382952Y-52735238D01*
X64286190Y-52783619D01*
X64189429Y-52783619D01*
X64092667Y-52735238D01*
X64044286Y-52686857D01*
X63995905Y-52590095D01*
X63947524Y-52396571D01*
X63947524Y-52154667D01*
X63995905Y-51961143D01*
X64044286Y-51864381D01*
X64092667Y-51816000D01*
X64189429Y-51767619D01*
X91155762Y-80723619D02*
X91155762Y-79707619D01*
X91639572Y-80723619D02*
X91639572Y-79707619D01*
X92220143Y-80723619D01*
X92220143Y-79707619D01*
X92558810Y-79707619D02*
X93139381Y-79707619D01*
X92849096Y-80723619D02*
X92849096Y-79707619D01*
X94058619Y-80723619D02*
X93719953Y-80239810D01*
X93478048Y-80723619D02*
X93478048Y-79707619D01*
X93865095Y-79707619D01*
X93961857Y-79756000D01*
X94010238Y-79804381D01*
X94058619Y-79901143D01*
X94058619Y-80046286D01*
X94010238Y-80143048D01*
X93961857Y-80191429D01*
X93865095Y-80239810D01*
X93478048Y-80239810D01*
X92165715Y-78183619D02*
X92165715Y-77167619D01*
X92746286Y-78183619D01*
X92746286Y-77167619D01*
X93810667Y-78086857D02*
X93762286Y-78135238D01*
X93617143Y-78183619D01*
X93520381Y-78183619D01*
X93375239Y-78135238D01*
X93278477Y-78038476D01*
X93230096Y-77941714D01*
X93181715Y-77748190D01*
X93181715Y-77603048D01*
X93230096Y-77409524D01*
X93278477Y-77312762D01*
X93375239Y-77216000D01*
X93520381Y-77167619D01*
X93617143Y-77167619D01*
X93762286Y-77216000D01*
X93810667Y-77264381D01*
X62193715Y-80723619D02*
X62193715Y-79707619D01*
X62774286Y-80723619D01*
X62774286Y-79707619D01*
X63838667Y-80626857D02*
X63790286Y-80675238D01*
X63645143Y-80723619D01*
X63548381Y-80723619D01*
X63403239Y-80675238D01*
X63306477Y-80578476D01*
X63258096Y-80481714D01*
X63209715Y-80288190D01*
X63209715Y-80143048D01*
X63258096Y-79949524D01*
X63306477Y-79852762D01*
X63403239Y-79756000D01*
X63548381Y-79707619D01*
X63645143Y-79707619D01*
X63790286Y-79756000D01*
X63838667Y-79804381D01*
X62689619Y-78183619D02*
X62350953Y-77699810D01*
X62109048Y-78183619D02*
X62109048Y-77167619D01*
X62496095Y-77167619D01*
X62592857Y-77216000D01*
X62641238Y-77264381D01*
X62689619Y-77361143D01*
X62689619Y-77506286D01*
X62641238Y-77603048D01*
X62592857Y-77651429D01*
X62496095Y-77699810D01*
X62109048Y-77699810D01*
X63076667Y-78135238D02*
X63221810Y-78183619D01*
X63463714Y-78183619D01*
X63560476Y-78135238D01*
X63608857Y-78086857D01*
X63657238Y-77990095D01*
X63657238Y-77893333D01*
X63608857Y-77796571D01*
X63560476Y-77748190D01*
X63463714Y-77699810D01*
X63270191Y-77651429D01*
X63173429Y-77603048D01*
X63125048Y-77554667D01*
X63076667Y-77457905D01*
X63076667Y-77361143D01*
X63125048Y-77264381D01*
X63173429Y-77216000D01*
X63270191Y-77167619D01*
X63512095Y-77167619D01*
X63657238Y-77216000D01*
X63947524Y-77167619D02*
X64528095Y-77167619D01*
X64237810Y-78183619D02*
X64237810Y-77167619D01*
X91452096Y-83517619D02*
X91452096Y-82501619D01*
X91839143Y-82501619D01*
X91935905Y-82550000D01*
X91984286Y-82598381D01*
X92032667Y-82695143D01*
X92032667Y-82840286D01*
X91984286Y-82937048D01*
X91935905Y-82985429D01*
X91839143Y-83033810D01*
X91452096Y-83033810D01*
X93048667Y-83420857D02*
X93000286Y-83469238D01*
X92855143Y-83517619D01*
X92758381Y-83517619D01*
X92613239Y-83469238D01*
X92516477Y-83372476D01*
X92468096Y-83275714D01*
X92419715Y-83082190D01*
X92419715Y-82937048D01*
X92468096Y-82743524D01*
X92516477Y-82646762D01*
X92613239Y-82550000D01*
X92758381Y-82501619D01*
X92855143Y-82501619D01*
X93000286Y-82550000D01*
X93048667Y-82598381D01*
X93387334Y-82501619D02*
X94064667Y-82501619D01*
X93629239Y-83517619D01*
X91452096Y-86057619D02*
X91452096Y-85041619D01*
X91839143Y-85041619D01*
X91935905Y-85090000D01*
X91984286Y-85138381D01*
X92032667Y-85235143D01*
X92032667Y-85380286D01*
X91984286Y-85477048D01*
X91935905Y-85525429D01*
X91839143Y-85573810D01*
X91452096Y-85573810D01*
X93048667Y-85960857D02*
X93000286Y-86009238D01*
X92855143Y-86057619D01*
X92758381Y-86057619D01*
X92613239Y-86009238D01*
X92516477Y-85912476D01*
X92468096Y-85815714D01*
X92419715Y-85622190D01*
X92419715Y-85477048D01*
X92468096Y-85283524D01*
X92516477Y-85186762D01*
X92613239Y-85090000D01*
X92758381Y-85041619D01*
X92855143Y-85041619D01*
X93000286Y-85090000D01*
X93048667Y-85138381D01*
X93919524Y-85041619D02*
X93726001Y-85041619D01*
X93629239Y-85090000D01*
X93580858Y-85138381D01*
X93484096Y-85283524D01*
X93435715Y-85477048D01*
X93435715Y-85864095D01*
X93484096Y-85960857D01*
X93532477Y-86009238D01*
X93629239Y-86057619D01*
X93822762Y-86057619D01*
X93919524Y-86009238D01*
X93967905Y-85960857D01*
X94016286Y-85864095D01*
X94016286Y-85622190D01*
X93967905Y-85525429D01*
X93919524Y-85477048D01*
X93822762Y-85428667D01*
X93629239Y-85428667D01*
X93532477Y-85477048D01*
X93484096Y-85525429D01*
X93435715Y-85622190D01*
X91452096Y-88597619D02*
X91452096Y-87581619D01*
X91839143Y-87581619D01*
X91935905Y-87630000D01*
X91984286Y-87678381D01*
X92032667Y-87775143D01*
X92032667Y-87920286D01*
X91984286Y-88017048D01*
X91935905Y-88065429D01*
X91839143Y-88113810D01*
X91452096Y-88113810D01*
X93048667Y-88500857D02*
X93000286Y-88549238D01*
X92855143Y-88597619D01*
X92758381Y-88597619D01*
X92613239Y-88549238D01*
X92516477Y-88452476D01*
X92468096Y-88355714D01*
X92419715Y-88162190D01*
X92419715Y-88017048D01*
X92468096Y-87823524D01*
X92516477Y-87726762D01*
X92613239Y-87630000D01*
X92758381Y-87581619D01*
X92855143Y-87581619D01*
X93000286Y-87630000D01*
X93048667Y-87678381D01*
X93967905Y-87581619D02*
X93484096Y-87581619D01*
X93435715Y-88065429D01*
X93484096Y-88017048D01*
X93580858Y-87968667D01*
X93822762Y-87968667D01*
X93919524Y-88017048D01*
X93967905Y-88065429D01*
X94016286Y-88162190D01*
X94016286Y-88404095D01*
X93967905Y-88500857D01*
X93919524Y-88549238D01*
X93822762Y-88597619D01*
X93580858Y-88597619D01*
X93484096Y-88549238D01*
X93435715Y-88500857D01*
X91452096Y-91137619D02*
X91452096Y-90121619D01*
X91839143Y-90121619D01*
X91935905Y-90170000D01*
X91984286Y-90218381D01*
X92032667Y-90315143D01*
X92032667Y-90460286D01*
X91984286Y-90557048D01*
X91935905Y-90605429D01*
X91839143Y-90653810D01*
X91452096Y-90653810D01*
X93048667Y-91040857D02*
X93000286Y-91089238D01*
X92855143Y-91137619D01*
X92758381Y-91137619D01*
X92613239Y-91089238D01*
X92516477Y-90992476D01*
X92468096Y-90895714D01*
X92419715Y-90702190D01*
X92419715Y-90557048D01*
X92468096Y-90363524D01*
X92516477Y-90266762D01*
X92613239Y-90170000D01*
X92758381Y-90121619D01*
X92855143Y-90121619D01*
X93000286Y-90170000D01*
X93048667Y-90218381D01*
X93919524Y-90460286D02*
X93919524Y-91137619D01*
X93677620Y-90073238D02*
X93435715Y-90798952D01*
X94064667Y-90798952D01*
X91452096Y-93423619D02*
X91452096Y-92407619D01*
X91839143Y-92407619D01*
X91935905Y-92456000D01*
X91984286Y-92504381D01*
X92032667Y-92601143D01*
X92032667Y-92746286D01*
X91984286Y-92843048D01*
X91935905Y-92891429D01*
X91839143Y-92939810D01*
X91452096Y-92939810D01*
X93048667Y-93326857D02*
X93000286Y-93375238D01*
X92855143Y-93423619D01*
X92758381Y-93423619D01*
X92613239Y-93375238D01*
X92516477Y-93278476D01*
X92468096Y-93181714D01*
X92419715Y-92988190D01*
X92419715Y-92843048D01*
X92468096Y-92649524D01*
X92516477Y-92552762D01*
X92613239Y-92456000D01*
X92758381Y-92407619D01*
X92855143Y-92407619D01*
X93000286Y-92456000D01*
X93048667Y-92504381D01*
X93387334Y-92407619D02*
X94016286Y-92407619D01*
X93677620Y-92794667D01*
X93822762Y-92794667D01*
X93919524Y-92843048D01*
X93967905Y-92891429D01*
X94016286Y-92988190D01*
X94016286Y-93230095D01*
X93967905Y-93326857D01*
X93919524Y-93375238D01*
X93822762Y-93423619D01*
X93532477Y-93423619D01*
X93435715Y-93375238D01*
X93387334Y-93326857D01*
X91452096Y-96217619D02*
X91452096Y-95201619D01*
X91839143Y-95201619D01*
X91935905Y-95250000D01*
X91984286Y-95298381D01*
X92032667Y-95395143D01*
X92032667Y-95540286D01*
X91984286Y-95637048D01*
X91935905Y-95685429D01*
X91839143Y-95733810D01*
X91452096Y-95733810D01*
X93048667Y-96120857D02*
X93000286Y-96169238D01*
X92855143Y-96217619D01*
X92758381Y-96217619D01*
X92613239Y-96169238D01*
X92516477Y-96072476D01*
X92468096Y-95975714D01*
X92419715Y-95782190D01*
X92419715Y-95637048D01*
X92468096Y-95443524D01*
X92516477Y-95346762D01*
X92613239Y-95250000D01*
X92758381Y-95201619D01*
X92855143Y-95201619D01*
X93000286Y-95250000D01*
X93048667Y-95298381D01*
X93435715Y-95298381D02*
X93484096Y-95250000D01*
X93580858Y-95201619D01*
X93822762Y-95201619D01*
X93919524Y-95250000D01*
X93967905Y-95298381D01*
X94016286Y-95395143D01*
X94016286Y-95491905D01*
X93967905Y-95637048D01*
X93387334Y-96217619D01*
X94016286Y-96217619D01*
X91452096Y-98757619D02*
X91452096Y-97741619D01*
X91839143Y-97741619D01*
X91935905Y-97790000D01*
X91984286Y-97838381D01*
X92032667Y-97935143D01*
X92032667Y-98080286D01*
X91984286Y-98177048D01*
X91935905Y-98225429D01*
X91839143Y-98273810D01*
X91452096Y-98273810D01*
X93048667Y-98660857D02*
X93000286Y-98709238D01*
X92855143Y-98757619D01*
X92758381Y-98757619D01*
X92613239Y-98709238D01*
X92516477Y-98612476D01*
X92468096Y-98515714D01*
X92419715Y-98322190D01*
X92419715Y-98177048D01*
X92468096Y-97983524D01*
X92516477Y-97886762D01*
X92613239Y-97790000D01*
X92758381Y-97741619D01*
X92855143Y-97741619D01*
X93000286Y-97790000D01*
X93048667Y-97838381D01*
X94016286Y-98757619D02*
X93435715Y-98757619D01*
X93726001Y-98757619D02*
X93726001Y-97741619D01*
X93629239Y-97886762D01*
X93532477Y-97983524D01*
X93435715Y-98031905D01*
X91452096Y-101297619D02*
X91452096Y-100281619D01*
X91839143Y-100281619D01*
X91935905Y-100330000D01*
X91984286Y-100378381D01*
X92032667Y-100475143D01*
X92032667Y-100620286D01*
X91984286Y-100717048D01*
X91935905Y-100765429D01*
X91839143Y-100813810D01*
X91452096Y-100813810D01*
X93048667Y-101200857D02*
X93000286Y-101249238D01*
X92855143Y-101297619D01*
X92758381Y-101297619D01*
X92613239Y-101249238D01*
X92516477Y-101152476D01*
X92468096Y-101055714D01*
X92419715Y-100862190D01*
X92419715Y-100717048D01*
X92468096Y-100523524D01*
X92516477Y-100426762D01*
X92613239Y-100330000D01*
X92758381Y-100281619D01*
X92855143Y-100281619D01*
X93000286Y-100330000D01*
X93048667Y-100378381D01*
X93677620Y-100281619D02*
X93774381Y-100281619D01*
X93871143Y-100330000D01*
X93919524Y-100378381D01*
X93967905Y-100475143D01*
X94016286Y-100668667D01*
X94016286Y-100910571D01*
X93967905Y-101104095D01*
X93919524Y-101200857D01*
X93871143Y-101249238D01*
X93774381Y-101297619D01*
X93677620Y-101297619D01*
X93580858Y-101249238D01*
X93532477Y-101200857D01*
X93484096Y-101104095D01*
X93435715Y-100910571D01*
X93435715Y-100668667D01*
X93484096Y-100475143D01*
X93532477Y-100378381D01*
X93580858Y-100330000D01*
X93677620Y-100281619D01*
X91524667Y-75643619D02*
X91524667Y-74627619D01*
X91911714Y-74627619D01*
X92008476Y-74676000D01*
X92056857Y-74724381D01*
X92105238Y-74821143D01*
X92105238Y-74966286D01*
X92056857Y-75063048D01*
X92008476Y-75111429D01*
X91911714Y-75159810D01*
X91524667Y-75159810D01*
X92492286Y-75353333D02*
X92976095Y-75353333D01*
X92395524Y-75643619D02*
X92734191Y-74627619D01*
X93072857Y-75643619D01*
X93314762Y-74627619D02*
X93992095Y-74627619D01*
X93556667Y-75643619D01*
X91524667Y-73103619D02*
X91524667Y-72087619D01*
X91911714Y-72087619D01*
X92008476Y-72136000D01*
X92056857Y-72184381D01*
X92105238Y-72281143D01*
X92105238Y-72426286D01*
X92056857Y-72523048D01*
X92008476Y-72571429D01*
X91911714Y-72619810D01*
X91524667Y-72619810D01*
X92492286Y-72813333D02*
X92976095Y-72813333D01*
X92395524Y-73103619D02*
X92734191Y-72087619D01*
X93072857Y-73103619D01*
X93846952Y-72087619D02*
X93653429Y-72087619D01*
X93556667Y-72136000D01*
X93508286Y-72184381D01*
X93411524Y-72329524D01*
X93363143Y-72523048D01*
X93363143Y-72910095D01*
X93411524Y-73006857D01*
X93459905Y-73055238D01*
X93556667Y-73103619D01*
X93750190Y-73103619D01*
X93846952Y-73055238D01*
X93895333Y-73006857D01*
X93943714Y-72910095D01*
X93943714Y-72668190D01*
X93895333Y-72571429D01*
X93846952Y-72523048D01*
X93750190Y-72474667D01*
X93556667Y-72474667D01*
X93459905Y-72523048D01*
X93411524Y-72571429D01*
X93363143Y-72668190D01*
X91524667Y-70563619D02*
X91524667Y-69547619D01*
X91911714Y-69547619D01*
X92008476Y-69596000D01*
X92056857Y-69644381D01*
X92105238Y-69741143D01*
X92105238Y-69886286D01*
X92056857Y-69983048D01*
X92008476Y-70031429D01*
X91911714Y-70079810D01*
X91524667Y-70079810D01*
X92492286Y-70273333D02*
X92976095Y-70273333D01*
X92395524Y-70563619D02*
X92734191Y-69547619D01*
X93072857Y-70563619D01*
X93895333Y-69547619D02*
X93411524Y-69547619D01*
X93363143Y-70031429D01*
X93411524Y-69983048D01*
X93508286Y-69934667D01*
X93750190Y-69934667D01*
X93846952Y-69983048D01*
X93895333Y-70031429D01*
X93943714Y-70128190D01*
X93943714Y-70370095D01*
X93895333Y-70466857D01*
X93846952Y-70515238D01*
X93750190Y-70563619D01*
X93508286Y-70563619D01*
X93411524Y-70515238D01*
X93363143Y-70466857D01*
X91524667Y-68023619D02*
X91524667Y-67007619D01*
X91911714Y-67007619D01*
X92008476Y-67056000D01*
X92056857Y-67104381D01*
X92105238Y-67201143D01*
X92105238Y-67346286D01*
X92056857Y-67443048D01*
X92008476Y-67491429D01*
X91911714Y-67539810D01*
X91524667Y-67539810D01*
X92492286Y-67733333D02*
X92976095Y-67733333D01*
X92395524Y-68023619D02*
X92734191Y-67007619D01*
X93072857Y-68023619D01*
X93846952Y-67346286D02*
X93846952Y-68023619D01*
X93605048Y-66959238D02*
X93363143Y-67684952D01*
X93992095Y-67684952D01*
X91524667Y-65483619D02*
X91524667Y-64467619D01*
X91911714Y-64467619D01*
X92008476Y-64516000D01*
X92056857Y-64564381D01*
X92105238Y-64661143D01*
X92105238Y-64806286D01*
X92056857Y-64903048D01*
X92008476Y-64951429D01*
X91911714Y-64999810D01*
X91524667Y-64999810D01*
X92492286Y-65193333D02*
X92976095Y-65193333D01*
X92395524Y-65483619D02*
X92734191Y-64467619D01*
X93072857Y-65483619D01*
X93314762Y-64467619D02*
X93943714Y-64467619D01*
X93605048Y-64854667D01*
X93750190Y-64854667D01*
X93846952Y-64903048D01*
X93895333Y-64951429D01*
X93943714Y-65048190D01*
X93943714Y-65290095D01*
X93895333Y-65386857D01*
X93846952Y-65435238D01*
X93750190Y-65483619D01*
X93459905Y-65483619D01*
X93363143Y-65435238D01*
X93314762Y-65386857D01*
X91524667Y-62943619D02*
X91524667Y-61927619D01*
X91911714Y-61927619D01*
X92008476Y-61976000D01*
X92056857Y-62024381D01*
X92105238Y-62121143D01*
X92105238Y-62266286D01*
X92056857Y-62363048D01*
X92008476Y-62411429D01*
X91911714Y-62459810D01*
X91524667Y-62459810D01*
X92492286Y-62653333D02*
X92976095Y-62653333D01*
X92395524Y-62943619D02*
X92734191Y-61927619D01*
X93072857Y-62943619D01*
X93363143Y-62024381D02*
X93411524Y-61976000D01*
X93508286Y-61927619D01*
X93750190Y-61927619D01*
X93846952Y-61976000D01*
X93895333Y-62024381D01*
X93943714Y-62121143D01*
X93943714Y-62217905D01*
X93895333Y-62363048D01*
X93314762Y-62943619D01*
X93943714Y-62943619D01*
X91524667Y-60403619D02*
X91524667Y-59387619D01*
X91911714Y-59387619D01*
X92008476Y-59436000D01*
X92056857Y-59484381D01*
X92105238Y-59581143D01*
X92105238Y-59726286D01*
X92056857Y-59823048D01*
X92008476Y-59871429D01*
X91911714Y-59919810D01*
X91524667Y-59919810D01*
X92492286Y-60113333D02*
X92976095Y-60113333D01*
X92395524Y-60403619D02*
X92734191Y-59387619D01*
X93072857Y-60403619D01*
X93943714Y-60403619D02*
X93363143Y-60403619D01*
X93653429Y-60403619D02*
X93653429Y-59387619D01*
X93556667Y-59532762D01*
X93459905Y-59629524D01*
X93363143Y-59677905D01*
X91524667Y-57863619D02*
X91524667Y-56847619D01*
X91911714Y-56847619D01*
X92008476Y-56896000D01*
X92056857Y-56944381D01*
X92105238Y-57041143D01*
X92105238Y-57186286D01*
X92056857Y-57283048D01*
X92008476Y-57331429D01*
X91911714Y-57379810D01*
X91524667Y-57379810D01*
X92492286Y-57573333D02*
X92976095Y-57573333D01*
X92395524Y-57863619D02*
X92734191Y-56847619D01*
X93072857Y-57863619D01*
X93605048Y-56847619D02*
X93701809Y-56847619D01*
X93798571Y-56896000D01*
X93846952Y-56944381D01*
X93895333Y-57041143D01*
X93943714Y-57234667D01*
X93943714Y-57476571D01*
X93895333Y-57670095D01*
X93846952Y-57766857D01*
X93798571Y-57815238D01*
X93701809Y-57863619D01*
X93605048Y-57863619D01*
X93508286Y-57815238D01*
X93459905Y-57766857D01*
X93411524Y-57670095D01*
X93363143Y-57476571D01*
X93363143Y-57234667D01*
X93411524Y-57041143D01*
X93459905Y-56944381D01*
X93508286Y-56896000D01*
X93605048Y-56847619D01*
X61988096Y-101043619D02*
X61988096Y-100027619D01*
X62375143Y-100027619D01*
X62471905Y-100076000D01*
X62520286Y-100124381D01*
X62568667Y-100221143D01*
X62568667Y-100366286D01*
X62520286Y-100463048D01*
X62471905Y-100511429D01*
X62375143Y-100559810D01*
X61988096Y-100559810D01*
X63004096Y-101043619D02*
X63004096Y-100027619D01*
X63246001Y-100027619D01*
X63391143Y-100076000D01*
X63487905Y-100172762D01*
X63536286Y-100269524D01*
X63584667Y-100463048D01*
X63584667Y-100608190D01*
X63536286Y-100801714D01*
X63487905Y-100898476D01*
X63391143Y-100995238D01*
X63246001Y-101043619D01*
X63004096Y-101043619D01*
X63923334Y-100027619D02*
X64600667Y-100027619D01*
X64165239Y-101043619D01*
X61988096Y-98503619D02*
X61988096Y-97487619D01*
X62375143Y-97487619D01*
X62471905Y-97536000D01*
X62520286Y-97584381D01*
X62568667Y-97681143D01*
X62568667Y-97826286D01*
X62520286Y-97923048D01*
X62471905Y-97971429D01*
X62375143Y-98019810D01*
X61988096Y-98019810D01*
X63004096Y-98503619D02*
X63004096Y-97487619D01*
X63246001Y-97487619D01*
X63391143Y-97536000D01*
X63487905Y-97632762D01*
X63536286Y-97729524D01*
X63584667Y-97923048D01*
X63584667Y-98068190D01*
X63536286Y-98261714D01*
X63487905Y-98358476D01*
X63391143Y-98455238D01*
X63246001Y-98503619D01*
X63004096Y-98503619D01*
X64455524Y-97487619D02*
X64262001Y-97487619D01*
X64165239Y-97536000D01*
X64116858Y-97584381D01*
X64020096Y-97729524D01*
X63971715Y-97923048D01*
X63971715Y-98310095D01*
X64020096Y-98406857D01*
X64068477Y-98455238D01*
X64165239Y-98503619D01*
X64358762Y-98503619D01*
X64455524Y-98455238D01*
X64503905Y-98406857D01*
X64552286Y-98310095D01*
X64552286Y-98068190D01*
X64503905Y-97971429D01*
X64455524Y-97923048D01*
X64358762Y-97874667D01*
X64165239Y-97874667D01*
X64068477Y-97923048D01*
X64020096Y-97971429D01*
X63971715Y-98068190D01*
X61988096Y-95963619D02*
X61988096Y-94947619D01*
X62375143Y-94947619D01*
X62471905Y-94996000D01*
X62520286Y-95044381D01*
X62568667Y-95141143D01*
X62568667Y-95286286D01*
X62520286Y-95383048D01*
X62471905Y-95431429D01*
X62375143Y-95479810D01*
X61988096Y-95479810D01*
X63004096Y-95963619D02*
X63004096Y-94947619D01*
X63246001Y-94947619D01*
X63391143Y-94996000D01*
X63487905Y-95092762D01*
X63536286Y-95189524D01*
X63584667Y-95383048D01*
X63584667Y-95528190D01*
X63536286Y-95721714D01*
X63487905Y-95818476D01*
X63391143Y-95915238D01*
X63246001Y-95963619D01*
X63004096Y-95963619D01*
X64503905Y-94947619D02*
X64020096Y-94947619D01*
X63971715Y-95431429D01*
X64020096Y-95383048D01*
X64116858Y-95334667D01*
X64358762Y-95334667D01*
X64455524Y-95383048D01*
X64503905Y-95431429D01*
X64552286Y-95528190D01*
X64552286Y-95770095D01*
X64503905Y-95866857D01*
X64455524Y-95915238D01*
X64358762Y-95963619D01*
X64116858Y-95963619D01*
X64020096Y-95915238D01*
X63971715Y-95866857D01*
X61988096Y-93423619D02*
X61988096Y-92407619D01*
X62375143Y-92407619D01*
X62471905Y-92456000D01*
X62520286Y-92504381D01*
X62568667Y-92601143D01*
X62568667Y-92746286D01*
X62520286Y-92843048D01*
X62471905Y-92891429D01*
X62375143Y-92939810D01*
X61988096Y-92939810D01*
X63004096Y-93423619D02*
X63004096Y-92407619D01*
X63246001Y-92407619D01*
X63391143Y-92456000D01*
X63487905Y-92552762D01*
X63536286Y-92649524D01*
X63584667Y-92843048D01*
X63584667Y-92988190D01*
X63536286Y-93181714D01*
X63487905Y-93278476D01*
X63391143Y-93375238D01*
X63246001Y-93423619D01*
X63004096Y-93423619D01*
X64455524Y-92746286D02*
X64455524Y-93423619D01*
X64213620Y-92359238D02*
X63971715Y-93084952D01*
X64600667Y-93084952D01*
X61988096Y-90883619D02*
X61988096Y-89867619D01*
X62375143Y-89867619D01*
X62471905Y-89916000D01*
X62520286Y-89964381D01*
X62568667Y-90061143D01*
X62568667Y-90206286D01*
X62520286Y-90303048D01*
X62471905Y-90351429D01*
X62375143Y-90399810D01*
X61988096Y-90399810D01*
X63004096Y-90883619D02*
X63004096Y-89867619D01*
X63246001Y-89867619D01*
X63391143Y-89916000D01*
X63487905Y-90012762D01*
X63536286Y-90109524D01*
X63584667Y-90303048D01*
X63584667Y-90448190D01*
X63536286Y-90641714D01*
X63487905Y-90738476D01*
X63391143Y-90835238D01*
X63246001Y-90883619D01*
X63004096Y-90883619D01*
X63923334Y-89867619D02*
X64552286Y-89867619D01*
X64213620Y-90254667D01*
X64358762Y-90254667D01*
X64455524Y-90303048D01*
X64503905Y-90351429D01*
X64552286Y-90448190D01*
X64552286Y-90690095D01*
X64503905Y-90786857D01*
X64455524Y-90835238D01*
X64358762Y-90883619D01*
X64068477Y-90883619D01*
X63971715Y-90835238D01*
X63923334Y-90786857D01*
X61988096Y-88597619D02*
X61988096Y-87581619D01*
X62375143Y-87581619D01*
X62471905Y-87630000D01*
X62520286Y-87678381D01*
X62568667Y-87775143D01*
X62568667Y-87920286D01*
X62520286Y-88017048D01*
X62471905Y-88065429D01*
X62375143Y-88113810D01*
X61988096Y-88113810D01*
X63004096Y-88597619D02*
X63004096Y-87581619D01*
X63246001Y-87581619D01*
X63391143Y-87630000D01*
X63487905Y-87726762D01*
X63536286Y-87823524D01*
X63584667Y-88017048D01*
X63584667Y-88162190D01*
X63536286Y-88355714D01*
X63487905Y-88452476D01*
X63391143Y-88549238D01*
X63246001Y-88597619D01*
X63004096Y-88597619D01*
X63971715Y-87678381D02*
X64020096Y-87630000D01*
X64116858Y-87581619D01*
X64358762Y-87581619D01*
X64455524Y-87630000D01*
X64503905Y-87678381D01*
X64552286Y-87775143D01*
X64552286Y-87871905D01*
X64503905Y-88017048D01*
X63923334Y-88597619D01*
X64552286Y-88597619D01*
X61988096Y-85803619D02*
X61988096Y-84787619D01*
X62375143Y-84787619D01*
X62471905Y-84836000D01*
X62520286Y-84884381D01*
X62568667Y-84981143D01*
X62568667Y-85126286D01*
X62520286Y-85223048D01*
X62471905Y-85271429D01*
X62375143Y-85319810D01*
X61988096Y-85319810D01*
X63004096Y-85803619D02*
X63004096Y-84787619D01*
X63246001Y-84787619D01*
X63391143Y-84836000D01*
X63487905Y-84932762D01*
X63536286Y-85029524D01*
X63584667Y-85223048D01*
X63584667Y-85368190D01*
X63536286Y-85561714D01*
X63487905Y-85658476D01*
X63391143Y-85755238D01*
X63246001Y-85803619D01*
X63004096Y-85803619D01*
X64552286Y-85803619D02*
X63971715Y-85803619D01*
X64262001Y-85803619D02*
X64262001Y-84787619D01*
X64165239Y-84932762D01*
X64068477Y-85029524D01*
X63971715Y-85077905D01*
X61988096Y-83263619D02*
X61988096Y-82247619D01*
X62375143Y-82247619D01*
X62471905Y-82296000D01*
X62520286Y-82344381D01*
X62568667Y-82441143D01*
X62568667Y-82586286D01*
X62520286Y-82683048D01*
X62471905Y-82731429D01*
X62375143Y-82779810D01*
X61988096Y-82779810D01*
X63004096Y-83263619D02*
X63004096Y-82247619D01*
X63246001Y-82247619D01*
X63391143Y-82296000D01*
X63487905Y-82392762D01*
X63536286Y-82489524D01*
X63584667Y-82683048D01*
X63584667Y-82828190D01*
X63536286Y-83021714D01*
X63487905Y-83118476D01*
X63391143Y-83215238D01*
X63246001Y-83263619D01*
X63004096Y-83263619D01*
X64213620Y-82247619D02*
X64310381Y-82247619D01*
X64407143Y-82296000D01*
X64455524Y-82344381D01*
X64503905Y-82441143D01*
X64552286Y-82634667D01*
X64552286Y-82876571D01*
X64503905Y-83070095D01*
X64455524Y-83166857D01*
X64407143Y-83215238D01*
X64310381Y-83263619D01*
X64213620Y-83263619D01*
X64116858Y-83215238D01*
X64068477Y-83166857D01*
X64020096Y-83070095D01*
X63971715Y-82876571D01*
X63971715Y-82634667D01*
X64020096Y-82441143D01*
X64068477Y-82344381D01*
X64116858Y-82296000D01*
X64213620Y-82247619D01*
X61988096Y-75643619D02*
X61988096Y-74627619D01*
X62375143Y-74627619D01*
X62471905Y-74676000D01*
X62520286Y-74724381D01*
X62568667Y-74821143D01*
X62568667Y-74966286D01*
X62520286Y-75063048D01*
X62471905Y-75111429D01*
X62375143Y-75159810D01*
X61988096Y-75159810D01*
X63342762Y-75111429D02*
X63487905Y-75159810D01*
X63536286Y-75208190D01*
X63584667Y-75304952D01*
X63584667Y-75450095D01*
X63536286Y-75546857D01*
X63487905Y-75595238D01*
X63391143Y-75643619D01*
X63004096Y-75643619D01*
X63004096Y-74627619D01*
X63342762Y-74627619D01*
X63439524Y-74676000D01*
X63487905Y-74724381D01*
X63536286Y-74821143D01*
X63536286Y-74917905D01*
X63487905Y-75014667D01*
X63439524Y-75063048D01*
X63342762Y-75111429D01*
X63004096Y-75111429D01*
X63923334Y-74627619D02*
X64600667Y-74627619D01*
X64165239Y-75643619D01*
X61988096Y-73103619D02*
X61988096Y-72087619D01*
X62375143Y-72087619D01*
X62471905Y-72136000D01*
X62520286Y-72184381D01*
X62568667Y-72281143D01*
X62568667Y-72426286D01*
X62520286Y-72523048D01*
X62471905Y-72571429D01*
X62375143Y-72619810D01*
X61988096Y-72619810D01*
X63342762Y-72571429D02*
X63487905Y-72619810D01*
X63536286Y-72668190D01*
X63584667Y-72764952D01*
X63584667Y-72910095D01*
X63536286Y-73006857D01*
X63487905Y-73055238D01*
X63391143Y-73103619D01*
X63004096Y-73103619D01*
X63004096Y-72087619D01*
X63342762Y-72087619D01*
X63439524Y-72136000D01*
X63487905Y-72184381D01*
X63536286Y-72281143D01*
X63536286Y-72377905D01*
X63487905Y-72474667D01*
X63439524Y-72523048D01*
X63342762Y-72571429D01*
X63004096Y-72571429D01*
X64455524Y-72087619D02*
X64262001Y-72087619D01*
X64165239Y-72136000D01*
X64116858Y-72184381D01*
X64020096Y-72329524D01*
X63971715Y-72523048D01*
X63971715Y-72910095D01*
X64020096Y-73006857D01*
X64068477Y-73055238D01*
X64165239Y-73103619D01*
X64358762Y-73103619D01*
X64455524Y-73055238D01*
X64503905Y-73006857D01*
X64552286Y-72910095D01*
X64552286Y-72668190D01*
X64503905Y-72571429D01*
X64455524Y-72523048D01*
X64358762Y-72474667D01*
X64165239Y-72474667D01*
X64068477Y-72523048D01*
X64020096Y-72571429D01*
X63971715Y-72668190D01*
X61988096Y-70563619D02*
X61988096Y-69547619D01*
X62375143Y-69547619D01*
X62471905Y-69596000D01*
X62520286Y-69644381D01*
X62568667Y-69741143D01*
X62568667Y-69886286D01*
X62520286Y-69983048D01*
X62471905Y-70031429D01*
X62375143Y-70079810D01*
X61988096Y-70079810D01*
X63342762Y-70031429D02*
X63487905Y-70079810D01*
X63536286Y-70128190D01*
X63584667Y-70224952D01*
X63584667Y-70370095D01*
X63536286Y-70466857D01*
X63487905Y-70515238D01*
X63391143Y-70563619D01*
X63004096Y-70563619D01*
X63004096Y-69547619D01*
X63342762Y-69547619D01*
X63439524Y-69596000D01*
X63487905Y-69644381D01*
X63536286Y-69741143D01*
X63536286Y-69837905D01*
X63487905Y-69934667D01*
X63439524Y-69983048D01*
X63342762Y-70031429D01*
X63004096Y-70031429D01*
X64503905Y-69547619D02*
X64020096Y-69547619D01*
X63971715Y-70031429D01*
X64020096Y-69983048D01*
X64116858Y-69934667D01*
X64358762Y-69934667D01*
X64455524Y-69983048D01*
X64503905Y-70031429D01*
X64552286Y-70128190D01*
X64552286Y-70370095D01*
X64503905Y-70466857D01*
X64455524Y-70515238D01*
X64358762Y-70563619D01*
X64116858Y-70563619D01*
X64020096Y-70515238D01*
X63971715Y-70466857D01*
X61988096Y-68023619D02*
X61988096Y-67007619D01*
X62375143Y-67007619D01*
X62471905Y-67056000D01*
X62520286Y-67104381D01*
X62568667Y-67201143D01*
X62568667Y-67346286D01*
X62520286Y-67443048D01*
X62471905Y-67491429D01*
X62375143Y-67539810D01*
X61988096Y-67539810D01*
X63342762Y-67491429D02*
X63487905Y-67539810D01*
X63536286Y-67588190D01*
X63584667Y-67684952D01*
X63584667Y-67830095D01*
X63536286Y-67926857D01*
X63487905Y-67975238D01*
X63391143Y-68023619D01*
X63004096Y-68023619D01*
X63004096Y-67007619D01*
X63342762Y-67007619D01*
X63439524Y-67056000D01*
X63487905Y-67104381D01*
X63536286Y-67201143D01*
X63536286Y-67297905D01*
X63487905Y-67394667D01*
X63439524Y-67443048D01*
X63342762Y-67491429D01*
X63004096Y-67491429D01*
X64455524Y-67346286D02*
X64455524Y-68023619D01*
X64213620Y-66959238D02*
X63971715Y-67684952D01*
X64600667Y-67684952D01*
X61988096Y-65483619D02*
X61988096Y-64467619D01*
X62375143Y-64467619D01*
X62471905Y-64516000D01*
X62520286Y-64564381D01*
X62568667Y-64661143D01*
X62568667Y-64806286D01*
X62520286Y-64903048D01*
X62471905Y-64951429D01*
X62375143Y-64999810D01*
X61988096Y-64999810D01*
X63342762Y-64951429D02*
X63487905Y-64999810D01*
X63536286Y-65048190D01*
X63584667Y-65144952D01*
X63584667Y-65290095D01*
X63536286Y-65386857D01*
X63487905Y-65435238D01*
X63391143Y-65483619D01*
X63004096Y-65483619D01*
X63004096Y-64467619D01*
X63342762Y-64467619D01*
X63439524Y-64516000D01*
X63487905Y-64564381D01*
X63536286Y-64661143D01*
X63536286Y-64757905D01*
X63487905Y-64854667D01*
X63439524Y-64903048D01*
X63342762Y-64951429D01*
X63004096Y-64951429D01*
X63923334Y-64467619D02*
X64552286Y-64467619D01*
X64213620Y-64854667D01*
X64358762Y-64854667D01*
X64455524Y-64903048D01*
X64503905Y-64951429D01*
X64552286Y-65048190D01*
X64552286Y-65290095D01*
X64503905Y-65386857D01*
X64455524Y-65435238D01*
X64358762Y-65483619D01*
X64068477Y-65483619D01*
X63971715Y-65435238D01*
X63923334Y-65386857D01*
X61988096Y-62943619D02*
X61988096Y-61927619D01*
X62375143Y-61927619D01*
X62471905Y-61976000D01*
X62520286Y-62024381D01*
X62568667Y-62121143D01*
X62568667Y-62266286D01*
X62520286Y-62363048D01*
X62471905Y-62411429D01*
X62375143Y-62459810D01*
X61988096Y-62459810D01*
X63342762Y-62411429D02*
X63487905Y-62459810D01*
X63536286Y-62508190D01*
X63584667Y-62604952D01*
X63584667Y-62750095D01*
X63536286Y-62846857D01*
X63487905Y-62895238D01*
X63391143Y-62943619D01*
X63004096Y-62943619D01*
X63004096Y-61927619D01*
X63342762Y-61927619D01*
X63439524Y-61976000D01*
X63487905Y-62024381D01*
X63536286Y-62121143D01*
X63536286Y-62217905D01*
X63487905Y-62314667D01*
X63439524Y-62363048D01*
X63342762Y-62411429D01*
X63004096Y-62411429D01*
X63971715Y-62024381D02*
X64020096Y-61976000D01*
X64116858Y-61927619D01*
X64358762Y-61927619D01*
X64455524Y-61976000D01*
X64503905Y-62024381D01*
X64552286Y-62121143D01*
X64552286Y-62217905D01*
X64503905Y-62363048D01*
X63923334Y-62943619D01*
X64552286Y-62943619D01*
X61988096Y-60403619D02*
X61988096Y-59387619D01*
X62375143Y-59387619D01*
X62471905Y-59436000D01*
X62520286Y-59484381D01*
X62568667Y-59581143D01*
X62568667Y-59726286D01*
X62520286Y-59823048D01*
X62471905Y-59871429D01*
X62375143Y-59919810D01*
X61988096Y-59919810D01*
X63342762Y-59871429D02*
X63487905Y-59919810D01*
X63536286Y-59968190D01*
X63584667Y-60064952D01*
X63584667Y-60210095D01*
X63536286Y-60306857D01*
X63487905Y-60355238D01*
X63391143Y-60403619D01*
X63004096Y-60403619D01*
X63004096Y-59387619D01*
X63342762Y-59387619D01*
X63439524Y-59436000D01*
X63487905Y-59484381D01*
X63536286Y-59581143D01*
X63536286Y-59677905D01*
X63487905Y-59774667D01*
X63439524Y-59823048D01*
X63342762Y-59871429D01*
X63004096Y-59871429D01*
X64552286Y-60403619D02*
X63971715Y-60403619D01*
X64262001Y-60403619D02*
X64262001Y-59387619D01*
X64165239Y-59532762D01*
X64068477Y-59629524D01*
X63971715Y-59677905D01*
X61988096Y-57863619D02*
X61988096Y-56847619D01*
X62375143Y-56847619D01*
X62471905Y-56896000D01*
X62520286Y-56944381D01*
X62568667Y-57041143D01*
X62568667Y-57186286D01*
X62520286Y-57283048D01*
X62471905Y-57331429D01*
X62375143Y-57379810D01*
X61988096Y-57379810D01*
X63342762Y-57331429D02*
X63487905Y-57379810D01*
X63536286Y-57428190D01*
X63584667Y-57524952D01*
X63584667Y-57670095D01*
X63536286Y-57766857D01*
X63487905Y-57815238D01*
X63391143Y-57863619D01*
X63004096Y-57863619D01*
X63004096Y-56847619D01*
X63342762Y-56847619D01*
X63439524Y-56896000D01*
X63487905Y-56944381D01*
X63536286Y-57041143D01*
X63536286Y-57137905D01*
X63487905Y-57234667D01*
X63439524Y-57283048D01*
X63342762Y-57331429D01*
X63004096Y-57331429D01*
X64213620Y-56847619D02*
X64310381Y-56847619D01*
X64407143Y-56896000D01*
X64455524Y-56944381D01*
X64503905Y-57041143D01*
X64552286Y-57234667D01*
X64552286Y-57476571D01*
X64503905Y-57670095D01*
X64455524Y-57766857D01*
X64407143Y-57815238D01*
X64310381Y-57863619D01*
X64213620Y-57863619D01*
X64116858Y-57815238D01*
X64068477Y-57766857D01*
X64020096Y-57670095D01*
X63971715Y-57476571D01*
X63971715Y-57234667D01*
X64020096Y-57041143D01*
X64068477Y-56944381D01*
X64116858Y-56896000D01*
X64213620Y-56847619D01*
X96568381Y-41486667D02*
X97584381Y-41486667D01*
X97584381Y-41873714D01*
X97536000Y-41970476D01*
X97487619Y-42018857D01*
X97390857Y-42067238D01*
X97245714Y-42067238D01*
X97148952Y-42018857D01*
X97100571Y-41970476D01*
X97052190Y-41873714D01*
X97052190Y-41486667D01*
X97100571Y-42841333D02*
X97100571Y-42502667D01*
X96568381Y-42502667D02*
X97584381Y-42502667D01*
X97584381Y-42986476D01*
X97584381Y-43276762D02*
X97584381Y-43954095D01*
X96568381Y-43518667D01*
X93774381Y-41486667D02*
X94790381Y-41486667D01*
X94790381Y-41873714D01*
X94742000Y-41970476D01*
X94693619Y-42018857D01*
X94596857Y-42067238D01*
X94451714Y-42067238D01*
X94354952Y-42018857D01*
X94306571Y-41970476D01*
X94258190Y-41873714D01*
X94258190Y-41486667D01*
X94306571Y-42841333D02*
X94306571Y-42502667D01*
X93774381Y-42502667D02*
X94790381Y-42502667D01*
X94790381Y-42986476D01*
X94790381Y-43808952D02*
X94790381Y-43615429D01*
X94742000Y-43518667D01*
X94693619Y-43470286D01*
X94548476Y-43373524D01*
X94354952Y-43325143D01*
X93967905Y-43325143D01*
X93871143Y-43373524D01*
X93822762Y-43421905D01*
X93774381Y-43518667D01*
X93774381Y-43712190D01*
X93822762Y-43808952D01*
X93871143Y-43857333D01*
X93967905Y-43905714D01*
X94209810Y-43905714D01*
X94306571Y-43857333D01*
X94354952Y-43808952D01*
X94403333Y-43712190D01*
X94403333Y-43518667D01*
X94354952Y-43421905D01*
X94306571Y-43373524D01*
X94209810Y-43325143D01*
X91488381Y-41486667D02*
X92504381Y-41486667D01*
X92504381Y-41873714D01*
X92456000Y-41970476D01*
X92407619Y-42018857D01*
X92310857Y-42067238D01*
X92165714Y-42067238D01*
X92068952Y-42018857D01*
X92020571Y-41970476D01*
X91972190Y-41873714D01*
X91972190Y-41486667D01*
X92020571Y-42841333D02*
X92020571Y-42502667D01*
X91488381Y-42502667D02*
X92504381Y-42502667D01*
X92504381Y-42986476D01*
X92504381Y-43857333D02*
X92504381Y-43373524D01*
X92020571Y-43325143D01*
X92068952Y-43373524D01*
X92117333Y-43470286D01*
X92117333Y-43712190D01*
X92068952Y-43808952D01*
X92020571Y-43857333D01*
X91923810Y-43905714D01*
X91681905Y-43905714D01*
X91585143Y-43857333D01*
X91536762Y-43808952D01*
X91488381Y-43712190D01*
X91488381Y-43470286D01*
X91536762Y-43373524D01*
X91585143Y-43325143D01*
X88948381Y-41486667D02*
X89964381Y-41486667D01*
X89964381Y-41873714D01*
X89916000Y-41970476D01*
X89867619Y-42018857D01*
X89770857Y-42067238D01*
X89625714Y-42067238D01*
X89528952Y-42018857D01*
X89480571Y-41970476D01*
X89432190Y-41873714D01*
X89432190Y-41486667D01*
X89480571Y-42841333D02*
X89480571Y-42502667D01*
X88948381Y-42502667D02*
X89964381Y-42502667D01*
X89964381Y-42986476D01*
X89625714Y-43808952D02*
X88948381Y-43808952D01*
X90012762Y-43567048D02*
X89287048Y-43325143D01*
X89287048Y-43954095D01*
X86154381Y-41486667D02*
X87170381Y-41486667D01*
X87170381Y-41873714D01*
X87122000Y-41970476D01*
X87073619Y-42018857D01*
X86976857Y-42067238D01*
X86831714Y-42067238D01*
X86734952Y-42018857D01*
X86686571Y-41970476D01*
X86638190Y-41873714D01*
X86638190Y-41486667D01*
X86686571Y-42841333D02*
X86686571Y-42502667D01*
X86154381Y-42502667D02*
X87170381Y-42502667D01*
X87170381Y-42986476D01*
X87170381Y-43276762D02*
X87170381Y-43905714D01*
X86783333Y-43567048D01*
X86783333Y-43712190D01*
X86734952Y-43808952D01*
X86686571Y-43857333D01*
X86589810Y-43905714D01*
X86347905Y-43905714D01*
X86251143Y-43857333D01*
X86202762Y-43808952D01*
X86154381Y-43712190D01*
X86154381Y-43421905D01*
X86202762Y-43325143D01*
X86251143Y-43276762D01*
X83614381Y-41486667D02*
X84630381Y-41486667D01*
X84630381Y-41873714D01*
X84582000Y-41970476D01*
X84533619Y-42018857D01*
X84436857Y-42067238D01*
X84291714Y-42067238D01*
X84194952Y-42018857D01*
X84146571Y-41970476D01*
X84098190Y-41873714D01*
X84098190Y-41486667D01*
X84146571Y-42841333D02*
X84146571Y-42502667D01*
X83614381Y-42502667D02*
X84630381Y-42502667D01*
X84630381Y-42986476D01*
X84533619Y-43325143D02*
X84582000Y-43373524D01*
X84630381Y-43470286D01*
X84630381Y-43712190D01*
X84582000Y-43808952D01*
X84533619Y-43857333D01*
X84436857Y-43905714D01*
X84340095Y-43905714D01*
X84194952Y-43857333D01*
X83614381Y-43276762D01*
X83614381Y-43905714D01*
X81074381Y-41486667D02*
X82090381Y-41486667D01*
X82090381Y-41873714D01*
X82042000Y-41970476D01*
X81993619Y-42018857D01*
X81896857Y-42067238D01*
X81751714Y-42067238D01*
X81654952Y-42018857D01*
X81606571Y-41970476D01*
X81558190Y-41873714D01*
X81558190Y-41486667D01*
X81606571Y-42841333D02*
X81606571Y-42502667D01*
X81074381Y-42502667D02*
X82090381Y-42502667D01*
X82090381Y-42986476D01*
X81074381Y-43905714D02*
X81074381Y-43325143D01*
X81074381Y-43615429D02*
X82090381Y-43615429D01*
X81945238Y-43518667D01*
X81848476Y-43421905D01*
X81800095Y-43325143D01*
X78788381Y-41486667D02*
X79804381Y-41486667D01*
X79804381Y-41873714D01*
X79756000Y-41970476D01*
X79707619Y-42018857D01*
X79610857Y-42067238D01*
X79465714Y-42067238D01*
X79368952Y-42018857D01*
X79320571Y-41970476D01*
X79272190Y-41873714D01*
X79272190Y-41486667D01*
X79320571Y-42841333D02*
X79320571Y-42502667D01*
X78788381Y-42502667D02*
X79804381Y-42502667D01*
X79804381Y-42986476D01*
X79804381Y-43567048D02*
X79804381Y-43663809D01*
X79756000Y-43760571D01*
X79707619Y-43808952D01*
X79610857Y-43857333D01*
X79417333Y-43905714D01*
X79175429Y-43905714D01*
X78981905Y-43857333D01*
X78885143Y-43808952D01*
X78836762Y-43760571D01*
X78788381Y-43663809D01*
X78788381Y-43567048D01*
X78836762Y-43470286D01*
X78885143Y-43421905D01*
X78981905Y-43373524D01*
X79175429Y-43325143D01*
X79417333Y-43325143D01*
X79610857Y-43373524D01*
X79707619Y-43421905D01*
X79756000Y-43470286D01*
X79804381Y-43567048D01*
X58214381Y-41462477D02*
X59230381Y-41462477D01*
X59230381Y-41849524D01*
X59182000Y-41946286D01*
X59133619Y-41994667D01*
X59036857Y-42043048D01*
X58891714Y-42043048D01*
X58794952Y-41994667D01*
X58746571Y-41946286D01*
X58698190Y-41849524D01*
X58698190Y-41462477D01*
X58746571Y-42478477D02*
X58746571Y-42817143D01*
X58214381Y-42962286D02*
X58214381Y-42478477D01*
X59230381Y-42478477D01*
X59230381Y-42962286D01*
X59230381Y-43300953D02*
X59230381Y-43978286D01*
X58214381Y-43542858D01*
X60754381Y-41462477D02*
X61770381Y-41462477D01*
X61770381Y-41849524D01*
X61722000Y-41946286D01*
X61673619Y-41994667D01*
X61576857Y-42043048D01*
X61431714Y-42043048D01*
X61334952Y-41994667D01*
X61286571Y-41946286D01*
X61238190Y-41849524D01*
X61238190Y-41462477D01*
X61286571Y-42478477D02*
X61286571Y-42817143D01*
X60754381Y-42962286D02*
X60754381Y-42478477D01*
X61770381Y-42478477D01*
X61770381Y-42962286D01*
X61770381Y-43833143D02*
X61770381Y-43639620D01*
X61722000Y-43542858D01*
X61673619Y-43494477D01*
X61528476Y-43397715D01*
X61334952Y-43349334D01*
X60947905Y-43349334D01*
X60851143Y-43397715D01*
X60802762Y-43446096D01*
X60754381Y-43542858D01*
X60754381Y-43736381D01*
X60802762Y-43833143D01*
X60851143Y-43881524D01*
X60947905Y-43929905D01*
X61189810Y-43929905D01*
X61286571Y-43881524D01*
X61334952Y-43833143D01*
X61383333Y-43736381D01*
X61383333Y-43542858D01*
X61334952Y-43446096D01*
X61286571Y-43397715D01*
X61189810Y-43349334D01*
X63294381Y-41462477D02*
X64310381Y-41462477D01*
X64310381Y-41849524D01*
X64262000Y-41946286D01*
X64213619Y-41994667D01*
X64116857Y-42043048D01*
X63971714Y-42043048D01*
X63874952Y-41994667D01*
X63826571Y-41946286D01*
X63778190Y-41849524D01*
X63778190Y-41462477D01*
X63826571Y-42478477D02*
X63826571Y-42817143D01*
X63294381Y-42962286D02*
X63294381Y-42478477D01*
X64310381Y-42478477D01*
X64310381Y-42962286D01*
X64310381Y-43881524D02*
X64310381Y-43397715D01*
X63826571Y-43349334D01*
X63874952Y-43397715D01*
X63923333Y-43494477D01*
X63923333Y-43736381D01*
X63874952Y-43833143D01*
X63826571Y-43881524D01*
X63729810Y-43929905D01*
X63487905Y-43929905D01*
X63391143Y-43881524D01*
X63342762Y-43833143D01*
X63294381Y-43736381D01*
X63294381Y-43494477D01*
X63342762Y-43397715D01*
X63391143Y-43349334D01*
X66088381Y-41462477D02*
X67104381Y-41462477D01*
X67104381Y-41849524D01*
X67056000Y-41946286D01*
X67007619Y-41994667D01*
X66910857Y-42043048D01*
X66765714Y-42043048D01*
X66668952Y-41994667D01*
X66620571Y-41946286D01*
X66572190Y-41849524D01*
X66572190Y-41462477D01*
X66620571Y-42478477D02*
X66620571Y-42817143D01*
X66088381Y-42962286D02*
X66088381Y-42478477D01*
X67104381Y-42478477D01*
X67104381Y-42962286D01*
X66765714Y-43833143D02*
X66088381Y-43833143D01*
X67152762Y-43591239D02*
X66427048Y-43349334D01*
X66427048Y-43978286D01*
X68628381Y-41462477D02*
X69644381Y-41462477D01*
X69644381Y-41849524D01*
X69596000Y-41946286D01*
X69547619Y-41994667D01*
X69450857Y-42043048D01*
X69305714Y-42043048D01*
X69208952Y-41994667D01*
X69160571Y-41946286D01*
X69112190Y-41849524D01*
X69112190Y-41462477D01*
X69160571Y-42478477D02*
X69160571Y-42817143D01*
X68628381Y-42962286D02*
X68628381Y-42478477D01*
X69644381Y-42478477D01*
X69644381Y-42962286D01*
X69644381Y-43300953D02*
X69644381Y-43929905D01*
X69257333Y-43591239D01*
X69257333Y-43736381D01*
X69208952Y-43833143D01*
X69160571Y-43881524D01*
X69063810Y-43929905D01*
X68821905Y-43929905D01*
X68725143Y-43881524D01*
X68676762Y-43833143D01*
X68628381Y-43736381D01*
X68628381Y-43446096D01*
X68676762Y-43349334D01*
X68725143Y-43300953D01*
X70914381Y-41462477D02*
X71930381Y-41462477D01*
X71930381Y-41849524D01*
X71882000Y-41946286D01*
X71833619Y-41994667D01*
X71736857Y-42043048D01*
X71591714Y-42043048D01*
X71494952Y-41994667D01*
X71446571Y-41946286D01*
X71398190Y-41849524D01*
X71398190Y-41462477D01*
X71446571Y-42478477D02*
X71446571Y-42817143D01*
X70914381Y-42962286D02*
X70914381Y-42478477D01*
X71930381Y-42478477D01*
X71930381Y-42962286D01*
X71833619Y-43349334D02*
X71882000Y-43397715D01*
X71930381Y-43494477D01*
X71930381Y-43736381D01*
X71882000Y-43833143D01*
X71833619Y-43881524D01*
X71736857Y-43929905D01*
X71640095Y-43929905D01*
X71494952Y-43881524D01*
X70914381Y-43300953D01*
X70914381Y-43929905D01*
X73708381Y-41462477D02*
X74724381Y-41462477D01*
X74724381Y-41849524D01*
X74676000Y-41946286D01*
X74627619Y-41994667D01*
X74530857Y-42043048D01*
X74385714Y-42043048D01*
X74288952Y-41994667D01*
X74240571Y-41946286D01*
X74192190Y-41849524D01*
X74192190Y-41462477D01*
X74240571Y-42478477D02*
X74240571Y-42817143D01*
X73708381Y-42962286D02*
X73708381Y-42478477D01*
X74724381Y-42478477D01*
X74724381Y-42962286D01*
X73708381Y-43929905D02*
X73708381Y-43349334D01*
X73708381Y-43639620D02*
X74724381Y-43639620D01*
X74579238Y-43542858D01*
X74482476Y-43446096D01*
X74434095Y-43349334D01*
X75994381Y-41462477D02*
X77010381Y-41462477D01*
X77010381Y-41849524D01*
X76962000Y-41946286D01*
X76913619Y-41994667D01*
X76816857Y-42043048D01*
X76671714Y-42043048D01*
X76574952Y-41994667D01*
X76526571Y-41946286D01*
X76478190Y-41849524D01*
X76478190Y-41462477D01*
X76526571Y-42478477D02*
X76526571Y-42817143D01*
X75994381Y-42962286D02*
X75994381Y-42478477D01*
X77010381Y-42478477D01*
X77010381Y-42962286D01*
X77010381Y-43591239D02*
X77010381Y-43688000D01*
X76962000Y-43784762D01*
X76913619Y-43833143D01*
X76816857Y-43881524D01*
X76623333Y-43929905D01*
X76381429Y-43929905D01*
X76187905Y-43881524D01*
X76091143Y-43833143D01*
X76042762Y-43784762D01*
X75994381Y-43688000D01*
X75994381Y-43591239D01*
X76042762Y-43494477D01*
X76091143Y-43446096D01*
X76187905Y-43397715D01*
X76381429Y-43349334D01*
X76623333Y-43349334D01*
X76816857Y-43397715D01*
X76913619Y-43446096D01*
X76962000Y-43494477D01*
X77010381Y-43591239D01*
D15*
X83105726Y-78808240D02*
X83878028Y-79580542D01*
X83878028Y-79580542D02*
X84201317Y-79257252D01*
X83429015Y-78484950D02*
X84201317Y-79257252D01*
X83105726Y-78808240D02*
X83429015Y-78484950D01*
X83662502Y-78251464D02*
X84434804Y-79023766D01*
X84434804Y-79023766D02*
X84758093Y-78700477D01*
X83985791Y-77928174D02*
X84758093Y-78700477D01*
X83662502Y-78251464D02*
X83985791Y-77928174D01*
X84219278Y-77694688D02*
X84991580Y-78466990D01*
X84991580Y-78466990D02*
X85313073Y-78145497D01*
X84540771Y-77373195D02*
X85313073Y-78145497D01*
X84219278Y-77694688D02*
X84540771Y-77373195D01*
X84776054Y-77137912D02*
X85548356Y-77910214D01*
X85548356Y-77910214D02*
X85871645Y-77586925D01*
X85099343Y-76814623D02*
X85871645Y-77586925D01*
X84776054Y-77137912D02*
X85099343Y-76814623D01*
X85332830Y-76581136D02*
X86105132Y-77353438D01*
X86105132Y-77353438D02*
X86428421Y-77030149D01*
X85656119Y-76257847D02*
X86428421Y-77030149D01*
X85332830Y-76581136D02*
X85656119Y-76257847D01*
X85889606Y-76024360D02*
X86661908Y-76796662D01*
X86661908Y-76796662D02*
X86985197Y-76473373D01*
X86212895Y-75701071D02*
X86985197Y-76473373D01*
X85889606Y-76024360D02*
X86212895Y-75701071D01*
X86446382Y-75467584D02*
X87218684Y-76239886D01*
X87218684Y-76239886D02*
X87541973Y-75916597D01*
X86769671Y-75144295D02*
X87541973Y-75916597D01*
X86446382Y-75467584D02*
X86769671Y-75144295D01*
X87003157Y-74910808D02*
X87775459Y-75683110D01*
X87775459Y-75683110D02*
X88098749Y-75359821D01*
X87326447Y-74587519D02*
X88098749Y-75359821D01*
X87003157Y-74910808D02*
X87326447Y-74587519D01*
X82548950Y-79365015D02*
X83321252Y-80137317D01*
X83321252Y-80137317D02*
X83644542Y-79814028D01*
X82872240Y-79041726D02*
X83644542Y-79814028D01*
X82548950Y-79365015D02*
X82872240Y-79041726D01*
X81992174Y-79921791D02*
X82764477Y-80694093D01*
X82764477Y-80694093D02*
X83087766Y-80370804D01*
X82315464Y-79598502D02*
X83087766Y-80370804D01*
X81992174Y-79921791D02*
X82315464Y-79598502D01*
X81437195Y-80476771D02*
X82209497Y-81249073D01*
X82209497Y-81249073D02*
X82530990Y-80927580D01*
X81758688Y-80155278D02*
X82530990Y-80927580D01*
X81437195Y-80476771D02*
X81758688Y-80155278D01*
X80878623Y-81035343D02*
X81650925Y-81807645D01*
X81650925Y-81807645D02*
X81974214Y-81484356D01*
X81201912Y-80712054D02*
X81974214Y-81484356D01*
X80878623Y-81035343D02*
X81201912Y-80712054D01*
X80321847Y-81592119D02*
X81094149Y-82364421D01*
X81094149Y-82364421D02*
X81417438Y-82041132D01*
X80645136Y-81268830D02*
X81417438Y-82041132D01*
X80321847Y-81592119D02*
X80645136Y-81268830D01*
X79765071Y-82148895D02*
X80537373Y-82921197D01*
X80537373Y-82921197D02*
X80860662Y-82597908D01*
X80088360Y-81825606D02*
X80860662Y-82597908D01*
X79765071Y-82148895D02*
X80088360Y-81825606D01*
X79208295Y-82705671D02*
X79980597Y-83477973D01*
X79980597Y-83477973D02*
X80303886Y-83154684D01*
X79531584Y-82382382D02*
X80303886Y-83154684D01*
X79208295Y-82705671D02*
X79531584Y-82382382D01*
X78651519Y-83262447D02*
X79423821Y-84034749D01*
X79423821Y-84034749D02*
X79747110Y-83711459D01*
X78974808Y-82939157D02*
X79747110Y-83711459D01*
X78651519Y-83262447D02*
X78974808Y-82939157D01*
X72311458Y-79814028D02*
X72634748Y-80137317D01*
X72634748Y-80137317D02*
X73407050Y-79365015D01*
X73083760Y-79041726D02*
X73407050Y-79365015D01*
X72311458Y-79814028D02*
X73083760Y-79041726D01*
X72868234Y-80370804D02*
X73191523Y-80694093D01*
X73191523Y-80694093D02*
X73963826Y-79921791D01*
X73640536Y-79598502D02*
X73963826Y-79921791D01*
X72868234Y-80370804D02*
X73640536Y-79598502D01*
X73425010Y-80927580D02*
X73746503Y-81249073D01*
X73746503Y-81249073D02*
X74518805Y-80476771D01*
X74197312Y-80155278D02*
X74518805Y-80476771D01*
X73425010Y-80927580D02*
X74197312Y-80155278D01*
X73981786Y-81484356D02*
X74305075Y-81807645D01*
X74305075Y-81807645D02*
X75077377Y-81035343D01*
X74754088Y-80712054D02*
X75077377Y-81035343D01*
X73981786Y-81484356D02*
X74754088Y-80712054D01*
X74538562Y-82041132D02*
X74861851Y-82364421D01*
X74861851Y-82364421D02*
X75634153Y-81592119D01*
X75310864Y-81268830D02*
X75634153Y-81592119D01*
X74538562Y-82041132D02*
X75310864Y-81268830D01*
X75095338Y-82597908D02*
X75418627Y-82921197D01*
X75418627Y-82921197D02*
X76190929Y-82148895D01*
X75867640Y-81825606D02*
X76190929Y-82148895D01*
X75095338Y-82597908D02*
X75867640Y-81825606D01*
X75652114Y-83154684D02*
X75975403Y-83477973D01*
X75975403Y-83477973D02*
X76747705Y-82705671D01*
X76424416Y-82382382D02*
X76747705Y-82705671D01*
X75652114Y-83154684D02*
X76424416Y-82382382D01*
X76208890Y-83711459D02*
X76532179Y-84034749D01*
X76532179Y-84034749D02*
X77304481Y-83262447D01*
X76981192Y-82939157D02*
X77304481Y-83262447D01*
X76208890Y-83711459D02*
X76981192Y-82939157D01*
X71754683Y-79257252D02*
X72077972Y-79580542D01*
X72077972Y-79580542D02*
X72850274Y-78808240D01*
X72526985Y-78484950D02*
X72850274Y-78808240D01*
X71754683Y-79257252D02*
X72526985Y-78484950D01*
X71197907Y-78700477D02*
X71521196Y-79023766D01*
X71521196Y-79023766D02*
X72293498Y-78251464D01*
X71970209Y-77928174D02*
X72293498Y-78251464D01*
X71197907Y-78700477D02*
X71970209Y-77928174D01*
X70642927Y-78145497D02*
X70964420Y-78466990D01*
X70964420Y-78466990D02*
X71736722Y-77694688D01*
X71415229Y-77373195D02*
X71736722Y-77694688D01*
X70642927Y-78145497D02*
X71415229Y-77373195D01*
X70084355Y-77586925D02*
X70407644Y-77910214D01*
X70407644Y-77910214D02*
X71179946Y-77137912D01*
X70856657Y-76814623D02*
X71179946Y-77137912D01*
X70084355Y-77586925D02*
X70856657Y-76814623D01*
X69527579Y-77030149D02*
X69850868Y-77353438D01*
X69850868Y-77353438D02*
X70623170Y-76581136D01*
X70299881Y-76257847D02*
X70623170Y-76581136D01*
X69527579Y-77030149D02*
X70299881Y-76257847D01*
X68970803Y-76473373D02*
X69294092Y-76796662D01*
X69294092Y-76796662D02*
X70066394Y-76024360D01*
X69743105Y-75701071D02*
X70066394Y-76024360D01*
X68970803Y-76473373D02*
X69743105Y-75701071D01*
X68414027Y-75916597D02*
X68737316Y-76239886D01*
X68737316Y-76239886D02*
X69509618Y-75467584D01*
X69186329Y-75144295D02*
X69509618Y-75467584D01*
X68414027Y-75916597D02*
X69186329Y-75144295D01*
X67857251Y-75359821D02*
X68180541Y-75683110D01*
X68180541Y-75683110D02*
X68952843Y-74910808D01*
X68629553Y-74587519D02*
X68952843Y-74910808D01*
X67857251Y-75359821D02*
X68629553Y-74587519D01*
X71754683Y-68570748D02*
X72526985Y-69343050D01*
X72526985Y-69343050D02*
X72850274Y-69019760D01*
X72077972Y-68247458D02*
X72850274Y-69019760D01*
X71754683Y-68570748D02*
X72077972Y-68247458D01*
X71197907Y-69127523D02*
X71970209Y-69899826D01*
X71970209Y-69899826D02*
X72293498Y-69576536D01*
X71521196Y-68804234D02*
X72293498Y-69576536D01*
X71197907Y-69127523D02*
X71521196Y-68804234D01*
X70642927Y-69682503D02*
X71415229Y-70454805D01*
X71415229Y-70454805D02*
X71736722Y-70133312D01*
X70964420Y-69361010D02*
X71736722Y-70133312D01*
X70642927Y-69682503D02*
X70964420Y-69361010D01*
X70084355Y-70241075D02*
X70856657Y-71013377D01*
X70856657Y-71013377D02*
X71179946Y-70690088D01*
X70407644Y-69917786D02*
X71179946Y-70690088D01*
X70084355Y-70241075D02*
X70407644Y-69917786D01*
X69527579Y-70797851D02*
X70299881Y-71570153D01*
X70299881Y-71570153D02*
X70623170Y-71246864D01*
X69850868Y-70474562D02*
X70623170Y-71246864D01*
X69527579Y-70797851D02*
X69850868Y-70474562D01*
X68970803Y-71354627D02*
X69743105Y-72126929D01*
X69743105Y-72126929D02*
X70066394Y-71803640D01*
X69294092Y-71031338D02*
X70066394Y-71803640D01*
X68970803Y-71354627D02*
X69294092Y-71031338D01*
X68414027Y-71911403D02*
X69186329Y-72683705D01*
X69186329Y-72683705D02*
X69509618Y-72360416D01*
X68737316Y-71588114D02*
X69509618Y-72360416D01*
X68414027Y-71911403D02*
X68737316Y-71588114D01*
X67857251Y-72468179D02*
X68629553Y-73240481D01*
X68629553Y-73240481D02*
X68952843Y-72917192D01*
X68180541Y-72144890D02*
X68952843Y-72917192D01*
X67857251Y-72468179D02*
X68180541Y-72144890D01*
X72311458Y-68013972D02*
X73083760Y-68786274D01*
X73083760Y-68786274D02*
X73407050Y-68462985D01*
X72634748Y-67690683D02*
X73407050Y-68462985D01*
X72311458Y-68013972D02*
X72634748Y-67690683D01*
X72868234Y-67457196D02*
X73640536Y-68229498D01*
X73640536Y-68229498D02*
X73963826Y-67906209D01*
X73191523Y-67133907D02*
X73963826Y-67906209D01*
X72868234Y-67457196D02*
X73191523Y-67133907D01*
X73425010Y-66900420D02*
X74197312Y-67672722D01*
X74197312Y-67672722D02*
X74518805Y-67351229D01*
X73746503Y-66578927D02*
X74518805Y-67351229D01*
X73425010Y-66900420D02*
X73746503Y-66578927D01*
X73981786Y-66343644D02*
X74754088Y-67115946D01*
X74754088Y-67115946D02*
X75077377Y-66792657D01*
X74305075Y-66020355D02*
X75077377Y-66792657D01*
X73981786Y-66343644D02*
X74305075Y-66020355D01*
X74538562Y-65786868D02*
X75310864Y-66559170D01*
X75310864Y-66559170D02*
X75634153Y-66235881D01*
X74861851Y-65463579D02*
X75634153Y-66235881D01*
X74538562Y-65786868D02*
X74861851Y-65463579D01*
X75095338Y-65230092D02*
X75867640Y-66002394D01*
X75867640Y-66002394D02*
X76190929Y-65679105D01*
X75418627Y-64906803D02*
X76190929Y-65679105D01*
X75095338Y-65230092D02*
X75418627Y-64906803D01*
X75652114Y-64673316D02*
X76424416Y-65445618D01*
X76424416Y-65445618D02*
X76747705Y-65122329D01*
X75975403Y-64350027D02*
X76747705Y-65122329D01*
X75652114Y-64673316D02*
X75975403Y-64350027D01*
X76208890Y-64116541D02*
X76981192Y-64888843D01*
X76981192Y-64888843D02*
X77304481Y-64565553D01*
X76532179Y-63793251D02*
X77304481Y-64565553D01*
X76208890Y-64116541D02*
X76532179Y-63793251D01*
X82548950Y-68462985D02*
X82872240Y-68786274D01*
X82872240Y-68786274D02*
X83644542Y-68013972D01*
X83321252Y-67690683D02*
X83644542Y-68013972D01*
X82548950Y-68462985D02*
X83321252Y-67690683D01*
X81992174Y-67906209D02*
X82315464Y-68229498D01*
X82315464Y-68229498D02*
X83087766Y-67457196D01*
X82764477Y-67133907D02*
X83087766Y-67457196D01*
X81992174Y-67906209D02*
X82764477Y-67133907D01*
X81437195Y-67351229D02*
X81758688Y-67672722D01*
X81758688Y-67672722D02*
X82530990Y-66900420D01*
X82209497Y-66578927D02*
X82530990Y-66900420D01*
X81437195Y-67351229D02*
X82209497Y-66578927D01*
X80878623Y-66792657D02*
X81201912Y-67115946D01*
X81201912Y-67115946D02*
X81974214Y-66343644D01*
X81650925Y-66020355D02*
X81974214Y-66343644D01*
X80878623Y-66792657D02*
X81650925Y-66020355D01*
X80321847Y-66235881D02*
X80645136Y-66559170D01*
X80645136Y-66559170D02*
X81417438Y-65786868D01*
X81094149Y-65463579D02*
X81417438Y-65786868D01*
X80321847Y-66235881D02*
X81094149Y-65463579D01*
X79765071Y-65679105D02*
X80088360Y-66002394D01*
X80088360Y-66002394D02*
X80860662Y-65230092D01*
X80537373Y-64906803D02*
X80860662Y-65230092D01*
X79765071Y-65679105D02*
X80537373Y-64906803D01*
X79208295Y-65122329D02*
X79531584Y-65445618D01*
X79531584Y-65445618D02*
X80303886Y-64673316D01*
X79980597Y-64350027D02*
X80303886Y-64673316D01*
X79208295Y-65122329D02*
X79980597Y-64350027D01*
X78651519Y-64565553D02*
X78974808Y-64888843D01*
X78974808Y-64888843D02*
X79747110Y-64116541D01*
X79423821Y-63793251D02*
X79747110Y-64116541D01*
X78651519Y-64565553D02*
X79423821Y-63793251D01*
X83105726Y-69019760D02*
X83429015Y-69343050D01*
X83429015Y-69343050D02*
X84201317Y-68570748D01*
X83878028Y-68247458D02*
X84201317Y-68570748D01*
X83105726Y-69019760D02*
X83878028Y-68247458D01*
X83662502Y-69576536D02*
X83985791Y-69899826D01*
X83985791Y-69899826D02*
X84758093Y-69127523D01*
X84434804Y-68804234D02*
X84758093Y-69127523D01*
X83662502Y-69576536D02*
X84434804Y-68804234D01*
X84219278Y-70133312D02*
X84540771Y-70454805D01*
X84540771Y-70454805D02*
X85313073Y-69682503D01*
X84991580Y-69361010D02*
X85313073Y-69682503D01*
X84219278Y-70133312D02*
X84991580Y-69361010D01*
X84776054Y-70690088D02*
X85099343Y-71013377D01*
X85099343Y-71013377D02*
X85871645Y-70241075D01*
X85548356Y-69917786D02*
X85871645Y-70241075D01*
X84776054Y-70690088D02*
X85548356Y-69917786D01*
X85332830Y-71246864D02*
X85656119Y-71570153D01*
X85656119Y-71570153D02*
X86428421Y-70797851D01*
X86105132Y-70474562D02*
X86428421Y-70797851D01*
X85332830Y-71246864D02*
X86105132Y-70474562D01*
X85889606Y-71803640D02*
X86212895Y-72126929D01*
X86212895Y-72126929D02*
X86985197Y-71354627D01*
X86661908Y-71031338D02*
X86985197Y-71354627D01*
X85889606Y-71803640D02*
X86661908Y-71031338D01*
X86446382Y-72360416D02*
X86769671Y-72683705D01*
X86769671Y-72683705D02*
X87541973Y-71911403D01*
X87218684Y-71588114D02*
X87541973Y-71911403D01*
X86446382Y-72360416D02*
X87218684Y-71588114D01*
X87003157Y-72917192D02*
X87326447Y-73240481D01*
X87326447Y-73240481D02*
X88098749Y-72468179D01*
X87775459Y-72144890D02*
X88098749Y-72468179D01*
X87003157Y-72917192D02*
X87775459Y-72144890D01*
D16*
X87928124Y-73914000D02*
X77978000Y-83864124D01*
X77978000Y-83864124D02*
X68027876Y-73914000D01*
X68027876Y-73914000D02*
X77672671Y-64269205D01*
X78283329Y-64269205D02*
X87928124Y-73914000D01*
X77672671Y-64269205D02*
X78283329Y-64269205D01*
D17*
X78175566Y-65565954D02*
G75*
G03X78175566Y-65565954I-197566J0D01*
G01*
D12*
X87757000Y-54102000D02*
X88392000Y-54737000D01*
X87757000Y-46482000D02*
X88392000Y-45847000D01*
X68707000Y-46482000D02*
X68072000Y-45847000D01*
X68707000Y-54102000D02*
X68072000Y-54737000D01*
X76327000Y-45847000D02*
X76327000Y-46482000D01*
X76327000Y-46482000D02*
X68707000Y-46482000D01*
X68707000Y-46482000D02*
X68707000Y-54102000D01*
X68707000Y-54102000D02*
X87757000Y-54102000D01*
X87757000Y-54102000D02*
X87757000Y-46482000D01*
X87757000Y-46482000D02*
X80137000Y-46482000D01*
X80137000Y-46482000D02*
X80137000Y-45847000D01*
X88392000Y-45847000D02*
X68072000Y-45847000D01*
X68072000Y-54737000D02*
X88392000Y-54737000D01*
X88392000Y-54737000D02*
X88392000Y-45847000D01*
X68072000Y-54737000D02*
X68072000Y-45847000D01*
D18*
X85730080Y-48323500D02*
X85031580Y-47254160D01*
X85031580Y-47254160D02*
X84330540Y-48323500D01*
X84330540Y-48323500D02*
X85730080Y-48323500D01*
D19*
X62738000Y-103124000D02*
X66548000Y-103124000D01*
X66548000Y-103124000D02*
X66548000Y-110109000D01*
X66548000Y-110109000D02*
X58928000Y-110109000D01*
X58928000Y-110109000D02*
X58928000Y-103124000D01*
X58928000Y-103124000D02*
X62738000Y-103124000D01*
X64008000Y-106934000D02*
G75*
G03X64008000Y-106934000I-1270000J0D01*
G01*
D20*
X76581000Y-100330000D02*
X78867000Y-100330000D01*
X78867000Y-100330000D02*
X78867000Y-98679000D01*
X76581000Y-96901000D02*
X76581000Y-95250000D01*
X76581000Y-95250000D02*
X78867000Y-95250000D01*
X78867000Y-95250000D02*
X78867000Y-96901000D01*
X76581000Y-98679000D02*
X76581000Y-100330000D01*
X80137000Y-100330000D02*
X82423000Y-100330000D01*
X82423000Y-100330000D02*
X82423000Y-98679000D01*
X80137000Y-96901000D02*
X80137000Y-95250000D01*
X80137000Y-95250000D02*
X82423000Y-95250000D01*
X82423000Y-95250000D02*
X82423000Y-96901000D01*
X80137000Y-98679000D02*
X80137000Y-100330000D01*
D21*
X77978000Y-40640000D02*
X57658000Y-40640000D01*
X57658000Y-40640000D02*
X57658000Y-38100000D01*
X57658000Y-38100000D02*
X77978000Y-38100000D01*
X77978000Y-38100000D02*
X77978000Y-40640000D01*
X75438000Y-38100000D02*
X75438000Y-40640000D01*
X77978000Y-38100000D02*
X98298000Y-38100000D01*
X98298000Y-38100000D02*
X98298000Y-40640000D01*
X98298000Y-40640000D02*
X77978000Y-40640000D01*
X77978000Y-40640000D02*
X77978000Y-38100000D01*
X80518000Y-40640000D02*
X80518000Y-38100000D01*
X58928000Y-76454000D02*
X61468000Y-76454000D01*
X61468000Y-76454000D02*
X61468000Y-101854000D01*
X61468000Y-101854000D02*
X58928000Y-101854000D01*
X58928000Y-101854000D02*
X58928000Y-76454000D01*
X58928000Y-78994000D02*
X61468000Y-78994000D01*
X58928000Y-51054000D02*
X61468000Y-51054000D01*
X61468000Y-51054000D02*
X61468000Y-76454000D01*
X61468000Y-76454000D02*
X58928000Y-76454000D01*
X58928000Y-76454000D02*
X58928000Y-51054000D01*
X58928000Y-53594000D02*
X61468000Y-53594000D01*
X97028000Y-101854000D02*
X94488000Y-101854000D01*
X94488000Y-101854000D02*
X94488000Y-76454000D01*
X94488000Y-76454000D02*
X97028000Y-76454000D01*
X97028000Y-76454000D02*
X97028000Y-101854000D01*
X97028000Y-99314000D02*
X94488000Y-99314000D01*
X94488000Y-51054000D02*
X97028000Y-51054000D01*
X97028000Y-51054000D02*
X97028000Y-76454000D01*
X97028000Y-76454000D02*
X94488000Y-76454000D01*
X94488000Y-76454000D02*
X94488000Y-51054000D01*
X94488000Y-53594000D02*
X97028000Y-53594000D01*
D14*
X74803000Y-91694000D02*
X81153000Y-91694000D01*
X74803000Y-86614000D02*
X81153000Y-86614000D01*
X83693000Y-89154000D02*
G75*
G03X81153000Y-86614000I-2540000J0D01*
G01*
X81153000Y-91694000D02*
G75*
G03X83693000Y-89154000I0J2540000D01*
G01*
X74803000Y-86614000D02*
G75*
G03X72263000Y-89154000I0J-2540000D01*
G01*
X72263000Y-89154000D02*
G75*
G03X74803000Y-91694000I2540000J0D01*
G01*
D21*
X69850000Y-103886000D02*
X69850000Y-103886000D01*
X69850000Y-103886000D02*
X87630000Y-103886000D01*
X87630000Y-103886000D02*
X87630000Y-106426000D01*
X87630000Y-106426000D02*
X69850000Y-106426000D01*
X69850000Y-106426000D02*
X69850000Y-103886000D01*
X72390000Y-106426000D02*
X72390000Y-106426000D01*
X72390000Y-106426000D02*
X72390000Y-103886000D01*
X97028000Y-108458000D02*
X94488000Y-108458000D01*
X94488000Y-108458000D02*
X94488000Y-103378000D01*
X94488000Y-103378000D02*
X97028000Y-103378000D01*
X97028000Y-103378000D02*
X97028000Y-108458000D01*
D22*
X74316707Y-71281759D02*
X73598286Y-70563338D01*
X75000917Y-70460706D02*
X75000917Y-70529128D01*
X74932496Y-70665970D01*
X74864075Y-70734391D01*
X74727233Y-70802811D01*
X74590391Y-70802811D01*
X74487760Y-70768601D01*
X74316707Y-70665969D01*
X74214076Y-70563338D01*
X74111444Y-70392285D01*
X74077234Y-70289654D01*
X74077234Y-70152812D01*
X74145654Y-70015970D01*
X74214075Y-69947549D01*
X74350917Y-69879128D01*
X74419338Y-69879128D01*
X75753548Y-69844918D02*
X75343022Y-70255443D01*
X75548285Y-70050180D02*
X74829865Y-69331760D01*
X74864075Y-69502812D01*
X74864075Y-69639654D01*
X74829865Y-69742286D01*
D20*
X78068714Y-98352428D02*
X77306714Y-98352428D01*
X77306714Y-98171000D01*
X77343000Y-98062143D01*
X77415571Y-97989571D01*
X77488143Y-97953286D01*
X77633286Y-97917000D01*
X77742143Y-97917000D01*
X77887286Y-97953286D01*
X77959857Y-97989571D01*
X78032429Y-98062143D01*
X78068714Y-98171000D01*
X78068714Y-98352428D01*
X78068714Y-97191286D02*
X78068714Y-97626714D01*
X78068714Y-97409000D02*
X77306714Y-97409000D01*
X77415571Y-97481571D01*
X77488143Y-97554143D01*
X77524429Y-97626714D01*
X81624714Y-98352428D02*
X80862714Y-98352428D01*
X80862714Y-98171000D01*
X80899000Y-98062143D01*
X80971571Y-97989571D01*
X81044143Y-97953286D01*
X81189286Y-97917000D01*
X81298143Y-97917000D01*
X81443286Y-97953286D01*
X81515857Y-97989571D01*
X81588429Y-98062143D01*
X81624714Y-98171000D01*
X81624714Y-98352428D01*
X80935286Y-97626714D02*
X80899000Y-97590428D01*
X80862714Y-97517857D01*
X80862714Y-97336428D01*
X80899000Y-97263857D01*
X80935286Y-97227571D01*
X81007857Y-97191286D01*
X81080429Y-97191286D01*
X81189286Y-97227571D01*
X81624714Y-97663000D01*
X81624714Y-97191286D01*
M02*
